<svg version="1.1" id="Layer_1" xmlns="http://www.w3.org/2000/svg" x="0" y="0" viewBox="0 0 500 427" xml:space="preserve"><style>.st1{fill-rule:evenodd;clip-rule:evenodd;fill:#fff}</style><path id="Accent" d="M330.6 161.3c-4.2 8.1-8.5 16-13 24-2.3 4.2-9.9 21.7-11.9 22.3-2.1.7-15-6.9-18.7-8.3-6.6-2.6-12.8-5.1-19.7-6.8-7.7-1.8-15.4-3.2-23.4-2.5-3.5.3-9.3 1.1-5.8-3.8 2.5-3.6 5-6.9 8.4-9.5 2.5-1.9 6.2-5.3 9.1-6.6 3.1-1.3 7.6-1 10.9-.9 3.6.1 20.6 5.4 21.5-.1 1.7 1.6 2.7 1 4.7 1.7 2.2.9 3.6 2.6 5.9 3.6 1.4.7 4.1 3.3 5.7 3.3 2.1 0 2.7-1.7 4.2-3 3.4-2.9 8-4.8 11.7-7.4 3.5-2.2 6.6-4.5 10.4-6zm-37.3-64.1c-.3 3.7.7 7.1.7 11 0 1.7-.1 3.3.4 4.9.5 1.4.1 4 .4 5.5-4.2-1.3-12.1-3.2-16.5-1.5-4.1 1.7-4.7 9.4-4.8 13.1-.1 2.6 1 6.5.2 8.9-.4 1.1-.4 1.5-.4 1.6-.1 0-.4 0-1.6.8s-2.6 1.3-3.7 2.2c-2.1 1.7-2.4 3.6-3.5 6-1 2.4-3.7 4.5-6.6 4.4 2.4-4.3 5.7-8.4 3.8-13.5-1.4-3.8 1.1-8.4 3.1-12 .7-1.2 7.9-10.5 4.7-11.1-2.1-.4-6.9 9.4-7.8 11.1-2.6-1.7-3.7-3.9-1.7-6.5 1.5-2 3.4-3.7 4.9-5.8 2.4-3.4 4.7-7.4 7.6-10.4 4.8-5.1 13.6-8.7 20.8-8.7zm-20 43.6zm87.2-49.4c3.2 3.1 7.2 5.6 10.3 8.8 2.7 2.8 6.3 7.5 7.6 11.3-6.6 1.3-17.5 5.2-20.2 12.1-10.3-9.4-14.2 7.8-16.3 15-6-2.6-4.8-11.2-4.7-16.3.1-4 2.5-8.7-3.3-9.1-4.3-.2-8.6 1.5-12.5 3.2-4.9 2.1-10 5.2-14 8.7l-4.1-3.2c6.7-3.8 10.3-11 14.2-17.7 1.3-2.1 2.9-4.5 3.9-6.8.6-1.6 1.1-4.8 1.8-6.2 1.1-2.2 11.8-2.8 14.6-3.4 7.6-1.3 16.6-2.2 22.7 3.6z" fill-rule="evenodd" clip-rule="evenodd" fill="#893168"/><g id="Ink" transform="translate(67.995 33.043)"><path id="ink-layer" class="st1" d="M290.8 107.5c2.8-.1 5.5.5 8.3.2l-7.2-6.3c-1.1 1.9-1.2 4-1.1 6.1zm-65.6-43c-7.2 0-15.9 3.6-20.9 8.9-2.6 2.8-4.8 6.5-7 9.6-1.5 2.1-3 4.1-4.8 6-2.6 2.7-1.9 3.3 1.1 5.3.9-1.8 5.9-11.2 8-10.8 3.2.6-3 10.6-3.6 11.9-2 3.7-5.2 8.8-3.8 12.7 1.9 5.1-.9 8-3.3 12.4 2.5.1 2.8-.9 3.6-3.1 1.1-2.8 2.3-5.1 4.7-7 1.8-1.5 4.8-2.1 5.7-3.9 1.1-2.2.4-6.6.5-9 .1-3.7.1-12.5 4.2-14.2 4.3-1.7 12-.1 16.3 1.2-.5-3.3-2.2-5.4-2.2-9.1.1-3.8 1.2-7.2 1.5-10.9zm-55 61c3.7-1.2 7.3-2.4 11.1-3.2 4-.8 4.3-1.8 6.6-5.3 1.7-2.6 3.8-4.7 3.3-7.9-.3-2.1-1.4-3.1-1.1-5.4.2-1.4.9-3 1.4-4.4.6-1.7 1.8-3.6-1-3.7-1.6 0-1.7.8-2.7 2.2-2 2.6-4.2 4.9-6.3 7.4-3.6 4.3-7.5 8.9-11.6 12.9-4.5 4.4-8.3 9.7-11.2 15.3-.5 1-3.8 7.1-2.4 8.3 1.3 1.1 8.4-1.5 9.6-1.8 5.6-1.3 11.9-1.8 17.2-4.1 2.7-1.2 8.6-2.6 10.7-4.5 2-1.7 1.9-5.9.7-8.3-3.2 2.1-26.4 9.6-24.3 2.5zm69.6-34.2c3.7-3.4 8.2-6.1 12.8-8.1 4.1-1.8 9.3-3.8 13.8-3.5 5.7.4 3.3 5 3.3 8.9 0 5.2-2.3 12.7 3.9 15.4 2-7.2 6.3-24.3 16.6-14.8 2.6-6.9 12-9.3 18.5-10.6-1.2-3.5-4.8-6.7-7.3-9.3-3.1-3.3-5.6-7.1-8.8-10.4-6.2-6.4-17.5-4.3-25.3-2.7-2.6.5-10.2 1.2-11.5 3.1-.8 1.2-.4 4.2-.9 5.6-.8 2-2.2 3.9-3.3 5.8-4.1 6.9-8.2 13.8-15.2 17.7l3.4 2.9zm22.8 36.9c-3.7 1.4-6.4 3.8-9.7 5.8-4 2.4-8.6 4.7-12.2 7.7-1.3 1.1-2 3-3.8 3.1-1.6.1-3.9-1.7-5.3-2.3-2.3-1.1-4.5-2.7-6.9-3.6-1.9-.8-2.8-.6-4.4-2.1-.9 5.6-17.9.4-21.5.3-3.3-.1-7.8.3-10.9 1.6-2.9 1.3-5.2 4-7.7 5.9-3.4 2.6-6.7 5.2-9.2 8.8-3.5 4.9 1.8 3.5 5.2 3.2 7.9-.7 15.7 1.2 23.3 3 6.8 1.6 13.6 3.6 20.2 6.2 3.7 1.5 7.6 2.9 11 4.8 1.8 1 4.8 3.5 6.9 2.8 1.9-.7 3.8-6.2 5-8.4 2.3-4.3 4.6-8.5 7-12.7 4.5-8 8.9-15.9 13-24.1zm-45.4 105.9c2.3-1.3 6-1 8.5-1.5 2.8-.6 5.7-1.6 8.4-2.7s5.3-2.2 7.8-3.5c1.1-.6 2.7-1.2 3.7-2.1.9-.7 1.2-1.9 2-2.6 2.1-1.6 2.7-.6 2.9-3.7.3-3.4-1.6-5.3-4-7.8-2.1-2.3-4.9-4.2-7.5-5.8-1.2-.7-2.4-1.5-3.6-2.2-1.8-1-4.2-2.7-5.2-.5 2 .5 2.4 3 .6 3.9-1 .5-2.5-.2-3.6.3-1.7.8-3.4 3.1-4.8 4.3-4.8 4-9.4 5.6-15.7 5.9-13.1.7-26.9-.8-39.7-2.8-3.3-.5-6.6 0-10-.1-3.3-.1-6.6-.8-9.8-1.4-6.2-1.1-12.6-1.9-18.7-3.5-7.3-1.9-14.7-4.3-21.6-7.5-6.6-3-14.1-8-21.5-8.4 3.2 3.1 7.9 4.3 11.7 6.3 3.1 1.7 8 2.7 9.9 5.5 1.3 1.8 1.9 5.1 2.9 7.2 1.1 2.3 2.1 4.7 3 7 1 2.4 2 4.7 2.8 7.2.5 1.5.7 4.7 1.9 5.7 1.9 1.7 8.2 2.4 10.7 2.9 4.7 1 10.1.9 15 1 2 0 4 .3 5.9.3 2.7.1 2.4-.4 2.4-2.7 0-1.4 0-3.9 1.9-2.8 1.3.8.4 4.3.2 5.5 10.7 1.1 21.8 1.6 32.4 1.2 10.8-.1 20.8-1.4 31.1-2.6zm48.2-24.5c1.9-13.5 4.2-27.3 6.7-40.6 2.6-13.5 5.7-26.8 9.2-40.3-2.3-.6-4.6-1.1-7-1.7-.1 2.8-1 5.3-1.5 8.1-.6 3.9-1.6 7.7-2.3 11.5-1.2 7.4-3.5 14.6-5.5 21.8-2 7.3-2.7 14.9-4.6 22.2-1.5 6.1-2.3 12.7-3.2 19-2.1 15.1-5.1 30.3-7.3 45.4-2.1 14.2-2.3 28.7-2.2 43 .1 8.7 1.4 17.5 1.3 26.2 0 2.2.2 4.3.3 6.5.1 1.5-.7 5.8 0 7 .4.8 2.3 1.6 3 2.7 1.1 1.8 1.3 3.9 3 5.2 1.4-5.6.7-12.9.4-18.6-.3-5.5.3-11.1.4-16.6.2-10.9.8-21.6 1.4-32.5.6-11.9 2.3-24.2 4-36 1.7-10.6 2.7-21.6 3.9-32.3zM215 40.1c-.7-.1-1.5-.1-2.2-.2.1 1.6-.2 4.1.9 4.9.8.6 2.5.4 3.6.6 3.3.7 7.2 1.2 10.5 0 1.3-.5.5-1.2 2.2-.9 2.1.4 1.4.7 2 2 .5 1 .7 2.8 1.3 4 .7 1.7 2.2 4.6 1.6 6.5-.6 1.9-2.9 2.4-3.8 4.5-.7 1.6-.5 3.8-.9 5.6-.5 2.3-1.1 4.6-1.4 6.9-.3 2.9-.2 6.4 3.4 6.9 3.4.4 5.8-.7 8.1-3.1 4.3-4.7 9.3-11.3 11.8-17.3.3-.7 1-1.8.9-2.6-.2-1.5-.3 0-.8-1-.4-1-1.1-1.9-1.5-2.9-1.5-3.9-2.5-7.9-3.1-12-.3-1.9-.4-3.7-.3-5.6 0-.6.4-2.6.2-3s-1.5-.6-1.8-1.1c-.7-.8-1.9-3.1-2.7-3.7-1-.8-3.1-.2-3.5-1.7-.6-2.4 14.1-6.3 7.2-9.5-5.2-2.4-13.1 9.7-14.9.2-.3-1.6.3-3.9-.4-5.4-.8-1.7-3-2.3-4.5-3.1-1.9-1-3.9-2.1-5.8-3.2-1.3-.8-3.1-2.8-4.5-3 .5 2.8-.5 5.6-.5 8.4 3-.8 5-.8 8 .6 1.4.7 6.7 4.5 4 6.4-2.2-1.3-4.5-2.4-6.9-3.1-1-.3-2.1-.7-3.1-.7-2.3 0-2 .2-2.9 2-.8 1.7-.7 6.1-2.5 7.2-1.9 1.1-.4-.4-2.1-.1-.9.2-2 .9-2.8 1.3 1.2 1.3 3.6 2.4 4.3 3.9 1.1 2.1.7 6.3.9 8.6 1.5-.5 3.1-.6 4.6-1 1.4-.4 3.4-2 3.5.4 0 2.6-4.2 3.3-6.1 3.3zm19.4 69.6c.1-2.3.2-4.6.5-6.8.2-1.5 1.6-6 .8-7.3-.9-1.5-3.9-1.6-5.3-1.9-2.8-.7-5.4-1.2-8.2-1.7-2.6-.4-5-.5-7.6-.6-2.8-.1-3.5-.9-4.2 2.2-.5 2.5-1.2 5-1.2 7.5-.1 2.4.6 4.4-1.7 6 5.1 0 11.8-4.6 16.5-.5 6.7 5.8-5 7.5-8 8.8 2.6 1.2 6.3 2.2 7.5 5 1.3 3.2-.6 4.5-3.6 4.8.3 1.2 1.4 2 1.7 3.5.5 2.2-1.1 1.4.9 3.1 2.6 2.2 7.8 3.7 11 5.1.7.3 1.5.6 2.2.9 1.2 1 2 .8 2.6-.6 1.6-1 3-3.3 4.5-4.6 3.2-2.9 6.7-5.5 10.5-7.7-1.6-.6-3.4.8-4.9.1-1.2-.6-.8-1.6-1.5-2.4.3-1 0-1.4-.9-1.1-.5 0-.9 0-1.3-.2-.8-.9-1.1-1.3-1.2-2.7-.1-1.5.8-2.1 1.2-3.3 1.1-.8 1.1-1.5-.1-2.2-.5-.8-.7-1.6-.8-2.6-.2-3.4 2.9-4.8 5.3-6.6-4.2-.5-4.1-5.4-1.1-7.6 3-2.3 9.5-1.3 13.2-.8.8.1 2.8 1.1 3.6.5.5-.4.1-3.7.2-4.2 0-1.3.4-2.9.2-4.2-.4-2.7.5-1.4-1.5-1.4-4.7-.2-10.6 3.9-14.7 5.8-4.6 2.2-7.6 2.5-7.6 7.8 0 5-1.5 10.1-2.1 15-.3 2.2-.5 13.4-4.4 9.3-1.5-1.6-.6-4.1-.4-6.1-.1-2.8-.1-5.6-.1-8.3zm-256.7 169c2.3.4 6-.9 8.5-1 4.3-.2 8.8-.7 13-1.6 3.3-.7 7.1-1.3 8.9-4.5 1.6-2.9 2.2-6.5 3-9.6.5-1.7 1.6-4.1 1.6-5.8 0-2.2-.3-1.8-2.6-3-3-1.6-5.8-3.7-9-4.6-1-.2-1.9-.4-2.9-.6-1.2-.7-2-.4-2.1 1.1-1.2 1.3-1.9 3.7-3 5.2-2.3 3.4-5.1 5.8-8.7 7.7-6.5 3.6-12.6 6.3-19.6 8.6-3.8 1.3-7.4 3.1-11.1 4.5-3 1.1-7.2 1.5-9.5 4-2.6 2.8 1.4 3.9 3.6 5.8 1.8 1.6 1.9 1.9 4.4 1.2 1.9-.6 3.5-1.7 5.3-2.4 6.1-2.6 13.5-4.3 20.2-5zm139.9 45.1c-2.3-.5-4.6-1-6.8-1.5 2.2 4.2 7 10.3 3.6 15.2-1.3 1.8-3.4 2.3-5.3 3.2-2.3 1.1-4.4 2.5-6.5 3.9-8.9 5.5-17.9 11-27.3 15.7 2.9.9 7.4 1.6 10.4.8 3.5-1 6.8-3.2 10.4-4.1 6.5-1.7 13.3-3.2 19.8-4.1 5.4-.7 18.8.9 18.2-7.2-.6-7.7-5.2-15-6.6-22.6-3.3.8-6.5.6-9.9.7zm136-122.8c2.6-12.8 4.2-25.7 7.2-38.4 1.5-6.3 2.6-12.7 4.1-19.1.7-2.9 1.2-5.9 1.9-8.9s2.2-5.7 2.5-8.8c-2.5.6-3.1 6.3-3.8 8.4-1.4 3.9-2.9 7.7-4.7 11.5-2.8 6-5.8 11.7-9 17.5-3.4 6.1-6.9 12-11.1 17.6-1.4 1.8-3.2 3.3-4.1 5.3-1.4 3.2-2 6.9-3.3 10.2.9.5 3.4.6 4.5.8 2.1.4 3.6.8 5.7 1.8 3.6 1.8 6.7 3.9 9.1 7.2.7-1.5.8-3.3 1-5.1zm-101.1 97.4c0-12.3-.2-24.7 0-36.9.1-3.4.3-7 .8-10.4.3-2.1 2.1-6.6.9-7.6-1-.9-6.4-.3-7.7-.3-2.6-.1-5.1-.2-7.7-.4 0 4.6 1.8 9.7 2.6 14.2.8 4.2 1.4 8.4 2 12.7 1.4 9.1 1.8 18.4 3.3 27.6 1.4 8.3 3.1 16.6 4.1 24.9.5 4.6 1.6 8.9 2.5 13.4.4 2.4 2.1 12.2 4.1 13.1.4-3.5-1.3-7.8-1.6-11.3-.3-3.7-.6-7.4-1.2-11.1-.7-4.3-1.1-8.8-1.3-13.1-.2-2.7-.2-5.4-.4-8-.2-1.9-.9-4.8-.4-6.8zM216.6 134c.1-1.3-3.4-1.3-4-2.8-1.3-3.1 1.7-2.6 3.5-2.9-.7-1.7-12.9-1.1-10-5.8 2-3.3 9.5 1.7 11.5-1.4 1.3-2-2.3-2.3-3.7-2.5-2.1-.3-7.2.7-7-2.1.2-3.5 10-5.9 12.8-6.9-.3-2.4-12.1 1-13.8 2-3.9 2.2-6.8 6.1-7.4 10.5-.7 5.1 1.9 9.1 7 10.3 2.1.5 3.7.6 5.6 1.4 1.3.5 5.5 1.8 6.4.5-.4-.1-.6-.2-.9-.3zm69.3-31.6c.2-2.2 2-6.3-.1-7.7-3-2-4.2 1.3-4.8 3.3-.8 2.4-4.3 8.3-1.2 9.8.7.3 4-.1 4.6-.3 1.6.4 2.2-.2 1.6-1.8v-3.3h-.1zm-72 175.5c-.2-5.9 2.5-13.1 4-18.9 1.7-6.6 2.6-13.3 4.4-19.8-2 .2-4 .4-6 .8-2.7.6-2.8.5-2.6 3.1.3 4-.1 7.9-.3 11.9-.4 8 .6 16.1-.1 24.1.6.2.8-.2.6-1.2zm75.2-155.7c6.5 1 12.8 3.1 18.7 5.8 3.3 1.5 6.9 3.2 10.5 3.8 4.1.7 8.4.4 12.5.6 1.5.1 5.3.8 6.7-.1 1.4-.9 1.3-2.3 1.4-4 .2-4.4-1.8-8.8-3.6-12.7-1.5-3.4-2.7-6-5.1-8.9-3.1-3.8-5.8-7.8-8.6-11.8-2.2-3-4.4-5.9-6.6-8.8-1.6-2.1-1.5-2.8-3.9-2.6-2.4.2-4.7 1.6-6.9 2.4-3.3 1.1-7.3 1.7-10.3 3.4-1.9 1.1-2 1.3-2 3.3 0 1.8.6 4.1 1.7 5.5 2.3 3 6.1 4.6 9.3 6.1 1.9.9 3.5 2.1 5.2 3.3 1.8 1.3 5.4 2 6.8 3.5 4 4.3-3.3 3.4-5.3 3.3-4.4-.3-8.8-.2-13.2-.2-4.9 0-9.7-.2-14.4-.1-2.8.1-6-1.3-7.8-3.7-.9-1.1-1.2-2.2-2.4-3.4-1.5-1.6-2.8-3.2-4.6-4.4-3-2-8.4-3.1-12-2.4 1.3.2 7.3 2.2 4.6 4.8-.3.3-4.2.5-5 .9-1.5.7-3.4 1.7-4.3 3.2 2.6-.4 12.2-.9 7.3 4-1.2 1.2-4.7 2.4-1.7 3.7.7.3 2-.1 2.9.1 1.3.4 2.3 1.5 3.6 2 3.4 1.6 8.2 2.6 11.7 2.3 4.7-.4 9.8.5 14.8 1.1zM157.7 271.9c.2 7.1-.1 14.3.1 21.5.2 7.7 1.1 15.2 1.6 22.7.4 6.8 1.3 13.5 2.1 20.2.4 3.9.9 7.6 1.6 11.5.6 3.6.7 6.8-3.6 7.8-8.3 1.9-9.6-10-11.1-15-2.4-7.5-3.9-15.3-5.1-23.1-2.2-14.4-5.1-28.7-6.3-43.2-.7-9-1.7-17.8-2.3-26.8-.1-1.8.3-4.5-1.2-5.2-.9-.5-3.5-.5-4.7-.8-3.3-.9-6.3-2.3-9.5-3.8 2.3 11.8 3 23.6 4.7 35.5.9 6.3 2.6 12.9 4.1 19.1 1.5 6.4 1.9 13.4 3.7 19.7.8 2.8 1.4 3.9.3 6.8-1.4 3.5-.5 4.3 1.3 7.8 3.2 6.3 5.7 13.8 5.1 20.9-.4 5.8-4.8 8.9-10.3 10.4-6.8 2-14 1.7-20.8 4-6 1.9-12.1 3.4-17.9 5.9-2.3 1-4.6 2.3-7.2 2.5-3.6.3-6-1.8-9.3-2.2-2.1-.3-5.2.7-6.4-1.5-1-1.7.1-5.6 1.3-7 3.4-4 10.2-7.4 14.7-9.7 5.3-2.7 10.4-6.1 15.2-9.5 3-2.1 6-4.1 8.9-6.2 2-1.4 2.7-1.4 2.5-3.6-.2-1.8-1-3.5-1.1-5.3-.1-1.4.4-3.3-.3-4.2-.5-.7-2.3-1.1-3-1.6-2.6-1.8-3.2-4.1-4.4-6.9-2.7-6.4-5.8-12.6-8.4-19-5.6-13.8-9-28.3-13.6-42.4-4.7-14.4-8.9-29.5-11.5-44.4-3.5 1.1-6.8 5.7-9.5 8-3.7 3.1-7.6 6.2-11.2 9.4-6 5.3-12.1 10.4-17.1 16.7-2.4 3-4.4 6.3-6.5 9.5-1.3 1.8-2.4 3.9-3.8 5.7-.2.3-.2.9-.5 1.1-.5.5-1.5-.2-1.8.2-2 2.1-2 8.2-2.7 11-.9 3.9-1.9 8.3-4.9 11-4.7 4.1-13.3 4.8-19.2 5-7.6.3-15 2.4-22.2 4.7-3.4 1.1-6.6 2.3-10 3.3-1.9.6-4.2 1.8-6.2 1.5-2.5-.3-4.5-2.4-6.3-3.9-2.9-2.5-5.6-5-5.6-9.1.1-4.3 2.5-7.6 6.2-9.8 7.2-4.2 15.2-6.9 22.9-9.7 3-1.1 5.5-2.3 8.3-3.8 4-2.1 8.6-3.8 12.2-6.6 1-.8 4.9-3.3 5.2-4.6 0-.2-.9-2.1-.9-2.5 0-.8.5-1.7.8-2.4 1.8-4.3 5-8.5 7.3-12.6 4.3-7.5 8.7-15.1 13.7-22.1 10-14.1 21.3-27.9 33.5-40.2 5.9-6 11.1-12.8 17.1-18.7 2.4-2.3 4.9-4.2 7.8-5.8 3.3-1.7 7-2 10.7-2.5 9.1-1.3 16.7 1.4 25.2 3.8 8.1 2.2 16.2 4.1 24.3 6.4 8.9 2.5 17.7 5 26.6 7.7 4.8 1.5 9.6 2.4 14.4 3.8 2.3.7 11 4.9 12.9 3.5-6-2.8-12.2-5.4-18.7-7.1-1.9-.5-3.1.1-3-2.1 0-1.2 1.4-2.8 1.9-3.8 1.2-2.3 2.5-4.6 3.6-7-4.1 1.2-15.1 5.2-18.2 1-3.2-4.4-.5-12.9 1.5-17.2 5.3-11.1 14.3-20.4 23-28.8 1.9-1.8 6-4.2 7-6.5.3-.7-.4-1.7.3-2.6.4-.5 2.1-.9 2.7-1.5 2.4-2.1 4.3-6.6 6-9.4 1.7-2.9 3.3-6.1 5.5-8.7 3.6-4.3 7.3-8.8 13.1-9.8 2.8-.5 5.9-.2 8.6-1.2 3.3-1.2 6.4-3.1 9.8-4.3-.8-1.7-1.5-4.4-3.1-4.6-1.5-.2-3.8 1.1-5.6 1.1-2.6 0-4.8-.4-7.3-.9-2.8-.5-3.7-.4-4.7-3.4-1.1-3.1-.8-6.8-.8-10 0-1.6.3-3.6.2-5.1-.2-2.3-.7-2.4-2.5-3.9-2.3-1.9-5.1-4.3-2.3-7.6 1.5-1.8 4.7-.4 6-2.3 1.4-1.9 1.3-6.7 1.7-9-4.2 2.1-2.7-5.7-2.7-7.6 0-2.7-1.8-7.6.8-9.9 1.2-1.1 2.1-.2 3.5-.8 1.6-.7 2.6-2.5 4.3-3.2 3.4-1.4 6.8.3 10.3 0 4-.3 7.9-.9 11.9-.3 1.9.3 2.7 1 4.3 1.8 1.5.8 3.1 1 4.8 1.5 1.5.4 2.8.7 3.8 2 .8 1 .5 2.7 1.3 3.6s2.4.7 3.3 1.8c.9 1 1.4 2.6 1.9 3.9.6 1.7.7 2.3 1.8 3.6 1 1.2 2.4 2.1 3.2 3.4 1.9 3.1 2 7.6 1.4 11.2-.2 1.2-1.9 4.3-1.7 5.3.3 1 1.9.7 2.6 1.3.6.5 1.2 2.9 1.7 3 1.1.3 2.4-1.8 3.2-2.2 1.4-.6 2-1.1 2.8 1 .6 1.6-.2 3.7-.7 5.2-.5 1.9-1.2 4.2-2.6 5.6-1.7 1.7-3.1.8-4.9 1.7-2.8 1.4-2 5.6-5.5 6.8-3.3 1.2-6.9-2.5-9.4-4.2.5 4.1 2.5 8 1.5 12.2 7.6-3 15.1-7.2 23.4-8.1 4.2-.5 8.5-1 12.5.7 4.7 2.1 7.5 6.6 10.7 10.3 5.9 7.1 12 13.9 17.7 21.2 5.2 6.7 9.6 14.4 15.4 20.7 5.8 6.4 10.2 16.7 9.6 25.5-.1.8-.7 2.6-.6 3.5.1.7.7 1.5.7 2 0 1.8-.6 2.8-2.3 3.8-2.9 1.7-7.3 2.6-10.6 3-4.4.6-9.8.6-14.2 0-4.6-.6-8.6-3.2-12.8-4.7-3.7-1.4-7.4-2.2-11.2-3.1-2.1-.5-4.5-1.8-5.8-.5-1.2 1.2-1.5 7.2-1.7 8.8-3.1 17.3-6.7 34.1-9.9 51.3-3.6 19.6-6.1 39.1-8.7 58.8-2.3 17.9-3.1 36.1-3.6 54-.2 8.5-.3 17-.2 25.5 0 4.8 2.4 20.8-4.7 21.4-4.2.4-7.5-5.6-8.6-8.9-1.7-4.9-2.6-10.2-2.8-15.3-.5-10.4-1.3-20.8-1.7-31.3-.5-11.3.1-22.8 1.1-34 .9-11.3 3.3-22.5 4-33.8-2.2 3.1-2.9 3.7-6.5 5-3.8 1.4-7.4 3.1-11.2 4.4-1.3.4-3.3.7-4.4 1.5-2 1.4-.7-.2-1.3 2.4-.7 2.8-.8 6.2-1 9.1-.8 13.5-4.6 27-6.3 40.5-.4 3.3.2 17.1-5.4 12.7-4.3-3.4-4.2-13.9-4.8-18.8-.8-6.6-.4-13.3-.2-19.9.1-7.5.3-15.4 2.1-22.8-3.2-.6-7.7.9-10.9 1.2-2.8.2-5.6.4-8.4.5-6.6.4-13.5.7-20.2.5-1.2 0-9.3-1.1-10.3-.2-.3.3-.4 4.3-.5 4.8-.2 1.9-.6 3.7-.8 5.6-.6 5.6-1.3 11.9-1.1 17.8z"/><path class="st1" d="M277.1 328.2c5.1 2 10.5 2.7 15.6 4.5 4.6 1.6 8.8 3.8 13.3 5.4.3-2.1.4-5.6-.4-7.6-1.1-2.8-4-2.9-6.8-3.8-6.9-2.4-14.1-2.9-21-5.7 1.2 2.2.7 5.1-.7 7.2m87.5-7.3c-10.9.3-21.4 2.9-32.2 4.4-5.3.8-10.5 1.5-15.8 2.2-2 .3-5.7 0-7.2 1.7-1.2 1.5.1 6.4-.4 8.5 2.2.2 6.1-1.9 8.5-2.2 3.7-.5 7.4-1.3 11.2-1.5 6-.4 11.9-.7 17.8-1.4 6.1-.7 12-1.9 18.1-2.4 3-.2 4.2.3 4.4-2.8.1-1.2.2-3.3-.1-4.5.6-1.5.1-2.2-1.5-2.2-.9-.1-1.9 0-2.8.2m-21.2-10.1c3-.3 5.9-.7 8.9-.8.6 0 3.7.1 4.2-.4.7-.8-.1-3.7-.2-4.6-.4-3-.9-4.8-4.3-4.8-2.8 0-5.7.6-8.5.9-12.7 1.2-25.3 1.8-37.8 4.1.8 3.3 1.6 6.6.7 9.9 6 .3 12.6-.8 18.5-2 6-1.3 12.4-1.9 18.5-2.3m-20.1-30.6c-4.5 0-9.3 2-13.8 1.6-.1.8 1.4.1 1.8.9.8 0 1.1.3.9.8 0 .4-.2.6-.6.7-.2 0-.4 0-.6.1-.9 0-1 .6-.4 1.8-.2 1.4.1 3.2.2 4.6 8-1.1 15.8-2.2 23.9-2.7 3.8-.2 7.6-.2 11.5-.5 4.2-.3 8.8.4 12.9-.4 2.2-.4 2-.4 1.8-3.2-.1-1.7-.1-3.8-1.5-5.1-2.4-2.1-7.7-.9-10.5-.8-8.6.1-17.2.9-25.6 2.2M328 321c12.1-1.1 24.2-3.5 36.4-3.5-.9-.9-2.7-1.1-3.8-1.6-1.2-.5-2.4-1.7-3.6-2.1-2.4-.9-4.8.4-7.3.9-6 1.4-12.1 1.4-18 2.7-6.2 1.4-12.4 2.7-18.7 3.4-3 .3-6.2 1-9.1.2-.2-.2-.5-.3-.7-.5-.3-1.1-1-1.4-2.1-.9-1.5-.3-3.4.1-4.9.1-.1.6 5.5 2.5 6.5 2.9 2.6 1.1 4.3 1.9 7 1.5 6-1 12.1-2.3 18.3-3.1m-42.7-35.5c.5 1.8 2.5 1 4.2 1.2 2.3.3 4.6 1.1 6.8 1.7 4 1.1 8.1 2.2 12.1 3.3-.2-1.6.2-5.3-.7-6.8-.9-1.5-5.2-2.2-7.2-2.6-5-1.2-10.4-.5-15.5-.3.2 1.2.2 2.3.3 3.5m48.2 11.6c4.8-.4 9.5-.7 14.3-.9 5.5-.2 1.5-1.1 1.4-4.4-7.2 1.1-14.4 1.4-21.6 2.4-5.9.8-13 2.9-19.1 1.8-2.9-.5-5.8-.7-8.8-1-2.9-.3-5.6-1.6-8.4-2-3.2-.4-6.4 1.4-9.6 1.9-1.3.2-1.7 1.1-2.3-.5-.7-1.7 1.2-3 2-4 .9-1.2.5.7 1-1.1.1-.5-.2-1.8-.3-2.3-.2-1.4-.6-2.9-.7-4.3-.1-1.3-.1-3.2 1.3-4 .8-.5 1.4.2 2.2.1 5.8-1 12.5-1.1 18.4-.1 6.3 1 11.8-1.7 18-2.8 7.3-1.3 14.7-1.5 22.1-2.1 6.3-.5 17.8-2.9 20.2 5.1.7 2.3 1.7 8.6-.2 10.5-2.4 2.6-8 1.7-11.1 2.4.5 1.3 1.8 2.2 1.4 3.8 4.4.2 5.1 4.3 5.8 8.2.7 4-.7 5.6 3.1 7.6 5.3 2.9 10.9 5.8 10.8 12.7-.1 3.5-.4 8.7-4 10.4-3.5 1.8-9.1 1.5-12.9 2.1-7.4 1.2-14.8 2.7-22.3 3.4-7.9.8-16 1.4-23.9 1.8-4.3.2-8.1.8-12.2-.6s-8.1-2.5-12.4-3.5c-4.2-1-17-2.5-13.3-9.6.6-1.1 2.6-2.1 3-3.1.5-1.7-1.3-3.1-1.2-4.7.1-2.9 3.4-3.2 5.6-3.2-3.9-2.4 1.3-5.3 1.3-7.3-.1-3.6-4.5-5.9-4.8-9-.6-7.4 22.7.3 26.3 1.9-2.8 4.1-15.6.6-19.4-.1.5 1.4 1 2.6 1.2 4 .1 1.1-.3 2.4.1 3.6.6 1.8.6 1.5 2.8 2 1.7.4 3.3.8 4.9 1.2 2.5.6 6.5 2.2 9 2.1 2.2-.1 1.8.6 2.2-1.8.2-1.3-.2-2.7-.4-4-.5-2.7-1.1-5.2 1.2-7.2 2.2-1.8 7-2.7 9.7-3.4 6.3-1.8 13.4-2.1 19.6-2"/><path class="st1" d="M362.6 251.1c-6.6-1.1-13.4-1.4-20.1-1 .4 1.7.7 3.3 1.1 5 6.3-1.7 12.7-2.6 19-4zM308.7 264c-2.7-.2-.8 1-.2 2.7.8 2.1.6 4.8.8 7.1 7.8-3 16.8-4.7 25.1-5.7 3.9-.5 7.9-.6 11.8-.8 1.2-.1 5.4.4 6.2-.4.6-.6.2-3.8-.4-4.5-3.3-3.9-16.1-.5-20.7-.2-7.5.6-15 2-22.6 1.8zm11-10.4c6.9.7 13.5.6 20.4 1.6-.5-4.4.1-5.5-4.9-5.7-4.4-.2-8.8-.4-13.2-.4-9.9 0-19.8-.2-29.7-.2v4.4c9.2-.8 18.2.9 27.4.3zM286.6 270c4.3 0 8.5 1.6 12.8 2 2.6.3 1.8.6 3.6 1.9 2.8 2 3.6 1 3.3-1.8-1.2-9.4-13-7.3-19.9-7.8.4 2.2-.6 4.1-2.1 5.7h2.3zm47-12c-6.3.1-12.5.5-18.7.3-2.8-.1-6.4-.6-9.1-.1-2 .3-3.7 1.4-5.9 1.7 3.2 1.7 4.8.6 8.2.2 3.4-.4 6.8-.4 10.2-.6 5.6-.3 11.5-1.7 17-1.3.1-.8-.5-.9-1.7-.2zM284 278.2c-2.9 0 1.1-3.3 1.6-3.6-3.2 0-3.9-1.9-3-5 .9-2.9 1.5-2-.7-4.4-1.6-1.8-1.9-3.1 0-5.2 2-2.1 6-1.5 7.7-3.2 3-2.9-.9-8.6 3.3-10.9 2.8-1.5 7.3-1.3 10.3-1.6s6-.4 9-.4c6.5-.1 13.3 1 19.8 1.6 2.4.2 5 1.2 7.4 1.2s4.9-.5 7.3-.5c2.9.1 5.6-.1 8.5.3 2.3.4 7.5.5 9.2 2.2 5.7 5.6-7.9 8.1-10.2 8.8 2.4 2.6 2.3 6.1 1.9 9.4 1.1 0 3.1-.5 3.7.8.7 1.6-2 2-2.6 2.2-3.7 1.1-8 .8-11.8 1.2-7.6.8-15 1.2-22.5 2.6-3.6.7-7.3 1.6-10.9 2.2-.6.1-1.3.2-1.9.3-1-.1-1.3.5-.9 1.8-1 .5-4.8-.7-6-.9-6.6-.9-12.6-.5-19.2 1.1zm134.9 64.9c-4.3 3.4-8.3 6.6-13 9.5 3.3 0 14.3-5.3 13-9.5m-1.7-5.5c-2.4-2-4.7-1.8-7.6-2.4-2.7-.6-5.3-1.5-8-2.2-2.1-.5-4.2-1.2-6.3-1.7-3-.7-3.2.1-6 1.6-9.6 5.5-20.4 9.3-30.6 13.7 3 2.6 9.7 2.7 13.4 3.6 2.7.6 5.3 1.4 7.9 2.4 2.4.9 6.3 3 8.9 3 2.2.1 3.9-2.1 5.8-3.2 2.4-1.5 4.9-3 7.3-4.5 5.4-3 10.3-6.8 15.2-10.3m-43.5 22.2c-1.1-1.1-4.5-1-5.9-1.3-2.7-.6-5.5-1.3-8.2-1.8-4.5-.8-11.7-1.1-12.1-7-.4-4.9 5.5-6 8.9-7.7 5.2-2.5 10.5-4.8 15.8-7 5-2.1 10-3.8 15.1-5.6 1-.3 1.8-.3 2.6-1.1.6-.6.4-1.8 1.1-2.5 1.6-1.5 3.7-.7 5.6-.3 4.4.9 8.9 2 13 3.6 4.3 1.7 8.2 2 9.2 6.9 2.2-1 3.9-1.2 3.6 1.9-.1.9-.7 1.9-.9 2.8-.2 1.4.2 2.8-.1 4.2-.8 5-7.5 8.6-11.7 10.6-5.1 2.4-11.7 5.9-17.4 6.4-6 .5-12.6-1.8-18.6-2.1"/><path class="st1" d="M296.3 277.6h-5.4c1.8-.3 3.6-.3 5.4 0m-106-191.7c-.5.9-1.1 1.8-1.6 2.7.2-1.2.6-2.2 1.6-2.7m106 217.7h3.3-3.3m25-59.2c-1.3-.1-2.5-.1-3.8-.2 1.3.1 2.6.2 3.8.2m-21.7 33.2h-3.3c1.1-.3 2.2-.3 3.3 0m43.2-154.2c0-1.1-.1-2.2-.1-3.3.1 1.1.1 2.2.1 3.3M158 287.5c0-.9 0-1.8-.1-2.7.1.9.1 1.8.1 2.7m29.6-44.3h2.2-2.2M284.9 48c-.9.1-1.8.1-2.7.2.9-.1 1.8-.1 2.7-.2m68.5 198.5h-3.3 3.3m-91.5 67.1c0-.7-.1-1.5-.1-2.2 0 .8 0 1.5.1 2.2m1-27.7c0-.7 0-1.5-.1-2.2.1.8.1 1.5.1 2.2m-18.5 12.5c0 .7.1 1.5.1 2.2-.1-.7-.1-1.5-.1-2.2M192 242.7h1.6-1.6M349.6 271c.5 0 1.1 0 1.6-.1-.5.1-1.1.1-1.6.1m-104.1 44.8c0 .7.1 1.5.1 2.2-.1-.7-.1-1.5-.1-2.2m58.2-3.8c0 .7-.1 1.5-.1 2.2 0-.7.1-1.5.1-2.2M241.1-11.9c-.8-.1-1.5-.2-2.3-.3.7.2 1.6-.4 2.3.3M208 266.9c0 .7 0 1.5-.1 2.2.1-.8.1-1.5.1-2.2m-46.7 66.3c0-.7-.1-1.5-.1-2.2 0 .8.1 1.5.1 2.2m175.8-61.1h1.6c-.5-.1-1.1 0-1.6 0M276.6 299c0 .7 0 1.5-.1 2.2-.2-.8-.2-1.5.1-2.2m-101.5-55.2h1.6-1.6m87.3 51.9v-2.2 2.2m111.1 64.4h1.6-1.6m-19.6-69h1.1-1.1m-13.5 1.6h1.1-1.1m-211.7 3.5c0-.5 0-1.1-.1-1.6 0 .6.1 1.1.1 1.6m222.5-.4c-.5.5-1.1.2-1.6.2.5 0 1.1-.1 1.6-.2m-64.7-17.4c-.7.3-1.4.4-2.2 0 .8.1 1.5 0 2.2 0m47.3 18.7h-2.2 2.2m-30.4-19c-.7-.1-1.5-.1-2.2-.2.7.1 1.5.2 2.2.2m-166-2.5v1.6c-.1-.5-.1-1.1 0-1.6m124.9 29.3c0-.5.1-1.1.1-1.6 0 .6-.1 1.1-.1 1.6m74.8-31.3c-.7.1-1.4.1-2.2.2.7-.1 1.5-.1 2.2-.2M158 271.8v-1.6 1.6m90.8-41.9c0 .5-.1 1.1-.1 1.6 0-.5.1-1 .1-1.6m99.2 16.5c-.7.4-1.5.3-2.2 0h2.2m-86.1 75.4c0-.5-.1-1.1-.1-1.6 0 .5 0 1 .1 1.6m-.1 4.3c0-.5 0-1.1-.1-1.6.1.6.1 1.1.1 1.6m-102.7-71.7v-1.6 1.6m154.6 86.7h1.1-1.1m-175.2 4.6c0-.5-.1-1.1-.1-1.6 0 .5 0 1.1.1 1.6m117.6 4.6h1.1-1.1M334.9 246c-.7-.1-1.4-.1-2.2-.2.8.1 1.5.2 2.2.2m3.8.6l-1.6-.2 1.6.2zm-82.4 57.3c0-1.6.1-3.3.1-4.9 0 1.6 0 3.2-.1 4.9M214 244.1c0 1.3 0 2.5.1 3.8-.1-1.3-.1-2.6-.1-3.8m-93.8 79.6h-2.7 2.7m74.5-108.2H192h2.7m-23.4 21.2h2.7-2.7m12-21.7h-2.2 2.2m-58.7 108.7h-2.2 2.2M222.4 46c.9-.1 1.8-.1 2.7-.2-.9.1-1.8.2-2.7.2m12.2 63.8c0-.9.1-1.8.1-2.7 0 .9-.1 1.8-.1 2.7m-22 8.4H211h1.6m-46.2 95.1h-1.6c.5.1 1.1 0 1.6 0m-12.5 22.2c.7.1 1.4.1 2.2.2-.7 0-1.5-.1-2.2-.2m-1.4 27.6v-2.2c.1.7.1 1.5 0 2.2m62.3-29c.7-.1 1.4-.1 2.2-.2-.8.1-1.5.1-2.2.2m49.7-12.9c0-.7.1-1.5.1-2.2 0 .8-.1 1.5-.1 2.2M274 121c.7-.1 1.4-.1 2.2-.2-.7.1-1.4.2-2.2.2m-73.9 95.1h-1.6 1.6m-47.5 87.8c0-.5-.1-1.1-.1-1.6 0 .5.1 1 .1 1.6m60.9-27.8c1.2 2.9.5.9.6 1.5-1 .2-1.2-.3-.6-1.5m-49.8-62.7c-.5 0-1.1 0-1.6-.1.5 0 1.1.1 1.6.1m111.1-55.2c0-.7.1-1.4.1-2.2 0 .7-.1 1.5-.1 2.2M152.6 298.4v-2.2 2.2m-.1-16.3c0-.5.1-1.1.1-1.6 0 .5-.1 1.1-.1 1.6m113-71.2c.1-.5.1-1.1.2-1.6-.1.5-.1 1.1-.2 1.6m-120.1 72.8c0 .5.1 1.1.1 1.6 0-.5 0-1-.1-1.6m-1.1-4.3c.1.5.1 1.1.2 1.6-.1-.5-.1-1.1-.2-1.6m108.8-74.5c0-.5.1-1.1.1-1.6-.1.5-.1 1.1-.1 1.6m-277.5 73.8c.7-.1 1.4-.1 2.2-.2-.7 0-1.4.1-2.2.2m272.7 13.2c0 .5 0 1.1-.1 1.6 0-.5 0-1.1.1-1.6m8.6 1.6c0-.5.1-1.1.1-1.6-.1.5-.1 1.1-.1 1.6m-3.3-90.8c.1-.5.1-1.1.2-1.6-.1.6-.2 1.1-.2 1.6M-20 278.1c.7-.1 1.5-.1 2.2-.2-.8.1-1.5.2-2.2.2m230.4-62.6h-1.1 1.1m-57.8 61.7v-1.6 1.6m105.4-1.1c-.2-.6-.3-1.1.1-1.6 0 .5 0 1.1-.1 1.6m-8.7 43.5c0 .5.1 1.1.1 1.6-.1-.5-.1-1-.1-1.6m40-197.7c.5.1 1.1.2 1.6.2-.6 0-1.1-.1-1.6-.2m-2.2.1c.7 0 1.5-.3 2.2.2l-2.2-.2zm-93 114.7h2.2-2.2m16.3-115.3l2.2.2c-.7-.1-1.4-.1-2.2-.2m-35.8 115.2h2.2c-.8.3-1.5.4-2.2 0m-19.8 91.2c0-.5-.1-1.1-.1-1.6 0 .5.1 1 .1 1.6m79.3-205.5v-1.6 1.6m-45.9 114.5c.7-.1 1.4-.1 2.2-.2-.8.1-1.5.2-2.2.2m61.6 95.9v1.6c.1-.6 0-1.1 0-1.6m2-224.2c.7-.1 1.4-.1 2.2-.2-.8.1-1.5.2-2.2.2m9.4 138.8c0-.5.1-1.1.1-1.6 0 .5-.1 1.1-.1 1.6m25-145.1c0-.5.1-1.1.1-1.6 0 .5 0 1-.1 1.6m-70.9-56.9c.7.1 1.5.1 2.2.2-.7-.1-1.4-.1-2.2-.2M106.6 354.2c.7-.1 1.4-.1 2.2-.2-.7.1-1.4.2-2.2.2M216.4 40h-1.1 1.1M82.7 361.3c.7-.4 1.4-.3 2.2 0h-2.2m282.1-31.5c1.3-.1 2.5-.1 3.8-.2-1.2 0-2.5.1-3.8.2m0-9.4h-2.2 2.2m-10.9-10.8c.9-.1 1.8-.1 2.7-.2-.8.5-1.7.2-2.7.2m-10.3 1.1c.9-.1 1.8-.1 2.7-.2-.9.1-1.8.2-2.7.2m-15.2 9.8c.7-.1 1.4-.1 2.2-.2-.8.1-1.5.2-2.2.2m3.8 0c.7-.1 1.4-.1 2.2-.2-.7.1-1.5.2-2.2.2m2.7-.5c.7-.1 1.4-.1 2.2-.2-.7.1-1.5.1-2.2.2m3.8-18.6h-1.6 1.6m13.6 29.9c.7-.1 1.4-.1 2.2-.2-.7.5-1.5.3-2.2.2m-20.6-43.4c.7-.1 1.4-.1 2.2-.2-.8.1-1.5.2-2.2.2m-2.8-8.8h-1.6 1.6m-5.4 1.1h-1.1 1.1m-13 1.5c-.2.4-1.1.4-1.1-.1.3.1.7.1 1.1.1m-25.3 2c0 .5 0 1.1.1 1.6-.1-.5-.1-1-.1-1.6m74.2 2.9h1.6c-.5.4-1.1.3-1.6 0m-20.7-8h-1.1 1.1m-14.1 34.3c.7-.1 1.5-.1 2.2-.2-.8.1-1.5.2-2.2.2m-8.7 1.1l2.2-.2-2.2.2zm42.4 16.3c.7-.1 1.4-.1 2.2-.2-.8.1-1.5.1-2.2.2m-26.1 3.3c.7-.3 1.5-.4 2.2 0h-2.2m-1.1-74.9l-1-.4h3.8c-.1 0-2.7.4-2.8.4m-9.8-9.5h-2.7 2.7M287.1 270c.9-.4 1.8-.3 2.7 0h-2.7m54.9-8.8h-1.6 1.6m-11.4-7.2c.9.1 1.8.1 2.7.2-.9-.1-1.8-.1-2.7-.2m-11.4 5.6c.9-.1 1.8-.1 2.7-.2-.9.1-1.8.2-2.7.2m7-1c.7-.1 1.4-.1 2.2-.2-.7 0-1.5.1-2.2.2m-6-5.1c.7.1 1.4.1 2.2.2-.7-.1-1.4-.2-2.2-.2m-10.3 10.4h-1.1 1.1m11.4-5.4c-.4 0-.7 0-1.1-.1.4.1.8.1 1.1.1m-7 0h-1.1 1.1m19.5-.5c0 .1 1.6-.6 1.6.1l-1.6-.1zm-5.9-8.8h-1.1 1.1m-193-25.8c.6-2.4.4-4.3 2.5-2.7 1.2.8 3 5.1 2.9 6.6-.2 1.8-1 2.5-2.7 1.9-1.9-.7-2.7-4-2.7-5.8m105.9-14.5c4.9 0 2.7 5.2-1.3 5.3-1.9.1-4.5-.3-3.9-2.8.3-1.4 5-3.2 5.2-2.5m-52.2 10.2c3.5 1.7-1.4 9.2-4.6 7.3-4.1-2.4 3.1-6.3 4.6-7.3m-8.6 7c1.2 1.3 6.3 5.5 3.5 7.2-3.5 2.1-6.2-4.8-3.5-7.2m-58.9-3.2c-1.1-2.2.4-8 3.9-6.9 3.6 1-1.9 6.3-3.9 6.9m77.6 1.2c2.3-.9 1.8 1.8 2.2 2.7.4 1 2.4 3.4 1.9 4.5-.7 1.6-2.5.6-3.5-.5-1.7-1.8-1.6-4.6-.6-6.7m-34.8 2.6c-1.9 0-6.4-5.5-3.8-6.4 3.4-1.2 6.1 6.8 3.8 6.4m65.7-8.7c1.7.4 4 5.4 1.4 5.9-2.9.6-3.4-4.6-1.4-5.9m-10.6 9.2c-1.4-2.6-1.7-8.3 1.6-3.7.7 1 1.5.6 1.1 2.2-.3 1.4-1.6 1.5-2.7 1.5m-71.8-13.6c1.4 2.1 1 8.7-1.9 4.8-1.3-1.7-.4-4.7 1.9-4.8m69.9-197.2c2.7-.7 3.3 5.7 1.8 6.4-2.3.9-2-5.4-1.8-6.4m170.6 323.1c-2.5-.1-6-.8-2.2-2.6 2.4-1.1 6-1.2 8.5-.7 1.8.3 4.4 1.8 1.7 3.7-1.5 1-6.1-.3-8-.4m-2.8 4.6c-.7-.1-1.4-.2-2.2-.2.6-1.1 2.3-1.3 2.2.2"/><path class="st1" d="M388.2 339.4h2.2c-.8.1-1.5 0-2.2 0"/></g><g id="Character_x2F_zombieing_1_"><g id="Ink_3_" transform="translate(161 54)"><path id="Fill-5_1_" class="st1" d="M-68.1-.3c4.2 2.9 9 5 13.4 7.7 1.1.7 4.5 2.1 4.5 3.3 0 .7-1 1.6-1.5 2.1-.8.9-1.5 1.7-2.2 2.6-3.3 4.2-6.3 8.4-9.8 12.4-.5.6-2.1 3.4-2.6 2-.2-.7 0-1.4-.7-2-.3-.3-1.5-.5-1.2-1.1.2.1.5.2.7.3-.2-.5-.2-1.1-.5-1.6-.2-.3-.5-.5-.6-.8-.2-.5.1-1 .1-1.5s-.3-1-.5-1.4c-.9-2.8-1.2-5.5-1.7-8.4-.5-2.8-1.2-5.6-1.5-8.4-.3-3-.7-6-1.1-9 .9.1 1.5 1.1 2.1 1.6 1.1.7 2.1 1.4 3.1 2.2m-3.2 29.2c-.2-.2-.3-.3-.5-.6 2-1 .8.8.5.6m-1.3-2.1c-.9.2-1.5.3-2.2-.1-.1 0 0-.3-.1-.3h-.3c-.3-.2-.8.2-.9-.4 1.1-.3 2.3-1 3.4-1.1 1.7-.3 1.6 1.5.1 1.9m-3.9-3.4c-1.2.3-2.2 1-3.5.8-1.2-.2-2.3-.8-3.2-1.5 2.4-.7 4.9-.8 7.3-1.5.8-.2 1.8-.8 2.6-.5.9.3 1 1.1 1.3 1.9-1.5.2-3 .5-4.5.8m-7.6-3.4c-1.2.3-2.4.9-3.3-.2-.2-.2-.3 0-.3-.5s.5-.9 1-1.1c1-.5 2.4-.2 3.5-.2 1.7-.1 3.5-.5 5.2-.7 1.2-.2 2.4-.6 3.6-.5.9.1 2.1.8.7 1.4-1.2.5-3.1.5-4.4.7-2.1.3-4 .7-6 1.1m-1.1-5.5l.2.2s.5-.4.6-.4h1.8c1.4-.1 2.8-.3 4.1-.6 1.1-.2 2.2-.6 3.3-.5 1 .1 1.1.3 1.1 1.2-2.5 0-5.1 0-7.5.5-1.6.3-3.4 1.4-4.1-.5.1.1.3.1.5.1m1.5-4c.6.5 2.3-.3 3-.4.8-.1 1.6-.2 2.3-.4.7-.2 3-1.1 3.5-.2.8 1.3-2.5 1.5-3 1.6-2.2.3-4.4.5-6.6 1.1.4-.5.6-1.1.8-1.7m3-4.4c.2.6 5.1-1.6 5.2 0 .1 1.2-4.9 1.8-5.8 1.8.2-.6.8-1.1.6-1.8m1.7-3.8c.1-1.2.3-1.2 1.2-1.3.7-.1 1.8-.5 1.6.8-.2 1.1-2.9 1.8-2.8.5m1.7-4.1c.2-.7.8.2.8.6 0 .9-.7.7-1.3.7.2-.5.4-.9.5-1.3m8.2-4.9c-.2-.2-.9-.3-1.1-.3-.5-.2-.5-.6-1.1-.2v-.3s-.5-.2-.6-.3c-.3-.2-.7-.5-1-.8s-.7-.8-1.1-1c-.2-.1-.3-.3-.5-.3-.5-.1-.4.3-.8.3-.3 0-.5-.3-.9-.2-.3.1-.5.6-.7.8-.5 1-.9 2-1.5 3C-81-.7-84 4.2-86.5 9.3c-1.2 2.5-2.5 5-3.4 7.6-.6 1.9-2 4.7-.8 6.6.9 1.4 2.6 2 4.1 2.6 2.1 1 4.1 2.3 6.2 3.3 2.6 1.1 5 2.4 7.5 3.7 1.1.5 2 1.3 3.1 1.9.7.3 1.6-.2 1.8.5.8-1 2.1-.3 3.1-1 .5-.4 1-1.2 1.4-1.7.7-.8 1.5-1.5 2.1-2.2 2.8-2.9 5.4-6 7.9-9.1 2.4-3 5.3-5.9 7.3-9.1.8-1.3 1-2.7.4-4.1-.4-1-1.3-2.6-2.7-2 .5-.8-1.5-1.8-2.1-1.9 0 0-.1.7-.3.7.1 0-.5-1.5-.8-1.6-.7-.5-1.6-1.2-2.4-1.6-.7-.4-1.5-.6-2.2-1.1-.8-.6-1.6-1.2-2.5-1.8-.8-.5-1.8-1.2-2.7-1.6-.8-.3-1.5-.4-2.2-.9-.9-.7-1.7-1.1-2.7-1.6-.9-.5-2.1-.9-2.7-1.6"/><path id="Fill-9_1_" class="st1" d="M-107.6 28.6c-.2.5-2 .3-2-.2-.1-.8 2.4-.5 2 .2m1.9-.2c1 .1 2.6.8 3.6.3 1.5-.6-.1-1.6-.9-1.9s-2-.2-2.4-1c-.3-.7.5-2.4-.5-2.1s-.7 2.8-2.3 2c-.8-.4-.5-2.9-1.7-1.6-.3.3-.4 1-.8 1.2-.5.3-1 0-1.5 0-1.3.1-1.7 1.3-.4 1.8.5.2 2.3.4 1.2 1.2-.7.5-2.3-.5-2.9.3-.8 1.2 1.4 1.2 2 1.6 1 .6.2 2 .3 3 .1 1.5 1 1.2 1.3-.1.3-1.1-.1-2.7 1.6-2.3 2.7.7-1.5 4.2.5 5.1 1.3.6 1.5-2.5 1.6-3 .4-2 1.5-1.5 3.1-1.4 1.9.1 2.4-1.3.3-1.8-.7-.1-1.5 0-2.1-.4-.3-.2-.8-1 0-.9"/><path id="Fill-16" class="st1" d="M-38.1-22.8c-.8-.3-1.8-.8-2.6-.7-1 .2-1.3 1.1-2 1.7-1.8 1.5-2.9-.8-3.9-2s-2.1-1.5-3.5-.7c-.5.3-2.8 1.6-2.4 2.5.3.6 1.4.1 1.8-.1.8-.3 1.6-.5 2.4-.1 1.6.8 2 3 3.9 3.3 2 .3 2.1-1.6 3.5-2.3 1-.5 1.6.4 2.6.2.8-.2 1.2-1.5.2-1.8"/><path id="Fill-19" class="st1" d="M-54.3-15.2c.7.2 1.2-1.2 1.6-1.6.7-.6 2-.7 2.8-.1 1.5 1.1 1 3.6 3 4.2 1.9.6 2.7-1.9 4.3-2.5.9-.3 1.9-.6 1.6-1.9-.2-.9-1-1.1-1.8-.8-1.3.6-1.8 2.9-3.4 3-1.6 0-1.8-2.3-2.6-3.4-1.1-1.6-3.3-2-4.6-.5-.3.7-2.2 3.3-.9 3.6"/></g></g><g id="Character_x2F_zombieing"><g id="Ink_2_" transform="translate(161 54)"><path id="Fill-7_1_" class="st1" d="M280.8 10.4c.2.2.5.5.7.8-.6.1-.8.1-.7-.8m-1.4-.2c.1-.4.9.1 1 .1-.5.6-.6 0-1-.1m2.6.3c.1.4 0 .7.1 1.1-.4-.6-.1-.3-.6-.3.1-.4.2-.7.5-.8M278.1 7c-2.7-2.3-3.8-6.8-3.8-11.2 0-2.5.6-4.8 1.5-7.3.4-.9 1-2 1.2-2.9.2-.7.2-.7 0-1.4.4-.2.6.1 1-.3.5-.5.3-.9 0-1.3.5-.3.7-.4 1.1-.9l.2-.5c0-.1.5-.6.6-.7.5-.7.8-1.5 1.4-2.1.5-.5 1.3-.8 1-1.6.9.3 1.9-1.3 2.6-1.9 1.2-1 2.6-1.6 3.9-1.9 1.4-.3 2.5-.1 3.8 0 .9.1 2.6-.9 3.1.2-.4.1-.7-.1-1.2.1.3.5.7.8 1.2 1.1.2.1.7.8 1 .8.5 0 .7-.6 1-.1-.9.6 0 1.6.6 1.1-.2-.4-.4-.6-.6-.8 1.4-.4.3 1.6 1.5 1.5-.2.8-.2 1.4.3 1.9s.8.4.9 1.2c.1.3 0 1.1.2 1.4.4.4.7-.2.9.5-.3.1-1.1.7-.7 1.3.1.1.2-.2.4.1.2.5.4 1 .1 1.7 1.1-.2 0 3.1 0 4-.1.9-.2 1.7-.4 2.6-.3.9-.1 1 .1 1.9-.5-.1-.5.1-.8.6.1.2.1.3-.1.4s-.3.3-.3.5l-.3.9c-.3.7-.4 1.5-.8 2.2-.1.2-.1.4 0 .6-.1 0-.2.1-.3.1-.2.3-.5.3-.3.9-.5 0-.4.5-.7.8-.2.3-.5.3-.7.6-.2.2-.3.4-.3.7-.2.2-.4.4-.7.6-.4.4-.7.9-1 1.4-.2.3-.4.6-.7.9-.3-.1-.4.1-.5.4-.3.2-.3.4-.8.6-1 .4-1.8.9-2.7 1.5-4.2 2.8-8.6 2.6-11.9-.2m11.7 5.4c2.3-1.2 5-3 6.8-4.8.9-.9 2.4-2.2 3.2-3.4.2-.3.3-.7.5-.9.1-.2.3-.3.5-.6.1-.2-.2-.3-.1-.5.2-.4.6-.6.9-.8-.6-1 .9-.8.3-2.1 1.7-.7 2.3-3.5 2.9-5.4.2-.5.1-.8.2-1.4.1-.5.1-.5.3-1 .4-1.2.7-2.3.7-3.6 0-2.1-.4-4.2-.6-6.3-.2-2.3-.7-4.5-1.4-6.5-2.7-7.1-8.9-11-15.8-8.3-10.9 4.2-18 22.1-15.8 34.4 1.6 9.4 9.2 15.4 17.4 11.2"/><path id="Fill-11_1_" class="st1" d="M261.3 19.5c1-1.5 1.8-4.3.4-5.2-.6-.4-1.4-.3-2.1.2-.8.5-1.2 1.6-.2 1.9.6.2 1.5-.5 1.1 1.1-.2 1-1.2 2.2-2 2-1.7-.5-.4-4.5.3-5.9 1.6-2.7 3.5-1.2 3.8 1.2.1.6 0 2.2.5 2.5.7.4 1-1 1.1-1.6.8-4.7-4.2-7.5-6.8-3.2-1.2 1.9-1.7 5.1-.8 6.8 1.1 1.5 3.3 2.3 4.7.2"/><path id="Fill-13_1_" class="st1" d="M319.3-26.7v-4.7c.8-.2 3.1-.4 3.7-1.4 1.1-1.7-1.4-1.3-2.1-1.1-.5.1-1.3.6-1.7.2-.6-.4-.3-1.8-.5-2.5-.2-1.9-2-2.5-2 .1 0 1.5.5 3.5-1.1 4.1-.7.3-4.4.3-2.7 2.1 1.1 1.2 3.7-1.8 4.2.3.2.7 0 1.4 0 1.9.1 1.6 1.3 1.2 2.2 1"/></g></g><path id="Fill-11" class="st1" d="M29.4 402c-3.8-1.2-6.9-4-8-8-.5-1.9-.6-3.8-.4-5.8.1-1.6.1-4 1.7-4.9.3 1.3-.2 2.6-.3 3.9-.1 1.2 0 2.5.2 3.6.4 2.1 1.2 4 2.6 5.5 2.9 3.1 8.2 4.7 12.3 3.9.9-.2 3-1.5 3.8-.7.7.7-.6 1.4-1.2 1.7-3.2 1.7-7.2 1.8-10.7.8"/><path id="Fill-11_2_" class="st1" d="M24.5 416.3c-6.9-2.1-12.2-7.1-14.2-14.2-1-3.4-1-6.8-.7-10.4.2-2.8.2-7.1 2.9-8.8.6 2.3-.3 4.7-.4 7-.1 2.2 0 4.4.4 6.5.6 3.7 2.1 7.2 4.7 9.9 5.2 5.5 14.6 8.4 21.9 6.9 1.5-.3 5.4-2.7 6.8-1.3 1.3 1.3-1.2 2.4-2.2 2.9-5.9 3.1-13 3.3-19.2 1.5"/></svg>