<svg version="1.1" id="Layer_1" xmlns="http://www.w3.org/2000/svg" x="0" y="0" viewBox="0 0 743 711" xml:space="preserve"><style>.st1{fill-rule:evenodd;clip-rule:evenodd;fill:#24262b}</style><g id="react-group-221"><g id="react-group-222"><path id="react-path-225" d="M386.3 68.8L377 93.4c-2 5.2-4 10.5-5.9 15.7-.7 1.9-1.1 3.8-2.5 5.1-3.2 3-9 5-12.8 7.1-2.6 1.4-5.2 2.9-7.7 4.3-1.3.7-4.3 1.7-5.2 2.9-1 1.4-.5 3.8-.5 5.7v46.6c13.3-1.7 26.7-3.3 40-5-17.8 20.5-35.5 41-53.3 61.5-4.4 5.1-9.7 9.9-13 15.8-6.9 12.5-13.7 25.1-20.6 37.7l-19.2 35.1 57.5-2.4c14.9-.6 30.2.3 44.5-3.9 11.8-3.5 23.6-7 35.5-10.4 1.6-.5 6.5-1 7.6-2.3 1-1.2 1-5.7 1.3-7.2 5.6-28.7 12.7-60.3 29-84.9 11.7-17.7 27.4-33.2 41.8-48.6 5.6-6 11.4-12 16.8-18.2 1.4-1.6 3.4-3.4 4.3-5.3.6-1.2 1.4-3.6 1.1-4.7-.2-.5-3.9-2.2-4.4-2.5-3.8-2.4-7.5-4.9-11.2-7.3-10.5-6.9-21-13.8-31.5-20.6-8.2-5.3-16.4-10.9-25.1-15.5-9-4.7-18.9-8.1-28.3-11.8-9.8-4.1-19.3-7.8-28.9-11.5" fill-rule="evenodd" clip-rule="evenodd" fill="#ee5050"/><g id="react-group-223" transform="translate(161 54)"><path id="react-path-226" class="st1" d="M548.9 452.3c-4.6 4.3-12.9 10.1-19.5 7.5-3.3-1.3-6.1-4.2-9.2-6.1-3.5-2.2-6.9-4.4-9.9-7.3-6-5.9-10.5-14.4-17.6-19-2.4-1.5-7-1.9-8.7-4.3-.7-1.1-.8-2.8-.7-4.1.3-2.7 1.8-2.6-.7-4.6h3.8c.1-1.5-1.4-1.6-2.5-1.4.5-2.4 1-11.6-3.3-7.4-3.7 3.6-1.9 9.6-4.5 13.6-2 3-7.4.6-8.1-2.7-.3-1.5 1.3-3.8 1.5-5.3.4-3.2-1-6-3.1-8.5-4.6 3.1-2 9.4-4.6 13.4-2.4 3.6-7.6 1.9-11.3 1.3-4.3-.8-9.2 0-13.3-1-6.2-1.5-3.9-8.9-4.5-13.6-.7-5.1-5.8-12.1-4.2-17.2 1.7-5.5 11.3-6.7 15.9-8 10.6-3 25.6-3.6 33.5-12.2 6.2 7 11.3 14.9 17.8 21.6 7.1 7.2 14.6 13.9 21.4 21.5 7.1 7.8 14.4 15.5 21.2 23.6 3 3.5 5.6 7.3 8.7 10.7 2.9 3.1 5.8 5.9 1.9 9.5m-314-135.4c3.2-1.7 3.7-.6 3.7 2.9-.9-1.7-1.9-2.2-3.7-2.9M207.4 386v-6.3c3.2-.1 1.2 5.3 0 6.3m-.7 9.3c0-2.8-.1-5.4.7-8.1.4 2.9 1.2 5.5-.7 8.1m13.4 190.6c2.9.3 7.3-1.7 9.7.5 2.5 2.3 2.3 9.1 2.9 12.2 1 5.2 1.8 10.4 2.7 15.6.5 3.4 1.2 6.9-2.7 8.2-5.7 1.9-13.8-.8-19.8-1.1-11.7-.5-23.4-1.2-35.2-1.4-11.4-.2-22.8 0-34.1 1.1-5.1.5-10.1 1.5-15.2 2.3-2.7.5-9.8 2.3-12.2.1-4.5-4.2 3-14.1 6.2-16.9 6-5.2 14.6-8.9 22.1-11.2 4-1.2 10.8-4.6 13.9-.8 2.4 2.9 2.3 6.8 5.8 9 8.1 5.1 3.4-9.5-1.7-11.3 3.4-7.9 9.9 3.3 12.5 6 1 1 4.1 4.1 5.4 2.5 1-1.2-1-5.5-1.4-6.6-.6-1.8-2-4.4-1.6-6.4.7-3.5 5.6-4.4 8.5-4.7 4.5-.4 8.9 1 13.4 1.5 7.1.8 14 .8 20.8 1.4m-45.2-325.7c-8.9.7-17.8-.7-26.7.5-8.4 1.1-16.3 4.1-24.2 7 11.8-27.6 27-52.7 45.5-76.2 9.2-11.7 19.2-23.4 29.2-34.4 4.6-5.2 9.4-10.1 14.2-15.2 4.3-4.5 7.3-12.1 12.5-15.4 4.4-2.9 12-.8 16.9-.6 5.5.2 12.2.7 17.5-1.1 3.9-1.3 4.9-4.9.1-5-5.7-.1-11.4.5-17.2-.1-15-1.4-29.5-3.7-44.7-2.4-3.5.3-8 1.8-11.4 1.3-2.4-.3-.8.9-2.5-1.1-.7-.8-1.4-2.5-1.6-3.5-1.1-5.6 2-13.6 2.7-19.3.7-5.2.1-11 1.4-16.1 1.2-4.6 4.7-5.3 9.1-5.7 11.9-1.4 24.1-2.1 36.1-3.1 27.4-2.3 55.6-5.8 82.8-.1 9.8 2.1 21.8 5.3 30.5 10.4 2.7 1.6 5.5 3.5 4.5 6.8-1 3.5-6.1 7.1-8.6 9.4-18.6 16.8-36.5 34-49.5 55.7-16.6 27.6-26.2 57.3-31.8 88.9-1.2 6.8-2.3 10.4-9.3 12.3-7.5 2.1-14.8 3.5-22.5 4.1-17.8 1.5-35.4 1.5-53 2.9m5.9-182.5c-1.3 10-3.2 20-3.4 30.2-.1 3.8-.4 5.7-4.5 6.6-4.8 1-9.7 1.8-14.5 2.8-23.2 5-46 11.2-68.7 18.2-22.1 6.8-43.8 14.4-66.4 19.4-9.7 2.2-21.1 3.6-29.9 8.4-9.5 5.1-8.3 13.6-9.1 22.8-1.1 12.4-4.8 24.3-6.1 36.7-.6 5.9-1.2 11.8-1.1 17.8.1 5.1.8 10.7-2.6 14.9-6.8-9.1-10.1-20.6-11.4-31.8-.7-5.4-.4-10.9-.6-16.4-.2-4.4-.1-11.4-2.9-15.1-6.2-8-14.3 24-15.1 27.4-1.3 5.7-2.4 11.5-3.7 17.3-.6 2.5-1.3 11.8-4.7 12.7-7.1 1.9-5.5-18-5.6-21-.2-6.1-.4-12.2-.2-18.3.1-4.4 1-9.2.5-13.6-1.2-10.8-7.3.6-9.1 4.6-4.3 10.2-6.3 21.1-10.2 31.4-.6 1.7-2.2 7.5-4.6 7.6-2.7.1-2.7-5.9-2.8-7.6-.9-10.1-3.9-20.2-3-30.5.9-10.3 4.5-21 9.7-30 10.8-19 30.4-29.9 49.2-39.9 21.5-11.4 44.1-20.4 67.3-27.7 27.8-8.8 56.4-15.9 85.2-21 14.6-2.6 29.5-4.4 44.3-5.9 5.2-.5 10.4-.8 15.5-1.8 2.1-.4 9.1-2.2 8.5 1.8m15-32.5c-7.3.1-14.8-3.5-22-5-8.5-1.8-16.8-4.3-25.3-6.1-16.6-3.6-33.3-7.1-49.9-10.7-7.2-1.6-14.5-3-21.7-4.7-7.7-1.8-16-3.9-23.9-1.9-11.9 3-17 16-21.3 26.2-3.1 7.2-5.5 15.2-10.3 21.5-1.7 2.2-4.2 4.9-7.3 4.2-5.8-1.3-4.9-9-4.1-13.2 1.1-6.1 2.6-12.2 3.8-18.3.5-2.5 4.3-18.6-2.5-16.1-5 1.9-7.7 14.1-9.6 18.4-1.4 3.2-2.9 6.5-4.5 9.6-2.1 4.2-8.1 18.3-14.8 16.5-9.5-2.6-.4-27.7 1.2-33 .9-2.9 10.6-24.9 2.4-23.1-3.5.8-6.9 7.2-8.7 9.9-3.2 4.8-6.3 9.6-9.3 14.4-3.1 5-4.6 10.7-7.6 15.7-1.6 2.6-4.8 6.1-8 3.7-4.9-3.8-2-16.8-1.1-21.7C-47 22.2-43 12.8-37.5 5.3-29.2-5.9-13.7-9.6-.6-11.8c16.9-2.8 34-2.1 51-.4 19.1 1.9 37.9 3.9 56.7 7.7 19 3.9 37.9 7.7 56.6 12.8 8.8 2.4 17.7 4.6 26.4 7.4 9.2 3 18.2 6.8 27.7 8.9-3.3 8.3-6.7 16.6-10 24.9-3.2-2.9-7.6-4.4-12-4.3m163.3 22.9c2.9-1.6 6.1-2.4 7.2-5.9.9-3.1-.7-6.7-1.4-9.7-2.2-8.4-2.7-17.1-.8-25.6 1.8 2.8 8.6 13.5 12.8 7 2.5-3.9-4.2-9.5-6.2-12.3 4.3-2.7 10.4-9.8 15.4-5.5 3.2 2.8 4.6 5.4 8.9 6.8 5.2 1.6 10.2 1.3 15.5.8 3.7-.3 4.6-.8 6.1 2.1 1.1 2.3 1.7 5.1 2.4 7.5 1.3 4.8 4.4 14.2.8 18.7-3.2 3.9-15.5.6-17.2 5.6-.9 2.8 3.5 2.9 5.2 4.2 2.1 1.7 3.8 4.4 5 6.8.8 1.8 2.1 4.7.7 6.6-2 2.5-5.7.6-7.3-1.2-2.1-2.4-2.8-5.8-4.6-8.4-3.3-4.9-3.5-1-4.3 2.5-.9 3.6-3.1 3.4-6.5 3.8-5.9.8-11.8 2-17.5 3.5-2.9.8-5.8 1.8-8.6 3-1.8.8-4.9 3.1-6.9 3.1-3.6 0-6.1-6-8-8.5 3.1-1.5 6.2-3.2 9.3-4.9m194.1 370c-9-10.8-16.8-22.6-25.7-33.5-8.8-10.8-18.9-20.2-28.8-30-4.7-4.6-9.1-9.7-14.2-13.7-3.8-3-6.8-3.1-11.4-1.7-13.1 3.8-26.4 8.4-38.8 14.2-11.5 5.3-22 12.2-34.6 15.1-12.8 3-26 4-39.1 3.3-13.4-.8-26.1-3.6-38.9-7.7-12.1-3.9-24.7-7.3-35-15-10.8-8.1-19.2-19.7-27-30.6-3.9-5.5-7.8-11.3-10.5-17.6-2.3-5.4-3.8-11.9-7.9-16.3-1 1.4-2.3 2.7-2.8 4.3-.2.8 1.1.7 1 1.3-.3 1.1-1.8 2.3-2.7 2.9-3.2 2.2-3.2.5-2.4 4.6.5 2.4-.4 8-4.4 6.2 1.5 1.8-.9 4-1.6 5.4-.5-.6-1.2-.8-2-.6 1.5 2.9.6 3-.8 5.3-.3.4-1.2 2.6-1 2.4-1.4 2.1-3.1 2.6-3.9 5.1-.7 2.1-.5 4.4-1.3 6.5-.9-1.3-1.9-2.6-2.8-3.9.2 1 .6 2.5 1 3.4.3.6 1.5 1.9 1.5 2.2-.1 1.2-1.5.9-1.9 1.9-.8 1.9.3 2.2-.1 4-.5 2.1-1.8 1.3-2.4 3.1-.1.3.8 1.7.7 2.4-.2 1-1.2 1.6-1.5 2.6-.9 2.4-.5 4.1-1.7 6.4-.5.9-1.1 1.5-1.4 2.5-.3.9.3 2.8-.2 3.5-2.6 3.8-2.3-2.7-2.1-4.4 1.7-13.6 7.1-27.7 12-40.4 2.5-6.3 4.8-12.9 7.9-18.9 1.2-2.4 2.7-5 4.7-6.8 2.6-2.4 6.2-3.3 8.6-5.9-.4.4 2.5-2.3 2.1-1.4.4-.8-.3-1.9-.1-2.7.3-1 .9-1.2 1.6-2 1.2-1.5 2.7-2.3.8-4.2 2.8-.6 4.2-1.5 4.8-4.6.4-2.2-.4-2.1 1-3.6 1.5-1.5 2.2-.3 3.1-2.9 1.1-3.1 1.8-7.3 2.5-10.5.6-2.8-.8-6.9 1.5-8.9 3-2.5 5.7-1.4 5.2-6.5-.5-4.9 1-7.9 2.5-12.6 3.1-9.3 4.3-19.2 7-28.6 5.8-20.1 15.9-38.3 26.8-56 10.1-16.4 24.2-30.3 37.8-43.7 3.7-3.7 7.4-7.4 10.8-11.4 2.9-3.5 4.2-8.2 7-11.5 1.7-2 4.8-2.9 7.2-3.9 3.9-1.8 8.6-4.1 13-3.7-1.8 5.9-2.3 12.9 2.9 17.3 6.3 5.4 12-.2 17.8-3.3 10.5-5.6 25.6-.5 34.8-8.9 2.2-2 2.8-5.2 5.1-7.1 1.7-1.4 4-1.7 5.9-2.7 5.7-3.1 8.5-8.8 6.3-15.1-2-5.7-5.2-7.7 1.8-10.6 5.7-2.4 7.9-5.9 5.3-12.2-2.5-6-7-6.7-11.2-10.7-4.1-3.8.6-8.3 3.7-11.2 4-3.7 4.8-7 .1-10.9-4.8-4-11.8-3.9-17.4-1.9-6.4 2.3-10.6 6-13.3 12.1-2.8 6.2-9.6 4.5-15.1 2.7-5.3-1.6-6.7-5.2-10.1-9-3.9-4.3-11.7-.6-16.3 1.3-11.2 4.8-22.3 12.4-22.8 25.7-.3 8 3.1 14.8 4.9 22.3 1.6 6.9-9.4 6.3-11.3 12.9-20.3-10.8-43-14.1-65.7-14.8-24.2-.8-48.7-1.4-72.6 2.4 5.6-9.7 8.5-20.3 13.3-30.3 1.4-2.9 2-2.6 5.1-1.8 5.9 1.7 11.8 3.5 17.7 5.2 21.5 6.3 42.6 13.8 63.4 22.1 2 .8 6.5 3 8.3.6 2-2.8-2.7-6.2-4.6-7.6-8.4-6.1-18.8-9.9-28.2-14.2-20.5-9.4-43.2-13.9-64.7-20.9C172.8-2.5 125-14 77-21.6c-11.7-1.9-23.6-2.1-35.3-3.5-10.4-1.2-20.9-1.2-31.3.1-19.3 2.3-41.6 7.3-52.5 25C-52 15.8-58.5 33.7-56 52.6c.8 5.7 3.2 12.4 10.2 10.9 4.9-1 7.4-5.1 9.7-9.2 3.4-6.1 6.8-12.2 10.5-18.1 1.4 8.9-3.6 17.6-2.8 26.6.5 6.1 3.9 15.8 11.9 14.1C-5.8 74.7-1.3 57.6 4 49.4c.3 6.3-2 12.5-1.3 18.9.7 6.2 5.5 12.1 12.4 11.3 6.5-.8 10.7-7.7 13.4-12.9 3.8-7.2 6.6-15 10.3-22.3 3.5-6.8 7.6-15 16-16.3 7.4-1.1 16 1.5 23.3 2.6 20.4 3 40.4 8.2 60.6 12.4 21.6 4.5 43.8 7.2 64.7 14.4-7.4 10-26.7 7.9-37.6 8.9-16.6 1.6-33.4 2.9-49.9 5.3-16.3 2.4-32.3 6.6-48.4 9.6s-32.1 6.1-47.7 11.3c-28.9 9.6-58.3 21.8-83.7 38.6-11.8 7.8-22.4 16.8-29.7 29.1-7.4 12.4-10.9 26.5-12.3 40.7-.8 8.9.6 16.6 2.3 25.2 1.2 6.3 1.7 16.8 6.7 21.3 9.6 8.8 17.6-26.8 19.3-31.1 1.3 7-.8 46.6 14.6 43.4 6.9-1.4 8.4-10.9 9.6-16.5 2.1-10.4 3.9-20.9 7.5-30.9 2.3 13.4 3.2 27.4 8.1 40.3 3.3 8.5 12.6 23.6 19.1 9.1 4.9-10.9 3.2-23.5 3.8-35.1.6-12.9 4.3-25.3 5.7-38 .5-4.9 0-10.5 5-13.2 4.3-2.3 10.5-3.1 15.1-4.4 13.8-3.8 27.6-7.3 41.3-11.4 13.7-4.1 27.2-8.8 40.8-13.4 12.9-4.4 26.2-6.9 39.3-10.7 7.4-2.2 14.8-4.4 22.4-6.2 3.5-.8 7.1-1.5 10.6-2.4 2.6-.6 6-3.1 8.7-3 2.8 0 3.8 2.4 6.9 2.6 3.4.2 6.8-.6 10.2-.8 8.2-.6 17-1.7 25.2-.5-4.9 5.9-11.6 9.9-17.4 14.7-6.7 5.6-13.2 11.6-19 18.2-11.6 13.3-22.5 27.3-32.7 41.7-10 14.2-18.1 29.7-25.1 45.6-3.5 7.9-6.9 16-9.3 24.3-1 3.4-1.8 6.8-3.6 9.9-1.6 2.8-4 5.3-2 8.7 1.3-.8 2.5-1.9 3.7-2.9-1.4 9.8-4.4 19.4-6 29.2-1.5 9.7-1.5 19.6-1.4 29.4.2 20.4 1.7 40.4 5.9 60.5 4.2 20.3 9.6 40.4 16.4 60 6.5 18.8 13.1 38.6 22.2 56.3 9.8 19 21.3 38.9 35.5 54.9-9.2 3.8-21 3.1-30.7 4.6-10.2 1.6-19 4.6-27.7 10.2-8.8 5.7-13.6 13.1-14.8 23.5-.9 7.4-3.4 17.7 6.3 19.6 7 1.4 14.8-.9 21.8-1.5 12.3-1 24.5-1.6 36.8-2.2 12.3-.5 24.5-1 36.8-1.4 5.8-.2 11.5-.3 17.3-.5 2.6-.1 4.2-.1 6.5.6 1.8.6 1.7 1.8 3.7.3 3.3-2.4 2.6-10.2 2.5-13.6-.1-5.2-.6-10.5-1.7-15.7-.6-3.1-8-22.7-2.2-23.6-6.6-7.3-9.3-17.7-12.3-26.9-3.7-11.5-7-22.9-9.6-34.7-5.5-25.2-7.9-50.7-7.9-76.4 25.5 15.7 52.5 24.2 82.6 25.2 29.9.9 62.7-1.5 91.1-11.5 13.1-4.6 24.9-10.6 36.2-18.8 4-2.9 8.4-9.5 13.7-9.4 6.3.1 13.4 2.5 19.7 3.6 12 2 27.7 3.1 37.9 10.5 5.5 4 9.5 9.7 14.4 14.3 3.8 3.5 8.7 5.5 12.4 9 4 3.8 2.4 8.8 9.1 9.1 5.7.3 11.9-2 16.8-4.7 9.6-5 20-16.4 11-27.3"/><path id="react-path-227" class="st1" d="M459 183c14.3 10.2 30.8 17.1 45.8 26.3 3.7 2.3 15.4 7.1 15.3 11.3-.1 2.5-3.6 5.6-5.1 7.3-2.6 3-5.1 5.9-7.5 9.1-11.1 14.3-21.6 28.8-33.6 42.4-1.8 2-7.3 11.8-9 7-.8-2.2-.1-4.7-2.2-6.7-1.1-1.1-5.2-1.6-4-3.9.8.4 1.6.7 2.4 1.1-.6-1.8-.6-3.8-1.5-5.5-.6-1.1-1.7-1.6-2.1-2.8-.5-1.7.4-3.6.2-5.3-.2-1.7-1-3.3-1.6-4.9-3.1-9.5-4.2-19.1-5.8-28.9-1.6-9.7-4-19.1-5-28.9-1-10.4-2.3-20.7-3.9-31 3 .4 5.3 3.7 7.4 5.5 3 2.8 6.6 5.4 10.2 7.9m-11.2 100.4c-.7-.5-1.2-1.2-1.6-2 7-3.5 2.8 2.5 1.6 2m-4.3-7.4c-3.1.8-5.3 1-7.6-.2-.2-.1 0-1-.4-1.2-.4-.2-.9 0-1.2-.1-1-.5-2.8.6-3-1.4 3.9-1.2 7.8-3.4 11.9-3.8 5.7-.6 5.5 5.3.3 6.7m-13.4-11.6c-4.2 1-7.6 3.3-12.1 2.7-4.2-.6-7.8-2.7-11.1-5.2 8.2-2.3 16.8-2.7 25.1-5 2.7-.7 6.2-2.7 9.1-1.9 3.2.9 3.4 3.9 4.4 6.6-5.2.9-10.3 1.7-15.4 2.8M404 252.9c-4 1-8.1 3.1-11.5-.6-.5-.6-1 0-1-1.8.1-1.9 1.8-3.1 3.3-3.8 3.5-1.6 8.4-.6 12.1-.8 5.9-.4 11.9-1.6 17.7-2.5 4-.7 8.2-2.1 12.3-1.8 3.2.2 7 2.9 2.4 4.9-4.2 1.8-10.6 1.5-15.2 2.3-6.7 1.1-13.5 2.5-20.1 4.1m-4-18.9l.8.8s1.5-1.3 2-1.3c2-.2 4.1 0 6.1-.2 4.7-.3 9.4-1.1 14-2 3.8-.7 7.6-2 11.5-1.7 3.3.3 3.7 1 3.9 4.2-8.5 0-17.3-.2-25.7 1.6-5.5 1.2-11.5 4.7-14.2-1.6.5.1 1.1.1 1.6.2m5.4-13.7c2.1 1.6 7.9-1.1 10.4-1.3 2.8-.3 5.4-.6 8-1.3 2.4-.6 10.2-3.7 12-.7 2.8 4.5-8.5 5.3-10.3 5.5-7.5.9-15.3 1.7-22.6 3.7.9-2 1.7-4 2.5-5.9m10.3-15.2c.5 2.1 17.5-5.5 17.8 0 .2 4.2-16.8 6.4-19.8 6 .7-2 2.6-3.7 2-6m5.7-12.9c.4-4.2.9-4.1 4.3-4.5 2.5-.3 6-1.8 5.4 2.7-.7 3.9-10.1 6-9.7 1.8m6-14.4c.8-2.2 2.6.8 2.6 1.9.1 3-2.2 2.4-4.4 2.4.7-1.4 1.3-2.8 1.8-4.3m28-16.7c-.5-.5-3-.7-3.7-1-1.8-.6-1.5-2-3.8-.7-.1-.1.1-1.1 0-1.2-.1 0-1.6-.6-2.2-1-1.2-.8-2.4-1.6-3.5-2.6-1.2-1.1-2.4-2.6-3.8-3.4-.6-.4-1.1-.9-1.8-1-1.8-.3-1.3 1-2.9 1.2-1 .2-1.7-1-3-.5-1.1.4-1.8 2-2.3 2.9-1.8 3.4-3.2 7-5 10.4-9 17.5-19.3 34.3-28 51.9-4.2 8.5-8.6 17.1-11.6 26.1-2.1 6.5-7 16-2.8 22.5 3 4.7 9.1 6.8 13.9 9.1 7.3 3.4 13.9 7.9 21.3 11.3 8.7 4 17.2 8.1 25.8 12.6 3.6 1.9 6.9 4.6 10.5 6.4 2.2 1.1 5.6-.8 6.4 1.7 2.8-3.4 7.3-1.1 10.5-3.5 1.9-1.4 3.3-4.1 4.8-5.9 2.4-2.6 4.9-5 7.3-7.5 9.6-10 18.4-20.5 27.1-31.3 8.3-10.3 18.1-20 25.1-31.3 2.8-4.5 3.3-9.2 1.5-14.1-1.3-3.6-4.6-9.1-9.2-6.7 1.8-2.9-5-6-7.1-6.6 0 0-.4 2.2-1 2.2.2 0-1.7-5-2.6-5.6-2.5-1.9-5.6-4.1-8.3-5.7-2.5-1.4-5.2-2.1-7.6-3.8-3-1.9-5.7-4.3-8.6-6.2-2.9-1.9-6-4.1-9.2-5.4-2.7-1.1-5.2-1.3-7.7-3.2-3.1-2.3-5.7-3.8-9.2-5.3-2.9-1-7.2-2.2-9.3-4.8"/><path id="react-path-228" class="st1" d="M39.7 431.3c.6-1.3 1.1-2.6 1.7-3.9.7 2.3.9 3.4-1.7 3.9m.8 6.1c-1.2.2-.7-3.6-.7-4.3 2 1.2.3 2.7.7 4.3m-1.9-11c1-.6 2.1-1.2 3.1-1.8-1.4 2.7-.9 1-.3 2.8-1.1.3-2.2-.1-2.8-1m-6.2 20.9c-3.9 14.1-16.2 25.2-29.2 30.9-7.5 3.3-14.8 4.1-22.9 3.8-3.1-.1-6.8-1.2-9.8-1-2.3.1-2.2.2-4.1 2.2-.8-1.6-.2-2.6-1.9-3.6-2.1-1.1-3 .2-4 1.8-1.4-1.4-1.9-2.2-3.7-3h-1.6c-.3-.1-2.2-1.3-2.8-1.6-2.5-.9-5.3-1.3-7.6-2.6-2-1.2-3.6-4.4-5.9-1.9 0-4.2-5.6-5.9-8.2-8.1-4.1-3.4-7.4-8.5-9.4-13.3-2.2-5.2-2.9-10.2-3.9-15.6-.7-3.7-5.4-9.2-2.6-12.9.7 1.6.4 3.2 1.5 4.6 1-1.9 1.5-4.1 2-6.2.2-1 1.5-4.1 1.4-5-.3-1.8-2.6-1.9-1.3-4.2 2.6 2.9 4.7-2.2 2.8-4.2-1 1.1-1.3 2.4-1.8 3.7-2.6-5.2 4.6-3.5 3-8.2 2.6-.5 4.1-1.2 5.1-3.7 1.1-2.9.3-3.5 2.8-5.4.9-.6 3.3-1.6 3.7-2.7.9-2.1-1.3-2.7.6-4.6.6 1.1 3.2 3.4 4.6 1.2.3-.4-.9-.7 0-1.7 1.3-1.5 2.7-2.9 4.8-2.6-1.7-4.2 9-4.5 11.8-5.5 2.8-1 5.1-1.6 8-1.9 2.9-.2 3.1-1.1 5.5-2.8.2 2.5.8 2 2.6 2.4.4-.7.9-.8 1.3-.2.4.4 1 .6 1.6.6 1 .1 2.1-.1 3.1-.1 2.4 0 4.9-.2 7.3-.1.6-.1 1.2-.3 1.7-.6.2.4.4.8.7 1.3 1.3.2 1.3 1.7 2.9 0 .5 2.2 1.8 1 3.2 1.6 1.3.5 1.5 1.4 2.6 2 .8.6 1.6.7 2.5.2.8.6 1.7 1.2 2.5 1.8 1.6.9 3.5 1.4 5.1 2.1 1.1.5 2.2.9 3.3 1.4 0 1.3.6 1.8 1.8 1.4 1 .9 1.3.8 2.3 2.3 2.3 3.4 4.3 6 7.2 9 12.3 13.3 16.2 31.7 11.4 49m3.9-55.6c-5.7-7.6-13.7-16.3-20.9-21.1-3.7-2.4-8.8-6.8-13.3-8.1-1.1-.3-2.2-.3-3.2-.6-.8-.2-1.2-1.1-2.2-1.2-.6-.1-.7 1.3-1.4 1.2-1.4-.3-2.3-1.7-3.3-2.6-2.2 3.7-3.3-2.5-6.5 1.7-3.8-5.9-12.7-4.6-18.7-4.3-1.8.1-2.6.7-4.2 1.2-1.5.4-1.6.3-3.2.3-4 0-7.6.5-11.3 2.2-6.2 3-12 7.6-17.9 11.2-6.6 4-12.6 9.1-17.7 14.9-18.3 21.1-23.2 51.9-8.6 76.4 23.2 38.9 83 43 116.9 16.6 26.2-20.4 36.2-60 15.5-87.8"/><path id="react-path-229" class="st1" d="M323.4 282.4c-.7 1.6-6.7 1-6.9-.8-.2-2.8 8-1.9 6.9.8m6.4-1c3.4.3 9.1 2.6 12.4 1.2 5.1-2.2-.3-5.5-3-6.5-2.8-1-6.9-.5-8.3-3.4-1.1-2.2 1.6-8.2-1.7-7.3-3.4 1-2.4 9.7-7.8 6.8-2.6-1.4-1.5-9.9-5.8-5.6-1.2 1.2-1.3 3.4-2.8 4.3-1.6.9-3.6 0-5.3 0-4.5.2-5.9 4.4-1.4 6 1.7.6 8 1.4 4.2 4.1-2.4 1.7-7.8-1.9-9.8 1.1-2.8 4.1 4.8 4.2 6.8 5.4 3.5 2.1.6 7 .9 10.4.4 5.3 3.5 4.2 4.6-.3.9-3.8-.2-9.3 5.5-7.8 9.3 2.5-5.2 14.3 1.6 17.4 4.4 1.9 5-8.5 5.3-10.3 1.3-6.7 5-5.1 10.7-4.9 6.6.2 8.2-4.7 1.2-6.1-2.2-.4-5.3.1-7.2-1.3-1.2-.6-2.8-3.5-.1-3.2"/><path id="react-path-230" class="st1" d="M85.7 498.7c-5.4-1.9-14.3-1.5-15.6 5.4-.6 2.9.5 6 2.5 8.1 2.3 2.4 6 2.7 5.8-1.6-.1-2.9-2.9-5.5 2-6.1 3.1-.4 7.6 1.9 7.7 5.3.3 7.6-12.8 8.2-17.7 6.9-9.6-2.6-7-12.7-.4-17.3 1.7-1.2 6.6-3 6.8-5.5.3-3.3-3.8-2.6-5.7-2.2-14.6 3.2-17.8 27.7-2.5 32.3 6.9 2.1 16.7-.1 20.9-6.3 3.9-6 4-16.3-3.8-19"/><path id="react-path-231" class="st1" d="M-108 325.4c-4.6 2.2-9.1 4.4-13.7 6.6-1.5-3.2-4.1-12.1-7.9-13.2-6.2-1.8-2.3 7.8-1.2 10 .9 1.8 2.9 4.6 2.4 6.8-.7 2.9-4.8 3.9-6.9 5.4-5.3 3.7-5.3 11.5 2.4 8.2 4.3-1.9 9.7-7 13.1-1.2 1.5 2.7 5.2 17.9 9 8 2.4-6.1-9-12.5-3.4-17.7 1.8-1.7 3.9-1.8 5.7-2.8 4.3-2.4 1.9-6.6.5-10.1"/><path id="react-path-232" class="st1" d="M561.6 105.8c-2.7-1-6.1-2.9-9.1-2.3-3.2.7-4.5 3.9-6.9 5.9-6.4 5.3-10.1-2.6-13.6-6.9-3.3-4.1-7.3-5-12-2.6-1.9 1-9.7 5.6-8.3 8.5 1 2.1 4.8.2 6.2-.2 2.9-1 5.5-1.9 8.4-.4 5.5 2.7 6.9 10.2 13.5 11.3 6.9 1.2 7.1-5.3 12-7.8 3.3-1.6 5.6 1.3 8.7.7 3.2-.5 4.6-4.9 1.1-6.2"/><path id="react-path-233" class="st1" d="M506.2 132.1c2.4.5 4-4.2 5.5-5.4 2.5-2 6.9-2.4 9.5-.4 5 3.9 3.3 12.3 10.4 14.5 6.4 2 9.4-6.4 14.7-8.5 3.1-1.2 6.5-2 5.3-6.4-.8-3-3.3-3.8-6-2.6-4.6 2-6.2 10.1-11.7 10.2-5.7.1-6.3-8-8.7-11.6-3.7-5.4-11.4-6.7-15.7-1.6-1.2 1.7-7.9 10.8-3.3 11.8"/><path id="react-path-234" class="st1" d="M394 39.3c3.4 2.3 10.1 2.2 13.2-.6 3.2-2.9-1.1-3.4-3.6-3.3-2 .1-5.7 1.1-4.6-2.4 1-3 6.5-1.5 7-4.8-4.1-.7-8.7-.5-11.8 2.8-2.2 2.4-3.4 6.2-.2 8.3"/></g></g></g></svg>