<svg data-name="—ÎÓÈ_1" xmlns="http://www.w3.org/2000/svg" viewBox="0 0 393.83 310.41"><defs><linearGradient id="a" x1="186.9" y1="179.29" x2="396.25" y2="179.29" gradientUnits="userSpaceOnUse"><stop offset="0" stop-color="#86b8e0"/><stop offset=".12" stop-color="#98c4e7"/><stop offset=".33" stop-color="#b2d6f2"/><stop offset=".54" stop-color="#c5e2f9"/><stop offset=".76" stop-color="#d0eafe"/><stop offset="1" stop-color="#d4ecff"/></linearGradient><linearGradient id="c" x1="133.39" y1="29.97" x2="200.73" y2="63.42" gradientUnits="userSpaceOnUse"><stop offset="0" stop-color="#d4ecff"/><stop offset=".24" stop-color="#d0eafe"/><stop offset=".46" stop-color="#c5e2f9"/><stop offset=".67" stop-color="#b2d6f2"/><stop offset=".88" stop-color="#98c4e7"/><stop offset="1" stop-color="#86b8e0"/></linearGradient><radialGradient id="b" cx="375.81" cy="138.43" r="203.92" gradientUnits="userSpaceOnUse"><stop offset="0" stop-color="#173d7a"/><stop offset=".42" stop-color="#153b76"/><stop offset=".82" stop-color="#0e336b"/><stop offset="1" stop-color="#092e63"/></radialGradient><clipPath id="d" transform="translate(-12.63 -6.81)"><ellipse cx="146.28" cy="63.69" rx="18.83" ry="32.61" transform="rotate(-30 146.292 63.699)" fill="none"/></clipPath></defs><g opacity=".4" fill="#fff"><path d="M355.94 92.19l-.28-.16-31-17.9 31.29-18.06 31.27 18.02zm-29.07-18.1l29.07 16.78 29.07-16.78-29.07-16.78z"/><path d="M295.58 92.19l-31.28-18.1 31.28-18.06 31.29 18.06zm-29.07-18.1l29.07 16.78 29.07-16.78-29.07-16.78z"/><path d="M325.76 109.58l-.28-.16-31-17.91 31.28-18.06.28.16 31 17.9zm-29.07-18.07l29.07 16.79 29.07-16.79-29.07-16.78z"/><path d="M355.94 127l-.28-.16-31-17.9 31.29-18.07.27.16 31 17.91zm-29.07-18.06l29.07 16.78 29.07-16.78-29.07-16.75zm-91.64-16.75l-.28-.16-31-17.9 31.29-18.06 31.27 18.02zm-29.07-18.1l29.07 16.78 29.07-16.78-29.07-16.78z"/><path d="M265.37 109.58l-31.25-18.07 31.25-18.06 31.28 18.06zm-29-18.07l29 16.79 29.07-16.79-29.07-16.78z"/><path d="M295.58 127l-31.28-18.06 31.28-18.07.28.16 31 17.91zm-29.07-18.06l29.07 16.78 29.07-16.78-29.07-16.75z"/><path d="M325.76 144.42l-.27-.16-31-17.9 31.28-18.06.28.16 31 17.9zm-29.07-18.06l29.07 16.83 29.07-16.78-29.07-16.78z"/><path d="M355.94 161.85l-.28-.16-31-17.91 31.29-18.06.27.16 31 17.9zm-29.07-18.07l29.07 16.79 29.07-16.79L355.94 127zm-152-51.59l-.27-.16-31-17.9 31.27-18.1.28.16 31 17.9zm-29.07-18.1l29.07 16.78 29.07-16.78-29.07-16.78z"/><path d="M205.05 109.58l-.27-.16-31-17.91 31.28-18.06.28.16 31 17.9zm-29.07-18.07l29.07 16.79 29.07-16.79-29.07-16.78z"/><path d="M235.23 127l-.28-.16-31-17.9 31.28-18.07 31.28 18.07zm-29.07-18.06l29.07 16.78 29.07-16.78-29.07-16.75z"/><path d="M265.37 144.42l-31.29-18.06 31.29-18.06 31.28 18.06zm-29-18.06l29 16.83 29.07-16.78-29.07-16.83z"/><path d="M295.59 161.85l-31.29-18.07 31.28-18.06.28.16 31 17.9zm-29.08-18.07l29.08 16.79 29.06-16.79L295.58 127z"/><path d="M325.76 179.27l-.27-.16-31-17.9 31.27-18.02.28.16 31 17.91zm-29.07-18.08l29.07 16.78 29.07-16.78-29.07-16.79z"/><path d="M355.94 196.69l-.28-.16-31-17.9 31.28-18.06.28.16 31 17.9zm-29.07-18.06l29.07 16.78 29.07-16.78-29.07-16.78zM114.52 92.19l-.28-.16-31-17.9 31.28-18.06 31.28 18.02zm-29.07-18.1l29.07 16.78 29.07-16.78-29.07-16.78z"/><path d="M144.7 109.57l-.28-.16-31-17.9 31.29-18.06.27.16 31 17.9zm-29.07-18.06l29.07 16.79 29.07-16.79-29.07-16.78z"/><path d="M174.88 127l-31.29-18.06 31.28-18.07.28.16 31 17.91zm-29.07-18.06l29.07 16.78 29.07-16.78-29.08-16.75z"/><path d="M205.05 144.42l-.27-.16-31-17.9 31.28-18.06.28.16 31 17.9zm-29.07-18.06l29.07 16.83 29.07-16.78-29.07-16.78z"/><path d="M235.23 161.84l-31.28-18.06 31.28-18.06 31.28 18.06zm-29.07-18.06l29.07 16.79 29.07-16.79L235.23 127z"/><path d="M265.37 179.27l-.28-.16-31-17.91 31.28-18.01 31.32 18zm-29-18.08l29 16.8 29.11-16.8-29.11-16.77z"/><path d="M295.59 196.69l-.28-.16-31-17.9 31.29-18.06.27.16 31 17.9zm-29.07-18.06l29.07 16.78 29.07-16.78-29.07-16.78z"/><path d="M325.76 214.11l-31.28-18.06 31.28-18.06.28.16 31 17.9zm-29.07-18.06l29.07 16.78 29.07-16.78-29.07-16.78z"/><path d="M355.94 231.54l-.27-.16-31-17.91 31.28-18.06.28.16 31 17.9zm-29.07-18.07l29.07 16.79 29.07-16.79-29.07-16.78zM54.17 92.19l-31.29-18.1 31.28-18.06.28.16 31 17.9zM25.1 74.09l29.07 16.78 29.07-16.78-29.08-16.78z"/><path d="M84.37 109.57l-.27-.16-31-17.9 31.27-18.06.28.16 31 17.9zm-29.1-18.06l29.1 16.79 29-16.79-29-16.78z"/><path d="M114.52 127l-.27-.16-31-17.9 31.28-18.07.28.16 31 17.91zm-29.07-18.06l29.07 16.78 29.07-16.78-29.07-16.75z"/><path d="M144.7 144.42l-.28-.16-31-17.9 31.29-18.06 31.28 18.06zm-29.07-18.06l29.07 16.83 29.07-16.78-29.07-16.79z"/><path d="M174.88 161.84l-.28-.16-31-17.9 31.29-18.06.27.16 31 17.9zm-29.07-18.06l29.07 16.78 29.07-16.78L174.88 127z"/><path d="M205.05 179.27l-31.28-18.08 31.28-18 31.32 18zm-29.07-18.08l29.07 16.79 29.07-16.79-29.07-16.78z"/><path d="M235.23 196.69l-.27-.16-31-17.9 31.28-18.06.28.16 31 17.9zm-29.07-18.06l29.07 16.78 29.07-16.78-29.07-16.79z"/><path d="M265.37 214.11l-.28-.16-31-17.9 31.28-18.06.27.16 31 17.9zm-29-18.06l29 16.78 29.07-16.78-29.07-16.78z"/><path d="M295.59 231.54l-.28-.16-31-17.91 31.29-18.06 31.28 18.06zm-29.07-18.07l29.07 16.79 29.07-16.79-29.07-16.78z"/><path d="M325.76 248.96l-.27-.16-31-17.9 31.28-18.07.28.16 31 17.91zm-29.07-18.06l29.07 16.78 29.07-16.78-29.07-16.79z"/><path d="M355.94 266.38l-31.28-18.06 31.28-18.06.28.16 31 17.9zm-29.07-18.06l29.07 16.78 29.07-16.78-29.07-16.78zM54.17 127l-31.29-18.07 31.29-18.06.27.16 31 17.91zM25.1 108.93l29.07 16.79 29.07-16.78-29.07-16.75z"/><path d="M84.37 144.42l-.27-.16-31-17.9 31.27-18.06.28.16 31 17.9zm-29.1-18.06l29.1 16.83 29-16.83-29-16.79z"/><path d="M114.52 161.84l-.27-.16-31-17.9 31.28-18.06.28.16 31 17.9zm-29.07-18.06l29.07 16.78 29.07-16.78L114.52 127z"/><path d="M144.7 179.27l-.28-.16-31.05-17.92 31.33-18 .28.16 31 17.9zm-29.07-18.08l29.07 16.79 29.07-16.79-29.07-16.78z"/><path d="M174.88 196.69l-31.29-18.06 31.29-18.07 31.28 18.07zm-29.07-18.06l29.07 16.78 29.07-16.78-29.07-16.79z"/><path d="M205.05 214.11l-31.28-18.06 31.28-18.06.28.16 31 17.9zm-29.07-18.06l29.07 16.78 29.07-16.78-29.07-16.78z"/><path d="M235.23 231.54l-.27-.16-31-17.91 31.28-18.06.28.16 31 17.9zm-29.07-18.07l29.07 16.79 29.07-16.79-29.07-16.78z"/><path d="M265.37 248.96l-.28-.16-31-17.9 31.28-18.07.28.16 31 17.91zm-29-18.06l29 16.78 29.07-16.78-29.07-16.79z"/><path d="M295.59 266.38l-.28-.16-31-17.9 31.29-18.06.27.16 31 17.9zm-29.07-18.06l29.07 16.78 29.07-16.78-29.07-16.78z"/><path d="M325.77 283.8l-.28-.16-31-17.9 31.28-18.06 31.29 18.06zm-29.07-18.06l29.07 16.79 29.07-16.79-29.08-16.78z"/><path d="M355.94 301.19l-31.28-18 31.28-18.06.28.16 31 17.91zm-29.07-18l29.07 16.79 29.07-16.79-29.07-16.79zM54.17 161.84l-.28-.16-31-17.9 31.28-18.06.27.16 31 17.9zM25.1 143.78l29.07 16.78 29.07-16.78L54.17 127z"/><path d="M84.37 179.27l-31.31-18.08 31.31-18 .28.16 31 17.9zm-29.09-18.08l29.09 16.8 29-16.8-29-16.77z"/><path d="M114.52 196.69l-.27-.16-31-17.9 31.28-18.07.28.16 31 17.91zm-29.07-18.06l29.07 16.78 29.07-16.78-29.07-16.79z"/><path d="M144.7 214.11l-.28-.16-31-17.9 31.28-18.06 31.28 18.06zm-29.07-18.06l29.07 16.78 29.07-16.78-29.07-16.78z"/><path d="M174.88 231.53l-31.29-18.06 31.29-18.06 31.28 18.06zm-29.07-18.06l29.07 16.79 29.07-16.79-29.07-16.78z"/><path d="M205.06 248.96l-.28-.16-31-17.9 31.28-18.07.28.16 31 17.91zm-29.07-18.06l29.07 16.78 29.07-16.78-29.08-16.79z"/><path d="M235.23 266.38l-31.28-18.06 31.28-18.06.28.16 31 17.9zm-29.07-18.06l29.07 16.78 29.07-16.78-29.07-16.78z"/><path d="M265.37 283.8l-.28-.16-31-17.9 31.28-18.06.28.16 31 17.9zm-29-18.06l29 16.79 29.07-16.79-29.07-16.78z"/><path d="M295.59 301.19l-.28-.16-31-17.91 31.29-18.06.27.16 31 17.9zm-29.07-18l29.07 16.79 29.07-16.79-29.07-16.78zm-212.35-86.5l-.28-.16-31-17.9 31.28-18.07 31.28 18.07zM25.1 178.63l29.07 16.78 29.07-16.78-29.07-16.79z"/><path d="M84.37 214.11l-.28-.16-31-17.9 31.28-18.06.27.16 31 17.9zm-29.09-18.06l29.09 16.78 29.07-16.78-29.07-16.78z"/><path d="M114.52 231.53l-31.28-18.06 31.28-18.06.28.16 31 17.9zm-29.07-18.06l29.07 16.79 29.07-16.79-29.07-16.78z"/><path d="M144.7 248.96l-31.28-18.06 31.28-18.07 31.29 18.07zm-29.07-18.06l29.07 16.78 29.07-16.78-29.07-16.79z"/><path d="M174.88 266.38l-.28-.16-31-17.9 31.29-18.06.27.16 31 17.9zm-29.07-18.06l29.07 16.78 29.07-16.78-29.07-16.79z"/><path d="M205.06 283.8l-.28-.16-31-17.9 31.29-18.06 31.3 18.06zm-29.07-18.06l29.07 16.78 29.07-16.78-29.07-16.78z"/><path d="M235.23 301.19l-.27-.16-31-17.91 31.28-18.06.28.16 31 17.9zm-29.07-18l29.07 16.79 29.07-16.79-29.07-16.78zM54.17 231.53l-.28-.16-31-17.9 31.28-18.06.28.16 31 17.9zM25.1 213.47l29.07 16.78 29.07-16.78-29.07-16.78z"/><path d="M84.37 248.96l-.28-.16-31-17.91 31.28-18.06 31.28 18.07zm-29.09-18.07l29.09 16.79 29.07-16.78-29.07-16.79z"/><path d="M114.52 266.38l-31.28-18.06 31.28-18.06 31.29 18.06zm-29.06-18.06l29.06 16.78 29.07-16.78-29.07-16.79z"/><path d="M144.7 283.8l-.27-.16-31-17.9 31.28-18.06.28.16 31 17.9zm-29.07-18.06l29.07 16.78 29.07-16.78-29.07-16.78z"/><path d="M174.88 301.19l-.28-.16-31-17.91 31.29-18.06.28.16 31 17.9zm-29.07-18l29.07 16.79 29.07-16.79-29.07-16.78zm-91.64-16.81l-.28-.16-31-17.9 31.28-18.07.28.16 31 17.91zM25.1 248.32l29.07 16.78 29.07-16.78-29.07-16.79z"/><path d="M84.37 283.8l-.28-.16-31-17.9 31.28-18.06 31.28 18.06zm-29.09-18.06l29.09 16.78 29.07-16.78-29.07-16.78z"/><path d="M114.53 301.19l-31.29-18 31.28-18.06.28.16 31 17.9zm-29.07-18l29.07 16.79 29.06-16.79-29.07-16.78z"/><path d="M54.17 301.19l-.27-.16-31.01-17.84 31.28-18.09.28.16 31 17.9zm-29.07-18l29.07 16.76 29.07-16.76-29.07-16.81z"/></g><path d="M361.23 174.1l-84.08-48.69c-4.57-2.65-12.55-2.33-17.83.71L82.86 227.67c-5.28 3-5.86 7.65-1.29 10.3l84.08 48.68c4.56 2.65 12.55 2.33 17.83-.71l176.45-101.55c5.28-3.04 5.86-7.65 1.3-10.29z" fill="#7dc3ea"/><path d="M173.44 278.04a17.32 17.32 0 01-8.53-2l-84.08-48.69c-2.46-1.42-3.82-3.47-3.81-5.75 0-2.64 1.86-5.22 5.11-7.09l176.45-101.55c5.78-3.32 14.26-3.64 19.31-.71l84.07 48.69c2.47 1.42 3.82 3.46 3.82 5.75 0 2.64-1.87 5.22-5.11 7.09L184.21 275.33a22.05 22.05 0 01-10.77 2.71zm95.93-164.85a19.33 19.33 0 00-9.35 2.3L83.6 217.06c-2.28 1.31-3.64 3-3.64 4.55s1.28 2.57 2.35 3.2l84.06 48.68c4.09 2.37 11.58 2 16.36-.71L359.2 171.19c2.27-1.31 3.63-3 3.64-4.55s-1.28-2.58-2.35-3.2l-84.12-48.65a14.33 14.33 0 00-7-1.6z" fill="#fff"/><path d="M163.2 256.73l-87.5-50.67c-2.87-1.66-4.21-3.91-4.12-6.24v-12.69l4.86 5.7c.32-.21.64-.42 1-.62l179-103c7.1-4.09 17.85-4.52 24-1l86.27 50c1.75-1.91 5.41-5.95 5.41-5.95v12.42c.13 2.8-1.86 5.78-5.87 8.09l-179 103c-7.16 4.09-17.88 4.52-24.05.96z" fill="#396caa"/><path d="M115.88 225.65l5 2.91c.67.38 1.22 0 1.22-.92a2.89 2.89 0 00-1.22-2.31l-5-2.91c-.66-.39-1.21 0-1.21.91a2.94 2.94 0 001.21 2.32z" fill="#173d7a"/><path d="M269.07 96c7.1-4.09 17.85-4.52 24-1l86.27 50c1.75-1.91 5.41-5.95 5.41-5.95v12.42c.13 2.8-1.86 5.78-5.87 8.09l-179 103a27.79 27.79 0 01-12.92 3.36l.17-122.74z" transform="translate(-12.63 -6.81)" fill="url(#a)"/><path d="M367.97 126.19l-87.5-50.72c-6.15-3.55-16.89-3.12-24 1l-179 103c-7.11 4.09-7.89 10.29-1.74 13.85l87.5 50.67c6.14 3.56 16.88 3.13 24-1l179-103c7.14-4.09 7.88-10.29 1.74-13.8z" fill="#d4ecff"/><path d="M163.17 245.32l-87.5-50.67c-3.17-1.83-4.48-4.37-4-7 .16 2.1 1.5 4.09 4.12 5.61l87.5 50.67c6.14 3.56 16.88 3.13 24-1l179-103c3.45-2 5.39-4.45 5.8-6.88.21 2.84-1.78 5.89-5.86 8.24l-179 103c-7.17 4.16-17.92 4.59-24.06 1.03z" fill="#fff"/><path d="M373.86 135l-84.08-48.74c-4.57-2.64-12.55-2.32-17.83.72L95.49 188.53c-5.28 3-5.86 7.65-1.29 10.29l84.08 48.69c4.56 2.64 12.55 2.32 17.83-.72l176.45-101.54c5.28-3.04 5.86-7.65 1.3-10.25z" transform="translate(-12.63 -6.81)" fill="url(#b)"/><path fill="#d4ecff" d="M186.82 215.41l-59.33-34.25 3.79-2.19 59.33 34.25-3.79 2.19zm-41.28-9.99l-30.04-17.34 3.79-2.19 30.04 17.35-3.79 2.18z"/><path fill="#424aa0" d="M160.12 213.84l-9.74-5.62 3.78-2.19 9.75 5.63-3.79 2.18z"/><path fill="#fff" d="M174.83 222.33l-9.74-5.62 3.78-2.19 9.75 5.63-3.79 2.18zm-28.95-23.64l-24.38-14.07 3.78-2.19 24.38 14.08-3.78 2.18z"/><path fill="#d4ecff" d="M175.64 215.88l-24.38-14.08 3.78-2.18 24.39 14.07-3.79 2.19z"/><path d="M164.19 189.6a4.91 4.91 0 01-4.42 0 1.35 1.35 0 010-2.55 4.91 4.91 0 014.42 0 1.35 1.35 0 010 2.55z" fill="#fff"/><path d="M170.79 193.41a4.83 4.83 0 01-4.41 0 1.35 1.35 0 010-2.55 4.89 4.89 0 014.41 0 1.35 1.35 0 010 2.55z" fill="#d4ecff"/><path d="M177.37 197.19a4.85 4.85 0 01-4.42 0 1.35 1.35 0 010-2.55 4.91 4.91 0 014.42 0 1.35 1.35 0 010 2.55z" fill="#424aa0"/><path d="M184 201.03a4.85 4.85 0 01-4.42 0 1.35 1.35 0 010-2.55 4.91 4.91 0 014.42 0 1.35 1.35 0 010 2.55z" fill="#fff"/><path fill="#424aa0" d="M316.69 128.52l-9.99-5.77 3.88-2.24 9.99 5.76-3.88 2.25z"/><path fill="#fff" d="M330.6 136.55l-9.99-5.77 3.88-2.24 9.99 5.77-3.88 2.24zm-58.53-34.04l-9.99-5.76 3.88-2.25 9.99 5.77-3.88 2.24zm42.39 31.82l-13.91-8.03 3.88-2.24 13.91 8.03-3.88 2.24z"/><path fill="#d4ecff" d="M324.45 140.1l-6.1-3.53 3.88-2.24 6.1 3.52-3.88 2.25z"/><path d="M343.29 216.72a1.39 1.39 0 01-.63-.15 1.36 1.36 0 01-.58-1.83 15.28 15.28 0 015.55-6.11 7.26 7.26 0 013.91-1.08c1.78.08 3.93-1.23 5.83-3.52a13.26 13.26 0 013.52-3.05 7 7 0 013.91-1.08c1.77 0 3.93-1.23 5.83-3.52a13.32 13.32 0 013.53-3.06 7 7 0 013.91-1.08c1.77 0 3.93-1.23 5.83-3.52a13.31 13.31 0 013.52-3.06 6.22 6.22 0 015.59-.7 1.36 1.36 0 11-1.08 2.49 3.64 3.64 0 00-3.15.56 10.62 10.62 0 00-2.79 2.44c-2.49 3-5.42 4.63-8.06 4.5a4.41 4.41 0 00-2.41.72 10.65 10.65 0 00-2.8 2.44c-2.48 3-5.39 4.62-8.05 4.5a4.44 4.44 0 00-2.42.72 10.78 10.78 0 00-2.79 2.44c-2.48 3-5.4 4.63-8.06 4.49a4.52 4.52 0 00-2.41.73 12.42 12.42 0 00-4.5 5 1.36 1.36 0 01-1.2.73zm-79.69 52.15a5.78 5.78 0 01-2.61 4.53c-1.45.83-2.62.16-2.62-1.51a5.74 5.74 0 012.62-4.52c1.44-.84 2.61-.18 2.61 1.5zm8.46-4.88a5.78 5.78 0 01-2.61 4.52c-1.44.83-2.61.16-2.61-1.51a5.78 5.78 0 012.61-4.52c1.44-.83 2.61-.16 2.61 1.51zm8.47-4.89a5.78 5.78 0 01-2.61 4.52c-1.44.84-2.61.16-2.61-1.51a5.78 5.78 0 012.61-4.52c1.45-.83 2.61-.16 2.61 1.51zm8.47-4.91a5.74 5.74 0 01-2.62 4.52c-1.44.84-2.61.16-2.61-1.5a5.79 5.79 0 012.61-4.53c1.45-.81 2.62-.13 2.62 1.51zM242.97 47.65a5.76 5.76 0 01-2.6 4.54c-1.45.84-2.62.16-2.62-1.5a5.78 5.78 0 012.62-4.5c1.43-.88 2.6-.2 2.6 1.46zm7.2-4.16a5.76 5.76 0 01-2.61 4.52c-1.44.84-2.61.16-2.61-1.5a5.79 5.79 0 012.61-4.53c1.44-.79 2.61-.15 2.61 1.51zm-7.2-4.16a5.79 5.79 0 01-2.6 4.53c-1.45.83-2.62.15-2.62-1.51a5.78 5.78 0 012.62-4.53c1.43-.83 2.6-.15 2.6 1.51zm7.2-4.14a5.79 5.79 0 01-2.61 4.53c-1.44.83-2.61.15-2.61-1.51a5.79 5.79 0 012.61-4.53c1.44-.85 2.61-.17 2.61 1.51zM84.2 143.68l-5.22 3.02v-6.03l5.22-3.02v6.03zm8.47-4.89l-5.22 3.02v-6.03l5.22-3.02v6.03zm8.47-4.88l-5.23 3.01v-6.03l5.23-3.01v6.03zm8.46-4.89l-5.22 3.01V126l5.22-3.01v6.03zm98.72 170.55l-5.22 3.02v-6.03l5.22-3.02v6.03zm7.25-4.24l-5.22 3.02v-6.03l5.22-3.02v6.03zm-7.2 12.07l-5.23 3.01v-6.03l5.23-3.01v6.03zm7.2-4.16l-5.22 3.01v-6.03l5.22-3.02v6.04zM329.99 26a10.13 10.13 0 00-2.56 2.2c-.12-5-3.73-7-8.17-4.48a15 15 0 00-3.89 3.47c-2-3.46-6.08-4.26-10.83-1.52-6.68 3.86-12.1 13.24-12.1 21a14.7 14.7 0 00.12 1.8 4.56 4.56 0 00-3.39.68 12.82 12.82 0 00-5.78 10c0 3.69 2.59 5.19 5.78 3.34l40.86-23.58a12.31 12.31 0 005.52-9.72c0-3.52-2.49-5-5.56-3.19z" fill="#fff"/><path d="M90.02 270.54a10.63 10.63 0 00-2.7 2.32c-.13-5.33-4-7.46-8.65-4.74a15.73 15.73 0 00-4.17 3.63c-2.13-3.66-6.43-4.51-11.46-1.56-7.08 4.09-12.81 14-12.81 22.19a14.57 14.57 0 00.13 1.91 4.86 4.86 0 00-3.59.72 13.55 13.55 0 00-6.13 10.62c0 3.91 2.74 5.49 6.13 3.54l43.25-25a13 13 0 005.9-10.2c0-3.78-2.64-5.31-5.9-3.43z" fill="#fff" opacity=".4"/><path d="M155.03 126.61l60.09-34.69c6.5-3.76 5.69-10.32-1.82-14.65-7.51-4.34-18.88-4.81-25.38-1.06l-60.09 34.7c-6.5 3.75-5.69 10.31 1.83 14.65 7.51 4.33 18.87 4.81 25.37 1.05z" fill="#7dc3ea"/><path d="M143.98 120.03a30.86 30.86 0 01-15.06-3.84c-4.42-2.55-7-6-7-9.56 0-3 1.82-5.73 5.13-7.64l60.08-34.69c7-4 18.82-3.59 26.85 1 4.42 2.55 7 6 7 9.56 0 3-1.82 5.73-5.12 7.64l-60.09 34.77a23.92 23.92 0 01-11.79 2.76zm55-55.51a20.88 20.88 0 00-10.28 2.36l-60.13 34.69c-2.39 1.38-3.66 3.14-3.66 5.09 0 2.44 2 5 5.48 7 7.09 4.1 17.82 4.57 23.91 1l60.07-34.63c2.4-1.38 3.66-3.14 3.66-5.09 0-2.45-2-5-5.48-7a28 28 0 00-13.61-3.42z" fill="#fff"/><path d="M188.07 73.25v-4.36l5.16-26-5.09-3.15-10.2 5.63-.07 33.48c0 2.25.83 3.77 2.13 4.27l4.54 2.85.57-2.15.78-3.93a12.52 12.52 0 002.18-6.64z" fill="#5793ce"/><path d="M188.04 85.9c-2.81 1.56-5.09-.18-5.08-3.88l.07-33.47 10.2-5.63-.07 33.47c-.01 3.7-2.3 7.96-5.12 9.51z" fill="#5793ce"/><path d="M215.57 24.89c0-8.49-6-18.82-13.32-23.07-3.81-2.2-7.24-2.33-9.67-.78l-40.39 23.32 20.84 31.31 38.59-22.12.1-.06h.08c2.33-1.48 3.77-4.43 3.77-8.6z" fill="#424aa0"/><path d="M209.18 43.05c0-8.74-6.13-19.36-13.7-23.73-3.44-2-6.58-2.34-9-1.31h-.11l-.31.15A95.93 95.93 0 01140 28l-4.52-.17 36.76 63 2-3.85A96 96 0 01205.1 52c2.52-1.46 4.08-4.54 4.08-8.95z" transform="translate(-12.63 -6.81)" fill="url(#c)"/><path d="M163.89 69.75c0-16.76-11.77-37.14-26.29-45.53-7.24-4.18-13.8-4.58-18.55-1.86l-4.31 2.52 1.5-.31c-3.06 3.19-4.87 8.23-4.87 14.79 0 16.76 11.77 37.15 26.29 45.53 5.7 3.29 11 4.24 15.28 3.17l-.69 1 4-2.32h.07l.14-.09c4.56-2.78 7.43-8.62 7.43-16.9z" fill="#d4ecff"/><path d="M160.81 71.55c0-16.77-11.77-37.15-26.29-45.53-7.14-4.13-13.61-4.57-18.35-2l-.66.39a7.66 7.66 0 00-.66.45l1.33-.28c-3.06 3.19-4.87 8.23-4.87 14.79 0 16.76 11.77 37.15 26.29 45.53 5.7 3.29 11 4.24 15.28 3.17l-.63.91c5.26-2.48 8.56-8.56 8.56-17.43z" fill="#fff"/><ellipse cx="146.28" cy="63.69" rx="21.46" ry="37.17" transform="rotate(-30 127.27 83.862)" fill="#5793ce"/><ellipse cx="146.28" cy="63.69" rx="18.83" ry="32.61" transform="rotate(-30 127.27 83.862)" fill="#173d7a"/><path d="M134.73 83.05c-12.74-7.35-23.06-25.24-23.06-39.94 0-7.73 2.84-13 7.39-15.27-5.17 1.89-8.47 7.41-8.47 15.73 0 14.71 10.32 32.59 23.06 39.94 6.05 3.49 11.55 4 15.67 2-3.95 1.42-9.06.74-14.59-2.46z" fill="#fff"/><g clip-path="url(#d)"><path fill="#d4ecff" d="M130.2 51.37l33.46-25.87 12.15 21.08-39.28 16.11-6.33-11.32z"/><path d="M138.26 59.54c0 2.94-2.06 4.13-4.61 2.66a10.19 10.19 0 01-4.6-8c0-2.93 2.06-4.12 4.6-2.65a10.15 10.15 0 014.61 7.99z" fill="#5793ce"/></g><path d="M180.5 73.54l-.18-.11a2.89 2.89 0 01-1.22-2.31v-6.45c0-.89.54-1.3 1.21-.92l.18.1a2.93 2.93 0 011.2 2.34v6.46c.02.86-.52 1.27-1.19.89z" fill="#fff"/><ellipse cx="230.18" cy="162.96" rx="34.36" ry="19.84" fill="#092e63"/><path d="M272.9 136.04v-12h-2.27a27.23 27.23 0 00-10.26-9.57c-16.69-9.64-43.73-9.64-60.42 0a27.27 27.27 0 00-10.25 9.58h-2.26v11.93c0 6.33 4.13 12.67 12.5 17.5 16.69 9.64 43.73 9.64 60.42 0 8.37-4.81 12.54-11.12 12.54-17.44z" fill="#424aa0"/><path d="M260.37 114.47c-8.35-4.82-19.28-7.23-30.21-7.23v53.47c10.93 0 21.87-2.41 30.21-7.22s12.51-11.13 12.51-17.45v-12h-2.27a27.23 27.23 0 00-10.24-9.57z" fill="#3436a0"/><ellipse cx="230.18" cy="124.05" rx="42.72" ry="24.66" fill="#424aa0"/><path d="M260.37 141.49c-16.69 9.63-43.73 9.63-60.42 0-8-4.62-12.11-10.61-12.44-16.66-.36 6.58 3.76 13.21 12.44 18.23 16.69 9.63 43.73 9.63 60.42 0 8.68-5 12.8-11.65 12.44-18.22-.31 6.04-4.44 12.03-12.44 16.65z" fill="#fff"/><path d="M213.15 125.13l16.72-9.66c1.9-1.09 5.12-.61 5.88.87l7 13.71c.8 1.55-1.7 3-4.38 2.53l-23.76-4.06c-2.53-.43-3.35-2.33-1.46-3.39z" fill="#fff"/><path fill="#79b1e0" d="M223.49 200.71l-68.2-39.38 1.81-1.04 68.2 39.38-1.81 1.04z"/><path fill="#d4ecff" d="M177.29 175.18L154.3 161.9l3.78-2.18 22.99 13.27-3.78 2.19z"/><path fill="#fff" d="M176.39 175.9l-.97-.55 5.94-3.43.97.55-5.94 3.43zM1.37 271.39a1.31 1.31 0 01-.63-.16 1.37 1.37 0 01-.58-1.85 15.37 15.37 0 015.6-6.15 7 7 0 013.94-1.04c1.77.1 4-1.25 5.88-3.56a13.36 13.36 0 013.56-3.08 7 7 0 013.94-1.09c1.81.08 4-1.24 5.89-3.56a13.36 13.36 0 013.56-3.08 7.09 7.09 0 013.94-1.09c1.78.08 4-1.24 5.89-3.55a13.08 13.08 0 013.56-3.09 6.25 6.25 0 015.64-.7 1.37 1.37 0 11-1.1 2.51 3.68 3.68 0 00-3.17.56 10.9 10.9 0 00-2.83 2.47c-2.5 3-5.43 4.67-8.12 4.53a4.73 4.73 0 00-2.44.73 10.81 10.81 0 00-2.82 2.46c-2.51 3-5.44 4.69-8.13 4.54a4.78 4.78 0 00-2.44.73 10.79 10.79 0 00-2.82 2.46c-2.5 3-5.44 4.68-8.13 4.54a4.69 4.69 0 00-2.44.73 12.64 12.64 0 00-4.53 5 1.38 1.38 0 01-1.22.74zm345.76-182.2a5.71 5.71 0 01-2.89-.75c-2.05-1.18-3.18-3.56-3.18-6.71 0-6 4.09-13.09 9.3-16.1 2.73-1.58 5.35-1.79 7.4-.61s3.17 3.56 3.17 6.71c0 6-4.08 13.09-9.29 16.1a9.08 9.08 0 01-4.51 1.36zm7.73-22.37a6.61 6.61 0 00-3.22 1c-4.43 2.56-8 8.79-8 13.9 0 2.2.68 3.8 1.9 4.5s2.95.49 4.85-.61c4.43-2.55 8-8.78 8-13.89 0-2.2-.67-3.8-1.89-4.5a3.19 3.19 0 00-1.64-.45z"/></svg>