<svg version="1.1" id="_x2014_ÎÓÈ_x5F_1" xmlns="http://www.w3.org/2000/svg" x="0" y="0" viewBox="0 0 317.2 312.9" xml:space="preserve"><style>.st0{opacity:.5;fill:#173d7a}.st1{fill:#424aa0}.st2{fill:#fff}.st3{fill:#5793ce}.st4{fill:#173d7a}.st5{fill:#396caa}.st6{fill:#d4ecff}.st7{fill:#424a88}.st8{fill:#fdd762}.st9{fill:#e8a200}.st10{fill:#f9bf30}</style><path class="st0" d="M86.4 141c-8.7 4.6-22.9 4.6-31.6 0-8.7-4.6-8.7-12 0-16.6 8.7-4.6 22.9-4.6 31.6 0 8.8 4.6 8.8 12 0 16.6z"/><path class="st1" d="M96.1 122.6v-6.5h-1.3c-1.2-1.9-3.2-3.7-6.1-5.2-9.9-5.2-26-5.2-36 0-2.9 1.5-4.9 3.3-6.1 5.2h-1.3v6.5c0 3.4 2.5 6.9 7.4 9.5 9.9 5.2 26 5.2 36 0 4.9-2.6 7.4-6 7.4-9.5z"/><ellipse class="st1" cx="70.6" cy="116.1" rx="25.4" ry="13.4"/><path class="st2" d="M88.6 125.6c-9.9 5.2-26 5.2-36 0-4.8-2.5-7.2-5.8-7.4-9-.2 3.6 2.2 7.2 7.4 9.9 9.9 5.2 26 5.2 36 0 5.2-2.7 7.6-6.3 7.4-9.9-.2 3.2-2.6 6.5-7.4 9z"/><path class="st2" d="M58.4 120.5c-.4-.2-.7-.5-.7-.9v-8.7c0-.7 1-1.2 2.3-1.2 1.3 0 2.3.5 2.3 1.2v7.2l23-2.6c1.2-.1 2.5.3 2.7.9.3.7-.5 1.3-1.8 1.4l-25.8 2.9c-.7.1-1.4 0-1.9-.2 0 .1-.1.1-.1 0z"/><path class="st0" d="M306.1 177.2l-85.7-49.6c-4.7-2.7-12.8-2.4-18.2.7L22.4 231.8c-5.4 3.1-6 7.8-1.3 10.5l85.7 49.6c4.7 2.7 12.8 2.4 18.2-.7l179.8-103.5c5.4-3.1 6-7.8 1.3-10.5z"/><path class="st3" d="M104.3 273.6L15.1 222c-2.9-1.7-4.3-4-4.2-6.4v-12.9l5 5.8c.3-.2.6-.4 1-.6l182.4-105c7.2-4.2 18.2-4.6 24.5-1l87.9 50.9c1.8-1.9 5.5-6.1 5.5-6.1v12.7c.1 2.9-1.9 5.9-6 8.2l-182.4 105c-7.3 4.1-18.2 4.6-24.5 1z"/><path class="st4" d="M56.1 241.9l5.1 3c.7.4 1.2 0 1.2-.9s-.6-2-1.2-2.4l-5.1-3c-.7-.4-1.2 0-1.2.9s.5 2 1.2 2.4z"/><path class="st5" d="M199.3 102.8c7.2-4.2 18.2-4.6 24.5-1l87.9 50.9c1.8-1.9 5.5-6.1 5.5-6.1v12.7c.1 2.9-1.9 5.9-6 8.2l-182.4 105c-3.8 2.2-8.6 3.3-13.2 3.4l.2-125.1 83.5-48z"/><path class="st6" d="M313 140.5l-89.2-51.6c-6.3-3.6-17.2-3.2-24.5 1L17 194.8c-7.2 4.2-8 10.5-1.8 14.1l89.2 51.6c6.3 3.6 17.2 3.2 24.5-1l182.4-105c7.2-4.1 8-10.4 1.7-14z"/><path class="st2" d="M104.3 261.9l-89.2-51.6c-3.2-1.9-4.6-4.5-4.1-7.1.2 2.1 1.5 4.2 4.2 5.7l89.2 51.6c6.3 3.6 17.2 3.2 24.5-1l182.4-105c3.5-2 5.5-4.5 5.9-7 .2 2.9-1.8 6-6 8.4l-182.4 105c-7.3 4.2-18.3 4.7-24.5 1z"/><path class="st4" d="M306.1 142.5l-85.7-49.6c-4.7-2.7-12.8-2.4-18.2.7L22.4 197.1c-5.4 3.1-6 7.8-1.3 10.5l85.7 49.6c4.7 2.7 12.8 2.4 18.2-.7L304.8 153c5.4-3.1 6-7.8 1.3-10.5z"/><path class="st6" d="M128.4 231.4l-60.5-34.9 3.9-2.2 60.5 34.9zm-42.1-10.1l-30.6-17.7 3.9-2.2L90.2 219z"/><path class="st1" d="M101.2 229.8l-10-5.7 3.9-2.2 9.9 5.7z"/><path class="st2" d="M116.2 238.5l-10-5.7 3.9-2.3 9.9 5.8zm-29.5-24.1l-24.9-14.3 3.9-2.3 24.8 14.4z"/><path class="st6" d="M117 231.9l-24.9-14.3 3.9-2.3 24.9 14.4z"/><path class="st2" d="M105.3 205.1c-1.2.7-3.3.7-4.5 0-1.2-.7-1.2-1.9 0-2.6 1.2-.7 3.3-.7 4.5 0 1.3.8 1.3 1.9 0 2.6z"/><path class="st6" d="M112.1 209c-1.2.7-3.3.7-4.5 0-1.2-.7-1.2-1.9 0-2.6 1.2-.7 3.3-.7 4.5 0 1.2.7 1.2 1.9 0 2.6z"/><path class="st2" d="M118.4 212.6c-1.2.7-3.3.7-4.5 0-1.2-.7-1.2-1.9 0-2.6 1.2-.7 3.3-.7 4.5 0s1.3 1.9 0 2.6z"/><path class="st1" d="M260.7 142.9l-10.1-5.9 3.9-2.3 10.2 5.9z"/><path class="st2" d="M274.9 151.1l-10.2-5.9 4-2.3 10.2 5.9zm-59.6-34.7l-10.2-5.9 3.9-2.3 10.2 5.9zm43.2 32.4l-14.2-8.2 4-2.3 14.1 8.2z"/><path class="st6" d="M268.7 154.7l-6.3-3.6 4-2.3 6.2 3.6z"/><path class="st0" d="M290.3 116.5l-17.3-9.9 17.3-10 17.2 10z"/><path class="st7" d="M307.5 93.9l-17.2 10V84l17.2-10z"/><path class="st1" d="M290.3 84L273 74l17.3-9.9 17.2 9.9z"/><path class="st1" d="M290.3 103.9l-17.3-10V74l17.3 10z"/><path class="st2" d="M284 93.1l-4.8-2.8v-5.5l4.8 2.8z"/><path class="st0" d="M29.9 304l-18-10.3 18-10.4 17.9 10.4z"/><path class="st4" d="M47.8 280.5l-17.9 10.4v-20.7l17.9-10.4z"/><path class="st6" d="M29.9 270.2l-18-10.4 18-10.3 17.9 10.3z"/><path class="st3" d="M29.9 290.9l-18-10.4v-20.7l18 10.4z"/><path class="st2" d="M23.4 279.7l-5-2.9V271l5 2.9z"/><path class="st0" d="M235.6 278.1l17.8-10.3 17.8 10.3-17.8 10.3zm-32 19.3l17.8-10.3 17.8 10.3-17.8 10.3zm64-37.6l17.9-10.3 17.8 10.3-17.8 10.3z"/><path class="st8" d="M285.5 259.8v-33.1l-20.4-11.8v33.2z"/><path class="st9" d="M285.5 226.7l20.3-11.8v33.2l-20.3 11.7z"/><path class="st8" d="M265.1 214.9l20.4-11.7 20.3 11.7-20.3 11.8z"/><path class="st8" d="M285.5 228.3l20.3-11.7v1.1l-20.3 11.7-20.4-11.7v-1.1z"/><path class="st1" d="M253.4 278.6v-47.2l-20.3-11.8v47.3z"/><path class="st7" d="M253.4 231.4l20.4-11.8v47.3l-20.4 11.7z"/><path class="st1" d="M233.1 219.6l20.3-11.7 20.4 11.7-20.4 11.8z"/><path class="st7" d="M253.4 233l20.4-11.7v1.1l-20.4 11.7-20.3-11.7v-1.1z"/><path class="st3" d="M221.4 297.4v-20.7L201.1 265v20.7z"/><path class="st5" d="M221.4 276.7l20.3-11.7v20.7l-20.3 11.7z"/><path class="st6" d="M201.1 265l20.3-11.7 20.3 11.7-20.3 11.7z"/><path class="st3" d="M221.4 278.4l20.3-11.7v1l-20.3 11.8-20.3-11.8v-1z"/><path class="st8" d="M130 11.9l-6-3.5c-4.6-2.7-8.9-3.1-12.2-1.4l-6.1 3.4 2.4.1c-.6 1-1 2-1.3 3.2 3.9.2 7.7.9 9.4 3.6.4-.3.8-.6 1.2-.8l6.7 7.7 5.9-3.3v-9z"/><path class="st9" d="M131.3 57c-5.3-3.1-10.2-9.5-12.4-16.3l-4-12.2c-1.4-4.5-1.2-8.3.7-10.6l.6-.6c-1.6-2.6-5.5-3.4-9.4-3.6-1.1 3.9-.7 9 1 14.5l3.2 9.9-1.1 1.5s7.5 19 7.9 19.2c.3.2 3.7.9 6 1.3 2.3 2.4 4.9 4.4 7.4 5.9L150 76.8v6.7l5.9-3.3v-9L131.3 57z"/><path class="st10" d="M125.4 60.3c-5.3-3.1-10.2-9.5-12.4-16.3l-4-12.2c-1.4-4.5-1.2-8.3.7-10.6 1.9-2.3 4.9-2.5 8.4-.5l6 3.5v-9l-6-3.5c-6.1-3.5-11.7-3.2-14.9.8-3.3 4-3.7 11.1-1.2 18.9l4 12.2c3.5 10.7 11.1 20.8 19.5 25.6L150 83.5v-9l-24.6-14.2z"/><ellipse cx="165.8" cy="173.9" rx="36.7" ry="21.2" fill="#092e63"/><path class="st5" d="M205.3 139.7l-9.1.1c-.7-.5-1.4-.9-2.1-1.3-14.9-8.6-39.1-8.6-54.1 0-.9.5-1.8 1.1-2.6 1.7l-8.6.1V154c0 5.6 3.7 11.3 11.2 15.6 14.9 8.6 39.1 8.6 54.1 0 7.5-4.3 11.2-10 11.2-15.6v-14.3z"/><path class="st3" d="M165.8 132c-9.4.2-18.6 2.3-25.8 6.4-.9.5-1.8 1.1-2.6 1.7l-8.6.1V154c0 5.6 3.7 11.3 11.2 15.6 7.1 4.1 16.4 6.3 25.8 6.4v-44z"/><path class="st6" d="M134.1 140.1h-5.3V154c0 3.9 1.8 7.7 5.3 11.2v-25.1z"/><ellipse class="st6" cx="167.1" cy="139.7" rx="38.2" ry="22.1"/><path class="st2" d="M194.1 155.3c-14.9 8.6-39.1 8.6-54.1 0-7.1-4.1-10.8-9.4-11.2-14.8-.4 5.9 3.3 11.9 11.2 16.5 14.9 8.6 39.1 8.6 54.1 0 7.8-4.5 11.6-10.5 11.2-16.5-.4 5.4-4.1 10.7-11.2 14.8z"/><path class="st5" d="M188.2 133.7c-.5-.3-1-.6-1.5-1-10.8-6.3-28.4-6.3-39.2 0-.7.4-1.3.8-1.9 1.2h-2.4v12.9c1.2 1.1 2.6 2.2 4.3 3.2 10.8 6.3 28.4 6.3 39.2 0 5.4-3.1 8.1-7.2 8.1-11.3v-5.1l-6.6.1z"/><path class="st3" d="M147.5 132.7c-.7.4-1.3.8-1.9 1.2h-2.4v12.9c1.2 1.1 2.6 2.2 4.3 3.2 5.2 3 11.9 4.5 18.7 4.7V128c-6.8.2-13.5 1.7-18.7 4.7zm-4.3 1.2h-3.8v4.8c0 2.8 1.3 5.6 3.8 8.1v-12.9z"/><ellipse class="st3" cx="167.1" cy="133.6" rx="27.7" ry="16"/><path class="st2" d="M152.2 120.6c8.2 4.7 21.5 4.7 29.7 0s8.2-12.4 0-17.2c-8.2-4.7-21.5-4.7-29.7 0s-8.2 12.4 0 17.2z"/><path class="st10" d="M142.6 124.1c4.4-3.3 3.6-6.5 3.6-6.5l3.3 4c10.2-4.9 25.1-4.9 35.2 0l3.4-4s-.9 3.2 3.6 6.5c4.4 3.3 3 9.7 3 9.7 0 4.1-2.7 8.1-8.1 11.2-10.7 6.2-28.2 6.2-38.9 0-5.4-3.1-8.1-7.2-8.1-11.2 0 0-1.5-6.4 3-9.7z"/><path class="st9" d="M182.5 125.1s-7.9-4.7-7.9-5.7c0-.1.2-.4.4-.7 3.5.6 6.8 1.6 9.8 3l3.4-4s-.9 3.2 3.6 6.5c4.4 3.3 3 9.7 3 9.7 0 2.2-.8 4.4-2.4 6.5.1-.5.9-7.2-4.1-9.3-5.4-2.4-5.8-6-5.8-6z"/><path class="st9" d="M152.2 125.4c8.2 4.7 21.5 4.7 29.7 0s8.2-12.4 0-17.2c-8.2-4.7-21.5-4.7-29.7 0-8.2 4.8-8.2 12.4 0 17.2z"/><path class="st10" d="M222 34.9c-.6 30.6-16.3 34.3-24.8 45.8-7.9 10.7-7 26.2-6.8 28.2v.2c0 3.5-2.3 6.9-6.8 9.5-9.1 5.3-23.9 5.3-33 0-4.3-2.5-6.5-5.7-6.8-8.9h-.1v-.8c.2-2 1.1-17.5-6.8-28.2-8.4-11.5-24.2-15.2-24.8-45.8H222z"/><path class="st9" d="M181.9 68.3s-1.3 3.7-5.3 14.1c-4 10.5-2.1 37-2.1 37l6.8.5c.8-.4 1.6-.7 2.3-1.2 4.6-2.6 6.8-6.1 6.8-9.5v-.2c-.2-2-1.1-17.5 6.8-28.2 8.4-11.5 24.2-15.2 24.8-45.8h-6l-34.1 33.3z"/><ellipse class="st8" cx="167.1" cy="34.9" rx="55" ry="31.7"/><path class="st2" d="M128.2 57.4c21.5 12.4 56.3 12.4 77.7 0 10.1-5.8 15.5-13.4 16-21 .6 8.6-4.7 17.3-16 23.8-21.5 12.4-56.3 12.4-77.7 0-11.3-6.5-16.7-15.3-16-23.8.6 7.6 5.9 15.1 16 21z"/><ellipse cx="167.1" cy="34.9" rx="46.1" ry="26.6" fill="#f2b42a"/><path class="st9" d="M134.5 53.8c7.5 4.4 17.1 6.9 26.9 7.6 1.5-1.9 2.1-4 1.4-6.2-4.8-14.5-3-44.2-3-44.2l-8.7-1c-6.1 1.3-11.8 3.3-16.7 6.1-17.9 10.4-17.9 27.3.1 37.7z"/><path class="st2" d="M199.7 18.5c-18-10.4-47.2-10.4-65.2 0-8.5 4.9-13 11.2-13.5 17.6-.6-7.2 3.9-14.5 13.5-20 18-10.4 47.2-10.4 65.2 0 9.5 5.5 14 12.8 13.5 20-.5-6.4-5-12.7-13.5-17.6z"/><path class="st9" d="M189.7 58.2c-14 4.5-31.2 4.5-45.2 0l1.5-.9c11.6-6.7 30.5-6.7 42.2 0 .5.2 1 .5 1.5.9z"/><path class="st2" d="M143.8 108.9c0-.2 0-.7.1-1.3.4 3.2 2.6 6.2 6.7 8.7 9.1 5.3 23.9 5.3 33 0 4.1-2.4 6.3-5.4 6.8-8.5 0 .5 0 .9.1 1.1v.2c0 3.5-2.3 6.9-6.8 9.5-9.1 5.3-23.9 5.3-33 0-4.3-2.5-6.5-5.7-6.8-8.9h-.1v-.6c-.1 0 0-.1 0-.2z"/><path class="st9" d="M228.9 80.8C225.6 73 220 66.3 214 62.7l-6-3.5-5.9 3.3.3 2.1 8.1 8.7L222 89.8l1.9-1.1c0 1.7-.3 3.2-.9 4.5l-4 7.6c-.6 1.2-1.5 2.1-2.5 2.8 1.3 3.2 1.8 6.6-.3 9.5h-1.3l.4 1.1-.5.5h.7l.7 1.8 5.9-3.3c1.6-1 3-2.5 4-4.4l4-7.6c2.5-5 2-12.6-1.2-20.4z"/><path class="st9" d="M216.5 103.6c-2.5 1.6-6.1 1.4-9.9-.8L182 88.6l-5.9 3.3 1.7 2.9L182 96v1.6l24.6 14.2c2.9 1.7 5.6 2.6 8.2 2.8 3.7-3.2 3.3-7.2 1.7-11z"/><path class="st8" d="M213.9 62.7l-6-3.5-5.9 3.3.3 2.1 8.1 8.7 6.4 9.1 10-5.8c-3.3-6-7.9-11-12.9-13.9z"/><path class="st10" d="M200.7 115.1L176.2 101v-9l24.6 14.2c5.3 3.1 10.2 2.3 12.4-2l4-7.6c1.4-2.8 1.2-6.9-.7-11.4-1.9-4.4-4.9-8.1-8.4-10.1l-6-3.5v-9l6 3.5c6.1 3.5 11.7 10.3 14.9 18.1 3.3 7.8 3.7 15.4 1.2 20.3l-4 7.6c-3.5 6.6-11.1 7.8-19.5 3z"/></svg>