<svg data-name="—ÎÓÈ_1" xmlns="http://www.w3.org/2000/svg" xmlns:xlink="http://www.w3.org/1999/xlink" viewBox="0 0 323.13 378.71"><defs><linearGradient id="c" x1="18.94" y1="350.11" x2="18.94" y2="11.28" gradientTransform="matrix(-1 0 0 1 163.26 0)" gradientUnits="userSpaceOnUse"><stop offset="0" stop-color="#5778ff"/><stop offset=".18" stop-color="#5c7dff"/><stop offset=".39" stop-color="#6a8aff"/><stop offset=".61" stop-color="#82a0ff"/><stop offset=".85" stop-color="#a3beff"/><stop offset="1" stop-color="#bcd5ff"/></linearGradient><linearGradient id="a" x1="-26.94" y1="101.6" x2="-26.94" y2="77.33" gradientTransform="matrix(-1 0 0 1 163.26 0)" gradientUnits="userSpaceOnUse"><stop offset="0" stop-color="#c0d6ff"/><stop offset=".3" stop-color="#c5dbff"/><stop offset=".65" stop-color="#d3e9ff"/><stop offset="1" stop-color="#e9ffff"/></linearGradient><linearGradient id="d" x1="72.96" y1="582.75" x2="72.96" y2="352.85" gradientTransform="matrix(-.87 -.5 0 1.15 200.46 -319.16)" xlink:href="#a"/><linearGradient id="e" x1="-5.67" y1="179.19" x2="47.98" y2="82.6" gradientTransform="matrix(-1 0 0 1 163.26 0)" gradientUnits="userSpaceOnUse"><stop offset="0" stop-color="#5778ff"/><stop offset=".04" stop-color="#5c7dff"/><stop offset=".09" stop-color="#6a8aff"/><stop offset=".14" stop-color="#82a0ff"/><stop offset=".19" stop-color="#a3beff"/><stop offset=".22" stop-color="#bcd5ff"/></linearGradient><linearGradient id="f" x1="60.24" y1="179.54" x2="24.53" y2="109.73" xlink:href="#a"/><linearGradient id="g" x1="112.23" y1="326.62" x2=".34" y2="128.36" gradientTransform="matrix(-1 0 0 1 163.26 0)" gradientUnits="userSpaceOnUse"><stop offset="0" stop-color="#c0d6ff"/><stop offset=".12" stop-color="#d0e6ff"/><stop offset=".26" stop-color="#e9ffff"/><stop offset=".51" stop-color="#c0d6ff"/><stop offset=".62" stop-color="#d0e6ff"/><stop offset=".75" stop-color="#e9ffff"/><stop offset="1" stop-color="#c0d6ff"/></linearGradient><linearGradient id="b" x1="296.53" y1="223.15" x2="226.35" y2="279.42" gradientUnits="userSpaceOnUse"><stop offset="0" stop-color="#bcd5ff"/><stop offset=".15" stop-color="#a3beff"/><stop offset=".39" stop-color="#82a0ff"/><stop offset=".61" stop-color="#6a8aff"/><stop offset=".82" stop-color="#5c7dff"/><stop offset="1" stop-color="#5778ff"/></linearGradient><linearGradient id="h" x1="86.64" y1="536.41" x2="22.84" y2="587.56" gradientTransform="matrix(.87 .5 -1 .58 771.17 -112.73)" xlink:href="#a"/><linearGradient id="i" x1="296.53" y1="204.68" x2="226.35" y2="260.96" xlink:href="#b"/><linearGradient id="j" x1="68.17" y1="520.42" x2="4.38" y2="571.57" gradientTransform="matrix(.87 .5 -1 .58 771.17 -112.73)" xlink:href="#a"/></defs><path d="M203.33 355.01a9.1 9.1 0 01-4.46-1l-156.7-90.49a3.38 3.38 0 01-1.9-2.8c0-1.32 1-2.62 2.62-3.58l13.64-7.88c3-1.73 7.58-1.91 10.19-.4l156.71 90.47a3.37 3.37 0 011.91 2.85c0 1.32-1 2.62-2.61 3.58l-13.64 7.88a11.85 11.85 0 01-5.76 1.37zM62.27 248.72a10.85 10.85 0 00-5.27 1.32l-13.64 7.87c-1.36.79-2.14 1.8-2.14 2.77a2.46 2.46 0 001.44 2l156.7 90.47c2.36 1.37 6.51 1.18 9.26-.4l13.65-7.86c1.36-.78 2.14-1.79 2.14-2.76a2.46 2.46 0 00-1.44-2l-156.7-90.5a8 8 0 00-4-.91zm230.75 56.38a6.66 6.66 0 01-3.35-.9l-25.91-15a1.72 1.72 0 010-3l25.91-15a6.71 6.71 0 016.69 0l25.91 15a1.72 1.72 0 010 3l-25.91 15a6.65 6.65 0 01-3.34.9zm0-33.76a5.68 5.68 0 00-2.88.77l-25.91 15a.76.76 0 00-.39.68.77.77 0 00.39.68l25.91 15a5.78 5.78 0 005.75 0l25.91-15a.77.77 0 00.39-.68.76.76 0 00-.39-.68l-25.91-15a5.67 5.67 0 00-2.87-.77z" fill="#e6e7e8"/><path d="M78.69 19l13.13-7.56a2 2 0 011.94.18l113.1 65.29a7.4 7.4 0 013.14 5.91v257.25a2.69 2.69 0 01-1.09 2.48l-13.13 7.55-.29-14.3-101.72-58.7a7.38 7.38 0 01-3.08-5.88V25.75c-.26.84-.46 1.45-.49 1.47S78.69 19 78.69 19z" transform="translate(-5.73 -11.28)" fill="url(#c)"/><path d="M209.87 81.87l-34.18 19.73-5.16-3 36.89-21.29a7.68 7.68 0 012.45 4.56z" transform="translate(-5.73 -11.28)" fill="url(#a)"/><path d="M80.73 284.61l113.09 65.3c1.7 1 3.08-.06 3.08-2.33V90.33a7.36 7.36 0 00-3.08-5.88L80.73 19.15c-1.7-1-3.08.06-3.08 2.33v257.25a7.36 7.36 0 003.08 5.88z" transform="translate(-5.73 -11.28)" fill="url(#d)"/><path fill="#242993" d="M71.91 253.37l119.26 68.85V93.13L71.91 24.28v229.09z"/><path fill="#242993" d="M71.91 253.37l119.26 68.85V93.13L71.91 24.28v229.09z"/><path fill="#424aa0" d="M71.91 245.33l119.26 68.85V100.47L71.91 31.62v213.71z" opacity=".51"/><path d="M122.27 46.72l21.57 12.5c.63.37 1.17.47 1.4-.12a1.94 1.94 0 00.12-.72 3.66 3.66 0 00-1.52-2.92l-21.8-12.58c-.07 0-.13-.12-.19-.1-.69.19-.8.33-.8 1.36l.09.29a2.29 2.29 0 001.13 2.29z" fill="#5778ff"/><path d="M121.82 42.81a1.94 1.94 0 00-.12.72 3.61 3.61 0 001.57 2.91l21.8 12.59a1.63 1.63 0 00.19.09.89.89 0 01-1.4.43l-21.8-12.59a3.64 3.64 0 01-1.52-2.91c-.04-1.03.54-1.54 1.28-1.24z" fill="#bcd5ff"/><path d="M198.13 100.4l.24-.14a1.06 1.06 0 011.05-.09l.93.53h-.46a2 2 0 01.14.78v14.9a3.93 3.93 0 01-1.66 3.15l-.24.15a1.88 1.88 0 01-.34.14l.24.5-1-.56a1.43 1.43 0 01-.59-1.33v-14.9a4 4 0 011.69-3.13z" fill="#e9ffff"/><path d="M199.06 120.24l.25-.14a4 4 0 001.65-3.16v-14.89c0-1.22-.74-1.78-1.65-1.25l-.25.14a4 4 0 00-1.65 3.16v14.89c0 1.22.74 1.78 1.65 1.25z" fill="#bcd5ff"/><path d="M198.13 123.14l.24-.14a1.07 1.07 0 011.05-.1l.93.53h-.46a2.07 2.07 0 01.14.79v14.89a4 4 0 01-1.66 3.16l-.24.14a1.42 1.42 0 01-.34.15l.24.5-1-.57a1.43 1.43 0 01-.59-1.33v-14.9a3.94 3.94 0 011.69-3.12z" fill="#e9ffff"/><path d="M199.06 142.98l.25-.14a4 4 0 001.65-3.16v-14.9c0-1.21-.74-1.77-1.65-1.25l-.25.15a4 4 0 00-1.65 3.15v14.89c0 1.23.74 1.79 1.65 1.26z" fill="#bcd5ff"/><path d="M71.92 267.45v-145c4.4-12.22 13.18-23.89 23.3-29.73l79.54 45.92c-14.53 8.39-26.31 28.79-26.31 45.57v127a34.78 34.78 0 01-.32 4.39L75 273.33a7.36 7.36 0 01-3.08-5.88z" fill="#242993" opacity=".6"/><path d="M78.5 88l8.1-4.66a.37.37 0 01.4 0l101.4 58.54a1.43 1.43 0 01.6 1.12v19.14a.56.56 0 01-.17.45l-8.17 4.71-.07-9.25L87 104.07a1.46 1.46 0 01-.6-1.15v-6.57z" transform="translate(-5.73 -11.28)" fill="url(#e)"/><path d="M78.87 108.75l101.39 58.54c.33.19.6 0 .6-.45V147.7a1.43 1.43 0 00-.6-1.15L78.87 88c-.34-.19-.6 0-.6.45v19.15a1.42 1.42 0 00.6 1.15z" transform="translate(-5.73 -11.28)" fill="url(#f)"/><path d="M87.12 93.59l79 46.42a54.29 54.29 0 00-6.87 7.15l-79.58-45.92a54.62 54.62 0 017.45-7.65z" fill="#242993" opacity=".6"/><path d="M76.03 91.72l95.61 55.2c.23.13.41 0 .41-.31v-4.81a1 1 0 00-.41-.78l-95.61-55.2c-.23-.13-.41 0-.41.31v4.81a1 1 0 00.41.78z" fill="#242993"/><path d="M76.03 85.82l1.94 1.12v2.6a1 1 0 00.41.78l93.67 54.08v2.21c0 .3-.18.44-.41.31l-95.61-55.2a1 1 0 01-.41-.78v-4.81c0-.3.18-.41.41-.31z" fill="#4553c7"/><path d="M121.18 359.26l-79.54-45.92C54 306.2 64 288.85 64 274.57v-127c0-16.74 11.8-37.14 26.33-45.57l79.54 46c-14.53 8.39-26.31 28.79-26.31 45.56v127c0 14.27-10 31.63-22.38 38.76z" transform="translate(-5.73 -11.28)" opacity=".96" fill="url(#g)"/><path d="M84.6 90.72l79.54 46c-.64.37-1.27.77-1.89 1.18L82.71 91.94c.62-.41 1.25-.81 1.89-1.22z" fill="#4553c7" opacity=".8"/><path fill="#42ffff" d="M174.16 187l3.13 1.82v-2.11l-3.13-1.81v2.1zm0 14.22l3.13 1.81v-12.3l-3.13-1.81v12.3zm0 6.8l3.13 1.82v-4.89l-3.13-1.81v4.88zm0 7.05l3.13 1.81V212l-3.13-1.81v4.88zm-4.68-23.97l3.13 1.81v-4.88l-3.13-1.81v4.88zm0 9.34l3.13 1.81v-7.17l-3.13-1.81v7.17zm0 8.59l3.13 1.81v-6.15l-3.13-1.81v6.15zm4.68 13.09l3.13 1.81v-4.88l-3.13-1.81v4.88zm-4.68-37.82l3.13 1.82v-2.11l-3.13-1.81v2.1zm2.34 43.31l5.47 3.16v-2.04l-5.47-3.16v2.04z"/><path d="M263.68 278.72l-43.2-24.94c-.74-.43-.65-1.17.21-1.67l42.78-24.7a3.19 3.19 0 012.88-.11l43.2 24.93c.73.43.64 1.18-.21 1.67l-42.78 24.7a3.23 3.23 0 01-2.88.12z" fill="#242993" opacity=".5"/><path d="M315.77 247.78v-8.33h-13.58l-30.11-17.39a3.2 3.2 0 00-2.88.12l-30 17.31h-13.49v8.35a.85.85 0 00.49.69l43.2 24.94a3.2 3.2 0 002.88-.12l42.78-24.7a1.21 1.21 0 00.71-.87z" transform="translate(-5.73 -11.28)" fill="url(#b)"/><path d="M269.41 265.16l-43.2-24.94c-.74-.43-.65-1.17.21-1.67l42.78-24.69a3.16 3.16 0 012.88-.12l43.2 24.93c.73.43.64 1.18-.21 1.67L272.29 265a3.23 3.23 0 01-2.88.16z" transform="translate(-5.73 -11.28)" fill="url(#h)"/><path d="M269.41 265.16l-43.2-24.94c-.74-.43-.65-1.17.21-1.67l42.78-24.69a3.16 3.16 0 012.88-.12l43.2 24.93c.73.43.64 1.18-.21 1.67L272.29 265a3.23 3.23 0 01-2.88.16z" transform="translate(-5.73 -11.28)" fill="url(#h)"/><path d="M263.83 250.96l-38.29-22.11c-.66-.38-.57-1 .18-1.47l37.92-21.9a2.86 2.86 0 012.56-.1l38.29 22.1c.65.38.57 1-.19 1.48l-37.92 21.89a2.81 2.81 0 01-2.55.11z" fill="#242993"/><path d="M263.92 249.11l-35.17-20.31c-.61-.35-.53-1 .16-1.36l34.84-20.11a2.58 2.58 0 012.35-.1l35.17 20.31c.6.35.52 1-.17 1.35l-34.83 20.12a2.64 2.64 0 01-2.35.1z" fill="#4553c7"/><path fill="#42ffff" d="M264.2 226.84l-4.11-2.37 2.24-1.3 4.12 2.37-2.25 1.3zm7.65-.33l-4.12 2.37-2.24-1.3 4.11-2.37 2.25 1.3zm-8.58.87l-2.25 1.3-2.25-1.3 2.25-1.3 2.25 1.3zm7.76 4.48l-2.25 1.3-6.47-3.74 2.24-1.3 6.48 3.74z"/><path d="M310.04 216.96l-18.37.11-25.32-14.61a3.16 3.16 0 00-2.88.12l-25.67 14.81-17.82.11v10.82a.91.91 0 00.49.61l43.2 24.94a3.23 3.23 0 002.88-.12l42.78-24.7a1.33 1.33 0 00.68-.78z" fill="#42ffff" opacity=".4"/><path d="M315.77 229.32V221h-13.58l-30.11-17.38a3.16 3.16 0 00-2.88.12l-30 17.3h-13.49v8.36a.86.86 0 00.49.69L269.41 255a3.23 3.23 0 002.88-.12l42.78-24.7a1.23 1.23 0 00.7-.86z" transform="translate(-5.73 -11.28)" fill="url(#i)"/><path d="M269.41 246.69l-43.2-24.93c-.74-.43-.65-1.18.21-1.67l42.78-24.7a3.23 3.23 0 012.88-.12l43.2 24.94c.73.43.64 1.17-.21 1.67l-42.78 24.7a3.19 3.19 0 01-2.88.11z" transform="translate(-5.73 -11.28)" fill="url(#j)"/><path d="M263.83 232.49l-38.29-22.1c-.66-.38-.57-1 .18-1.48l37.92-21.89a2.83 2.83 0 012.56-.11l38.29 22.11c.65.38.57 1-.19 1.47l-37.92 21.9a2.84 2.84 0 01-2.55.1z" fill="#242993"/><path d="M263.92 230.64l-35.17-20.31c-.61-.35-.53-1 .16-1.35l34.84-20.12a2.61 2.61 0 012.35-.09l35.17 20.3c.6.35.52 1-.17 1.36l-34.83 20.11a2.58 2.58 0 01-2.35.1z" fill="#424aa0"/><path fill="#42ffff" d="M264.2 208.38l-4.11-2.38 2.24-1.29 4.12 2.37-2.25 1.3zm7.65-.34l-4.12 2.38-2.24-1.3 4.11-2.37 2.25 1.29zm-8.58.88l-2.25 1.29-2.25-1.29 2.25-1.3 2.25 1.3zm7.76 4.48l-2.25 1.3-6.47-3.74 2.24-1.3 6.48 3.74z"/><path fill="#e6e7e8" d="M216.052 335.294l47.709-27.103.464.818-47.71 27.102z"/><path d="M108.51 227.67l14.55 8.37v-1.62l-14.56-8.37.01 1.62zm-7.47-4.29l5.24 3.02v-1.62l-5.24-3.02v1.62zm-5.78-3.32l3.56 2.04v-1.62l-3.56-2.04v1.62zm19.88 15.12l7.93 4.56-.01-1.62-7.93-4.56.01 1.62zm-11.94-6.86l9.71 5.59v-1.63l-9.72-5.58.01 1.62zm-5.79-3.33l3.56 2.05v-1.62l-3.56-2.05v1.62zm-5.5-3.16l3.56 2.04v-1.62l-3.56-2.04v1.62zm25.42 18.32l5.74 3.29v-1.62l-5.74-3.29v1.62zm-4.18-2.41l1.96 1.13v-1.62l-1.96-1.13v1.62zm-5.78-3.33l3.56 2.05-.01-1.62-3.56-2.05.01 1.62zm-5.47.56l21.18 12.18v-1.62l-21.18-12.18v1.62zm-7.46-4.29l5.24 3.01v-1.62l-5.24-3.01v1.62zm22.91 16.87l5.73 3.29v-1.62l-5.74-3.29.01 1.62zm-13.47-7.75l11.25 6.47-.01-1.62-11.24-6.47v1.62zm-5.78-3.32l3.56 2.05v-1.62l-3.56-2.05v1.62zm13.25 11.32l11.74 6.75v-1.62l-11.74-6.75v1.62zm-10.71-6.17l8.49 4.89v-1.62l-8.49-4.89v1.62zm-7.96-4.57l5.74 3.3v-1.62l-5.74-3.3v1.62zm26.45 18.91l3.97 2.28-.01-1.62-3.96-2.28v1.62zm-7.46-4.29l5.24 3.01v-1.62l-5.24-3.01v1.62zM101 245.54l8.45 4.86-.01-1.62-8.44-4.86v1.62zm9.96 9.42l12.15 6.99-.01-1.62-12.14-6.99v1.62zm-13.6-7.82l11.38 6.55-.01-1.63-11.37-6.54v1.62zm-5.79-3.33l3.56 2.05v-1.62l-3.56-2.05v1.62zm-5.55-3.19l3.56 2.05v-1.62L86.02 239v1.62zm29.81 20.84l7.28 4.19v-1.62l-7.28-4.19v1.62zM78.99 210.7l-10.09-5.8-.01-1.62 10.1 5.8v1.62zm-2.16 2.46l-7.92-4.56-.01-1.62 7.93 4.56v1.62zm-2.18 2.44l-5.74-3.3v-1.62l5.73 3.3.01 1.62zm2.61 5.2l-8.34-4.8v-1.62l8.34 4.8v1.62zm-2.6 2.2l-5.74-3.3v-1.62l5.74 3.3V223zm1.55 4.59l-7.28-4.19v-1.62l7.27 4.19.01 1.62zm-3.31 1.79l-3.96-2.28-.01-1.62 3.97 2.28v1.62zm3.73 5.84l-7.69-4.42v-1.62l7.68 4.42.01 1.62zm-.4 3.47l-7.28-4.19v-1.62l7.27 4.19.01 1.62zm34.29 19.72l3.09 1.78v-1.63l-3.1-1.77.01 1.62zm-9.19-5.29l6.96 4.01v-1.62l-6.96-4.01v1.62zm7.18-68.03l14.55 8.37v-1.62l-14.56-8.37.01 1.62zm-7.47-4.29l5.24 3.01v-1.62l-5.24-3.01v1.62zm-5.78-3.33l3.56 2.05v-1.62l-3.56-2.05v1.62zm19.88 15.13l7.93 4.56-.01-1.62-7.93-4.56.01 1.62zm-11.94-6.87l9.71 5.59v-1.62l-9.72-5.59.01 1.62zm-5.79-3.32l3.56 2.04v-1.62l-3.56-2.04v1.62zm-5.5-3.17l3.56 2.05v-1.62l-3.56-2.05v1.62zm25.42 18.32l5.74 3.3v-1.62l-5.74-3.3v1.62zm-4.18-2.41l1.96 1.13v-1.62l-1.96-1.13v1.62zm-5.78-3.32l3.56 2.05-.01-1.63-3.56-2.04.01 1.62zm-5.47.55l21.18 12.18v-1.62l-21.18-12.18v1.62zm-7.46-4.29l5.24 3.01v-1.62l-5.24-3.01v1.62zm22.91 16.87l5.73 3.3v-1.62l-5.74-3.3.01 1.62zm-13.47-7.74l11.25 6.46-.01-1.62-11.24-6.46v1.62zm-5.78-3.33l3.56 2.05v-1.62l-3.56-2.05v1.62zm13.25 11.32l11.74 6.75v-1.62l-11.74-6.75v1.62zm-10.71-6.16l8.49 4.88v-1.62l-8.49-4.88v1.62zm-7.96-4.58l5.74 3.3v-1.62l-5.74-3.3v1.62zm26.45 18.91l3.97 2.28-.01-1.62-3.96-2.28v1.62zm-7.46-4.29l5.24 3.01v-1.62l-5.24-3.01v1.62zM101 202.96l8.45 4.85-.01-1.62-8.44-4.85v1.62zm9.96 9.42l12.15 6.98-.01-1.62-12.14-6.98v1.62zm-13.6-7.82l11.38 6.54-.01-1.62-11.37-6.54v1.62zm-5.79-3.33l3.56 2.05v-1.62l-3.56-2.05v1.62zm-5.55-3.19l3.56 2.05v-1.62l-3.56-2.05v1.62zm29.81 20.84l7.28 4.18v-1.62l-7.28-4.18v1.62zm-36.84-50.76l-10.09-5.81-.01-1.62 10.1 5.81v1.62zm-2.16 2.45l-7.92-4.56-.01-1.62 7.93 4.56v1.62zm-2.18 2.44l-5.74-3.3v-1.62l5.73 3.3.01 1.62zm2.61 5.2l-8.34-4.8v-1.62l8.34 4.8v1.62zm-2.6 2.2l-5.74-3.29v-1.62l5.74 3.29v1.62zm1.55 4.59l-7.28-4.19v-1.62l7.27 4.19.01 1.62zm-3.31 1.8l-3.96-2.28-.01-1.62 3.97 2.28v1.62zm3.73 5.83l-7.69-4.41v-1.62l7.68 4.41.01 1.62zm-.4 3.47l-7.28-4.18v-1.62l7.27 4.18.01 1.62zm34.29 19.72l3.09 1.78v-1.62l-3.1-1.78.01 1.62zm-9.19-5.28l6.96 4v-1.62l-6.96-4v1.62zm-7.94 57.28l11.76 6.76-.01-1.62-11.75-6.76v1.62zm-8.05-4.62l4.63 2.66v-1.62l-4.63-2.66v1.62z" opacity=".32" fill="#4553c7"/><path d="M29.37 350.72a5.88 5.88 0 01-2.9-.77l-25.2-14.57a2.49 2.49 0 010-4.31l25.2-14.56a5.81 5.81 0 015.79 0l25.23 14.57a2.48 2.48 0 010 4.3l-25.22 14.57a5.82 5.82 0 01-2.9.77zm0-34a4.79 4.79 0 00-2.43.65L1.72 331.89a1.53 1.53 0 000 2.67l25.22 14.57a4.88 4.88 0 004.85 0l25.23-14.57a1.51 1.51 0 00.77-1.33 1.54 1.54 0 00-.77-1.34l-25.23-14.56a4.78 4.78 0 00-2.42-.61zm246.72-1.16a6 6 0 01-3-.8l-25.59-14.78a2.17 2.17 0 010-3.77l7.82-4.48a6 6 0 016 0l25.58 14.77a2.17 2.17 0 010 3.77l-7.82 4.45a6 6 0 01-2.99.84zm-17.82-23.68a5 5 0 00-2.52.67l-7.82 4.48a1.24 1.24 0 000 2.14l25.59 14.77a5.06 5.06 0 005 0l7.81-4.47a1.23 1.23 0 00.62-1.07 1.21 1.21 0 00-.62-1.07l-25.58-14.78a5.07 5.07 0 00-2.48-.67zm-18.5.66a6 6 0 01-3-.8l-25.59-14.78a2.17 2.17 0 010-3.77l7.82-4.48a6 6 0 016 0l25.59 14.78a2.17 2.17 0 010 3.77l-7.82 4.46a6 6 0 01-3 .82zM222 268.86a5 5 0 00-2.52.67l-7.82 4.47a1.25 1.25 0 000 2.15l25.61 14.77a5.06 5.06 0 005.05 0l7.81-4.48a1.21 1.21 0 00.62-1.07 1.23 1.23 0 00-.62-1.07l-25.59-14.77a5 5 0 00-2.54-.67zM86.15 366.4a6 6 0 01-3-.8l-25.58-14.77a2.18 2.18 0 010-3.78l7.82-4.47a6 6 0 016 0l25.59 14.77a2.18 2.18 0 010 3.78l-7.82 4.47a6 6 0 01-3.01.8zm-17.77-23.68a5 5 0 00-2.52.67l-7.82 4.48a1.23 1.23 0 000 2.14l25.59 14.77a5 5 0 005 0l7.82-4.47a1.23 1.23 0 000-2.14L70.9 343.39a5 5 0 00-2.52-.67zm-.76 36a6 6 0 01-3-.8l-25.58-14.78a2.18 2.18 0 010-3.78l7.81-4.47a6 6 0 016 0l25.58 14.77a2.18 2.18 0 010 3.78l-7.81 4.47a6 6 0 01-3 .81zm-17.78-23.69a5 5 0 00-2.52.68l-7.82 4.47a1.24 1.24 0 000 2.14l25.58 14.77a5.06 5.06 0 005.05 0l7.81-4.47a1.23 1.23 0 000-2.14l-25.58-14.76a5 5 0 00-2.52-.69z" fill="#e6e7e8"/></svg>