<svg version="1.1" id="Layer_1" xmlns="http://www.w3.org/2000/svg" x="0" y="0" viewBox="0 0 840.1 736" xml:space="preserve"><style>.st1{fill-rule:evenodd;clip-rule:evenodd;fill:#fff}</style><path d="M720.3 614.8c4.8 16.1 1.7 34.9-9.2 48.1-7 8.6-23.8 16.2-33.1 7.3-4.2-4-6-17.6-7.8-24-1.6-5.8-4.4-16.7-3.2-21.6 1.8-7.2 16-5.5 22.7-6.1 10.3-.9 20.4-2.4 30.6-3.7zm134.5 8.2c2.2 4.9 5.8 8.2 7.3 13.7 1 3.6 1.6 7.1 2 10.8.5 4.4.8 4.3-2.3 6.3-4.7 3.2-16.6 2.9-22.3 3.8-7.4 1.2-14.8 2.6-22.2 3.8 1.8-6.9.9-14.3 2.7-21.4 1.8-6.8 5-13.6 9.4-19.2 3.3-4.2 8.1-9.2 14.1-9.2 7.7-.1 8.9 6 11.3 11.4zM383.7 474.9c1.1 14.8-1 30.6-9.4 43.3-3.6 5.4-8.8 8.3-13 12.9-4.9 5.4-7.5 12-15.2 14.3-5 1.5-10.8.5-16 1.1-8.6 1.1-11.1-.1-18.4-4.5-5.2-3.2-11.2-2.6-16.7-6.1-6.6-4.2-12.3-10.2-18.5-14.9 35-17.1 71-31.7 107.2-46.1zm93.9 8.8c13.4 6.3 20.5 17 24.3 30.9-36.9 8.4-72.8 18.8-109 30.4 10.1-25.7 21.5-49.3 49.2-61.3 5.5-2.4 11.2-6.2 17.5-6.1 6.2.1 12.6 3.5 18 6.1zm336.6 38.2c19 10 9.4 42 2.7 56.2-8.5-6.2-17.3-12.3-25.6-18.3-9-6.6-17.1-15.1-25.4-22.7 4.4-2.3 7.2-5.9 11.2-8.5s8-2.8 12.5-3.8c8.7-1.9 15.7-7.6 24.6-2.9zm-148.4-72.1c1.5 1.9 3.3 3.8 4.8 5.8 3.5 4.9 6.5 9.8 10.5 14.3 7.1 8 17.5 18.5 29.2 19.2l.3 3.4c-3.4-.1-5.5-3.1-8.5-3.4-2.3-.2-5.6 1.6-8.5 1.3-8.9-.8-17.7-1.2-26.7-1-17.8.5-35.4 3.3-52.9 5.6 3.4-11.9 9.6-24.2 19.6-32.2 3.4-2.8 6.7-6.6 10.6-8.8 2.3-1.3 4.8-1.4 7.2-2.5 2.8-1.2 6.4-5.2 9.2-5.6 3.1-.2 3.1 1.2 5.2 3.9zm143 1.1c9.4 7.5 16.5 17 24.2 26.1 7 8.2 16.4 19.8 18.9 30.3-12.4 5.8-33.5.5-41.5-10.3-9.8-13.2-5-31.7-1.6-46.1zM594.6 408c-1.8 12.5-7.8 26.3-16.8 35.6-3.9 4-7.3 9.2-11.7 12.7-5.7 4.6-10.4 2.2-17 2.9-7.2.8-11.8 5.4-19.4 4.2-5.4-.9-10.5-3.9-15.6-4.8-5.6-1-10.5-.4-16-3.2-6.9-3.4-12.3-10.1-17.7-15.3 2.8-2.2 8.5-2.4 12.1-3.6 4.8-1.6 9.5-3.2 14.3-4.7 9.9-3.1 19.7-6.4 29.6-9.4 18.7-5.7 38.6-11.3 58.2-14.4z" fill-rule="evenodd" clip-rule="evenodd" fill="#893168" transform="translate(-68 -18)"/><path class="st1" d="M821.9 82.5l-.6 4.1c6 1.1 6.2-2.6.6-4.1zm-26.1-7.1c-3.2-1.1-8.5.5-6 4.4 3.6 5.4 5.2-1.7 6-4.4zM535.9 225.9c.5-.5-5.2-11.4-6-13.2-3.7 2.1-3.9 1.6-2.4 5.1 1.3 3 5.8 6.1 8.4 8.1zm-336.8 3c-1.8-.2-5.3-1.2-6.8-.6-2.1.9-1.5 2.8-1.8 5.7 6.1-.3 7 .5 8.6-5.1zm-8-6c3 .5 6 1.1 9 1.6.6-3.4 2.3-9.1-4-7-.6.2-4.2 4.3-5 5.4zm351.8 7c-3.2 3.2 11.6 9.8 13.1 7.7 3.3-4.7-10.9-7-13.1-7.7zm73-37.3c1.8-.2 3.6-.4 5.3-.5-.6-2.6-2.5-12.2-6.4-11.7-3.9.5.5 10.2 1.1 12.2zm6.5 15.7c0-2.2.9-7 .1-9-.6-1.4-2.9-5.7-6.3-2.9-.7.6-1.1 9.2-.8 9.5.8 1.1 5.6 1.9 7 2.4zM603.9 236c-3.7-2.8-11.6-6.9-15.1-.6-4.9 8.8 11.9 2.9 15.1.6zm-20.9.7c-4.8.9-9.7.8-14.5.4-5.5-.4-6.7-2-8.3 3.2 5.8 2.1 18.3 3.6 24.2 1.6-.5-1.7-.9-3.4-1.4-5.2zm30.3-23.9c-1.7 3.4-5.3 8-6.3 11.6-.7 2.7-1 1.3-.4 3.4.2.7 3.2 3.8 3.7 4.6 3.6-2.7 7.9-5.5 9.8-9.7 2.9-6.8-.9-7.4-6.8-9.9zm-81.7-14.1c-12.2 3.8-27.2 7.5-40.2 6.4-.2 1.1 21.9 7.5 24.6 7.1 2.7-.5 2.9-4.2 6.2-6.2 3.6-2.2 6.5-.9 10.5-1.2-.5-2.1-.8-4.1-1.1-6.1zm40.2 51.2c-11.2-.7-21.3-3.4-31.2-8.5-5.7-2.9-9.8-7.2-13.6-12.1-3-3.8-2.4-3.5-7-4.8-3.4-1-7.7-.6-11.2-1-11.8-1.5-23.6-5.1-34.8-8.8-12.6-4.2-23.4-10.1-37.3-9.7-23.8.6-43 18.6-67.8 11-9.8-3-20-7-28-13.4-10.3-8.4-16.6-13.3-31.2-10.3-11.7 2.4-20.7 8.6-30.8 14.3-11.5 6.5-24 10.4-36.7 13.9-5 1.4-9.6 2.1-14.9 2.4-3.1.2-17.9-2.1-19.7-.5-1.8 1.5-2.6 12.1-2.4 14.1.3 3.2-1.1 3.6 2.3 4.9 2.4.9 9.8 0 12.8.3 23.9 2.7 48.3 3.5 71.8 7.7 22.1 3.9 44.2 7 66.1 11.5 28.4 5.9 57.3 8.6 85.8 14.3 13.7 2.8 27.6 6.7 41.2 9.6 12.4 2.7 24.8 5.2 37.2 7.6-.5-1.7-3-7.9 1.1-7.4 2.6.4 7 9.4 8.4 11.4 6.3 9.4 13.1 16.4 21.7 23.9 8.7 7.5 17.5 14.9 26.3 22.3 7.2 6 22.7 15 22.3 25.5-4.4.8-13.1-6.9-16.4-9.1-6.7-4.3-13-8.9-19.2-13.8-5.8 8.5 8 18.4 9.6 26.5-3.6 0-9.5-9.8-11.7-12.4-5.7 5.3-12.2 10.1-16.3 16.8 46.3-2 53.9 55.5 87.3 74.9 7.4 4.3 16.7 6.1 25.2 4.2 8.8-2 17.3-4.8 25.1-9.7 17.3-11.1 30-32.5 36.8-50.9 3.7-10.1 7.3-20 9-30.7 1.9-11.8.1-23.8-1.4-35.6-2.7-21-13.9-42.2-29.7-57.2-7.1-6.7-14.8-12.6-21.3-20-2.3-2.6-7.4-12.4-10.3-13-5.2-1.1-7.9 6.2-11.6.2-3.5-5.9 3.2-8.2 7.3-10.9 4.4-3 8.8-6.1 13.1-9.2 8.6-6.1 17.1-12.1 25.3-18.6 40.2-31.7 75.8-67.1 111.8-103.1-6.7-1.6-16.3-6.2-23.2-5s-12.9 6.1-20.2 6.9c-7 .8-13.9-.7-20.4-3-7.7-2.6-12.9-6-19.4.5-10.4 10.5-16.1 25-27 34.9-11 10-26.4 15.8-40.7 18.9-13.3 2.8-31.7 1.5-41.4 11.9-2.2 2.4-4.1 4-4.3 7.5-.2 6.2 1.2 1.8 3.2 5.6 3.3 6.3 4.6 14.2 5.3 21.1 1.5 14.1-.4 29.5-11.7 39.2-12.1 10.8-27.1 15.2-43.2 14.9zm-.7-22.8c8.2 4.2 24.9-1.3 31.5-6.4 9-7 9.7-19.1 8.2-29.2-4.2 1-8.3 2-12.5 3-1.8.4-3.6.9-5.3 1.3.2 1.5-.1 2.8-.7 4.1-3.9 5-5.8 2.5-10.1-1.8-9.1-9.3-17.2-19.9-20.9-32.3-4.2 4.9-8.9 8-15.5 7.3-2.9-.3-14.1-3.8-11.2-8.9.9-1.6 10 .4 13.1.3 6.4-.3 9.4-.2 11.7-6.2 1.9-5 1.3-7-4.7-8-7.6-1.2-7.8 3.4-13.3 5.5-13.8 5.4-4.4-16.1-6.3-22.1 6.8-2 13.9-3.4 19.9-7.2-6.6.8-12.9 3-19.4 4.6.5-7.9 16.2-9.6 22.1-12.1-6.3-.8-12.4 3.3-18.7 3.1-5.9-.2-14.3-2.7-20-4.6-5.9-2-10.5-7.4-16.2-2.7-3.7 3.1-8.7 11.6-9.9 16.1 3.7-.5 12.5-1.3 13.5 3 1.3 5.4-9.6 2.3-13 3.1-5.1 1.3-3.5 2.8-5.4 7.9-1.8 5-5.1 9-10.3 11 5.8 3.1 7.4 3 6.2 8.8-1.1 5.6-.4 12 .2 18.3 3.4-1.4 7.1-1.9 10.8-2.2.7 4.6-6.4 6.5-10.1 6.7 1.9 6 2 5.8 8.6 5.8 3.7 0 7.4-.2 11.1-.4 7.5-.4 14.8-1.7 22.3-2.9 2.8-.5 6.9-2 9.7-1.7 5.2.6 4.2 1.1 3.3 5.5-1.2 6 .1 10.5 1.6 17-8.9-3-1.7 6.2 2.4 8.1 8.1 3.7 18.2 7.7 27.3 8.2zM86.9 588.2c6.3 3.1 12.2 6.1 17.9 10.1 5.7 4 11.7 10.7 18.9 12 8.6 1.5 10.7-2.9 12.8-9.5 2.4-7.4 4.6-10.8 11.4-14.8 12-7.2 26.1-11.9 39.3-17.1 5-2 5.4-1.6 3.9-6.7-.9-3.1-2-6.1-3.2-9.1-2.2-5.5-4.6-11.4-8.2-16.2-20.9 13.7-45.7 29.6-71.4 32.9-10.4 1.3-20.7 3.7-30.9 4.6-5.1.4-9.2 1.7-13.7 3.9-5 2.4-13.3 3.3-16.8 7.3 13.5-.2 26.7 1.5 40 2.6zm511.4 18c-4.2 1.7 1.5 11.6 2.7 15.7 1.8 6.2 3.5 12.4 5.4 18.6 3.9 13.1 7.5 26.2 11.2 39.3 24.2-13.1 50.1-20.6 76.9-26.9 26.8-6.3 54.1-10.7 81.4-15 14.9-2.3 30.6-5.5 44.5-11.6 8.6-3.8 6.9-7.3 6.8-15.7-.1-7.9-1.4-15.9-2.6-23.7-2.3-14.7-4.7-30.8-10.6-44.6-5.8-13.5-13.5-26.4-21-39.1-8.8-15.1-16.4-31.3-27.9-44.7-12-13.9-24.9-26.6-38-39.5-7.8 14.8-18.9 32.8-33.3 42.1C678 471.4 653 476.6 635 468c-18.1-8.6-28.9-26.4-40.2-41.8-10.9-14.9-20.4-31-39.7-36.3-20.4-5.6-41.9 2-61.8 6.8-22.7 5.5-44.9 13.3-66.9 20.7-38.3 12.9-76.3 24.6-113.6 39.9-45.9 18.9-91.9 37.6-136.3 59.6 9.6 13.7 17.1 26.2 22.5 42 4.2 12.3 6.8 25.3 7.8 38.6 5.2-5.1 9.1-11.3 14.3-16.5 5.9-5.9 12.8-10.4 19.8-15 12.6-8.4 25.4-15.9 39.3-22.3 31.5-14.4 64.9-24.4 98.1-34.6 7.5-2.3 16.4-5 24.2-6.3 6.6-1.1 12.5-3 19.3-4.6 15.3-3.6 30.8-6.9 46.3-9.6 29.7-5 60-10.4 90.1-13.9 20.4-2.4 41.7-6.2 62.7-4.1 3.5.3 7 1 10.6.9 1 0 2.2-1.5 3.2-1.4 2 .2 4.1 2.4 6.1 3.1 4.6 1.5 11.2.6 13.7 4.3 2 3 1.3 5.4-1.7 7.4 3.6 4.5 10.5 8.7 15.3 12.3 4.3 3.2 8.4 6.6 12.7 9.7 4.7 3.3 10.3 6.4 15.2 9.8 6.4 4.4 11.8 10.1 17.8 15 10.8 8.9 21.6 16.6 33 25 6.1 4.5 12 8.7 18.6 12.4 3.6 2 11.9 7.5 7.6 12.5-4.3 5-12.9-2.4-17.6-2.9-5.4-.6-12.7 2.8-18.1 3.5-14.2 2.1-28.5 3.9-42.8 6.2-16.3 2.6-32.4 6.1-48.7 8.2-8.4 1.1-16.9 2.2-25.4 2.9-4.4.4-10.6-.2-14.7 1.2-3.1-.9-4.5 0-4.1 2.7-.8 1.4-1.8 2.3-3.3 2.8zM147.7 234c8.9-.1 17.7.5 26.6.4 3.4 0 6.4.7 7.8-1.7 1.7-2.9.9-10.5 1.2-13.8-10.4.8-19.9 1.1-30.3.2-11.1-1-21.9-4.1-33.1-4.8 2.4.9 5.1 5.8 3.6 8.2s-4.1.2-6.5-.8c-9.4-4.2-17.3-10.3-27.9-7.6 9.8 5 19 13.1 29.2 16.1 9.6 2.8 19.3 3.8 29.4 3.8zM808.5 70.3c4.3.8 12.8 5.1 16.7 3 4.7-2.7 3.7-13.4 3.9-17.6.5-12.9 1.5-30.7-8.6-41.1-1.8 12.4 2.1 25.4 1.9 37.9-.2 9.4-3.8 4.3-5-2.4-1.2-6.1-1-12.1-2.6-18.2-2.9 4.9-3.5 11.6-5.6 17-2.6 6.8-6.2 13-9.8 19.4 3 .5 6.1 1.2 9.1 2zM190 239.8c-.1 3.6-.6 7 4 7.3 6 .4 4-5.7 3.6-9.5-2.2.3-7.1-.3-7.6 2.2zM806 76.2c-3.8-.5-4.3-1.3-6.7 1.3-1.5 1.7-1.7 4.7-.3 5.7 5.7 4.6 6.6-4.5 7-7zm3.6 8.3c2.9.6 5.8 2.1 7.4-.8 2.4-4.2-3.3-4.6-6.5-5.9-.3 2.3-.6 4.5-.9 6.7zM626 484.1c-32.3-.8-64.1 4.3-95.8 9.9-28 4.9-55.9 9-83.3 15.2-55.3 12.5-110.6 26.4-162 50.4-12.5 5.8-24.9 11.7-36.4 18.7-6.2 3.8-12.5 7.6-18.3 11.9-3.2 2.4-6.5 4.7-9.6 7.3-2.8 2.4-4.3 5.6-6.8 8-1.2 1.1-6.2 5.1-7.7 5.6-3.2 1-1.9 1.1-5.2-1.2-6.8-4.6-8.1-10.8-10.2-18.2-1.4-5.2-.3-7-5.1-6.8-2.4.1-6 2.5-8.2 3.5-7.2 3-15 5.4-21.9 8.9-5.6 2.9-10 6.6-12.4 12.3-2.8 6.7-4.5 12.2-13 13-15.3 1.3-24-13.9-37.1-19-14-5.5-31.8-4.4-46.5-4.6-5.4-.1-11.2.5-16.3 1.2-7.2 1-15.8 5-23.3 2.5-8.6-2.9-8.5-15.2-2.8-20.5 6-5.6 14.9-6.4 22.5-8.2 15.5-3.7 29.6-12.3 45.4-14.9 15.7-2.6 32.4-3.2 47.7-7.9 7.8-2.4 15.4-4.3 22.8-7.7 9.2-4.3 19.2-7 28.3-11.2-3.1-5.5-4-10.6-4.2-16.8-.1-4.1-.8-4.1 2.1-5.9.6.3 1.1.6 1.7.9 1.8 1.3 3.1.7 3.9-1.8 12.7-7.7 24.4-16 37.9-22.6 22.7-11.2 46.7-20.3 69.4-30.9 43.1-20.3 91.1-32 136.4-46.8 27.4-9 55.5-16.3 83.6-23 4.9-1.2 9.8-2.1 14.8-2.9 8.5-1.3 6.5-1.4 10.8-7.9 5.5-8.4 14.2-17.3 23.1-22.5 5.5-3.2 7.8-2.7 7.6-9.7-.1-5.3-1.6-5.3-6-8.9-4.9-4.1-9.5-8.5-13.7-13.3-4.8-5.5-6.9-11.6-10.9-17.2-4.8-6.8-19.7-5.6-28.1-6.8-13.1-1.8-26.4-3.2-39.3-6-26-5.8-52.2-7.8-78.5-11.8-26.5-4-53-7.7-79.4-11.4-9.5-1.3-19.1-2.4-28.6-4.1-13.2-2.3-27.2-2.5-40.6-4.7-6.9-1.1-15.4-5-22.3-4.7-7.5.4-.8.3-5.7 2.8-2.2 1.2-4.8 2.2-7.3 2.3-4 .2-8-1.5-10.5-4.6-4.1-5.1-2.1-9-10.4-9.6-5.5-.4-11.9 1.7-17.4 2-5.4.3-11.1 1.1-16.6.9-10.9-.3-23.9-1.3-33.8-5.9-10.4-5.2-19.8-11.8-30.8-16-5.5-2.1-13.4-3-17.1-8.1-3.1-4.3-4.1-12.9.7-16.4 7.3-5.3 21.4 2.7 29.5.7 4.1-1 .7-2.3 3.8-3.7 1.9-.9 1.6-1 3.9-1.4 5.7-.8 14.9 3.2 20.7 4.1 11.3 1.9 22.6 4.7 33.9 6.4 6.5 1 13 1.2 19.5 2.3 5.6.9 10.3 3.1 14.4-1.4 1.7-1.9 1.2-3.9 4-4.9 2.5-.9 9.6.4 12 1.3 2.6 1 3.2 2.5 5.3 3.6.1 2.2 1 2.8 2.7 1.9 1.6-.1 3.3 0 4.9.3 14.4.1 28.7-4.4 41.8-9.7 21.7-8.7 48.6-33.5 73.5-20 6.1 3.3 10.1 8.8 16.1 12.4 5.3 3.2 12.1 6 18 7.8 11.9 3.6 23.7 3.1 35.5-.6 14.4-4.5 25.9-9.3 41.4-8.8 14.3.5 25.8 10.4 39.9 10.8-3.4-5.5-4.1-11.9-4.4-18.1-.2-4.1 2-14.8-.4-18.1-2.7-3.7-24.1-5.1-12.2-15.9 3.9-3.5 11.1-2.2 15.1-6.1 4.1-3.9 4.1-10 6.3-14.9 2.5-5.5 6.5-10.1 10.6-14.5 1.8-1.9 2.9-3.1 3.9-5.3 1.2-2.6.4-4.8 2.2-7.6 6.3-9.3 17.2-6 26.7-4.8 5.8.7 12.7 0 18.3 1.6 4.5 1.3 10.3 5.1 14 7.9 8.1 6.2 9.9 17.6 10.5 27 .4 5.5-.7 10.7-.8 16.1-.1 5.7-2.6 8.3-7 12.1-.1-1.1-.6-1.8-1.5-2.1-1.9 2.4-1.4 3.3 1.5 2.8.1 1.4.6 2.7 1.5 3.9 2.4 2.7 4.5 5.7 6.9 8.4 5.2 6 11.2 11.3 15.2 18.1 4.2-4.9 9.5-5.7 14.5-9 4.9-3.3 1.2-4.2 3-9 .7-1.9 2.6-2.2 3.3-3.7.6-1.4-.1-2.3.3-3.8 1.9-7.6 1.1-12.3 7.2-18.2 8.1-7.9 18.1-10 29.2-11.5 11.1-1.5 19-2 28.8-6.4 3.4-1.5 6.7-2.2 9.9-3.9 4.4-2.3 8.5-4.8 12.3-7.9 8.9-7.3 14.4-17.5 21.6-26.3 5.7-7 12.7-16 23-14.2 11.8 2.1 22.2 9.3 34.7 5.4 4.7-1.4 4.2-.6 6-5.1.6-1.5 1-3 1.6-4.5 2.2-5.5 6.5-6.2 9.2-10.7 6.3-10.6 9.7-23.9 13.3-35.6 1.7-5.4 4.9-10.1 6.8-15.3.8-2.2.4-11.8 3-12.7 8.2-2.7 14.8 18.8 16.3 22.8 3.9 10.6 7.4 22.6 5.8 34-.6 4.7-1.1 10.1-2.4 14.7-1.1 4.2-1.4 3.9-.7 7.7.7 3.8 1.4 6.1.9 10.2-.2 1.1-.7 5.3-1.2 5.9-2.2 2.7-2.6.8-5.4 1.9-4.5 1.7-5.6 3.2-8.8 7.3-8 10.1-16.4 20.3-25 29.9-15.2 16.9-31.2 32-48.2 47-16.7 14.7-34.2 29.7-53.2 41.7-4.6 2.9-12.2 5.5-15.9 9.3-4.1 4.2 2.1 6 6.3 9 8.3 5.9 16.8 12 24 18.9 15.4 14.7 24.2 36.4 29.6 56.1 2.8 10.3 3.4 22 4.4 32.6 1.2 12.5-.3 26.1-4.2 37.9-1.5 4.5-3.2 8.9-4.7 13.4-.7 2.1-3.9 8.5-3 10.9 1.5 4 11.1 8.8 14.5 11.5 4.6 3.8 9.3 7.7 13.2 12.1 16.4 19.1 29.8 39.1 41.8 61.1 12.2 22.3 23.8 42.5 28.6 67.6 1.3 6.6 2.4 13.1 3.7 19.7 1.4 7 0 17.2 2.9 23.7 1.8 4 5.1 5.2 3.7 10.7-1.2 4.8-7.1 13.2-10.3 17-7.3 8.5-20.7 11.9-31.2 15-12.8 3.8-26.5 5.5-39.7 7.6-47.5 7.7-94 16.1-137.9 35.8 1.5 2.2 2.7 6.8-.3 8.3-4 2-5.9-3.9-7.3-6.5-4-7.5-5.2-17.3-7.6-25.5-5.8-20.1-10.2-40.5-15-60.8-16.2 3.4-32.5 5.2-48.6 8.4-7.4 1.5-14.9 1.6-22.4 2.5-8 1-8.5 3.5-7.9 11.2 1.4 16.9 8.1 33.1 12 49.5 1.9 8 5.1 15.5 6.9 23.5.6 2.6 0 9.5 1.8 11.4-.1-.1 6.1 1.1 7.1 1.4-.5-10 .6-19.7.1-29.7-.5-10.3-1.9-23.8.4-33.7 2.1-9 10.1-18.6 18.9-22.4 7.7-3.3 22.9-8.7 31.1-3.7 1.5.9 5 3.6 4.1 5.6-1.1 2.8-13.4 5-15.8 5.8-9.7 3.4-20 9.4-25.5 18.1-4.9 7.8-2.9 19.9-2.8 28.8.1 5.1.7 9.8.1 14.9-.9 7.2-1.3 9.8 1.6 15.9 3.4 7.2 1.3 17.8-9 15.2-6.2-1.6-6.4-4.9-10.1-8.6-1.4-1.4-3-.8-4.4-2.5-1.8-2.3-1.8-7.5-2.8-10.5-3-9.4-7.2-18.6-10.4-28.1-4.2-12.8-7.7-25.7-10.7-38.8-2.4-10.2-4.9-20.5 0-30.4 4.4-8.8 15-8.1 23.9-8.4 20.5-.7 41.7-5.2 62.6-6.2 1.5-.1 4.6.4 6-.2 1.9-.9 2.6-3.4 5-5 4.6-3.1 13.7-4.1 19-5.1 12.1-2.1 24.1-3.9 36.1-6.1 13.8-2.6 27.5-5.6 41.3-8 13.2-2.2 26.6-2.7 40-4.2-21.2-13.7-39.9-30.4-60.4-45.2-9.5-6.9-18.3-13.6-26.8-21.6-3.5-3.3-7-6.5-10.3-10.1-1.7-1.9-3.2-5.6-5.4-6.9-2.2-1.4-5.3-1-8.9-1.3z"/><path class="st1" d="M548 98.6c-7-.6-15.1-.7-21.9-2.2 6.1.5 16.4.2 21.9 2.2M162 208.3c-3-.3-6-.5-9-.8 3.1-.4 6.1-.1 9 .8m184 65.1c2 .2 4 .3 6 .5-2-.2-4-.4-6-.5m203.5 412.8c.1-2.3.2-4.7.3-7-.1 2.3-.2 4.6-.3 7m-11 18.1c0 1.7-.1 3.3-.1 5 .1-1.7.1-3.3.1-5m44.7-78.2h-6 6M297.5 266c1.3.2 2.7.3 4 .5-1.4-.1-2.7-.3-4-.5M522.2 96c-1.7-.1-3.3-.3-5-.4 1.6.2 3.3.3 5 .4m16.6 582.2c0 1.7-.1 3.3-.1 5 0-1.7.1-3.3.1-5M289.5 265.4c1.3.1 2.7.3 4 .4-1.3-.1-2.7-.3-4-.4m20.9 2.8c1.3.1 2.7.2 4 .4-1.4-.1-2.7-.2-4-.4m217.5 336h-5c1.6.1 3.3.1 5 0m-58-312c1 .1 2 .2 3 .2-1 0-2-.1-3-.2m69.6 403.1c-.1 1.3-.2 2.7-.3 4 .1-1.3.2-2.6.3-4m86.2-210.7l3 .3c-1-.2-2-.3-3-.3M317.3 177.3h-5 5m-195.8 23.4c-1.3-.2-2.6-.5-4-.7 1.4.2 2.7.5 4 .7m22.7 4.1l-3.9-.9 3.9.9zm-52.9-2.7c-1.3-.3-2.6-.5-3.9-.8 1.2.3 2.6.5 3.9.8m520.4 282.2c.7.1 1.3.2 2 .3-.7-.1-1.4-.2-2-.3M474 165c.7.1 1.3.2 2 .3-.7-.1-1.4-.2-2-.3m224.2 408.9c-1.3.1-2.7.2-4 .2 1.3 0 2.6-.1 4-.2m44.1-200.1l.3-3-.3 3m-237.7-77.5c.7.1 1.3.1 2 .2-.6-.1-1.3-.2-2-.2m-271.7-37.8c.7 0 1.3.1 2 .1-.7 0-1.3-.1-2-.1m-104.1-26.6c3.1.3 6 .4 8.9 1.3-2.9-.2-6.3.2-8.9-1.3m32 1.5c2.2-.6 5.8-.4 8 .6-2.7-.2-5.3-.4-8-.6m410.1-5.9c2.3.2 4.7.4 7 .6-2.4.5-4.8.6-7-.6M806 75.8c-1.7-.2-3.3-.4-5-.6 1.7.2 3.4.4 5 .6m-725.4 512c2.1-1 4-.3 6 .5-2-.2-4-.4-6-.5m124.7-354.3c0 1.7-.1 3.3-.1 5 0-1.7.1-3.4.1-5m-62.6.2h5-5m429.2 16.2c-1.3-.1-2.7-.2-4-.3 1.4.2 2.7.2 4 .3m-81.4 35.9c1.6.3 3.3.6 4.9.9-1.6-.3-3.2-.6-4.9-.9M150 219c-1.3-.1-2.7-.1-4-.2 1.4.1 2.7.1 4 .2m329.6 64.7c1.6.3 3.3.6 4.9.9-1.6-.1-3.4.4-4.9-.9M166 220.4c-1-.1-2-.1-3-.2 1 .1 2 .2 3 .2m287.1 57.1c1.6.3 3.3.6 4.9.9-1.6-.3-3.3-.6-4.9-.9M809.2 84.8c1.6.3 3.3.6 4.9.9-1.6-.3-3.2-.6-4.9-.9M392.7 267.4c1.7.2 3.3.3 5 .5-1.6-.2-3.3-.3-5-.5M808.5 70.7c1.6.3 3.3.6 4.9.9-1.6-.3-3.3-.6-4.9-.9m-603.1 170c1.7.1 3.3.2 5 .3-1.8.9-3.4.7-5-.3m329.5-100.9c.1-1.3.2-2.7.4-4-.2 1.4-.3 2.7-.4 4m-.4 5c.1-1.3.2-2.7.4-4-.2 1.3-.3 2.7-.4 4m5.3 242.9c-1-.1-2-.1-3-.2 1 0 2 .1 3 .2m87.1-185.6c-.2 1.3-.3 2.7-.5 4 .2-1.4.3-2.7.5-4m21.4 253.6c1.7 0 3.3 0 5-.1-1.6 0-3.3 0-5 .1M536.2 187.9c1.4-.7 2.7-.6 4 .3-1.3 0-2.7-.1-4-.3m11.3-14.3c-.7-.1-1.3-.2-2-.3.7.1 1.3.2 2 .3m6.4 202c1.3.3 2.6.5 3.9.8-1.3-.2-2.6-.5-3.9-.8m-45.4 105.9c1.3 0 2.7-.1 4-.1-1.3.1-2.6.1-4 .1m-28.6 5.6c1.3 0 2.7-.1 4-.1-1.3 0-2.6 0-4 .1m-12.2 2c1.3-.1 2.7-.1 4-.2l-4 .2zm-12.2 1.9l4-.2c-1.3.1-2.7.1-4 .2m257.6 95.5c-1 0-2-.1-3-.1 1.1 0 2 0 3 .1M508.3 289.3c1.3.3 2.6.5 3.9.8-1.3-.2-2.6-.5-3.9-.8M755.9 97.4c-.7 0-1.3-.1-2-.1.7 0 1.4.1 2 .1M161 220.1c-.7-.1-1.3-.2-2-.2.7 0 1.3.1 2 .2m281.3 54.4c1.3.3 2.6.5 3.9.8-1.3-.2-2.6-.5-3.9-.8m-150.4-25.1c1.3.2 2.6.5 4 .7-1.3-.2-2.7-.5-4-.7m-116.1-14.8c1.3 0 2.7-.1 4-.1-1.3 0-2.7.1-4 .1m36.6 6.3c1.4-.6 2.7-.8 4 .3-1.4-.1-2.7-.2-4-.3m292.5-96.7c6.5 4.7-7.9 22.1-13.6 8-1.6-3.9-1.1-8.8 3.1-7.8 1.9.5 2.1 3.3 4.8 3.4 2.6.1 3.9-2.2 5.7-3.6m37.7 16.4c.1-3.5 6.8-10.4 10.6-5.8 3.9 4.5-7.7 5.7-10.6 5.8"/><path d="M622.3 290.9l2.2 5.4-5.4 2.2 14.4 34.9 5.4-2.2 2.2 5.4 5.4-2.2-2.2-5.4 5.4-2.2 2.2 5.4 5.4-2.2-2.3-5.6 2.1-1.2c1.4-1.2 2.5-2.3 3.5-3.7.7-1.2 1.4-2.7 1.6-4.4s0-3.2-.8-5.1c-.9-2.1-2.5-3.6-4.3-4.8-2-1.1-4.1-1.4-6.7-1 1.5-1.6 2.4-3.2 2.8-4.6.4-1.4.3-3-.5-4.9-.7-1.6-1.4-2.9-2.4-3.7-1-.8-2.3-1.6-3.5-1.7s-2.6-.2-4.3.2c-.6.1-1.1.3-1.7.4l-2.3-5.6-5.4 2.2 2.2 5.4-5.4 2.2-2.2-5.4-5.4 2.2zm7.1 9.6l7.8-3.2c.8-.3 1.6-.7 2.2-.6.8-.3 1.5-.3 2.2-.2.6.1 1.3 0 1.8.5.5.4 1 .9 1.3 1.7.7 1.6.8 2.8 0 3.7-.7 1.2-1.7 2-3.3 2.6l-8.6 3.5-3.4-8zm5.5 13.4l9.4-3.9c1.9-.8 3.7-.9 5.4-.7 1.7.3 2.8 1.6 3.6 3.5.3.8.6 2 .5 2.6-.2 1-.6 1.8-1 2.3s-1.1 1.1-1.8 1.7-1.8 1-2.6 1.4l-9.1 3.8-4.4-10.7z" fill="#fff"/></svg>