<svg version="1.1" id="Layer_1" xmlns="http://www.w3.org/2000/svg" x="0" y="0" viewBox="0 0 1024 768" xml:space="preserve"><style>.st0,.st1{fill-rule:evenodd;clip-rule:evenodd;fill:#893168}.st1{fill:#fff}.st2{fill:#dd9e76}</style><g id="Character_x2F_clumsy"><g id="Accent" transform="translate(257 190.5)"><path id="Fill-1" class="st0" d="M298.9 147.1c-1.1-1.7-3.2-2.5-4.8-3.6.7 1.6.8 2.1.1 3.7-.6 1.2-.9 2.5-1.5 3.7-.4.8-1 1.7-1.2 2.5-.3 1-.1 2-.5 3 4.4-1.2 8.3-4 12-6.5-.7-.1-2.5-.1-3.1-.6-.5-.3-.6-1.6-1-2.2"/><path id="Fill-3" class="st0" d="M404.3 132.3c1.9 1.5 1.9 1.5 2 4.1-1.6-1-2.2-2.2-2-4.1m-92.6 6.8c-.9.1-1.1-2.5-1.3-3.2.3 0 .6-.1.9-.1.4.4 2 3.2.4 3.3m132.8 26.1c1.2-6.9 2.8-13.8 4.8-20.6 1-3.3 2.1-6.6 3.3-9.8 1-2.8 3-5.8 3.4-8.8-3.2 2.9-5.7 6.4-8.5 9.7-2.6 3.1-5.3 6.2-7.8 9.4-1 1.3-1.9 2.8-2 4.5-.1 1.9 1 3 1.8 4.6s1.3 3.7 1.7 5.4c.4 1.9-.2 2.9-.9 4.6-1.4-.7-2.6-1.1-3.7-2.4-1.1-1.3-2-2.9-3.1-4.3-2.3-3-4.6-6.1-6.8-9.1-4.5-6.1-8.5-12.3-11.9-19.1-3.4-6.9-6.5-14-9.9-20.9-.7-1.5-1-3.1-2.9-3.1-1.4 0-2.6.9-3.9 1.2-.3.1-.7.2-1 .2 0 .3 0 .7-.2 1-.3.4-.5.3-.9.2-.6 0-1-.4-1.6-.3-.8.1-1.7.6-2.4.9v-1.9c-2.5 1.3-8.6 5.6-9.9.7-.1.9.1 2.5-.8 3.1-.6.4-1.3 0-1.9.1-.8.1-1.5.7-2.2.9 0-1.3-1.1-1.2-2-1.3-1.3-.2-2.4-.9-3.7-.7-1.3.2-2.2.8-3.5.1-.9-.5-1.7-1.1-2.6-1.6s-1.1-.9-1.4-1.7c-.4-1-.3-.8-1.4-.5-2.2.6-3-2-3.4-3.8-.9-4.3.1-9 3-12.4 3.7-4.3 7.5-8.6 12.3-11.7 4.4-2.9 9.1-6.5 14.3-7.9-4.1-9.2-10-17.8-15.2-26.5-1.5.3-2.4 1.2-4 .9-1.3-.2-1.2-.1-1.7 1.2-.4 1.2-.6 1.3-1.8 1.7-1.2.4-.2-.4-1.1.6-.4.4-.6.9-1.1 1.2-1.8 1.2-4.1.5-6 1.3-1.3.5-.7 1.2-1.3 2.1-.7 1-1.9.5-2.9.3-2.1-.3-2.7.4-3.1 2.3-.3 1.4-.5 2.2-2.1 2.5-.9.2-2.2-.5-2.8 0-.2.2-.1.8-.2 1.1-.2.5-.5.9-.9 1.3-.7.8-1.7 1.5-2.7 1.9-.9.4-2 .2-2.9.5-1.4.5-1.1 2.1-1 3.3-.8-.2-1-.2-1.5-.8-.2-.3-.1-.7-.5-.9-.4-.1-2.4 1.1-2.7 1.5-.8 1 0 2.5-.2 3.7s-1.2 2.1-2 3c-.3-.7-.5-1.5-.8-2.2-.4.5-.9.8-1.1 1.4-.1.3.2.7 0 1.1-.4.9-.8.3-1.6.4-.7 0-2.5.5-2.1 1.6.2.7 1.6.5 1.4 1.5-.2 1.2-1.7.4-2.3.6-.8.3-.5 1-.8 1.7-.5 1.2-1.4 1.3-2.5 1.9-1 .6-1.4 1.3-1.8 2.3-.6 1.3-.5.9-1.7.8-.8-.1-1.1.1-1.4.8-.2.6.2 1.3 0 1.8-.3.6-1.6 1.4-2.1 2-1.3 1.8-1.8 4-2.9 5.9-.5.8-1 1.7-1.6 2.4-.8 1-1.3.8-2.3 1.4-1.7.9-1.2 3.3-1.4 4.8-.1.8-.3 1.6-.9 2.2-.3.4-1.6.8-1.3 1.5.3.9 1.3-.1 1.1 1.3-.1 1.1-1.4 2-1.7 3.1-.2.8.1 1.5-.1 2.2-.2.8-.9 1.5-1.2 2.2-.3.8.2 1.8-.1 2.4-.3.7-1.5.5-1.8 1.4-.3 1 .5 2.5.6 3.5.1.6.4 1.3-.1 1.9-.5.4-1.6.4-1.1 1.5.2.5 1 .4 1.1 1.2.1.6-.6 1.5-1 1.9-1 1.1-2.9 2-1.5 3.4.2.2.5.1.7.4.3.4.3 1 .4 1.5.4 1 .9 2 1.5 2.9 2.4 3.4 6.4 5 9 8 3.2-3.2 6.5-6.3 9.5-9.7 2.6-2.9 5.1-5.8 8-8.4 1.5-1.3 3.3-2.3 4.5-3.9 1.2-1.5 1.7-3.4 2.6-5.1 1.8-3.3 4.4-6 6.3-9.2 3.8 2.5 2.2 8.8 1.1 12.3-.7 2.2-1.6 4.2-2.7 6.2-.9 1.7-2.3 3.3-2.7 5.2-.4 1.5.2 2.8 1.1 4.1 1.3 1.8 2.8 3.5 4.1 5.2 3.3 4.3 6.6 8.5 9.8 12.8 1.2-1.7 3.1-.6 4.7-.3 2.3.5 4.7.3 7 .5 2.5.2 4.9.6 7.4 1 2.2.4.7 1.4 1.8 2.6 2.2-4 6.5-1.5 10-1.1 2.2.2 4.5.1 6.6.4 2.2.3 4.3 1 6.5 1.2 4.2.4 8 1.9 12.2 2.6 2.2.4 4.4.7 6.6 1.1.8.1 2.1.2 2.6 1 .5.9-.5 2.9-.8 3.8-.4 1.3-.7 3.2-1.6 4.3-.7.8-.8.3-1.7.3-1 0-.6.2-1.3.9-.8.9-2 1-3.2 1.1-.5 0-1.6 0-2 .3-.6.5-.1.6-.1 1.4-.1 1.4-2 2.4-3.1 3-.7.4-1.5.6-2.3.6-.5 0-1.1-.5-1.6-.3-.7.3-.7 1.7-1.1 2.3-.8 1.1-1.8.3-2.9.8-1.2.7-1.9 2.2-3.1 3-2.3 1.5-5 1.7-6.1-1.2-.5 1-1.6 2.4-1.1 3.4.4.9 1.5 1.5 2.3 1.9 2.3 1.2 4.5 2.5 6.7 3.9 5 3.2 9.8 6.7 15.1 9.4 5.3 2.6 10.8 5.4 16.6 6.6 6 1.2 12 .4 17.6-2-.8-1.6-1-2.7-1-4.6 0-1.8-.1-3.6-.1-5.3 0-3.5 0-7.1.1-10.6.5-7.1 1.2-14.1 2.5-21.1"/><path id="Fill-13" class="st0" d="M507.4 160.1c-.5-1.9-1.1-3.9-1.3-5.9-.1-1.4.4-3.6-.4-4.8-.4-.5-1-.7-1.2-1.4-.2-.5.1-1.5 0-2.1-.2-1.5-.8-2.8-1.3-4.2-1.2-3.1-1.3-6.3-2.3-9.5-.6-1.7-1.6-3.2-2.2-4.9-.6-1.5-.8-3.2-1-4.8-.2-1.7-.2-3.4-.6-5.1-.4-1.6-.9-3.1-1.2-4.7-.8-3.8-1.8-7.5-3.1-11.2-.5-1.4-.9-3.7-2.1-4.6-.9-.7-2.1-.5-3.1-.4-1.2.1-2.1.1-2.9 1.1-1 1.3-1.6 2.6-2.8 3.8-1.2 1.2-2.7 2.2-3.7 3.5-.8 1-.4 1.4.5 2.2-1.2.2-2.1-.2-3 .7-.9.9-1.5 2.4-2.1 3.5-1.2 2.5-1.4 4.7-1.7 7.4-.3-.5-.7-1-1-1.5-.4 1.1-1 2.3-2.2 2.8-1.5.6-1.4.4-1.4 2 0 2.4-2 3.8-3.2 5.6-.7 1-1.4 2.1-1.8 3.3-.6 1.4-.2 2.4-.1 3.9.2 2.2-1.9 3.9-3.2 5.5-.4.5-.6.7-.8 1.3-.2.4.1.7-.3 1.2-.6.9-1.9.6-2.3 1.7-.5 1 .2 2 .3 2.9.2 1.5-.8 3-1.3 4.4-.6 1.5-1 3.1-1.2 4.7-.1.9-.2 1.9-.1 2.8 0 .4.4 1.5.1 1.9-.4.5-1.2-.1-1.5.5-.7 1.2 1.9 1.5 2.4 1.7-.6.4-1.4.6-1.9 1.2-.6.7-.2 1.1-.5 1.9-.3.9-1.3 1.1-1.7 1.9-.3.8.3 1 .7 1.6.8 1.6.1 4-.2 5.6-.1.7-.1 2.4-.5 2.9-.3.3-.8.2-1.1.5-.5.6 0 .8.2 1.5.2.9.2 1.8 0 2.6s-.8 1.6-.9 2.4c-.2.9.3 1.2.6 2.1.7 1.9.2 4.2 0 6.1-.3 2.2.5 4.3-.1 6.4-.6-.3-1.2-.5-1.9-.8l.6 3 .3 1.5c-.1.6.1.9.6.8 1.1.3 2.7-1.4 3.6-1.9 2.7-1.5 5.5-2.6 8.3-3.9 2.9-1.3 5.3-3.2 7.9-4.9 2.7-1.8 5.5-3.3 8.2-5.1 11.4-8.1 23.7-14.9 35.6-22.2-3.4.3-4-4.1-4.7-6.5"/><path id="Fill-17" class="st0" d="M521.5 68.3c1.8.5 1.4 2 .7 3.3-.7-.6-1.9-1.4-2.2-2.3-.4-1.2.5-1.3 1.5-1m49.8 44.6c-.1.5-.2 2.3-.5 2.6-.3.3-2-.1-2.4-.1-1.4-.1-2.4.2-3.7.5-2.2.6-2.6-.8-2.7-2.9-1.7 3.4-4.6 5.1-8.2 5.8-1.6.3-3.4.6-5 .7-1.2.1-2.6-.1-3.9-.3-.8-.1-1.5-.6-2.2-.8-1.6-.3-.2.9-1.3 1.2-.3.1-1.4-.4-1.9-.4-.7 0-1.4.1-2.1 0-1.6-.1-2.1-1-3.4-1.7-.7-.4-1.1-.3-1.8-.2-.8.1-.2.4-1.1.2-.3-.1-.8-.4-1.1-.5-1.7-.8-3.1-1.5-4.4-2.8-1-1-2.2-1.7-3.2-2.6-.4-.4-.5-.8-.9-1.2-.4-.5-.4-.4-.9-.7-.6-.4-1-.6-1.4-1.3-.6-1.1-.6-2.6-.7-3.8-.3-4.1.4-7.8 2.4-11.4 2.1-3.9 3.9-8.1 6.4-11.8 2.2-3.4 5.1-6.5 7.8-9.5.8-.8 1.6-1.8 2.6-2.5.6-.4 1.4-.6 2-1.1 1.4-1.1.7-3.1.7-4.7.4.8 1.1 1.9 2.2 1.7.7-.2.7-.9 1.2-1.2.4-.2.8-.1 1.3-.2-1.7-8.2-3.8-16.5-6.5-24.4-7.4 7.2-14.7 14.5-21.9 21.9-3.7 3.8-7.1 7.9-10.8 11.8l-11.7 12c1.1 1 2.3 1.7 3 3 .7 1.2 1.4 2.1 2.3 3.2 2.1 2.3 3.1 5.8 4.3 8.7.3.6.3.7.3 1.2 0 .3-.4.6-.4 1 0 .5.2.8.5 1.1.3.3 1 .7 1.1 1.2s-.5.9-.6 1.4c-.8 2.2 1.8 3.7 2.7 5.4.5.9.7 1.9.1 2.8-.5.8-1.6 1.1-1 2.2.4.7 1.4.3 1.3 1.3-.1.5-1.1 1-.1 1.6.8.5 1.7-.4 1.4 1.1-.2.7-1.1 1.3-.8 2.1.2.7 1.5.8 2.1 1.4.6.7.9 1.9 1.1 2.8.4 3.2 1.2 6 1.9 9.1.5 2.1-.8 2.1-2.6 2.1 1.2 1.7 2.5 3.5 3.8 5.2 1.3 1.7 1.6 4.2 2.3 6.2.7 2.4 1.5 4.8 2.2 7.2.3 1.1.5 2.2.1 3.3-.5 1.3-.5 1.3-.3 2.6 5.8-3.3 11.2-7 16.7-10.8 2.6-1.8 5.3-3.6 7.8-5.5 2-1.5 4.1-3 5.4-5.2 3-5.1 7.5-9 11.6-13.3 2.1-2.2 4-4.9 6.5-6.5s5.1-3 7.5-4.6c-1.3-1.1-2.2-2.4-3.1-3.6"/><path id="Fill-35" class="st0" d="M388.7 180.8c2.4-1.1 4.5-2.6 6.8-3.9 2-1.1 3.8-1.6 5.5-3.1.7-.6 1.4-.9 2.2-1.3 1.1-.5 1.9-1.5 2.8-2.2-2.4-.9-4.8-2.4-7.4-2.4-1.2 0-2.3.4-3.5.2s-2.1-.8-3.1-1.5c-1.7-1.3-2.5-1.1-4.4 0-.4.3-1.1.8-1.6.8-.9 0-.7-.6-1.1-1.2-.3-.6.1-.6-.5-.6-.4 0-.6.5-1 .6-.8.2-2.3-.6-3.2-.8-1.4-.2-2.4 0-3.8.1s-2.8-.2-4.1-.7c-1.2-.4-2.4-1-3.6-1.4-1.6-.5-1.9.1-3.4.5-2.2.5-4.4-2.7-6.4-1 3 4.4 7.1 8 10.9 11.7 2 2 4.1 3.9 6.3 5.7 1 .8 2 1.6 3.1 2.4.5.4.9.7 1.4 1.1.8.6.8.8 1.5.5 1.1-.5 1.9-1.5 3-2 1.3-.5 2.4-.9 3.6-1.5"/><path id="Fill-37" class="st0" d="M390.2 85.4c.1 2 1.3 3.6-.4 5.2-.1-1-.1-1.9-.2-2.9s-.6-2.1.6-2.3m-2-8.5c-.3.9-.7 1.5-1.5 1.9-1.2.6-2.8-.4-3.6.5-.8.9-.7 3-1.8 3.7-.3.2-.7.1-1.1.4-.3.3-.4.9-.7 1.2-.6.4-1.1 0-1.6.2-.6.3-.7 1-.9 1.6-.2.6-.2 1.4-.6 1.8-.5.6-1.8 1-2.4 1.4-2.4 1.5-4.7 2.9-7.1 4.4.7.7 2.3 1.5 2.4 2.6.1.7-.4.8.2 1.4.3.3 1.2.5 1.5.7 1.3.7 2.7 1.3 4.1 1.6 1.7.4 3.5.2 5.2.6 1.8.4 3.6.8 5.5.7 1.6 0 3.1-.5 4.7-.6 3-.3 6.8 0 9.3-2.1-.2-2.2-.5-3.8-1.3-5.8-.7-1.9-1.5-3.8-2.2-5.6-1.5-3.8-3.1-7.4-5.1-11-.4 2.5-1.4-.8-2.3-.8-.5-.2-.5.7-.7 1.2"/><path id="Fill-45" class="st0" d="M553 104.1c1.3.3 2.4.5 3.6 1.1.9.4 1.3.6 2-.1.4-.4.5-1 1.1-1.3.5-.3 1.3-.2 1.9-.2 1.5-.1 3-.1 4.4-.2-1.7-1.6-3.4-3.3-5.1-4.9-.3.5-1 2.1-1.5 2.2-.2 0-.6-.5-.9-.5-.3 0-.5.1-.7.2-.6.3-.9.9-1.6 1.1-.7.2-1.5-.1-2.2-.2-.2.7-.7 1.9-1 2.8"/><path id="Fill-47" class="st0" d="M550.9 82.9c.3-1.2-.3-2.5-.1-3.7-.1-.2-.3-.4-.4-.6-.3.7-.5 1.5-1 2.1-.4.6-1 1-1.2 1.7-.5 1.2.1 2.1.7 3.2.7-1 1.7-1.6 2-2.7"/><path id="Fill-51" class="st0" d="M540.8 85.5c-1 0-.6.5-.8 1.3-.1.5-.3.9-.6 1.3-.5.8-1.8 1.7-1.1 2.8.6.9.7-.2 1.2.2.5.5-3 4.1-3.6 4.3-.3.1-.6-.2-.9 0-.2.2.1 2.3.1 2.7 0 1.1-.1 2.3.8 3.1 1.1.9 2.8 1 4.1 1.5.9.4 1.7.9 2.6 1.1 1 .3 1.8-.3 2.6-.2.6.1 1.8 1.1 2.5 1.4.8.4 1 .5 1.8.2.5-.2 1.3-.5 1.6-.9.5-.6.1-.6.2-1.4.1-1.5 1.7-1.3 2.7-1.7-2.1-.6-3.2-2.9-4.3-4.7-.5-.8-1.4-1.8-1.6-2.7-.3-1.1.5-1.9 1-2.8-.7.3-3.4 1.5-2.1.1.4-.5 2.9-1.2 1.9-2.4-.6-.7-1.4.8-2.1.6-.8-.2-1.8-1.6-2.5-2-.8-.5-2.5-1.8-3.5-1.8"/><path id="Fill-5" class="st0" d="M289.8 127.5c.1-3.5.6-7 1.6-10.3 2.1-6.9 6.5-12.9 7.9-20 .7-3.4.5-6.9 1.1-10.3.7-3.6.7-7.3.8-11 .1-3.6.3-7.2.2-10.8 0-1.3-.4-3.1-.1-4.3.3-1.1.7-.7 1.6-1-.6-.4-1.9-.6-2-1.4-.1-.5.4-1.1.4-1.7 0-.5-.3-1-.4-1.4-.8-2.5-1.9-6.4-.5-8.8-.9-.1-1.2-.4-2 0-.9.4-1.7 1.3-2.5 1.9-1.5 1.2-3 2.4-4.3 3.7-2.5 2.6-4.6 5.5-6.8 8.3-2.2 2.8-4.5 5.6-6.7 8.4-1.8 2.2-4.5 5.4-7 2.5-.7 1-1.2 2-2.4 2.4-1.5.6-2.1 1.2-3.1 2.4-.2.3-.8 1.3-1.1 1.4-.6.2-.2-.2-.7-.5-.7-.4-1-.7-1.3.5-.1.5.2 1.1-.1 1.6-.2.5-1 1-1.5 1.3-1.1.6-2.3.6-3.4 1-1.9.6-3.1 3.5-5.2 2.1-.8-.5-1.4-1.3-2.3-.8-.7.4-.9 1.4-1.9 1-.6-.2-1-.9-1.7-1.2-.5-.2-.9-.2-1.4-.3-1.1-.1-2.1-.1-3.2-.4-2.2-.7-3.8-2.7-5.3-4.4-1.1-1.2-.8-2-.5-3.6.3-1.3.5-2.7.9-4 .7-2.7 1.5-5.3 2.8-7.7 1.5-2.8 3.6-5.2 5.6-7.7 4.1-5.1 8-10.6 12.4-15.4.8-.9 2.3-1.9 2.1-3.3-.2-1.5-1.9-.8-3-.5-2.8.7-5.5 2.1-8.2 3.1-1.5.6-3.5 1.7-5.1 1-1.5-.7-3.9-2.6-3.1-4.4.7-1.3 1.4-2.3 1.7-3.8.3-1.4.5-2.7.8-4.1.7-3.2 1.5-6.4 2.5-9.6 1.8-6 4.1-11.9 6.1-17.9-8.3.7-15.9 3.2-23.6 5.9.4.8 1.1 1.8.8 2.7-.3 1.1-1.8.7-2.2 1.5-.4.9.9 1.4.5 2.5-.3 1-1.3 2.1-1.8 2.9 2.6 1.6 1.6-1.8 3.3-2 .5 2.7-.6 4-1.7 6.3-.9 2 1.2 1.8 1.7 3.4-1.2.2-2.1-.4-2.6 1.1-.2.6.1 2.9-.6 3-.5 0-.4-1-.8-1-.6-.1-2 1.9-2.3 2.3 1.5 0 2.3.2 3.8.7-.9.9-1.9 1.8-2.8 2.7.9.4 2.4.4 2.8 1.4.4.9-.2 2.6-.3 3.5.4-.6.9-1.9 1.5-2.3.8-.5 1 0 .9 1-.1 1.9-2.6 1.8-3 3.3s1.8.5 1.9 2c0 .9-1 1.6-.5 2.5-1.1-.6-1.3-1-1.9-2.2-.4 1.5-1.3 4-.8 5.6.4 1.3 1.3 1 .3 2.3-.4.5-.9.8-.9 1.5 0 1.5 2.1 2.6.4 3.9-.6.5-1.3.6-1.6 1.5-.3.8 0 1.8-.2 2.6-.5 1.7-1.7 2.9-2.9 4-1.1 1-2.1 2.2-3.2 3.1-.6.5-.9.8-1.3 1.4-.2.3 0 .5-.2.8-.3.3-1 .3-1.4.3-1.3.3-2.8.8-3.3 2.2-1.6-1.2-3.2.3-4.7.7-.8.2-1.4.3-2.2-.1-1.1-.6-1.1-.7-2.5-.5-3.8.5-6.9-3.4-9.1-6.1-1.5-1.9-2.4-4.4-2.8-6.8-.5-2.8-1-5.7-1.2-8.6-.5-6-.3-12-.1-18-7 3.7-13.6 8.5-19.9 13.4-6.3 4.8-11.7 10.8-17.3 16.4 1.4.1 2.8.6 4.3.6.7 0 1.4-.1 2.1-.4.4-.2.7-.4 1-.6.3-.5.6-.6 1.1-.3 1.4-.1 2.7-.4 4.1-.6 1.8-.3 3.7.3 5.5.6 3.3.6 6.8.2 10 1.2 2.8.9 5.7 2.2 8.4 3.3 2.6 1.1 4.8 3.6 7 5.3 1.3 1 2.6 1.4 4 2.3 1.3.8 2.3 2.5 3.2 3.7 2.2 2.8 4.6 5.5 6.8 8.3 1 1.3 1.9 2.6 2.4 4.1.3.8.3 1.6.6 2.4.2.7.7 1.1 1.1 1.6 1.3-3.6 2.6-7.3 4-10.9.5-1.4 2.9-8 4.8-5.5 1.6 2.2.7 6.7.2 9.1-.7 3.3-1.4 6.5-2.2 9.8-1.5 6.5-2.8 13-4.6 19.4-.1.4-.4.9-.4 1.3-.1.7-.3.3.2.8.3.3.9.2 1.1.5.5.6.3 2.6.3 3.3-.1 1.3-.8 1.9-1.2 3.1-.3 1 .2 2.1.2 3.1 0 2.6-1.3 5.4-1.8 8-.3 1.6.6 4.2-1.6 4.5.6 1-.1 1.4-.6 2.1-.6.9-.7 1.8-1.1 2.8-.3.9-.9 1.5-1 2.4-.1.8.3 1.6 0 2.4-.3 1-.9 1.1-1.8 1.5-.8.4-.6-.1-.8.7-.1.3 0 1.2 0 1.6-.4 1.9-1.9 3.2-3.1 4.5-.5.5-1.1 1.7-1.7 2-.8.4-2.1-.3-2.9.1-.7.4-1.5 3.4-1.7 4.2-.6 1.6-1.1 3.2-1.6 4.7-1.9 5.8-3.9 11.6-5.8 17.4.9 0 2.5-1 3.3-.6 1 .5.4 1.9.7 2.6.3.5 1.9.5 2.6.5 1.2.1 1.8-.3 2.9-.6 1.9-.6 4.4-.4 6.4-.6 4.5-.5 9.1-.6 13.5-1.6 4.2-.9 8.2-2.5 12.4-3.7-1.9-1-2.3-3.5-2.8-5.4-.3-1.1-.4-1.9-1-2.8-.7-1.1-1.3-2.2-1.7-3.5-1.7-4.8-1.8-10.7-1.2-15.7 1.2-10.2 4.8-19.8 10.4-28.3 2.7-4.1 5.8-7.9 9.2-11.4 3.5-3.6 7.1-7.4 11.2-10.3 1.9-1.3 4-1.8 5.7-3.3 1.2-1.2 3.2-1.4 4.8-2.3 2.1-1.2 4-2.1 6.4-2.6 1.8-.4 3.8-1.3 5.6-1 1.3.2.8.7 1.5 1.3 1 .8.6-.3 1.4-.6.6-.2 1 .4 1.5.5.2.1 1.3.1 1.2 0 .6.3.5 1.5.8 2.1s.9 1 1.1 1.7c.3.9.1 1.6-.3 2.4-.4.9-1.1 1.3 0 2.1-2.6 1.7-1 5.1-2.9 7.2-.7.7-2.2 1.7-2.1 2.8 0 1.2 2.1 1.6 1.1 2.8-1 1.1-3.1.6-4.3 1.5-1.2 1-.8 2.6-.9 3.9-.1 1-1.1 2.2-.7 3.2.3.6.7.5.8 1.2 0 .6-.5 1.3-.6 1.9l-1.3-.6c-.2.8-.6 1.5-.7 2.3-.1.9.3 1.4.5 2.2s-.3 2.3-.3 3.3c-.1 1.1-.2 2.3-1 3.2-.5.5-1.1.6-1.6 1s-.6.9-1 1.4c.7-.2 1.5-.4 2.2-.7-.3 1.4-.8 2-1.8 3.1-.2-.8-.3-1.6-.5-2.5-.3.9-.8 1.5-.7 2.5 0 .8.4 1.6.4 2.4 0 1.6-1.2 2.6-.7 4.2.6 1.9.7 2.8.1 4.7-.5 1.7-1.2 3.3-1.3 5.1-.1 2 .8 3.7.6 5.7-.1.9-.5 1.6.6 1.7.9.1 1.9-.7 2.7-1.1 4-1.9 7.9-3.8 11.8-5.7-.7-1-.6-1.1-.1-2.3.3-.9.7-1.9 1-2.8.7-2 1.5-4 2.2-6 1.4-3.7 3.3-7.4 4-11.4.7-3.1.4-6.7.5-10.3"/><path id="Fill-7" class="st0" d="M48.3 415.1c-1.3-.8-2.6-1.6-3.9-2.5.8-.6 1.5-1.2 2.3-1.7.8-.6 1.2-1.2 1.7 0 .5 1.3-.1 2.9-.1 4.2m-1.7-9.5c1.8 2.1-1.6 2.8-2.9 3 .2-1 1-5.2 2.9-3m40.3-7.5c-.6-1.8-1.6-6.9-4.3-6.6-.7.1-1.3.7-2 .8-.7 0-1.3-.1-2-.2-1.4-.1-3 0-4.4.4-1.6.5-2.8 1.3-4.6 1.4-1.3.1-2.6 0-3.8.3-2.1.6-2 2.5-1.7 4.3-.4-.4-.8-.7-1-1.2-.3-.5-.3-1.1-.7-1.6-.9-.9-1.9-.5-3-.4-1.2.1-2.9-.7-4.1-.3-.5.2-.8.8-1.4 1.1-.5.2-1 .3-1.6.3-1.2.1-2.4.5-3.5.5-1.5 0-2.8-.1-4.3.3-1.4.4-2.7 1-4.1 1.3-1.6.4-3.2.5-4.7.8-3.1.6-6.2 2-9.5 2.2-1.7.1-3.3.1-5 .4-.5.1-1.7.1-2.1.3-.5.3-.8 1.7-1.1 2.2-2.9 6-5 12.3-7.3 18.5-2.4 6.4-4.8 12.9-7.2 19.3-1.1 3-2.6 6-3.5 9.1-.9 2.9 2.5 4.9 4.3 6.7 4.4 4.4 8.8 8.7 13.8 12.5s10.7 6.3 16.4 8.8c5.9 2.6 12 4.1 18.3 5 3.3.5 6.5.8 9.8 1 3.3.3 6.1-.2 9.3-.6-.3-.7-1.4-2.1-1.2-2.9 0-.2.5-.6.6-.9.2-.4.1-.8.1-1.2 0-1.9-.7-3.7 1.7-4.4.1 1 .2 2.1.2 3.1 1.2-1.8.4-3.6-.3-5.4-.8.7-1.6 1.4-2.5 2.1.2-.5 1.5-3.7 1.2-4-.4-.3-1.1.5-1.5.1-.3-.3 0-1-.1-1.4-.2-.6-.9-1.1-.9-1.8 0-.9 1.2-1.7 1.8-2.3.8-.9 1.2-1.5 1.2-2.7 0-1.7.8-1.6 2-2.7 2-1.8 2.1-4.3 1.1-6.6.9-.1 1.7-.1 2.6-.2-.8-2-1.6-4-2.4-6.1-.8-2 .3-3.1.8-4.9 1.2 1.2 2.4 2.4 3.6 3.5.3-3.8 1.3-7.6.9-11.5-.1-1.2-.4-1.1.2-2 .4-.6.9-1.1 1.3-1.8.7-1.4.9-2.9 1-4.4.1-1.4.1-2.9.5-4.3.3-1 1.3-1.6 1.5-2.7.4-2-2.7-5.4-.9-6.8.9-.7 2.1 0 2.8-1.2.6-1 .8-2.5 1.1-3.6.5-1.8.8-3.2.1-5-.4-1.5-1-3-1.5-4.6"/><path id="Fill-11" class="st0" d="M115.7 306.3c-.5-1-1.2-1.2-2.3-1.4-4.7-.9-9.4-.9-14.1-1.3-1.3-.1-2.7-.3-4-.6-1.1-.3-2.1-.9-3.2-1.1-2.1-.5-4.3.9-6.4.8-1.1-.1-2-.7-3.1-1-.9-.2-1.6 0-2.5 0-1.7.1-3.4 0-5.1-.2-2.1-.2-4.1-.6-6.1-1.1-1.3-.4-3.3-.7-4.3-1.8-2.2 3.4-4.1 7-5.7 10.8-1.6 3.7-3.7 7.1-5.6 10.6-3.9 7.1-6.7 14.7-9.4 22.4 1.5-.7 2.5-1.4 3.6.2 1 1.4 2.3 1 3.9 1.2 2.7.4 3 3.4 3.6 5.6.9-1.1 1.7-2.2 2.6-3.2.7.8 1.8 1.2 2.4 2.1.4.6.2 1.1.4 1.6s.7.7 1.1 1.1c2.7-3.4 5.2 3 5.5 5.2.3-.8.7-1.7 1-2.5.5.5 1.1 1 1.5 1.6.2.4.2 1 .5 1.3.4.5.6.3 1.1.4.8.2.7.2 1.2.8 1.5 2 3.7 3.5 4.9 5.6 1.6 2.7 3.7 5.4 4.6 8.4.5 1.7.8 3.3 1.7 4.9.5.8 1.3 1.5 1.7 2.3.5 1-.4 1.4-.3 2.3s1.6 1.8 2.4 2.1c1.2.4 2.6.3 3.8.3 1.6 0 3.5 0 5-.5 1.4-.4 1.2-1.1 1.6-2.3.4-1.4 1.2-2.8 1.8-4.1.9-2 1.4-3.3-1.4-3.9 1.6-.3 4.1-.7 3.6-2.8-.2-1-1.1-1.7-1-2.8.1-1.1 1-1.5 1.9-2.1 1.6-1.1 2.7-3.2 3.3-5 .3-1 .4-1.8.1-2.8-.5-1.6-.8-2.9-.9-4.6.7.1 1.4.2 2.2.2-.2-.6-.2-1.1-.5-1.7-.1-.2-.6-.3-.6-.6 0-.5.7-.5 1-.8.7-.8.9-2.8 1.2-3.8.3-1 .4-2.2 1-3 1-1.6 2.2.7 2-1.6-.1-1.2-.2-2.9-1.7-3.1-1.7-.2-2.2.5-2.1-1.6.1-1.5-.3-4.6 1.3-5.4.8-.4 2-.3 2.8-.4 1-.1 1.8.4 2.7.4 1.6-.1 1.5-2.3 1.6-3.4.8-5 1.2-10.1.7-15.1-.1-2.3-.2-4.8-1-6.6"/><path id="Fill-15" class="st0" d="M156 109.1c-.1-3.6-.1-3.6 1.9-5 .6 2.3-.7 3.4-1.9 5m36.8 9.3c.4-.9 2.2-.6 3-.6-.4.7-1.6 2.5-2 3.9-.4-.8-1.4-2.5-1-3.3m-4.7 25.8c.8-.6.6-.6 1-1.4.3-.6.2-.9.8-1.3 1.3-.8 1.5-.8 1.8-2.5.3-1.5.2-3.5.8-4.9.5-1 2-1.1 2-2.3 0-2.4-4.2-3.6-3.4-6 .2-.7 1-.9 1.3-1.5.2-.4.1-.9.1-1.3.1-.9.4-1.1 1.2-1.3-.1.4-.1.8 0 1 .5 1 2.7-.2 3.2-.9 1-1.5.1-4-.3-5.5-.5-2.1-.4-3.7-.2-5.8.9 1 1.8 2 2.8 3 .5-1.5.6-2.3 2-3.3 1.3-.9 1.8-1.5 2.6-2.8.3-.5.5-1.1 1.2-1.2.6-.2 1.6.5 2.1.2.3-.2.7-1.8.8-2.1.3-.9.7-1.9 1-2.8-2-5-3.6-10.2-6.5-14.7-2.7-4.1-6.6-7.5-10.5-10.4-2-1.5-3.9-3-6-4.3s-4.3-1.8-6.5-2.8-4.8-2-7.2-2.2c-1.2-.1-2.5.2-3.7.1-1.4-.2-2.7-.6-4.1-.9 0 7.2-2.6 14.5-5.1 21.1-1.1 3-2.7 5.8-3.9 8.9-1.2 3-2.3 6.1-3.6 9.1-2.6 6.2-5 12.6-8.4 18.4-.3.5-.6.9-.5 1.3.1.1.5.4.6.5l.9 1.2c.6 1 .8 2.2 1.2 3.2.9 2.5 2.6 4.9 3.9 7.2 1.5 2.6 3.5 4.9 5.7 7 1 1 2.6 1.9 3.2 3.2.5 1 .5 2.2.8 3.3.1-.8.2-1.7.4-2.5.9 1.9 3.2 2.1 4.9 3 2.1 1.2 4 2.7 6.2 3.7 2.3 1 4.7 1.8 7.1 2.2 1.2.2 2.5.3 3.8.3 1.3-.1 2.2-.7 3.3-1.1-3.6-3.1-2.3-8.5-.2-12.1.6 1.4 1.3 2.8 1.9 4.2.4-1 1.8-1.9 1.2-3.1-.4-.7-.9-.5-1-1.3-.1-.6.3-1.5.6-2 .5.7.6 1.4.7 2.2"/><path id="Fill-19" class="st0" d="M177.5 167.5c-.8-1.8-4.2-2.2-5.8-2.6-2.8-.6-5.4-2.2-7.9-3.5-2.4-1.3-4.4-2.4-6.3-4.3-.9-.9-1.7-1.1-2.8-1.6s-1.8-1.2-2.6-2.1c-1.6-1.8-3.7-3.2-5-5.3-1.2-2.1-3-3.5-4.5-5.4-1.8-2.3-3.1-4.9-4.6-7.3-2.8 3-3.5 7.7-5.2 11.3-2.1 4.5-4.1 9.1-6.1 13.7-3.5 8.2-7 16.5-10.1 25-.1.3-.7 1.3-.6 1.7.1.3.9.7 1.1.9.7.7 1.1 1.5 1.6 2.3 1 1.4 2.1 2.8 3.2 4.1 2.7 2.9 5.8 5.5 9.2 7.5 1.5.8 3.6 2.5 5.3 2.4 2.2-.2 3.8-.3 6 .2 2.1.5 4 .9 6.2.8.9 0 1.7-.1 2.6.2.6.2 1 .9 1.7.9.8 0 1.3-.7 2.1-1 .7-.2 1.4-.3 2.1-.3 1 .1 3.5 1 4.3.2.9-.9.6-3.4 2.2-3.7 1.2-.2 3.8 2 4.8 2.7-.4-1.3-2-3.9-1.1-5.3.4-.6.8-.7 1.6-.6.8.2.9.8 1.6 1.1 3.6 2 3.3-7.5 3.1-9-.9-.1-1.8-.1-2.7-.2 0 .8.3 2.7-.3 3.1-.5.3-2.1 0-2.7 0 1.2 1.2 1.8 2.2-.1 3.2-1.3.7-2.9-.1-3-1.6-.1-1.6 2.4-1.9 2-3.5-.6-2.2-2.5 1.5-2.9 2.2-.5-1.9-.2-3.6 1.1-5.1 1.5-1.8 3.2-1.9 5.3-1.3.2-.9.7-1.5.9-2.3.3-1-.2-.7-.6-1.6-.7-1.4.7-1.9 1-3 .2-.7-.1-1.3-.5-1.9-.4-.7-1.1-1.1 0-1.5.8-.3 1.8.5 2.6-.2.8-.8.5-2.4 1-3.3.7-1.4 1.4-.5 2.6-.1.8.3 1.1.3 1.2-.6.1-.5 0-.9-.4-1.2-.6-.5-1.4-.2-2-.3-.9-.2-.9-.8-1.3-1.6 1.5-.1 1.6.4 2.9.9 1.1.5 2.3.4 3.4 0-.8-.3-1.7-.3-2.4-.8-1-.8-.8-1.5-1.2-2.3"/><path id="Fill-21" class="st0" d="M273.2 115.5c1.5-2.8 2.9-5.7 4.3-8.6.8-1.8 2.6-4.2.5-5.6-1.4-1-4.1-2.3-5.9-1.6-1.5.6-2.4 4.3-4.5 1.9-.4 1.1-1.7.9-2.5 1.5-.6.4-.5.9-.9 1.5s-1 1-1.4 1.5c-.4-.8-.8-1.4-1.4-2.1-.5.8-.4 1.3-.6 2.1-.2.5-.3.8-.8 1-1.1.4-2.2-1-2.8-1.7.3 1.2.5 2.6-.3 3.6-.6.8-1.7 1-2.3 1.8-.7.9-.7 1.7-1.9 2.1-.2.1-1 .3-1.3.3s-.4-.5-.5-.5c-.4 0-1 .5-1.3.6.7.9.5 1.3-.4 1.9-1 .7-.9.8-1.4 2-.2.5-.5 1-1 1.3s-1.3 0-1.7.4c-.9.6-.8 2.3-1.5 3.1-1 1.1-2.2 1.8-3.1 3-.9 1.2-1.6 2.5-2.3 3.9-1.3 2.6-3.1 5-3.3 7.9-.1 1.2 0 2.8-.5 4-.6 1.1-1.8 1.6-2.3 2.9-.4 1.1-.6 2.5-.8 3.7-.2 1.4.7 2.5.1 3.9-.6 1.3-.7 2.3-.8 3.7-.1 1.3-1.2 2.3-.5 3.4.6 1.1 1.3 1.9 1.5 3.3.2 1.5 0 2-1.3 2.6.8 1.3 1.6 2.3 2 3.8.4 1.4.9 2.6 1.8 3.8 1.8 2.3 4 3.5 4 6.8 8-2.7 16-5.4 24.1-8.1-3.1-.6-1.5-6-1.3-8 .4-3.7.8-7.4 1.3-11.1.5-3.2 1.4-6.3 1.9-9.4.3-1.6.5-3.3.9-4.9.4-1.4 1.2-2.7 1.5-4.1.7-3.1 1.2-6 2.5-9 1.2-3.1 2.8-5.9 4.2-8.6"/><path id="Fill-23" class="st0" d="M39.5 392.1c.6-.4 1.2-.4 2-.4 1.9-.2 3.5-.6 5.4-1.2 2.2-.6 4.6-1 6.9-1.4 2.2-.4 4.4-.3 6.5-.9s3.8-1.2 6.1-1.3c2.5-.1 3.9-1.2 5.9.8 1.8-2.5 4.4-2.5 7.3-2.9 1-.1 2.2 0 2.5-1.2.2-1.1-.7-2.7-1.2-3.6-2.6-4.9-4.9-10.1-8.4-14.5-3.4-4.3-7.9-9.1-12.7-11.8-2.6-1.5-5.7-2.3-8.5-3.4-3-1.2-6-2.5-9-3.8-1.6 1.7-1.7 3.7-2.5 5.8-.7 2-2 3.7-2.6 5.7-1.3 4-2.5 7.9-4.1 11.8-3.5 8.2-6.9 16.4-10.1 24.7 5-.8 9.9-1.3 14.9-1.6 1 0 .9-.3 1.6-.8"/><path id="Fill-25" class="st0" d="M304 85.8c1.4.2 3.1.5 4 1.7 3.9-5.6 8.5-10.6 13.4-15.4 4.7-4.7 9.5-9.3 14.7-13.4 10.4-8.4 22-15.2 33.9-21.2-3.8-4.4-7.5-8.8-11.3-13.1-3.6-4-7.7-7.4-11.9-10.8-.3 3.4-.9 6.8-.9 10.2s.5 6.8.5 10.2c0 2.8 0 5.7-.8 8.4-.6 2.1-1.8 5.1-4.1 5.8-3.1.9-8.4-.6-10.7-2.8-2-1.9-3.1-4.7-4.7-6.9-1.1-1.5-2.2-2.1-4.1-1.6-2.7.9-5.4 2.5-8 3.8-2.9 1.5-5.8 2.9-8.7 4.4.2.1 1.4.8 1.4 1 0 .1-.7 1.5-.7 1.8-.1 1.1.4 2.1.8 3.2s.6 2.2.6 3.3c0 1.2-.7 2-1 3.2s.6 1.6 1.1 2.6.5 2.2.3 3.3c-.2.9-.7 1.8-.7 2.7 0 .5.4 1 .3 1.5s-.7.8-1.1 1.1c1.6 1 1.9.9 1.2 2.6-.4 1.2-.3 2.4-.1 3.7.1.7.8 2.5.3 3.2-.4.6-1.9.1-2.5.1.2 1.3.6 1.1 1.2 2.2.4.7.3 1.6.3 2.3.1 2-1.1 2.2-2.7 2.9"/><path id="Fill-27" class="st0" d="M72.6 294.1c2.1.6 4.1 1.1 6.3 1.2 1.9.1 3.9.2 5.6 1 .6.3 1.4 1.1 2.1 1.1.8 0 .6-.6 1.2-1s1 0 1.5.2c.8.2 1.7.2 2.5.2 2.4.1 4.7.1 7.1.2 2.1.1 4.2.4 6.3.4h6.7c-1.8-3.4-3.2-6.9-6-9.7-1.4-1.4-2.6-2.9-3.9-4.4-1.3-1.4-2.9-2.5-4.4-3.7-1.5-1.3-2.8-2.7-4.6-3.7-.7-.4-1.6-1-2.4-1.2-.7-.2-1.3-.1-1.9-.5-.7-.4-1.4-1.3-2.1-1.8s-1.5-1-2.3-1.4c-1.6-.9-3.2-1.6-4.7-2.6-4.5 8.8-8.7 17.6-12.6 26.6 1.7-1.3 3.5-1.5 5.6-.9"/><path id="Fill-29" class="st0" d="M195.3 28.4c.4.5.9 1 1.2 1.7s.1 1.4.3 2.1c.3.8 1.2 1.2.6 2.3-.4.7-1.4.9-1.6 1.7-.5 1.5 1.2 2.9 1.9 4.1.4.7.7 1.5.5 2.3-.1.5-.5.9-.7 1.3-.2.8 0 0 .1.8s.4 1.7.5 2.5c.1.9-.2 1.9-.1 2.7.4 1.9 1.7 4.5 2.8 6.1 1 1.4 1.7 1.9 3.3 1.3 8.4-3.3 10.1-12.4 11.8-20.2 1-4.6 1.6-9 1.6-13.8.1-4.9.4-9.9.1-14.8-1.4.4-3.1.5-4.1 1.7-.5.6-.5 1.4-1 2-.7.8-2.1 1.5-3 2.1l-13.2 9.9c-.6.5-1.2.9-1.8 1.4s-.8.4-.7 1.1c.3.6 1.2 1.3 1.5 1.7"/><path id="Fill-31" class="st0" d="M254.3 55.8c-.8 1-2.3 1.3-3.3 2.2-.9.9-1.5 2.1-1.9 3.3-.6 1.6-1.2 2.8-1.3 4.5 0 1.6-.5 3.1-.8 4.7-.2 1.1-.1 1.4 1 1.7 1.5.4 3.3.4 4.8.2 7.3-.7 13.1-6.4 17.6-11.7 5.1-6.1 9.2-12.9 13.5-19.5-2.1-1.2-4.4-2.1-6.4-3.4-1.9-1.3-3.6-2.9-5.4-4.2-.3.8-.3 1.7-.6 2.4-.4.9-.9 1-1.6 1.5-1.4.9-2.5 2.1-3.4 3.4-.8 1.2-1.2 2.8-2.2 3.9-.9 1-2.3 1.4-3.3 2.3-1.5 1.2-2.8 3.4-4.1 4.9-.9 1.2-1.7 2.6-2.6 3.8"/><path id="Fill-33" class="st0" d="M117.5 122.7c.3.8.9 1.9.4 2.7-.8 1.5-1.6-.7-2.3-1.1.2 1.3.3 2.6.7 3.8.2.8.5 1.7.4 2.6-.2.9-.9 1.5-1 2.4 0 .9.5 1.8.6 2.7-1.5-.2-1.8-.4-2.7.7.4.1 1.3.2 1.6.4.4.3.2.2.3.8.1.9 0 2.3-.1 3.2 0 1.1-.6.9-1.1 1.6-.3.5-.2 1.5-.2 2.1.1.8.8 1.6.7 2.4-.1 1-1 1-1.5 1.7-.6.9-.1 1.6.2 2.6.4 1.3.3 2.7.5 4 6.4-13 11.5-26.6 18.7-39.2.2-.3.4-.6.5-.9-.2-.1-.4-.3-.6-.4-.1-.6-.1-1.4-.1-2.1-.1-1.5-.5-3-.7-4.5-.2-1.7.2-3.3 0-5-.1-.6-.2-1.1-.2-1.7 0-.9.5-1.5.5-2.3.1-.8-.4-1.9-.4-2.7 0-.7.1-1.3.2-2 .3-1.8.8-3.5 1.1-5.3.6-3.6.6-7.3 1.2-11-1 1.4-2.1 2.8-3 4.2-1 1.4-1.6 3-2.4 4.5-.7 1.2-1.6 2.4-2.6 3.5-.8.9-.8.8-.5 2 .1.5.3 1.1.2 1.6-.3 2.2-3.6 1.5-3.2 3.9.2 1.2 1.2 2.3.7 3.6-.4 1.2-1.8 1.8-2.3 2.9-.6 1.3.2 2.1.2 3.4 0 1.1-.4 1.9-1.2 2.6-1 1-1 1.7-1.2 3.1-.2 1.3-.7 2.5-1.3 3.6-.6 1.1-1.4 1.4-1.1 2.7.1 1.1.6 2 1 2.9"/><path id="Fill-39" class="st0" d="M102.1 142.5c1.1 4.2 2.8 8.3 5.1 12 .4-2.1 1-4.2 1.1-6.4s.2-4.3.4-6.5c.4-4 1.2-8.1 2-12 1.7-8.4 3.4-16.7 5.2-25.1-2.6 4.2-5.2 8.3-7.8 12.5-1.3 2-2.5 4.1-3.8 6.1-1 1.7-2.9 3.8-3.2 5.7-.3 2.2-.1 4.9 0 7.2s.5 4.4 1 6.5"/><path id="Fill-41" class="st0" d="M139 92.5c0 .6.4 1.2.6 1.8.1.7.1 1.4.1 2.1 0 1.7.1 3.4.2 5.1 3.5-4.8 5.3-10.4 8.4-15.4 1.3-2.1 2.8-4.2 3.8-6.6 1.1-2.6 2.1-5.1 3.3-7.6.7-1.4 1.4-2.7 2.1-4.1.3-.7.7-1 .3-1.6-.1-.3-.6-.6-.9-.7-.9-.2-1.4.9-2.1 1.2-1 .5-2.2.3-3.2.7-2.3.8-4.6 2.3-6.9 3.2-.7.3-1.3.4-1.2 1.3.1.8.9.6 0 1.3-.4.4-1 .2-1.5.1 0 1.7.3 2.7-.5 4.2-.7 1.2-.4 2.1-.5 3.4-.1 1.5-.7 3-1.2 4.3s-1.3 2.2-.5 3.5c.4.7 1.3 1.2.8 2.1-.4.8-1.2.5-1.1 1.7"/><path id="Fill-43" class="st0" d="M129.1 314.9c-2.5-1.5-.1-3 0-4.4v4.4zm-3.8-8.4c-.4 0-1.7.2-1.9.5-.1.2.1 1.8.1 2 0 1.2-.1 2.5-.1 3.7.1 1.3.7 2.4.8 3.6 0 1.1-.7 1.7-1 2.8-.4 1.3.1 5 1.6 5.4 0-.3.1-2.7.3-2.8.7-.3 1.1 1.5 1.3 2 2-1.9 2.5-4.6 3.5-7.2 1.1-3 2.1-6 3.2-9-1.3-.1-2.6-.2-3.9-.4-1.4-.2-2.7-.7-3.9-.6z"/><path id="Fill-49" class="st0" d="M90.8 391.7c-1.1.5-.8 1.8-.8 3 0 1.6.6 2.9 2 3.8.5-1.4 2.4-4.4 1.8-5.9-.3-1.1-2-1.3-3-.9"/><path id="Fill-106" class="st0" d="M304 58.5c.7-.7 1.9-1.1 2-2.2.1-1.1-.9-2.8-1.2-3.8-.3 2-.5 4-.8 6"/><path id="Fill-9" class="st0" d="M142.6 264.1c-1.9 0 .2-3.9.5-4.8.6.9 2 4.8-.5 4.8m15.8-49.8c.7-.4 2.2-1 2.6-1.8.5-1-.5-1-1.3-1-1-.1-2.3-.1-3.3.1s-1.4.4-2.4-.2c-.5-.3-1-1.2-1.6-1.3s-1.4.5-1.9.8c-1.9.9-4 .3-6 .4-.8 0-1.4.2-2.1-.1-.9-.4-1.1-1-2.2-.9-1.8.1-3.2.7-5.1.2-1.2-.3-2.7-1.5-4-1.2-1.2.3-1.8 2.2-2.7 2.9-.3-1.6-.5-3.3-1.7-4.5-1.4-1.3-3.6-1.8-5.1-2.9-3.6-2.5-6.1-6-8.8-9.3-1.7 2.6-2.9 5-4.1 7.9l-3.3 8.4c-2.2 5.6-4.6 11.1-7 16.7-4.9 11.2-10.4 22.1-15.3 33.3 3.3.1 6.5 1.7 9.4 3.3.7.4.8.6 1.3 1.2.2.3.5 1.1 1 1.2.2.1 1-.4 1.4-.3.6.1 1 .5 1.4.8 2.8 2.2 5.6 4.5 8.2 6.9 1.2 1.1 2 2.1 2.9 3.5.9 1.5 1.9 2.5 3.3 3.7 2.2 1.8 3.5 5 5.1 7.4.9 1.4 1.8 2.8 2.5 4.3.6 1.4.8 3 2 4.1 2.4 2.3 6.1 1 9 1.3 1.1.1 1.4.5 2.4 0 0-.4.2-.5.5-.4s.6.2.9.5c.8.4 1.5.9 2.2 1.4.4-1 .8-2.1 1.3-3.1-.5 0-2.2.2-2.5-.5-.2-.6.7-.8 1.1-1.1.4-.4.6-1.8 1.4-1.7.6 0 .6.6.6 1.1 1.4 0 1.3-1.2 1.6-2.2.2-.7.4-1.4.6-2 .1-.5.9-2.3.7-2.7-.5-1-3.6-.9-1.6-2.1.6-.4 2.1-.3 2.6-.8.4-.4.4-2.2.5-2.8-.9.1-2 .6-2.6-.2-.8-1.2.4-3 1-4 .8.6 1.3 1.3 2.2.6 1-.8 1.8-2.2 2.2-3.3-1 0-.9.2-1.4-.6-.3-.5-.4-1.3-.5-1.8-.3-1.1-.9-1.9.4-2.2.8-.2 1 0 1.2.8.3 1 .2 2.7.3 3.8 1.3-1.6 2.5-3.3 2.1-5.4-.8.8-.9.6-1.8 0-1-.6-1.9-1.3-2.9-1.9 1.2-1.1 3.1 0 4.3-.9.8-.6.4-2.5.5-3.3.1-1.1.5-2.1.5-3.2-.1-1.1-1.4-1.7-.7-2.7.5-.7 1.6-.6 1.8-1.7s-.9-1.8-1.7-2.3c1.2-.4 3.6-.8 2.5-2.5-.5-.8-1.2-.8-1.2-2 0-.8.5-1.7.9-2.4.5 1.1 1.1 3.5 2.6 3.5 1.2-.1 2.3-1.1 1.9-2.2-1.1-3.3-4.1-3.6-7-4.2.5-2 2-1.9 3.5-.9.9.6 1.4 1.1 2.5.5 1.1-.7.6-.9.1-1.8-1-1.9.4-3 1.8-4.1.8-.6 1.2-1.4 1.9-2.1.7-.7 1.9-.9 2.7-1.3-1.1-.5-2-1.1-3.2-.7-.8.3-1.4.8-2.3.3-2-1 .6-1.3.9-2.1.2-.5-.4-1.5-.2-2.1.2-.7.6-1.3 1-1.9.8-1.3 1.7-2.6 1.2-4.2 1 1.1 1.3 1.4 1.4 3 .1 1.4.1 2.8.4 4.2.1-2.1 2-3.4 2.3-5.4.1-.6-.4-2.1.2-2.5.5-.3 1.4.4 1.9.4-.3-1.9-.4-3.9-1-5.7-1.3-2.1-2.9-2.8-4.2-4"/></g><g id="Ink" transform="translate(28 -.5)"><path id="Fill-53" class="st1" d="M905.7 205c-2.5.5-4.9 1.3-7.4 1.8-3 .6-6 1.1-9 1.5-2 .3-3.9.8-5.2 2.4-2.5 3.2-5 8.6-1.6 11.9 1.6 1.6 4.4 1.1 6.5 1.7 2.3.7 4.4 1.5 6.8 1.9 11.2 1.5 22.4 4.2 33.4 6.9 5 1.2 10 2.9 14.8 4.9 2.5 1 4.8 2.1 7 3.6 1.9 1.3 4 2.5 5.5 4.2-6 1-12.7 1.1-18.7.1-3-.5-6-.4-9.1-.6-3-.2-6.1-.4-9.1-.7s-5.9-.6-8.8-1c-1.1-.2-2.2-.3-3.3-.2-.6.1-1 .3-1.6.1-.5-.1-1-.5-1.5-.7-2.2-.8-4.6-.6-7-.7-1.7-.1-3.6-.6-5.4-.2-3.1.7-4.5 5-5.2 7.6-.4 1.7-.1 3.7.4 5.4.6 1.9 1.8 1.9 3.3 2.7 2.2 1.2 4.1 2.6 6.4 3.5 2 .8 4 1.5 5.9 2.4 4.3 1.9 8.9 3.5 13 5.9 2.2 1.3 4.3 2.6 6.6 3.7 2.1 1 4.1 2.1 5.9 3.5 3.9 2.7 7.2 6 10.1 9.7-1.3 0-2.4.2-3.7-.3-1.6-.6-3-1.4-4.6-1.9-3-.9-6-1.8-8.9-2.9-3-1.1-6-2.2-9-3.1-1.6-.5-3.1-.7-4.7-1-1.4-.3-2.6-.9-3.9-1.5-6.3-2.5-13.1-3.8-19.6-5.6-6.4-1.8-12.6-3.6-19.1-4.9-3-.6-6-1.1-9.1-1.6-3-.4-5.6 0-8.5.8-3 .8-5.8 1.6-8.7 2.8-2.1.9-5.1 1.7-6.8 3.3-1 .9-1.6 1.9-2.8 2.6-.9.5-1.9.9-3 1.3-2.3.8-4.4 1.9-6.7 2.8-1.4.5-2.9 1-4.4 1.1s-2 .4-3.3 1.1c-2 1-4.3 1.5-6.4 2.1-2.1.7-4.6 2.5-6.9 1.7-2.3-.8-3.7-3.7-5.1-5.5-3.5-4.7-6.6-9.4-8.6-15.1-2.1-6-4.1-11.9-6.1-17.9-1.1-3.1-2.1-6.2-3.2-9.3-.6-1.7-1.8-3.6-.5-5.2 1.6-1.8 2.1-4.7 3.7-6.8 1.6-2.1 3.4-3.9 5.1-5.9 1-1.2 2-2.3 2.9-3.6.7-1 1.3-2.3 2.1-3.2.7-.9 1.8-1.4 2.6-2.1.9-.9 1.7-1.9 2.5-2.8 2.1-2.4 4.1-5 6.3-7.3 1.9-1.9 4-3.6 5.9-5.5 4.1-4.1 8.5-7.9 12.8-11.8 4.2-3.8 8.4-7.5 12.4-11.4 3.8-3.7 8.4-6.6 12.6-9.7 4.7-3.3 9.1-6.9 14.2-9.7 4.8-2.7 9.6-3.5 15-4.3-.5 1-.9 2.1-1.6 3.1-1 1.4-2.4 2.6-3.6 3.9l-7.2 7.8c-4.7 5-9.6 9.8-14.2 15-3.6 4.1-6.5 8.3-8 13.6-.8 2.8-1.2 5.8.5 8.4 1.3 2 3.4 1.8 5.6 1.6 5.6-.5 11.1-2.4 16.6-3.4 6.1-1.1 12.4-1.4 18.5-2 3.1-.3 6.2-1.2 9.3-1.4 1.4-.1 2.8.2 4.2.1 1.4-.1 2.8-.5 4.2-.7 2.9-.5 5.5-.8 8.4-.4 2.9.4 5.7.1 8.6-.2 6.1-.5 12.4.2 18.5.8 5.8.6 11.6 1.3 17.3 2.7-6 1.5-11.9 3.1-17.9 4.5-6.1 1.4-12.4 2.4-18.4 4.2-2.7.7-5.3.9-8 1.4zM433.9 331.3c.7-2.4 1.3-4.9 2.1-7.3.2-.5.5-1 .8-1.4-.6.9-1 1.9-1.3 3.1-.6 1.9-1.1 3.8-1.6 5.6zm-1.3 2.4c.1-.3.3-.6.4-.9-.1.3-.3.6-.4.9zm-.5 1.2l.3-.9-.3.9zm1.6-3.1l-.6.9c.2-.4.4-.7.6-.9zm364.9-22.2c-2.4 1.5-4.7 2.5-6.6 4.6-4.4 4.7-9.1 9.2-13.3 14.1-1.7 2-2.6 4.4-4.5 6.2-2.2 2.1-4.8 3.7-7.2 5.4-5.4 3.8-10.8 7.9-16.5 11.2-1.3.7-2.6 1.5-3.9 2.2-.9.4-2 .7-2.7 1.3-.7.6-1 1.5-1.8 2-.6.4-1.3.8-1.9 1.2-5 3.2-10.1 6.3-15.1 9.4-5 3-9.9 6-14.8 9.2-2.6 1.7-5 3.6-7.6 5.2-2.1 1.4-4.3 2.6-6.4 4-2.2 1.5-4.2 3-6.7 4.2-2.3 1.1-4.7 2.1-7.1 3.2-1.4.7-2.6 1.5-3.9 2.3-.9.5-1.6.4-2.5.8-2.7.9-5.1 2.5-7.9 3.4-11.4 3.5-22.5-1.5-32.4-6.9-5-2.7-9.6-6.2-14.4-9.2-2.1-1.3-4.7-2.3-6.6-3.9-1-.8-1.3-1.6-2.5-2.2-1-.6-2-1.1-2.9-1.8-4.6-3.5-8.8-7.2-12.9-11.3-2.2-2.2-4.4-4.5-6.6-6.8-1.7-1.8-3-4-4.6-5.9-3.8-4.6-7.4-9.3-11.1-14.1-1.8-2.3-3.5-4.6-5.3-6.9-1.2-1.5-3-3-3.4-5-.4-1.8.7-3.6 1.6-5.1 1.3-2.3 2.6-4.5 3.5-7 1.3-3.7 3.4-10.9-.7-13.6-1.5 2.5-3.4 4.7-5 7.1s-2.3 5.5-4.3 7.7c-2.1 2.3-4.8 3.9-7 6.1s-4.1 4.6-6.2 6.9c-2.2 2.4-4.5 4.6-6.8 6.9-2.2 2.1-4.6 3.9-7.1 5.7-2.5 1.9-5.2 3.6-7.9 5.2-1.2.7-2.4 1.6-3.7 2-1.4.5-2.6.8-3.9 1.5-5.4 2.8-10.8 5.5-16.3 8.1-1.5.7-3 1.7-4.6 2.1-.6.1-1 0-1.6.2-.7.2-1.4.6-2.1.9-2.8 1.2-5.7 2.2-8.6 3.2-6.1 2-12.2 3.9-18.2 6.1-5.6 2.1-11.1 4.3-16.9 5.9-5.7 1.6-11.7 1.8-17.6 2.4-1.6.2-3.4 0-4.9.4-1.4.4-2.1.7-3.6.6-2.6-.2-5.1.3-7.7.7 4-7.8 6-16.7 8.9-24.9.8-2.2 1.7-4.2 2.3-6.4.6-2 1.4-3.9 2.4-5.7 1.2-2.2 1.6-4.8 2.4-7.1-.6 1.9-1 3.8-1.6 5.7.8-1.6 1.7-3.1 2.5-4.7.8-1.7.8-2.6.8-4.4 2.1.2 2.2-1.9 2.5-3.5.5-2.4 1-4.7 1.5-7.1.3-.5.2-1.4.3-2 .2-.7.4-1.4.7-2.1 1.9-5.3 3.9-10.4 5.2-15.8 1.5-6 2.8-12 4.1-18 .7-3.2 1.7-6.4 2-9.7.1-1.6.9-6.6-1.3-7.3-1.7-.5-3.5 4.7-4 5.8-1.1 2.8-2.1 5.6-3.1 8.4-.9 2.5-1.6 5-2.7 7.5-1 2.5-1.4 5.1-2.3 7.6-.5 1.5-1.4 2.6-2 4-.4 1-.6 2.2-1 3.2-.7 2.2-1.9 4.4-2.7 6.6-1.1 2.8-2.4 5.5-3.5 8.3-1.1 2.5-1.7 5.2-2.7 7.7-1 2.4-2.5 4.6-3.4 7.1-1.1 2.7-2 5.4-3.1 8.1-2.2 5.6-4.3 11.1-6 16.9-.4 1.4-1.1 2.9-1.5 4.1-.3 1.2-.9 2.1-1.3 3.2-.8 2.1-1.2 4.4-1.6 6.6l.1-.7c-.9 0-1.8.2-2.4-.5-.7-.9-.5-2.6-.6-3.6-1 .1-.6.6-.5 1.5.1.5.1.9.2 1.4l.4 3.5c.3-.2 1-1.3 1.3-1.3.4 0 .9 1.1 1.1 1.7l-.3.6c-.3.5-.5.9-.7 1.5-.4 1.1-.7 2.1-1.2 3.1-.3.5-.6 1-.9 1.4-.3.3-1.2.8-1.3 1.2-.4.8.2 2.9.1 3.9-.1 1.3-.3 2.6-.8 3.8-.2.5-.7.8-.9 1.2-.3.6-.3.9-.4 1.7-.3 2.7-1.3 5.3-2.2 7.8-1.1 2.8-1.9 5.8-2.8 8.6-.9 2.7-2.1 5.3-3 8-1.1 3.1-2.1 6.3-3.2 9.5-.8 2.4-2 4.5-2.8 6.8-.9 2.4-2.1 4.5-2.5 7-.5 2.7-1.9 5.5-3 8.1-.9 2.1-2.7 4.4-3 6.7-.2 1.1.1 2.1-.3 3.1-.3.9-.9 1.7-1.3 2.6-.5 1.2-.1 2.3-.5 3.6-.3 1.1-1.1 1.8-1.6 2.8-1 1.6-.7 3.5-1.8 5.2-1.5 2.4-2 5.1-2.9 7.8-.4 1.3-.7 2.7-1.1 4.1-.1.5-.2 1.6-.5 2.1-.4.6-1 .4-1.3.7-.3.3-.3 1.3-.4 1.7-.4 1.3-.9 2.5-1.4 3.7-1.1 2.6-2.4 5.2-3.3 7.9l-3 8.4c-.5 1.3-.9 2.7-1.5 4-.5 1.3-1 1.7-1.9 2.7-.8 1-1.2 2.3-2 3.4-.7 1-1.2 1.7-1.6 2.9-.6 2.3-1.1 4.5-2 6.7-2.4 5.5-5.4 10.7-7.8 16.2-2.5 5.8-4.9 11.6-7.1 17.4-2 5.5-3.4 11.3-5.4 16.8-2.1 5.5-3.9 11-5.9 16.5-2.1 5.7-4.3 11.3-6.1 17.1-.7 2.1-1.1 4.1-1.6 6.2.1-.9.3-1.9.4-2.7-2 3.4-3.9 7.1-3 11.1.6-.8 1-1.7 1.3-2.6-.1.5-.3 1-.5 1.4-.6 1.2-1.1 2.1-1.5 3.5-.9 3-1.7 5.9-2.6 8.9-.4 1.4-.8 2.9-1.3 4.3-.4 1.2-1.3 2.3-1.7 3.5-.4 1.4-.3 3-.6 4.4-.3 1.2-.7 2.5-1.4 3.6-.5.9-1.2 1.6-1.6 2.5-.5 1.1-.2 2.2-.3 3.4-.2 1.5-.7 2.9-.9 4.3-.2 1.4.5 2.3.7 3.6.3 1.4-.3 2.3-.7 3.6-.4 1.1-.6 2.3-.8 3.4-.1.5-.2 2-.5 2.3-.2.2-1.7.3-2 .3-1.3.2-2.7.5-4.1.5-2.9 0-5.8-.4-8.7-.7-5.8-.6-11.6-1.5-17.2-3.3-5.3-1.7-10.6-4.2-15.5-6.8s-9.3-6.2-13.4-9.9c-2.2-2-4.4-4.2-6.5-6.3-1-1-2-2.1-3.1-3.1-.8-.8-1.9-1.6-2-2.8-.1-1.4.9-3 1.4-4.3.4-1.1.9-2.3 1.3-3.4 1.1-2.8 2.1-5.6 3.1-8.4 2.2-5.8 4.3-11.6 6.4-17.4 2.2-5.8 4.4-11.5 7-17.2 2.5-5.4 4.8-10.8 6.9-16.4 2-5.3 4.3-10.3 6.5-15.5 1.2-2.8 2.3-5.6 3.3-8.4.8-2.4 1.3-4.7 2.5-6.9.8-1.5 1.4-2.9 1.8-4.5.4-1.4.6-2.5 1.5-3.6 1.9-2.3 2.9-5 3.9-7.8 1.9-5.5 4-11 6.6-16.1 2.6-5.2 5.6-10.2 8-15.6s5.7-10.2 8-15.7c4.7-11.3 11.1-21.6 15.9-32.8 4.7-11.1 10.2-21.7 15-32.7 2.5-5.8 4.9-11.5 7.2-17.4l3.3-8.4c1-2.5 2.8-4.4 3.5-7s1.9-4.7 3.2-7.1c1.3-2.5 2-5.4 3-8 2.2-5.7 4.6-11.3 7-16.9 2.5-5.8 5.1-11.4 7.6-17.2 1-2.2 1.5-4.5 2.5-6.6.5-1.1 1.5-2 1.9-3 .2-.5.2-1.1.3-1.6.2-.7.7-1.4 1-2 2.6-5.2 5.4-10.3 7.7-15.6 2.4-5.5 4.8-10.9 6.9-16.5 2.1-5.5 4.7-10.7 6.5-16.4.8-2.7 1.7-5.4 2.3-8.1.6-2.4 1.6-5.9 1.1-8.4-.3-1.5-2.1-4.6-3.9-3.2-1.6 1.3-2.6 3.8-3.5 5.6-1.3 2.7-2.8 5.4-3.9 8.2-.9 2.2-1.7 4.4-3 6.5-3.1 5-5.5 10.2-8.3 15.4-.6 1.2-1.4 2.1-2.2 3.1-.8 1-.6 1.4-.9 2.7-.6 2.2-2.4 4-3.4 6.1-1.2 2.8-2.3 5.4-3.9 8-1.3 2.3-2.6 4.6-3.7 7-2.5 5.5-4.9 11-7.4 16.5-1.3 2.9-2.6 5.9-4 8.7-.6 1.3-1.2 2.5-1.9 3.8-.4.8-1.2 1.4-1.6 2.3s0 1.7-.3 2.6c-.4 1-.9 1.5-1.8.9-2-1.4-2.4-4.3-3.5-6.3-2.6-4.9-5-9.5-6-15-.5-3.1-.3-6.2-.3-9.3 0-2.7 1.7-4.6 3.1-6.9 3.4-5.3 6.7-10.7 10.2-16 1.5-2.3 2.8-4.8 4.4-7.1 1.5-2.2 3.5-3.9 5.1-5.9.9-1.2 1.6-2.4 2.6-3.5.8-.9 1.6-1.9 2.3-3 1.3-2 2.2-4.2 3.6-6.1 3.3-4.6 6.7-9.1 10.2-13.6 1.9-2.4 4.1-3.8 6.4-5.7 2.3-1.8 4.3-4 6.3-6 4-3.9 7.8-8 12.2-11.5 4.6-3.5 9.3-6.8 14.1-10 2.4-1.5 5.3-2.7 7.2-4.8.8-.9 1.6-1.7 2.6-2.3s2.1-.7 3-1.3c2.7-1.5 5.1-3.9 7.6-5.8 2.4-1.9 4.8-3.7 7.3-5.6 1-.8 2.9-1.7 3.7-2.7.4-.6.4-1.3.8-1.9 1.1-1.3 3.2-1.5 4.7-2 2.9-1.1 5.8-1.7 8.8-2.3 2.7-.5 5.2-1.7 7.8-2.6 5.6-2 11.4-3.1 17.3-3.7-2.7 7.8-5.7 15.5-7.7 23.5-.8 3.2-1 7-2.3 10.1-.5 1.1-1.8 2.2-1.2 3.4.5.9 1.9 1.9 2.7 2.5 1.8 1.2 4.1-.1 5.8-.8 3-1.2 5.9-2.8 9.2-3.3 3.4-.6 6.2-3.7 9.6-3.7 1.5 0 2.6.7 3.7 1.6 1.1.9 2.4 1.7 3.5 2.7 2.4 2.2 5.2 4 8.2 5.2 1 .4 1.9.2 2.9 1 .7.6 1.3 1.5 2.3 1.7-4.6 4.9-9 9.8-12.9 15.3-1.9 2.7-3.3 5.3-4.4 8.5-.5 1.5-.9 2.6 0 4 .5.8 1.4 1.4 2.3 1.3 2.4-.4 4.5-3.6 5.8-5.3 1.5-2 3.2-3.9 4.8-5.9 3.3-4.1 6.2-8.4 10.3-11.8 1.2-1 2.5-2.1 3.8-3 1.1-.7 1.8-.2 3-.4 3-.5 5.7-2.1 8.3-3.4 2.9-1.5 5.8-2.9 8.7-4.3 1.5-.7 3.8-2.3 5.6-1.6 2 .8 3.1 4 4.2 5.7 1.1 1.6 2 3 3.7 3.9 2.8 1.5 8.4 3.3 10.8.4 3.5-4.1 3.2-10.8 2.9-15.9-.2-3.1-.6-6.2-.3-9.3.2-2.7.5-5.4.8-8.1 5 4.1 9.7 8.3 13.9 13.3 2.2 2.7 4.5 5.2 6.8 7.8 1.1 1.3 2.2 2.4 2.9 4 .7 1.3 1.6 2.5 2.6 3.5 2.1 2.3 3.5 5.3 5.1 7.9 1.5 2.5 3.1 5.1 4.5 7.7 2.9 5 5.6 10 7.9 15.4 1.2 2.8 2.7 5.3 3.9 8.1 1.2 2.8 2.3 5.5 3.5 8.3.7 1.6 1.4 3.2 1.9 4.9.4 1.1 0 2.6.5 3.7.4 1 1.4 1.9 1.8 3 .4 1.1.7 2.3 1.1 3.4 2.2 5.4 5.1 10.6 7.6 16 2.5 5.5 5 11.1 8.1 16.4 3.1 5.4 6.9 10.3 10.6 15.3 1.9 2.6 3.9 5.1 5.8 7.8.7 1 1.3 2 2.2 2.8.8.7 1.9 1 2.9 1.5.5-1.4 1.3-2.4 1-4-.2-1.4-.7-2.7-1.1-4-.8-2.5-2.9-4.8-2.4-7.5.5-2.6 2.6-4.7 4.2-6.6 2.1-2.6 4.3-5.2 6.4-7.8 7.2-8.7 14.8-17 22.3-25.4 3.8-4.3 7.5-8.7 11.4-12.9 1.8-1.9 3.8-3.4 5.7-5.2 1.5-1.4 2.5-3.2 4-4.7 1.1-1.1 2.3-1.9 3.4-3l2.7-2.7c2-2 3.9-4 5.8-6 3.9-4 7.5-8.3 11.3-12.4 7.4-7.9 15.1-15.4 22.8-23 2.2 6.6 4.1 13.4 5.6 20.1.4 1.7.6 3.4 1.1 5 .6 1.6 1.3 3.1 1.9 4.6 1.3 3.5 2.4 7.2 4.1 10.4 3.2 6.3 6 13.5 10.6 18.9 2.3 2.7 5.4 5 8.1 7.3 2.9 2.5 5.7 5 8.6 7.5-1.8 1.6-4.4 3.6-7.1 5.3zm-237.8 41.6c-.2-.6-.5-.9-.7-1 .2.1.4.3.6.7.5 1 .8 2 1.1 3.1-.3-1-.6-1.9-1-2.8zm-69.4 49.7c2 2.2 4.1 4.3 6.1 6.5 1.9 2 3.3 4.2 5 6.4 3.6 4.7 7.3 9.3 11.2 13.7 3.7 4.3 7.8 8.3 11.4 12.7 3.6 4.4 6.3 9.2 9 14.2 1.2 2.3 2.7 4.5 4.3 6.6.8.9 1.8 1.8 2.3 2.9.5 1.3.7 2.8 1 4.1 2.8 11.9 5.6 23.8 8.3 35.7 1.3 5.8 2.2 11.6 3.4 17.4 1.3 5.9 3.2 11.5 4.4 17.4 2.4 11.9 4.1 24 6.7 35.8 2.6 11.5 7 22.5 9.4 34.1.3 1.6.8 3.1.4 4.8-.3 1.4-.6 2.6-.6 4 0 2.4-.3 4.4-1.7 6.5-2.8 4.1-6.7 7.7-11.2 9.7-2.4 1.1-4.7 2.6-7.3 3.2-1.3.3-2.5.1-3.7.3-1.3.2-2.3 1.1-3.5 1.5-4.7 1.9-10.6 1.3-15.5 1.3-5.4 0-10.9-.4-15.9-2.6l-1.2-.6c-.7-.1-.8-.4-.4-.9 0-.6.3-1.2.3-1.8.1-1.2-.3-2.4-.6-3.6-.7-2.8-1.4-5.6-2.1-8.5-2.7-11.8-3.9-23.7-5.6-35.6-.8-6.1-2.1-12.2-3.1-18.4-1-5.9-1.6-11.8-2.4-17.7s-1.6-11.8-2.4-17.6c-.4-3.2-1.4-6.4-1.8-9.6-.3-2.4.3-4.7-.2-7.2-1.3-5.7-1.3-11.7-2.8-17.4-1.5-5.9-3.7-11.6-5.7-17.3-1-3-2.1-5.9-3.1-8.9-.6-1.7-1.3-3.6-3.1-4.5-1-.5-2-.4-2.9-1.1-1.1-.8-2-2-3-3-2.1-2.1-4.2-4.2-6.3-6.4-8.2-8.2-16.2-16.8-25.2-24.1-4.2-3.4-8.1-7.2-12.8-9.9-5-2.9-9.9-6-14.9-9-2.5-1.5-5-2.7-7.7-3.8-2.4-.9-.9-3.2-.2-5 1-2.8 2-5.7 2.8-8.5.7-2.2 1-5 3.2-6.2 1.5-.8 2.1.1 3.5.6 1 .3 2 .4 3.1.3 2.3-.1 5-1.1 7.3-.8 1.5.2 2.3.3 3.8 0 1.4-.3 2.8-.3 4.2-.4 2.6-.2 5.2-.2 7.8-.7 5.6-1 11.3-2.3 16.6-4.2 5.7-2 11.2-4.8 16.7-7.4.4 2.5.7 5.1 1.7 7.5.7 1.9 2 4.5 3.8 5.5 4.2 2.8 6.3 6.6 9.2 10zm84 241.4c1.7-.9 2.1.4 3.1 1.8 2.8 3.9 5.7 7.8 8.5 11.7 2.8 3.8 5.6 7.6 8.3 11.3 2.6 3.5 5.5 6.9 7.9 10.6 2.5 3.8 4.4 8 6.3 12.1 1.6 3.5 3.9 7.1 2.3 11-1.6 3.6-6 5.1-9.3 6.8-4.1 2.2-7.3 3.7-11.9 2.1-8.8-3.1-17.4-7.2-25.8-11.4-7.7-3.8-13.4-9.5-19.8-15.1-3.3-2.9-6.8-5.6-9.9-8.8-3.2-3.3-6.3-6.8-9.6-10-5.1-5.1-10.4-9.6-9.5-17.5 4.8 1.6 9.6 3.7 14.6 4.6 5.3 1 10.7 1.7 16.1 1.4 2.3-.1 4.5-.8 6.7-1.2s4.5 0 6.6-1.1c1.8-1 3-2.1 5.1-2.6s4-1.2 5.8-2.5c1.5-1.1 2.9-2.3 4.5-3.2zM422.6 432.4s.1 0 .1.1c0 0 0-.1-.1-.1zm-5.6-3.2c.1 0 .1.1.2.1-.1 0-.2 0-.2-.1zM313.2 708.6c2.3 4.1 4.5 8.2 6.7 12.3 1.1 2.1 2.1 4.2 3.1 6.2.9 1.9 1.8 3.4 1.9 5.6-4.5-.5-9.1-3.2-13-5.6-4-2.5-7.5-5.6-10.9-8.8-3.3-3.2-6.8-6.3-10.3-9.2-1.7-1.3-3.4-2.5-5.2-3.6-.6-.3-1.1-.7-1.6-1.1-.6-.6-.8-1.6-1.4-2-1.4-.9-3.5.4-4.8 1-1.6.8-3.2 1.8-4.6 3-1.6 1.4-2.6 3.2-4 4.7-1.3 1.5-2.6 2.9-3.7 4.5-2.6 3.6-5.4 7.4-8.7 10.3-1.5 1.4-3.4 2.4-4.7 3.9-1.2 1.5-2.5 2.7-4 4-3.3 2.7-6.1 5.4-8.9 8.5-3.1 3.5-6.6 6.6-9.9 9.9-.5-2.1.4-3.8 1.3-5.6 1.1-2.1 1.8-4.3 2.7-6.5 1.9-4.7 4.1-9.3 6.4-13.7 2.2-4.2 4.5-8.3 6.6-12.5 1.8-3.5 4.5-7.8 3.7-11.9-.3-1.6-1.2-4-2.9-4.5s-3.4 1-4.8 1.8c-4 2.4-8.2 4.3-12.5 6.1s-8.7 3.6-12.8 5.7c-4 2.1-7.8 4.6-11.9 6.7-2 1-4.1 1.8-6.1 2.9-1.9 1-3.7 2.2-5.6 3.2-3.7 2.1-7.6 3.5-11.9 4.1 3-3.9 7-6.8 10.9-9.8 4.5-3.5 9-7 13.6-10.3 4.2-3 8.4-5.8 12.5-8.9 1.9-1.4 3.8-2.9 5.6-4.5 1.5-1.3 3.2-2.6 3.6-4.7.3-1.9-.5-4.1-2.1-5.2-1.6-1.1-3.6-.8-5.4-.6-5 .7-10 2.3-14.9 3.7-1.1.3-2.3.9-3.4 1.1-1.1.3-2.5.2-3.6.2-2.2.1-4.4.2-6.5.5-2.3.3-4.6.2-6.8.6-2 .3-3.5 1.4-5.6 1.4-9.3-.2-17.9 4.9-27.1 4.9l16.5-9.6c2.5-1.5 5.2-2.7 7.6-4.3 2.7-1.8 5.2-3.8 8-5.4 10-5.9 21.1-10.2 30.2-17.5 2.2-1.8 4.3-3.7 6.4-5.5.5-.4 1.1-1.2 1.7-1.5.9-.4.6-.5 1.4.3.9.9 1.5 2 2.2 3 2.9 4.1 6.5 7.6 10.5 10.6 4.7 3.4 10.1 5.5 15.3 7.9 5.3 2.4 10.5 5 16 6.9 5.6 1.8 11.5 2.8 17.3 3.5 6.2.7 11.9.3 18-.4.4 4.6.8 8.5 3 12.7 2.2 4 4.8 7.6 6.9 11.5zm23.2-350.5c.5.1 1 .1 1.5.3-.4-.1-.8-.1-1.1-.2-.2 0-.3 0-.4-.1zm1.7 2.7c.2-.4.4-.9.5-1.4-.1.4-.3.9-.5 1.4zm-52.7 77.8c-6.9 4.1-13 9.2-19.7 13.6-3.3 2.2-6.8 4.2-10.3 6-1.7.9-3.4 1.7-5.2 2.4-1.5.6-3 1.6-4.6 2.1-1.7.5-3.5.2-5.2 0-1.5-.2-3-.1-4.2-1.1-2.2-1.8-3.7-5.4-5-7.9-1.9-3.5-4.1-7.2-5.5-10.9-1.3-3.5-3-6.7-3.6-10.4 1.2-2 1.1-4 .1-6-.5-.9-1-1.8-1.6-2.6-.6-1-.6-1.2-1.7-1.2 1.1 3.3 2.1 6.5 3.2 9.8-1-3.2-2.4-6.5-3.2-9.8-.6-2.9-.9-5.7-1.9-8.5-.5-1.4-1.4-2.8-1.8-4.2-.3-1.2-.3-2.5-.5-3.7-.4-3.4-1.3-6.8-1.9-10.2-1-6.5-1.7-13.1-2.9-19.6-1.3-6.7-2.9-13.3-4.4-19.9-.6-2.5-1.5-4.7.9-6.4 2.4-1.7 5-3 7.5-4.5 2.4-1.4 4.7-2.7 7.3-3.8 2.1-.9 4.2-1.8 6.2-3 1.2-.8 2.5-.8 3.8-1.2l4.2-1.5c2.6-.9 5.1-1.8 7.7-2.7 1.4-.5 4.3-2.3 5.6-.9.7.7.8 2.2 1 3.1l.9 4.5c1.1 5.8 2.2 11.6 3.1 17.4.9 5.7 1.4 11.5 2.3 17.2.2 1.4.9 3.1.8 4.5-.1 1-.8 1.6-1.5 2.3-1.8 1.7-3.5 3.5-5.1 5.4-1.8 2.1-3.5 4.3-5.4 6.2-1.9 1.9-3.5 3.6-4.8 6-1.1 2-2.6 3.8-2.1 6.2.4 1.8.9 3.7 3.1 2.9 2.5-.9 4.7-3.3 6.7-5.1 1.9-1.7 3.8-3.4 5.8-5 2.2-1.8 4.6-3.3 6.7-5.2 1.8-1.6 3.4-3.5 5.1-5.3 4.2-4.2 8.6-7.9 13-11.7 2-1.8 3.7-4 5.5-5.9s3.8-3.7 5.7-5.6c4.1-4 8.5-8 12.3-12.3l5.7-6c.8-.8 1.3-1.9 2.1-2.7.7-.8 1.8-1.3 2.6-2 3.5-3.2 5.4-7.6 8.8-10.8.9 2 1.6 4 2.2 6.1.6 1.9 1.1 4.2 2.2 5.9.5.8 1.4 1.4 1.8 2.2.4.8.3 1.7.6 2.6.6 1.6 1.7 3.3 2.6 4.8 1 1.6 2.3 3.1 3.6 4.5.3.4.7.7 1 1-.2-.1-.3-.2-.5-.2 1 1.8 2 2.6 3.6 3.7 0 .1-.1.2-.1.3-.9 1.9-1.8 3.6-2.5 5.6-1.2 3.4-2.9 6.6-4 10-.6 1.8-.8 3.7-1.7 5.5-.8 1.5-1.8 2.9-2.5 4.5-1.8 3.6-2.9 7.6-4.3 11.3-1.4 3.9-3.1 7.6-4.8 11.4-1.7 3.7-3.4 7.5-4.9 11.3-.7 1.7-1.2 3.6-2.3 5.1-1.2 1.6-2.9 2.1-4.7 2.7-7.4 2-14.4 5.8-20.9 9.7zm-85.8-110c-4.1-3.4-9.7-2.5-14.7-2.5-5.8 0-11.5 1.1-17.3 1.5s-11.6.7-17.3.5c-5.2-.1-10.3-.6-15.3-1.6-2.5-.5-4.9-.8-7.5-1-1.6-.1-3.1-.6-3.9-2.1-1.1-2-.8-5-.9-7.1s-.4-4.8.5-6.8c.8-2 2.7-2.9 4.6-3.7 2.3-.9 4.6-1.8 7-2.7 9.4-3.6 19.1-7.7 29.2-8.6 2.8-.2 5.6-.3 8.5-.3 2.4-.1 4.7-.7 7.1-.9 5-.5 9.9-.6 14.8-1.7 1.4-.3 2.2.4 3.6.7 1.1.2 2.2.1 3.2.1 2.2-.2 4.4-.4 6.6-.2 2.6.2 5.3.4 7.9.8 2.3.4 4.6 1 7 1.3 2.6.3 5.1.4 7.7 1 1.3.3 3.2.6 4 1.8 1 1.6.2 4.7.1 6.5-.1 2.5-.3 5-.3 7.5 0 2.7.4 5.4 1 8.1.4 1.9 1.2 4.2.8 6.2-.2 1.1-1 1.6-2.2 1.4-.8-.1-1.4-.9-2.2-1-1.4-.2 0 .9-.8 1.8-.6.7-1.7.5-2.6.8-.9.3-1.8.7-2.7 1.1-2 .9-4 1.5-6 2.4-4.3 2.1-8.5 4.7-12.6 7.2-.7-2.1-1.2-5.2-2.6-6.9-1.4-1.6-3.3-2.4-4.7-3.6zm284.5-130.1c.9-2.6 2.2-5.2 2.9-7.9.3-1 .3-2.3 1.3-2.9.8-.4 2.3-.2 3.1-.2h4.7c.8 0 1.9-.2 2.4.6.5.9-.3 2.4-.3 3.4 0 1.4.3 2.9.7 4.2 1.6 5.9 3.2 11.7 5 17.6-1.8-.8-3.2-2.7-5.2-2.9-1.3-.1-2.3.6-3.5.8-1 .2-2 .2-3 .5-4.5 1.1-8.7 3.4-13.3 4.2.2-1.7.3-3.2.8-4.9.5-1.4 1-2.8 1.4-4.2 1-2.7 2-5.5 3-8.3zm15-39.7c2.2-1 4.4-3.8 2.3-6.1-1.1-1.2-3.9-.6-5.3-.3-2 .4-9.8 5.5-10.7 2-.6-2.3.5-5.7 1.5-7.7.6-1.3 1.5-2.5 2.6-3.4 1.1-1 1.6-.7 3-.6 2.3.3 4.4-.4 5.9 1.8.3.4.4 1 1 1.1.5.1.7-.5 1.2-.5.8 0 .9.5 1.2 1.1.8 1.6 1.9 4.6 4.3 3.3s2.5-5.5 2.5-7.7c0-3.5.2-7 .4-10.4.1-2.8.4-5.3 2.4-7.3 1.9-2 3.4-4.7 5.7-6.2 2.6-1.7 6-1.5 8.9-1.7 3.4-.3 7-.6 10.4-.3 3.5.4 6.9.5 10.4.4 3.5-.2 6.9-.4 10.4-.5 3.3-.1 6.7.2 10-.2 1.3-.1 3.1-.6 4 .7 1 1.5.9 4.2 1.2 5.9-3.6-.7-9.4-2.3-10.8 2.7-.4 1.5.9 2.9 2 3.8 1.6 1.3 4 1.3 6 1.5 1.1.2 2.9.1 3.6 1.2.6 1.1.3 3.1.4 4.3.3 4.9 1 9.8 1.5 14.7.5 4.7.9 9.5.1 14.2-.4 2.4-1.3 4.7-1.5 7.1-.1 1.5.1 3.2-1.2 4.2-1.6 1.1-4.3 1.2-6.2 1.6-2.5.5-4.9 1.2-7.3 1.9-3.8 1.1-8.5 1.7-9.9 6-1.5 4.6-2.6 9.3-4 13.9-.7 2.3-1.7 4.4-2.8 6.7-.4.9-1 1.8-.9 2.8s.8 2 1.2 3c.9-.5 1.8-.7 2.5-1.4.8-.7 1.4-1.7 2-2.5 1.3-1.7 2.2-3.2 4.1-4.4.1.9.3 1.7-.2 2.5-.3.6-1 1.1-1.4 1.6-1.2 1.4-2.3 2.9-3.5 4.3-2.5 2.7-5.5 4.9-8.1 7.6-2.6 2.6-5 5.7-8.2 7.7-3 1.9-6.3 3.5-9.5 5.2 2.8-6.3.9-12.7-2.5-18.4-1.5-2.6-3.4-5.1-5.2-7.6-1.4-2-4-4.7-4-7.2 0-1.4 1-2.5 1.6-3.7.7-1.2 1.3-2.6 1.9-3.9 1.2-2.7 2.8-5.5 3.3-8.4.4-2.6-.2-6.1-1.9-8.2-.7-.8-1.7-.7-2.6-1.3s-1.6-1.4-2.3-2.1c-.8-.8-1.9-1.4-2.7-2.2-.9-.9-1.5-2-2.1-3-1.6-2.6-3.2-5-4.7-7.6zm9.6-55.6c2.6 0 4 1.5 5.2 3.6-.8 1.3-3 5.2-4.8 3.6-.3-.3-.5-.9-.9-1.2-.4-.3-.9-.5-1.3-.7-1-.4-2.1-.9-2.8-1.8-1.5-2.2 3-3.5 4.6-3.5zm51.2 98.2c.5-.1 1.9.8 2.4 1 .9.4 1.9.7 2.7 1.3s1 1.4 1.5 2.2c.2 5.7.5 11.4.5 17.2-.2-5.7-.3-11.4-.5-17.2-.3 1.6-.9 3-.9 4.6s.3 3.3.4 5c.3 3.1.6 6.2 1 9.3 0 1.8-.1 3.6-.3 5.4-2.3-3.2-4.5-6.4-6.8-9.5-2-2.8-4.7-3-7.9-3.2 2.1-4.2 4.2-8.5 6.3-12.7.2-.6 1.1-3.3 1.6-3.4zm371.4 9.7c3.4-.9 6.9-2.2 10.4-2.7 3.3-.4 6.3-1.9 9.4-2.8 2.8-.8 5.7-1.5 8.4-2.5 2.1-.7 4.4-1.5 6-3 1.7-1.6 2.6-4.1 2.3-6.5-.4-2.7-2.4-3.1-4.7-3.9-11.8-4-23.7-6.4-36-8-6.3-.8-12.7-1.8-19.1-1.7-3.3.1-6.6.3-9.9 0-3-.2-6 .9-9 .3-3-.6-5.8.2-8.9.6-3.2.4-6.5.6-9.7.7-3 .1-6.1 0-9 .8-2.8.8-5 1.3-7.9.4l9-9.9c6.2-6.8 12.6-14.1 16.3-22.6 1.6-3.6 2.4-8.9-.3-12.3-2.4-3-7.6-2.4-10.9-1.9-4.3.6-8.3 2.2-12 4.4-3.5 2.2-7.4 3.9-10.6 6.5-3.2 2.6-6.8 4.3-10 6.8-3.3 2.6-6.6 5.1-9.9 7.6-7.2 5.5-13.2 12.4-20 18.4-3.6 3.1-7 6.5-10.2 10.1-1.5 1.7-3.1 3.3-4.4 5.2-1.1 1.6-2 3.2-3.2 4.7-1.4 1.8-3.1 3.3-4.6 5.1-1.3 1.6-2.6 3.3-3.8 5.1-1.3 1.8-2.5 3.7-3.7 5.5-.7 1-1.3 2.6-2.6 2.4-1.9-.2-2.9-1.8-4.9-.7-.7.4-1.1 1-1.7 1.5-.8.7-1.7 1-2.6 1.5-1.9.9-3.5 2.4-5.2 3.6-1.8 1.3-3.6 2.4-5.3 3.9-7 6.3-13.4 13.1-20.1 19.6-1.6 1.6-3.3 3.1-4.9 4.7-1.3 1.3-2.2 2.8-3.5 4.1-.7.7-1.6 1-2.4 1.7-.7.6-1.3 1.5-1.9 2.3-1.5 1.7-2.9 3.4-4.4 5.1-3 3.2-6.2 6.1-9.1 9.4-2.9 3.4-6.2 6.6-9.2 10-6.3 7.2-12.1 14.5-17.9 22-2.9 3.8-6.1 7.2-8.8 11.1-2.6 3.7-4.8 7.6-6.7 11.6-.6 1.1-1.3 4.5-3.3 3.3-.7-.4-1.2-1.7-1.7-2.4-.6-1-1.2-1.9-1.8-2.9-2.6-4.2-5.4-8.3-7.5-12.8-4-8.6-8-17.1-11.3-26-1.7-4.5-3.6-8.9-5.4-13.3-1.9-4.4-3.3-8.9-5.1-13.3-3.6-8.7-8.4-17-13.2-25.1-4.4-7.5-9-15.2-15.1-21.4-3.2-3.3-5.7-7.1-9.1-10.2-1.7-1.6-3.5-3.1-5.2-4.7-1.2-1.2-2.3-2.9-3.8-3.6-1.1-.5-2.2-.4-3.4-.4-.9 0-1.9-.2-2.8-.2-.8.1-1.1.8-1.9.9-.8.2-1.3-.2-1.9-.6-3.9-2.7-9.2-3.8-13.6-5.4 2.8-1.7 6.2-1.8 9.3-2.5 2.6-.6 5.1-1.7 7.3-3.3 4.8-3.6 5.6-9.3 6.4-14.9 1-6.4 1.8-13.2.9-19.7-.8-6.3-1.7-12.7-2.7-19-.5-3.1-1-6.1-2-9-.7-2.4-1.7-4.9-1.6-7.5 0-1.3.1-3.2 1-4.1.7-.7 1.7-1 2.5-1.7 1.8-1.6 3.2-3.4 4.3-5.5.9-1.7 2.3-4.2 1.5-6.1-.9-2.1-3.8-2.5-5.8-3-5.8-1.5-11.7-1.3-17.6-2.1-2.8-.4-5.8-1.2-8.6-1.2s-5.6.1-8.4 0c-6.1-.1-12.3-.3-18.4.4-1.6.2-3.2.3-4.8.4-1.3.1-2.2.7-3.5.9-.7.1-1.8-.3-2.5-.3-1.2-.1-2.5-.1-3.7.2-2.6.5-4.6 2.1-7.2 2.7-2 .4-3.5 1.5-4.6 3.3-2.6 4.5-2.7 10.7-3 15.7-.3 6 .2 12-.1 17.9-.1 1.4-.2 2-1.8 1.9-2.1-.2-4-.8-6.2-.2-4.1 1.1-6.7 4.8-8.3 8.5-1.7 3.9-2.6 8.3-2.3 12.5.2 3.7 1.6 8.5 5.7 9.6 2.2.6 4.4-.3 6.5-1 2-.6 3.7-2.4 4.8.1 2.2 5 4.3 9.5 7.8 13.9-3.2-.2-6.4-.5-9.7-.7-2.1-.1-5.1-.7-7.2.1-1.2.5-1.2 1.3-2.1 2.1s-2.8.5-3.9.4c-3.5-.1-6.7-.7-10.2-.4-2.6.3-4.9 1.6-7.5 2-3.1.6-6.3 1.8-9.2 3-2.8 1.1-5.5 2.3-8.4 3.2s-5.8 1.9-8.6 3.1c-5 2.3-9.2 6-13.6 9.1-1.2.8-2.4 1.5-3.5 2.5-.9.8-1.5 1.8-2.3 2.5-1.4 1.3-3 1.2-4.5 1.9s-3 2.1-4.4 3c-1.3.9-2.5 1.7-3.8 2.6-2.4 1.6-4.7 3.6-7.3 4.9-4.8 2.4-8.5 6.2-12.4 9.9-4.2 3.9-8.8 7.4-12.9 11.4-4 4.1-7.7 8.4-11 13.1-3.4 4.9-6.2 10.2-9.4 15.2-1.5 2.3-3.3 4.2-5 6.3-.9 1.1-1.7 2.2-2.4 3.3-.7 1-1.1 2.3-2.1 3.1-1.9 1.5-3.9 2.4-5.5 4.4-1.8 2.2-3.3 4.7-4.8 7.1-3 4.8-5.8 9.8-8.4 14.9-.8 1.5-.8 2.6-.9 4.2-.1 1.3-.5 2.5-.7 3.7-.4 2-.1 4.1-.7 6.1-.3 1.3-1.2 1.5-2.2 2.2s-1.9 1.5-2.8 2.4c-1.8 1.7-3.5 3.4-5.5 4.9-2 1.6-4 3.1-5.8 4.9-1.8 1.9-3.4 3.8-5.4 5.4-4.4 3.6-8.5 7.5-12.8 11.1-4.5 3.8-8.5 8-12.6 12.1-4.2 4.3-8.7 8.4-13.2 12.5-.3-4.9-.6-9.8-1-14.7-.4-5.3-1.6-10.4-2.7-15.6-.9-4.6-1.6-9.6-3.1-14-1.1-3.1-3.2-5.6-6.4-6.3-1.6-.4-4.1.4-4.9-1.4-.8-1.8-.9-4.6-1.2-6.5-1.4-8.6 1.4-18.1-2.2-26.3-1.6-3.6-4.4-5.4-7.9-7-4.5-2-9.5-1.5-14.2-2.5-2.2-.5-3.9-1.6-6.2-1.7s-4.6 0-6.8.1c-2.4.1-4.7-.4-7-.4-2.1 0-3.7 1.4-5.7 1.1-2.3-.4-4.1-.9-6.4-.3-2 .6-4 .8-6.1.8-2.6.1-5.2-.2-7.8 0-2.4.1-4.7.8-7 1.1-5 .6-9.8 1.2-14.7 2.5-4.8 1.3-9.4 3.2-14.1 5-7.5 2.8-16.1 4.9-18.2 13.8-1.1 4.9-1.4 10.2-.8 15.2.5 4 1.4 8.5 3.8 11.9 2.5 3.6 6.8 4.7 10.8 6 4.6 1.4 9.4 1.7 14.1 2.5 4.9.9 9.8 1.6 14.8 1.5s9.8-1.4 14.8-1.8c5.1-.4 10.2-1 15.3-1.5 3.4-.3 10-1.3 11.7 2.6.5 1.2 1.3 2.7.3 3.8-1.2 1.3-2.2 2.6-3.3 4.1-1.4 2-2.5 3.9-3 6.3-.4 2.4-.5 4.8-.5 7.2-.1 10 2.4 20.1 4.9 29.7 2.5 10 5.4 20 8.9 29.8 3.4 9.3 5.9 18.9 9.9 28 2 4.5 4.6 8.6 7.4 12.7 2.3 3.5 4.4 7.6 7.9 10.1 2.9 2.1 6.5 3.1 10.1 2.9 4.2-.3 8.3-2.9 12-4.8 9-4.5 17.2-10.7 25.3-16.7 3.9-2.9 7.4-6.2 11.5-8.7 4-2.5 8.1-4.7 12.6-6-3.8 7.9-7.2 16-11.2 23.8-3.9 7.7-7.2 15.7-10.8 23.6-1.5 3.2-3.6 6.1-5.1 9.3-1.6 3.7-3.3 7.4-4.9 11.1-3 6.8-6.2 13.5-8.9 20.4-.6 1.6-.3 3.5-1.1 4.8-.8 1.4-1.7 2.6-2.3 4.1-1.3 3.2-2.4 6.5-3.9 9.7-3.3 7-5.4 14.6-8.6 21.7-3.2 7.1-6.1 14.3-8.9 21.6-1.4 3.6-3 7.1-4.3 10.7-1.2 3.3-2.3 6.7-4.3 9.7-4.3 6.5-7.6 13.6-10.9 20.7-1.5 3.4-2.9 6.7-3.1 10.4-.2 3.4 1.9 6.1 3.6 8.8-3.1 1.5-5.9 3.5-8.9 5.1-3.3 1.7-6.7 3-10.1 4.4-3.5 1.4-6.9 2.8-10.4 4.2-3 1.3-5.8 2.8-8.8 4.2-2.8 1.4-5.3 3.1-8 4.8-2.9 1.7-5.7 3.4-8.6 5.2-5.6 3.4-11 6.9-16.9 9.8-3.1 1.5-6.1 3-9.2 4.6-2.5 1.3-5.3 2.4-7.1 4.6-2.7 3.3-2.5 8.6.1 11.9 1.7 2.2 5.9 2 8.4 2.1 1.7 0 3.5 0 5.2-.4 1.4-.3 2.6-1 4-1.4 1.6-.4 3.3-.3 4.9-.5 1.6-.2 3.1-.5 4.7-.8 3.3-.7 6.7-1.5 10-2.2s6.5-1.4 9.7-2.3c1.3-.4 2.7-1.1 4.1-1.1 1.5 0 2.8.1 4.3-.1 1.5-.3 3-.7 4.6-.9 1.4-.2 2.9 0 4.3-.2 1.6-.3 3.1-1 4.6-1.4s2.9-.3 4.4-.3c-3.8 3-7.8 5.7-11.7 8.5-3.9 2.9-7.6 6.1-11.4 9.1-3.1 2.5-6.9 4.9-8.8 8.5-1.5 2.9-1.8 6.4-1.2 9.6.8 4 3.7 4.5 7.3 4.7 4.6.3 8.2-1.6 12.2-3.6 7.9-3.9 15.5-8.4 23-13 3.7-2.3 7.8-4 11.7-5.9 2.1-1 4.2-2 6.2-3 1.7-.8 3.9-2.4 5.8-2.2-5.2 10.7-10.6 21.3-15.1 32.3-1.9 4.6-3.4 9.4-3.8 14.4-.3 3.5-.1 10.4 4.3 11.6 2 .5 3.7-.8 5-2.1 1.9-1.8 3.6-3.9 5.4-5.8 3.5-3.8 7.2-7.3 11-10.8 3.9-3.5 7.7-6.9 11.2-10.8 3.3-3.7 7.5-6.5 10.6-10.4 3.2-4 6.1-8.2 9.4-12.1 2.1-2.6 3.9-6.7 7.6-7.2.5 3.1 3.2 5.8 5 8.3 4.1 5.5 9 10.1 14.1 14.6 4.6 4.1 9.6 7.6 15.4 9.8 3.8 1.5 11.8 4.9 14.8.3 1.4-2.2.7-6.5.1-8.9-.7-3.4-2.4-6.5-3.8-9.6-3-6.3-6.3-12.3-9.7-18.4-1.7-3.1-3.3-6.1-5.2-9.1-1.6-2.6-3.8-5.1-4.6-8-.3-1.2-.5-2.9-.1-4.1.4-1.3 1-1.1 2.1-1.2 2.6-.4 1.8-5.1 1.5-7-.3-1.7-.9-3.3-1.5-4.8-.5-1.3-1.6-3.1-1.6-4.6.1-1.4 1.4-2.8 1.9-4 .6-1.4 1-2.9 1.5-4.4 2-6.8 4.7-13.4 6.3-20.3 1.7-6.9 3.4-13.6 5.9-20.3 2.5-6.9 5.3-13.7 7.6-20.7 2.2-6.8 4.5-13.5 6.9-20.3 4.9-13.5 10.2-26.8 16.1-39.9 5.8-12.9 12.3-25.5 17.3-38.8 2.4-6.4 4.8-12.7 7-19.1 2.3-6.7 4.8-13.2 7.5-19.7 2.8-6.7 5-13.5 7.4-20.3 2.3-6.7 4.3-13.6 7.2-20.1.7.8 1.4 1.4 1.9 2.3s1 1.8 1.7 2.6c1.3 1.5 3 2.5 4.6 3.6 1 .7 1.8 1.5 3 1.7h.1c-.2 0-.4 0-.6.1 1.4 1 2.9 2 4.4 3-.1-.3-.2-.6-.4-.8.5.8 1 1.6 2 1.8h-.2c.7.5 3.1 2.9 2.9.3.1.4-.1.7.1 1.2.2.4.6.9 1 1.2.7.8 1.5 1.4 2.3 2 1.9 1.4 4 2.6 5.9 4 .5.4 2.4 2.6 3 2.6 1.2 1 2.4 2.1 3.6 3.1-.5-1.6-.9-3.2-1.4-4.8.3 1.2.7 2.3 1 3.5.4 1.3 1 1.8 2 2.7 1.8 1.6 3.5 3.2 5.3 4.7 3.3 2.7 7.2 4.9 10.8 7.3 1.9 1.3 3.9 2.7 5.7 4.1 1.5 1.2 3.4 1.6 4.9 2.7 1.9 1.4 3.6 3.3 5.2 5 1.5 1.5 3.2 3.1 4.2 5 1.2 2.1 1.2 4.9 1.5 7.3.4 2.4.7 4.8 1.1 7.2.7 4.9 1.4 9.9 2 14.8.6 4.9 1.3 9.7 1.7 14.6.4 4.9.3 9.9.9 14.8 1.1 9.9 2.4 20 4.5 29.7 2.1 9.8 3.5 19.8 5.4 29.6 1 5.1 2 10.1 3 15.2l1.5 7.5c.4 2.1.2 4.1.6 6.2.2 1.1.5 2.2.5 3.4 0 1.1-.7 2.1-.7 3.1-.1 1.4 1.2 3.6 2 4.7 1.2 1.7 2.8 3.2 4.1 4.7 1.4 1.5 1.9 2.1 1.4 4.2-2.1 9 3.2 16.5 8.9 22.8 6.3 7 12.5 13.7 19.7 19.7 3.8 3.2 7.3 6.6 10.9 9.9 3.5 3.2 7.2 5.7 11.2 8.2 4.1 2.5 8.4 4.3 12.7 6.5 4.2 2.1 8.2 4.2 12.7 5.7 4.2 1.5 8.5 2.8 12.6 4.6 3.2 1.5 7.3 1.4 10.5 0 2.2-.9 4-2.6 6-3.9 1.8-1.2 3.7-2.4 5.6-3.5 3.1-1.8 6.2-3.9 7.6-7.5 1.6-4.2.2-9.2-.7-13.4-.9-4.3-2.8-8.3-5.2-12-2.4-3.9-5.4-7.2-8.1-10.9-2.8-3.7-5.4-7.7-8.4-11.3-2.9-3.6-6-7.1-9.4-10.3-3.3-3.3-6.2-6.9-9.3-10.4-.7-.8-1.9-1.7-2-2.9-.1-1 .6-1.8.9-2.7.7-1.8.5-3.7.5-5.6 0-.9 0-1.8.5-2.7.4-.8 1.2-1.1 1.5-1.9.3-.7.2-1.7.3-2.4.2-1 .6-1.7 1-2.6.8-2.3-.2-5-.6-7.3-.4-2.2-.8-4.3-1.2-6.5-.9-4.7-1.5-9.3-3-13.9-3-9.2-5.9-18.3-6.1-28.1-.1-4.9-1.5-9.6-2.6-14.3-1.2-5-2.4-10-3.7-15-2.4-9.6-5.2-19-7.6-28.6-2.4-9.5-4.6-19.1-7.5-28.5-2.9-9.5-6.9-18.4-11.3-27.4-2.1-4.3-4.4-8-7.4-11.7-3.2-3.8-6.4-7.5-9.7-11.3l-19.8-22.5c-3.3-3.7-6.7-7.2-10.6-10.4-3.5-2.8-8.2-5.1-9.3-9.7-.3-1.3-.5-2.6-.9-3.9-.2-.7-.8-1.9-.7-2.7.2-1.6 3.1-2.2 4.3-2.8 4.1-1.9 8.3-3.7 12.4-5.8 2.2-1.1 4.2-2.5 6.3-3.9 1.8-1.2 3.8-1.5 5.7-2.1 4.4-1.4 8.5-3.3 12.5-5.5 4.2-2.2 8.4-4.4 12.5-6.9s7.3-5.5 10.8-8.8c1.6-1.5 2.7-.7 3.8.9 1.3 1.9 2.8 3.8 4.2 5.7.6.9 1.2 1.9 2.1 2.5 0 0 .1 0 .1.1-.2-.1-.3-.1-.5-.2.3 2.4 2.1 4 3.7 5.7-.1-.4-.3-.8-.4-1.2.4 1.1 1 1.9 1.7 2.9 1.5 1.9 3.1 3.6 4.8 5.4.9.9 1.8 1.8 2.7 2.6.4.3.7.7 1.1 1 .6.6.9.7 1.5 1 1.2.6 1.5 1.5 2.6 2.3 1.6 1.2 3.6 1.9 5.3 3.1 1.4.9 2.5 2.8 4.1 3.2.6.1 1 0 1.4.5.6.6 0 .6.9.8.5.1 1-.2 1.5 0s1 .6 1.4.9c1 .7 2 1.4 2.9 2.1 1.8 1.3 3.5 2.6 5.3 3.9 3.5 2.6 6.6 5.6 10.1 8.2 1.8 1.4 3.7 2.3 5.6 3.5 1.6 1 2.9 2.3 4.4 3.4 1.8 1.3 3.9 1.9 5.7 3.1s3.6 2.4 5.5 3.4c4.1 2.3 8.3 4.4 12.7 6.2 4.4 1.8 9 3.2 13.8 3.5 4.9.2 9.5-1 14-2.8 4.4-1.8 8.8-3.8 13-6 4.1-2.2 7.9-4.8 11.9-7.2 4-2.3 7.9-4.8 11.7-7.4 3.7-2.5 7.1-5.3 11.1-7.4s7.5-4.8 11.3-7.2c3.9-2.5 7.7-5.1 11.5-7.6 8-5.3 16-10.8 23.5-16.7 3.6-2.8 7.2-5.8 10.4-9.1 3.4-3.6 7.5-6.6 11.2-9.8 3.6-3.5 7.2-7 10.8-10.4l-10.8 10.5c1.7-.3 2.8-1.4 4.2-2.5s2.9-2.3 4.3-3.4c2.1-1.7 4.4-3.4 4.2-6.4.9-.8 1.8-1.7 2.8-2.4 1.6-1.3 3.4-2 5.1-3.1 3.4-2.3 6.4-5.2 9.6-7.7 1.4-1.1 2.7-2 2.9-3.9.2-2.1 0-4.3-.1-6.4 0-1.6-.5-3.9.1-5.4s2.7-2.2 4-2.9c3.8-2.1 7.5-4.3 11.3-6.3 3.7-2 7-3.4 11.2-3.8 1.9-.2 3.6-.4 5.5-.7 1.9-.3 3.7.3 5.5.6 4.2.8 8.5 1.2 12.7 2s8.4 1.8 12.6 2.9c4.2 1 8.4 2.1 12.6 2.9 2.2.4 4.4.6 6.5 1.3 1.6.5 3.1 1.2 4.8 1.6 4 .9 8 1 11.9 2.3s7.8 2 11.9 2.6c2.1.3 4.2.7 6.3 1.1 1.3.3 2.4.4 3.7.1 2.7-.7 4.8-2.8 5.7-5.4 2.3-7.1-2.2-14.7-6.8-19.8-5-5.4-11.2-9.2-17.1-13.4 2.4-.3 4.7.1 7.1.1 2 0 4-.1 6 .1 4.5.2 9-1.1 13.5-1.2 6.1-.1 13.6-1.4 15.2-8.3 1.5-6.5-5.4-12.3-10.3-15.2-3.1-1.9-6.3-3.6-9.4-5.6-3.3-2.1-7.4-3.4-11-4.8-3.7-1.5-7.4-2.9-11.3-3.9-3.7-1-7.4-1.5-11-3 3.2-1.4 6.7-1.7 10.2-2.4 4.1-1 7.5-1.8 10.8-2.7z"/><path id="Fill-58" class="st1" d="M691.2 53.8c2.1-1.1 4.2-2.1 6.3-3.1 4.5-2.2 8.9-4.5 13.4-6.6 2-.9 4.2-1.5 6.3-2.3 2.2-.8 4.4-1.9 6.5-3 4.5-2.2 9.1-4.1 13.8-5.8 1.4-.5 2.9-1.1 4.3-1.6 1.1-.4 2.4-1.2 3.6-1.3 1.8-.2 3.2 1.6 4.4 2.8 6.7 6 11.4 15 14.3 23.4 1.6 4.6 2.3 9.4 3.1 14.2.9 4.9 1.8 9.7 1.8 14.7 0 5.1.6 10.1.3 15.1-.1 1.9.3 5.3-.8 6.9-1.1 1.7-3.7 2.1-5.4 2.8-9.3 3.4-18.6 7-28.1 10-9.8 3.1-19.6 6.2-29.5 9.4.4-2.8.9-5.6 1.2-8.4.3-2.6.1-5.4.1-8 0-5.8-.2-11.6-1.4-17.3-2.1-10.4-5.6-20.6-11.3-29.6-1.3-2.1-3-4-4.6-5.9-.6-.7-2.5-2.3-2.4-3.3.2-1.6 3.1-2.6 4.1-3.1M803 52.7c2.2.1 3.5.6 3.7 2.9.2 2.9.1 5.9.3 8.8.2 5.6.4 11.3.3 16.9-.3 9.9-1.3 19.7-4.3 29.1-1.5 4.6-3.2 9-5.1 13.4-1.8 4.3-4.4 8.1-6.7 12.1-1.1 2-2.4 3.6-3.9 5.2-.7.8-1.1 1.2-2.1 1.3-1.1.1-2.4-.1-3.4-.2-5-.4-10-.9-15-1.1-5-.2-9.9 0-14.9-.3-2.3-.1-4.5-.9-6.8-1.2-2.3-.4-4.6-.5-6.9-.8-1.2-.1-1.2.1-1.3-.9-.1-.6.1-1.3.1-1.9.1-1.1.1-2.3.2-3.4.1-1-.1-2.8.3-3.8.4-.9 1.2-1 2-1.2 4.6-1.3 9.1-2.8 13.5-4.6 4.5-1.8 9.1-3.5 13.6-5.5 1.9-.8 4.1-1.6 5.6-3.2 1.2-1.3 1.9-3 2.4-4.6 2.9-9.1 2-19.7 1.1-29.1-.9-9.7-2.3-19.6-5.8-28.7 10.8.1 22 .3 33.1.8m-124.4 8.4c3.1 1.2 5 3.9 6.9 6.5 2.2 3.2 4.4 6.5 6.1 10.1 3.7 7.5 6.1 15.7 7.5 23.8 1.3 7.8 2 16.5.5 24.4-.4 2.1-1.5 3.8-2.1 5.8-.4 1.3-.1 3.3.2 4.6.5 1.9 2.3 1.3 3.8.9 2.2-.4 4.4-.9 6.5-1.4 8.2-1.7 16.4-4.8 24.7-5.4-.7 2.2-1.1 4.2-2.5 6.2-1.3 1.8-3.1 3.3-3.9 5.5-.6 1.8-.8 4.3-.1 6.1.7 1.9 2.4 1.9 4.1 2.2 5 .6 9.9 1.4 14.9 1.7 1.1.1 2.2.2 3.2 0 .9-.2 1.5-.4 2.3-.3 1.1.2 2.2.8 3.4.9 1.1.1 2.3.1 3.4 0 4.2-.2 8.3.3 12.5-.1 1.2-.1 3.5-.8 4.7-.1s.3 2.2.9 3.3c.8 1.3 3.5.7 4.8.6 1.9-.1 3.6-.4 5.2-1.3 3.4-1.8 6.5-4.1 9-7 2.6-3 4.5-6.6 6.4-10.1 2-3.7 3.9-7.3 5.4-11.2 1.5-4 3-8.1 3.9-12.3.9-4.2 1.4-8.4 2.2-12.7.8-4.4 1-8.9 1.2-13.3.2-4.6.3-9.1 0-13.8-.3-4.5-.8-9-1.3-13.5-.1-1.2-.1-2.3-.2-3.5-.1-.8-.5-1.5-.6-2.3-.1-1.5 1.3-2.5 1.3-4.2-.1-3.8-4.1-5.2-7-6.1-3.9-1.2-8.2-1.9-12.2-1.6-8.7.6-17.6.7-25.8 3.9-4.3-7.3-8.2-15.2-15.2-20.4-.8-.6-1.6-1-2.2-1.8-.4-.7-.6-1.5-1.2-2.1-1.4-1.6-3.2-1.8-5.2-1.4-4.4.9-8.5 1.9-12.7 3.6-1.8.7-3.8 1.1-5.6 1.8-1.8.7-3.5 1.6-5.2 2.4-3.7 1.8-7.6 3.4-11.3 5.3-7.5 3.7-14.9 7.6-21.8 12.4-3.3 2.3-7.1 4.7-10 7.6-1.2 1.3-1.8 2.9-1.6 4.7.4 1.7 1.3 1 2.7 1.6"/><path id="Fill-60" class="st1" d="M188.1 75.3c.4-4.8.2-9.5.6-14.3.3-4.5 1.2-9.1 2.1-13.6.9-4.5 2.5-8.5 4.4-12.7 1-2.3 2-4.6 3-7 .6-1.4 1-2.9 2.7-3.3 2.2-.5 4.8-.1 7-.2 2.3-.1 4.5-.2 6.7-.4 4.9-.4 9.7-1.1 14.6-1.7 4.7-.5 9.3-.8 13.9-1.7 2.4-.5 4.7-1.1 7.1-1.6 1.8-.4 4.2-1.5 6-1.1-2.2 5-2.9 10.3-2.9 15.7 0 2.1-.3 3-2.5 2.9-2.8-.2-5.5-.4-8.3-.8-5.2-.6-10.3-1.5-15.5-2.4-2.4-.4-4.8-1-7.2-1.6-1.7-.4-2.4.3-3 1.8-.4 1.1-.5 1.6-1.6 2.3-.9.5-1.7 1-2.5 1.6-1.4 1.1-2.6 2.4-3.7 3.9-2.3 3.2-3.8 7.1-5.1 10.8-3.4 9.4-5.1 19.5-5.4 29.5-.2 5.1-1 10-1 15.1 0 2.2.5 5.1-1.3 6.7s-4.2 2.7-6.2 4c-1.8-5.1-2.2-10.5-2.3-15.9-.1-5.3 0-10.6.4-16m75.5-27c2.2.6 4.5 1.1 6.7 1.6-3.8 9.2-3.7 19.3-4 29.1-.1 4.4 0 8.7.4 13.1s1.4 8.7 2.3 13.1c.2 1 .7 2.5 0 3.4-.7 1-3 1.5-4 1.9-3.9 1.8-7.8 3.7-11.8 5.3-4.1 1.6-8.3 2.6-12.2 4.4s-7.8 3.5-11.8 4.9-8.1 2.5-11.9 4.2c-3.6 1.7-6.6 4-9.7 6.5-1.9-5.8-2.6-11.8-2.9-17.9-.3-5.8-.8-11.9-.2-17.8.3-2.7.3-5.1.2-7.8 0-2.4.5-4.7.7-7.1.4-5.2.4-10.4 1.1-15.7 1.3-9.8 4-20.3 9.4-28.7.3-.5.7-1.4 1.1-1.8.8-.7.5-.5 1.6 0 1 .5 1.9 1 2.9 1.5 2.1.9 4.4 1.3 6.6 2 2.4.7 4.7 1.8 7.2 2.2s5 .4 7.4.8c1.4.2 2.6.7 3.9 1 1.1.3 2.1.2 3.3.3 2.2.2 4.3.8 6.5 1 2.6.3 4.8-.2 7.2.5m-80.8 42.5c.8 6 2.4 11.9 4.7 17.5.8 1.8 1.6 4.3 3.8 4.8 2 .5 4.4-1 6.3-1.5 1.5 8.7 2.1 17.8 6 26 .5 1 1.1 2.9 2.2 3.6 1 .7 2.3 0 3.3-.4 4.3-1.6 8.8-2.7 13.3-3.8 2.2-.6 4.4-1 6.6-1.8 1.8-.6 3.5-1.4 5.3-1.7 3.9-.7 7.5-2 11.2-3.3 7.8-2.8 15.6-5.2 22.8-9.4 3.4-2 7-3.9 10.2-6.3 2.6-2 5.5-4.9 4.2-8.4-.4-1.1-1.4-2.8-2.7-3.2-1.1-.3-2.2.7-3.2 1-1.6.4-1.2-.9-1.4-2.2-.1-1-.2-2-.4-2.9-.2-2.1-.5-4.1-.7-6.2-.8-8.5-.4-17.1-.4-25.6 0-4.3 1-8 2-12.2l1.5-6.6c.3-1.2.6-2.6.2-3.8-.8-2.8-4.8-3.5-7.1-4.3-2-.7-4.1-1.3-6.1-1.7-1.1-.2-4.2 0-4.9-1-.7-.9.1-4 .2-5.2.1-2.1.3-4.2.6-6.2.4-3.3.4-6.4-2.3-8.9 1.7-1.3 2.8-4.1.4-5.4-2.8-1.4-6.5-1.6-9.4-.9-3.2.8-6.7.8-10 1.2-3.5.4-7 .8-10.5 1.3-6 .8-12.1.9-18.1 2.1-3 .6-5.9 1.1-8.9 1.5-3.1.5-5 .9-6.8 3.5-3.5 5-6.8 10-8.7 15.8-1.9 5.5-2.7 11.3-3.3 17-.6 6.2-.7 12.4-.6 18.6 0 6.5-.1 12.8.7 19"/><path id="Fill-62" class="st1" d="M56.6 336.1c.4-.6 1.4-.8 2-1 .9-.4 1.7-.8 2.6-1.3 4.2-2.4 8.3-4.9 12.1-7.8.9-.7 3.3-3.3 4.6-2.9.7.2 1 1.3 1.3 1.9.5 1 1 1.9 1.6 2.8 2.3 3.6 5.1 6.9 8.3 9.8 5.9 5.4 12.7 8.9 20.9 9.3-5.3 7.2-10.3 14.6-16.3 21.2-3 3.3-6.3 6.3-9.5 9.6-.5.5-.8.9-1.5 1.2-.7.3-1.3.4-1.9 1-1 1-1.1 2.4-.8 3.7-5.6.2-11.6-2.3-16.7-4.3-3-1.2-5.9-2.5-8.7-4.1-1.9-1.1-4-2.3-5.4-4 5.1-2.7 10.3-5.3 15.2-8.4 3.3-2.1 9.2-4.6 8.8-9.5-.1-.8-.4-1.7-1-2.1-1-.6-1.2.1-2.1.3-1.5.3-3.2-1.6-4.3-2.5-3-2.3-6-4.8-7.8-8.1-.6-1-2.1-3.6-1.4-4.8m-31.1 43.2c.8-2.7-3-4.8-4.7-6.1-2.6-1.9-4.3-4.1-6.1-6.8-6.7-10.6-9.1-23.6-8.6-36 .2-3.4.5-6.9.6-10.3 0-1.8-.1-3.5.3-5.2s.8-3.3 1.2-5c.8-3.3 1.2-6.7 2.2-10 .9-3 2.1-6 3.6-8.8 1-1.9 1.9-4.5 4.4-4.2 3.2.5 6.2 2.1 9.3 2.9 3.4.9 6.8 1.7 10.3 2.5 3.3.8 6.6 1.9 9.9 2.6 1.7.4 3.5.5 5.3.5.8 0 2.2-.1 2.2 1 .1 1.2-1.7 2.4-2.4 3.1-1 1-1.8 2-2.4 3.3-1.3 3.2-2.6 6.5-3.1 9.9-.5 3.3-.4 6.8-.4 10.2-.1 6.8.9 13.3 3.3 19.7 2.2 5.8 5.7 9.7 10.4 13.6-4.9 2.5-9.9 4.9-14.8 7.4-4.5 2.2-9 4.1-12.8 7.4-1.6 1.3-3.4 2.9-4.5 4.7-1.4 2.2.6 3.7 2.7 2.8 2.3-1 4.6-2.1 6.8-3.1 1.5-.7 3.9-2.6 5.6-2.5 1.5 0 2 1.9 2.6 2.9 1 1.6 2.3 3.1 3.7 4.4 3 2.8 6.5 5.1 10.2 6.9 4.1 1.9 8.4 3.3 12.9 4 2.4.4 4.9.6 7.3.5 1.8-.1 4.4-.1 6.1-1 1.4-.8.7-2.4 2.1-3.2 1.5-.8 3.1-1.5 4.5-2.4 3.4-2.3 5.4-5.2 7.4-8.6 4.6-8 10.2-15.3 13.6-23.9.8-2 1.3-4.4 2.6-6.2.9-1.2 2.8-1.9 3-3.4s-.4-4.8-1.9-5.5c-1.7-.8-4.2-.8-6.1-1.3-8.1-1.9-15.7-4.8-22.2-10.2-1.6-1.3-3.1-2.8-4.6-4.3-1.1-1.1-2.2-2.3-2-4 .2-1.5 1.4-3.7-1.1-4.1-1.6-.3-3.9.6-5.2 1.4-4 2.5-7.7 5.6-11.6 8.4-3.5 2.5-7.1 5-10.6 7.4.4-5.9.2-12.2 1.6-17.9.7-2.8 1.9-5.4 3.4-7.9 1.6-2.5 2.8-5.1 4.2-7.7.8.4 2 1.4 2.7.3.4-.7.1-2.7 0-3.5-1.2-6.3-10.7-6.9-15.6-8-7-1.5-14.1-3.4-21.2-4.5-3.3-.5-6.6-.6-9.9-.8-1.7-.1-3.7-.5-4.7 1.2-.3.5-.3 1.1-.6 1.5-.3.3-1.1.7-1.5 1-1.1.9-2 1.9-2.9 3.1-1.7 2.3-2.9 5-4 7.6-2.7 6.3-4.3 13.1-5.1 19.9-.9 7-1.5 14.3-1 21.3.8 13 4.4 26.2 12.6 36.6 1.9 2.4 3.9 4.3 6.6 5.7 1.6.6 5.7 3.1 6.4.7"/><path id="Fill-65" class="st1" d="M118.7 532.1c-2.5 3.3-5.1 6.5-7.3 9.9-2.3 3.5-4.5 7-6.7 10.5-2.2 3.4-4.6 6.7-6.3 10.3-1 2.1-1.1 4.9-3.8 4.8-3.6-.1-7.1-1.2-10.2-2.9-6.4-3.4-11.7-8.2-15.7-14.2-4.1-6.3-7.4-13.4-9.7-20.5-1.3-3.9-2.3-8-3.3-12-.5-2.1-1-4.1-1-6.2 0-.9.1-1.9.1-2.8s.5-2.4-.5-2.5c.3-2.5.6-5.1.9-7.6.2-1.8.2-3.9 1.8-5.1 1.5-1.2 3.9-1.2 5.7-1.6 2.2-.5 4.3-1.1 6.5-1.7 4.4-1.3 8.6-3.1 12.8-4.9 2.1-.9 4.2-1.8 6.2-2.9 1.6-.9 2.8-2.3 4-.2 7.6 14.5 13.2 30.8 25.6 42 1 .9 2.7 2 2.8 3.5.3 1.7-1.1 3.1-1.9 4.1m10.1-10.2c-1.8-1.2-3.9-1.4-5.7-2.5-2-1.3-3.4-4.2-4.8-6.1-3.3-4.6-6.7-9.2-9.7-14-2.7-4.4-5.2-8.9-7.8-13.3-1.3-2.3-2.7-4.5-4.3-6.6-.7-.9-2.4-4.1-3.8-3.9-.7.1-.7.8-1.2 1-.3.1-.5 0-.8 0-1 .1-2-.4-3-.3-2.5.2-5.1 1.3-7.5 2-4.9 1.5-9.6 3.6-14.5 5.3-4.8 1.7-10.2 2.8-14.6 5.5-1.7 1-3.7 2.7-2 4.8.6.8 1.5.8 2.2 1.4.6.5.3.8.2 1.6-.1.5-.2 1-.2 1.5-.8 5.1-1.4 10.2-.7 15.3.7 5.2 1.8 10.4 3.3 15.4 4.6 15.9 12.8 34.8 29 41.8 3.8 1.6 7.5 2 11.5 2.8 1.3.2 2.3.8 3.4 1.4.5.3 1.2.7 1.8.6 1.5-.2 2.7-2.5 3.3-3.5 2.6-4.1 5.5-7.9 8.2-11.9 1.4-2.1 2.7-4.2 3.8-6.4.7-1.3 1.1-3.4 2.9-3.4.5.7 1 1.3 1.5 2 .2.3.5.6.6.8.4.7.3.2.2 1.1-.2 1.1-1.2 2.4-1.9 3.2-3.8 5.1-7.8 10.2-11.8 15.2-3.9 4.9-7.9 9.8-12.5 14.1-.9.9-1.9 1.9-3.3 2-1.3.1-2.6-.6-3.9-.8-2.7-.5-5.5-.6-8.1-1.4-1.4-.4-2.5-1.2-3.9-1.3-1.2-.1-2-.3-3.1-.9-2.4-1.4-5-2.2-7.4-3.6-4.9-2.8-10.1-6.9-13.7-11.3-1.9-2.3-3.4-4.8-5.3-7.1-1.8-2.2-3.6-4.4-5.1-6.8-3.1-4.7-5.5-9.9-7.4-15.2-1-2.8-1.5-4.6 1-6.6 2.3-1.9 4.4-3.9 6.3-6.2.9-1.1 5.1-5.2 2-5.9-1.7-.4-4.4 2.5-5.7 3.6-2.1 1.7-4.1 3.3-6.6 4.6-2.7 1.4-2.8 3.1-2.7 6 .1 5.9 2.3 11.7 4.6 17 2.3 5.5 5.3 10.8 8.8 15.7 6.8 9.3 14.3 18.7 24.8 24 5.2 2.6 10.8 3.9 16.5 4.6 3.4.4 6.8.5 10.2.4 1.4 0 3.3.2 4.7-.3 1.1-.4 1.3-1.2 1.7-2.2 1-2.4 3.5-3.7 5.2-5.6 1.8-2.1 3.7-4 5.6-6 4-4.3 6.7-9.5 9.9-14.4 1.8-2.7 3.7-5.4 5.3-8.2 1.3-2.3 2.8-5.4 3.3-8 .3-2.1-1.3-5.1-3.6-5.2-1.2-.1-2.2.9-3.4 1-.4 0-1.6-.2-2 0 1.9-4.7 4.8-9.1 7-13.7 1.2-2.6 2.4-5.2 3.5-7.8.8-2.3 1.7-3.9-.3-5.3"/><path id="Fill-67" class="st1" d="M159.8 149.2c3.8 8.8 9.9 15.8 16.2 22.9 3.3 3.8 6.7 7.2 10.7 10.2 3.7 2.8 7.5 5.6 11.3 8.4-3.8 4.9-8 9.3-12.2 13.8-3.9 4.2-7.8 8.4-10.3 13.5-.3-2.5-1.9-4-4-5-2.7-1.2-5.1-2.6-7.5-4.4-4.9-3.9-9.5-8.6-13.7-13.2-8.6-9.5-14-21.5-20-32.6 9.7-4.6 19.6-9.1 29.5-13.6m-31.7 22.2c1.4 4.1 3.5 8 5.5 11.8 1.9 3.8 3.8 7.6 6.1 11.2 4.2 6.9 9.3 13.3 15.8 18.2 3.2 2.4 6.6 4.7 10.2 6.5 1.7.9 3.5 1.5 5.4 1.4 1.2-.1 2.8-1.1 3.7-.2.9.9.6 2.8 2.6 1.9 1.6-.8 3-2.4 4.2-3.6 3-3.2 6-6.4 8.9-9.8 2.8-3.2 5.1-6.9 7.5-10.4 1.3-2 2.6-3.9 3.9-5.9.9-1.4 2.2-2.8 2.2-4.6-.1-3.5-4.4-5.8-6.8-7.7-3-2.4-5.7-4.8-8.2-7.6-2.7-3-6.1-5.5-9-8.4-3.2-3.1-6-6.4-8.8-9.8-2.2-2.7-4.5-5.4-6.4-8.3-1.5-2.3-3.2-4-6.1-3.6-2.3.5-4.7.9-6.9 1.8-2.3.9-4.4 1.9-6.6 2.9-4 1.8-7.6 4.1-11.5 6.2-.9.5-1.7.9-2.5 1.5-.4.3-.9 1-1.3 1.2-.3.2-.6.1-1 .2-1.6.4-2.1 1.3-2.9 2.7-1.3 2.2-1.2 3.4-.1 5.6.9 2.2 1.4 4.6 2.1 6.8"/><path id="Fill-69" class="st1" d="M284.5 280.6c1 1.6 2.6.8 3.5-.3 2.8-3.4 5.4-7 7.9-10.6 2.5-3.7 4.8-7.4 7.7-10.8 2.9-3.4 5.8-6.8 8.8-10.2 11.2-12.5 22.6-24.7 34.9-36 3-2.8 6.1-5.5 9-8.4 1.3-1.3 2.8-2.7 2.8-4.7 0-1.4-1-3.1-2.2-3.8-2.7-1.6-6.2 2.2-8.2 3.6-1.5 1.1-3.1 1.6-4.7 2.5-1.4.8-2.8 2-4 3-2.7 2.4-5.5 4.4-8.2 6.7-2.7 2.4-5.2 5.1-7.9 7.5-2.9 2.6-6 4.8-8.5 7.7s-4.7 6.1-7.3 8.9c-5.6 6-10.2 12.8-15 19.4-2.3 3.2-4.1 6.7-5.6 10.4-.8 1.8-1.5 3.6-2.3 5.5-.7 1.7-.8 3.5-1.1 5.3.3.2 0 3.7.4 4.3"/><path id="Fill-71" class="st1" d="M907.4 643.2c2.1-2.5 3.5-6.2 5-9.1 1.6-3.1 3.2-6 3.9-9.5.3-1.7.5-3.4.9-5.1.4-1.6.9-3 .7-4.6-.2-1.7-1-6.9-3.6-6.3-1.5.3-1.2 2-1.2 3.1 0 1.4-.2 2.7-.6 4-.9 3.1-3.2 5.8-4.6 8.7-1.4 2.8-3 5.4-5.1 7.7-2 2.3-4.2 4.4-6.6 6.3-2.1 1.7-4.5 2.9-6 5.2-.9 1.4-1 1.8-2.7 2.1-1.3.3-2.6.8-3.7 1.6-1.3.9-2.2 2-3.6 2.6-1.3.5-2.6.8-3.9 1.3-3 1.1-5.6 3-8.7 4l-4.8 1.5c-1.3.4-2.8.6-3.9 1.5-1.8 1.5-2.8 5.2-1.2 7.1 1.7 2.1 5.6.8 7.8.5 0 .1.1.3.1.4 3.7-.7 7.5-1.2 11.1-2.3 1.9-.6 3.6-1.5 5.3-2.4 1.5-.8 3-1.1 4.5-1.6 1.4-.5 2.5-1.2 3.4-2.4 1.1-1.5 1.6-1.1 3.3-1.5 2.8-.6 5.2-3.8 7.1-5.7 2.4-2.3 5-4.5 7.1-7.1"/><path id="Fill-73" class="st1" d="M377.7 129c.6-1 2.9-2 3.9-2.6 1.4-.9 2.8-1.8 4.2-2.8 2.5-1.8 4.2-.6 6.4 1.1 4.1 3.2 5.7 7.4 5.4 12.4 0 1.5.4 3.9-.7 5.1-1.1 1.2-3.3 1-4.7 1.3-1.9.4-4.7 2.7-6.6 2.1-1.7-.6-1.1-3.6-1.2-5-.3-2.5-1.1-4.9-2.6-6.9-.8-1-1.7-1.9-2.8-2.7-.9-.6-2-1-1.3-2m-7.5 7.5c1.6.3 3.2 1 4.7 1.6 1 .4 2.3.8 3.1 1.5 1.3 1.2.8 3.1 1.1 4.6.2.9.6 1.7.3 2.6-.4 1.1-1.5 1.3-2.1 2.2-.9 1.3.2 3.2 1 4.3 1.3 1.9 3 .9 5 .7 2.4-.3 4.8-.4 7.1-1.2 1.9-.6 3.4-2.1 4.8-.1.5.7.6 1.4 1.7 1.1.9-.2 1.8-1.4 2.3-2 3.7-3.8 4.6-8.9 4.7-14 .2-5.6-1.9-10.9-4.8-15.7-.6-1-1.2-2.2-2.1-2.9-.9-.8-2-1.1-2.8-1.9-1.2-1.3-.9-4-2.8-4.6-2-.6-4.9 1.8-6.4 2.9-2.1 1.5-4.2 3-6.3 4.6-4.4 3.4-9.4 6.6-13.4 10.5-1.4 1.3-1.9 3.6-.5 5.2 1.3 1.3 3.7.3 5.4.6"/><path id="Fill-75" class="st1" d="M607.4 540.2c-.9-5-2.3-9.8-4.1-14.6-1.1-3.1-3.7-8.4-7.9-8.1-4.6.3-1.5 6.3-1.1 8.6 1.7 9.3 2.7 18.7 4.1 28 .7 4.6.9 9.4 2 13.9.5 2.2 1.3 4.4 2.2 6.5.6 1.3 1.3 3.1 2.8 3.7 4.5 1.8 3.4-6.1 3.3-8.1-.1-4.8-.2-9.6-.4-14.4h.4c-.5-5.1-.4-10.4-1.3-15.5"/><path id="Fill-77" class="st1" d="M70.5 627.3c-2.5.8-4.3 1.4-7 1.2-1.9-.2-3.7-.6-5.6-.8-4.8-.6-9.5-1.9-13.9-3.9-4-1.8-7.8-4-11.2-6.9-1.8-1.5-3.4-3.2-4.9-4.9-1.1-1.2-2.2-2.2-3.9-2.4.5 2.5 1 4.5 2.2 6.7 1 1.8 2.1 3.6 3.3 5.2 2.5 3.4 5.6 6.3 9.1 8.7 3.4 2.3 7.3 4.3 11.3 5.3 2.3.6 4.6.9 6.9 1.4 2.2.4 4.3.8 6.5.5 2.1-.3 4.2-.4 6.3-.9 1.6-.5 3.1-1.5 4.5-2.4 2.5-1.8-.4-7.8-3.6-6.8"/><path id="Fill-79" class="st1" d="M151.1 64.3c1.2 1.6 3.9 1.7 3.7-.8-.2-2.2-.8-4.4-1.6-6.5-.7-2.1-.6-4.4-.6-6.7-.1-5.3.1-10.4 1.1-15.7 1-5 1.6-10.1 2.7-15.1 1.1-4.9 3.1-9.5 4.3-14.4.4-1.5.7-4.4-1.5-4.8-1.8-.3-2.9 2.3-3.6 3.5-2.4 4-4.9 7.7-6.3 12.2-1.3 4-2.2 8.3-2.7 12.5-.5 4.4-.4 8.9-.7 13.3.4 5.1.2 10.8 1.9 15.8.8 2.4 1.9 4.9 3.3 6.7"/><path id="Fill-82" class="st1" d="M840.7 84.5c-.7 1.7-1.1 3.6.2 5.2 2.3 3 5.8-3.8 6.4-5.7 1.2-4.1 2.7-8.2 3.3-12.4.7-4.3.4-8.9.5-13.3-.4-5.2-1-10.3-2.3-15.3-1.1-4.5-2.2-9-5.9-12-1.5-1.2-2.5-.3-2.8 1.5-.2 2 .3 3.9 1.2 5.6 2.1 4 2.1 8.7 2.6 13.2.9 8.9 1.4 17.8-.9 26.6-.7 2.3-1.5 4.5-2.3 6.6"/><path id="Fill-84" class="st1" d="M74.6 184.3c.5 2 1.1 4 1.8 6 1.4 3.8 3.3 7.4 5.6 10.7 3.8 5.5 8.8 10.7 14.3 14.6 1.8 1.3 6.2 4.8 8.5 3.6 3.2-1.6-1.1-5.8-2.4-7-2.7-2.5-5.3-5-8-7.5s-4.7-5.7-6.9-8.6c-2.2-3-4.3-6-6.2-9.2-1-1.6-1.9-3.3-2.9-4.9-.9-1.4-2.2-2.4-3.3-3.5-.9.4-.8.4-1.1 1.2-.1.4-.1 1.1-.1 1.4.1 1.1.4 2.2.7 3.2"/><path id="Fill-86" class="st1" d="M304 215.8c5.1-4.6 10.6-8.5 15.4-13.4 1.2-1.2 2.1-2 1.1-3.6-.7-1.1-1.5-1.7-2.7-.9-2.8 1.8-5.5 4.1-8.2 6.1-5.6 4.1-11.3 8.1-16.3 12.9-2.3 2.2-4.4 4.5-6.1 7.1-1.9 2.7-3.2 5.5-1.2 8.5 6.1-5.5 12-11.2 18-16.7"/><path id="Fill-88" class="st1" d="M928.1 657c-.9-.2-2.4.8-3.1 1.2-2.7 1.8-5.5 3.4-8.2 5.1-2.5 1.6-5 3.2-7.4 4.9-2.1 1.4-3.4 3.1-2.7 5.7.3 1.2.9 2.6 2.3 1.9 1-.5 1.9-1 3-1.4 2.8-1 5.6-2 8.2-3.4 4.5-2.5 8.7-6.3 9.4-11.7-.4-.7-.5-2-1.5-2.3"/><path id="Fill-90" class="st1" d="M624.7 539.2c-.9-1-2-1-2.5.2s.1 3.4.3 4.6c.3 2 .6 4 1 6.1.2 1.2.4 4.8 1.9 5.3 2.4.7 2.4-5 2.6-6.2l-1.5-5.1c-.4-1.5-.7-3.7-1.8-4.9"/><path id="Fill-92" class="st1" d="M225.2 439.7c-.6-.3-1-.2-1.1-.8-.1-.6.8-1.1.9-1.6.5-1.7-1.3.1-2 .6.6 1.5 1.2 3.1 1.9 4.6.7-.3 1.4-.6 2.1-.8-.7-1-.8-1.5-1.8-2"/><path id="Fill-94" class="st1" d="M557 160.4c1.2.4 2.9-.1 4.1-.4 1.2-.2 2.5-.5 3.6-1 2.7-1.1 2.5-4.3 1.9-6.8-.9-3.4-2.7-6.6-4.3-9.8-.8-1.6-1.5-3.3-2.2-4.9-.5-1.3-1.2-3-2.9-3-2.5 0-1.3 5.9-.9 7.3 1 3.5 2.9 6.8 4.4 10.1-1.4.1-2.9.3-4.3.2-1.5 0-1.9 0-2.3 1.7-.5 2.4.3 5.7 2.9 6.6"/><path id="Fill-96" class="st1" d="M534.4 131.4c2.7-.2 5.4-.4 8.1-.8 2-.2 5.4-.3 6.8-1.8 1-1.1.8-3.4-.1-4.5-1-1.3-3.3-.8-4.8-.8-4 .1-7.9.6-11.5 2.4-1.3.6-4.3 1.8-4 3.6.5 2.3 3.9 2 5.5 1.9"/><path id="Fill-98" class="st1" d="M545.7 162.6c-2.3.6-1.8 4.4-1.1 6 1 2.4 3.7 3 6.1 2.9 1.2-.1 2.8.3 3.7-.7s.8-2.9.2-4c-.8-1.4-2.9-2.2-4.3-2.9-1.3-.5-3.2-1.7-4.6-1.3"/><path id="Fill-100" class="st1" d="M546 142.5c.2-2.2-1.1-7.2-4-7-1.4.1-2.6 2.1-2.9 3.3-.3 1.3.1 2.6.4 3.9.6 2.1 1.4 5.2 4.1 4.8 2.3-.4 2.4-3.1 2.4-5"/><path id="Fill-102" class="st1" d="M567.3 144.7c.6.6 1.5 1 2.3.6 1.2-.6 1-2 1-3.1.1 0 .3-.1.4-.1-.7-1.9-1.2-6-3.6-6.6-2.4-.5-2.6 2.1-2.3 3.8.2 1.8.8 4.1 2.2 5.4"/><path id="Fill-104" class="st1" d="M492.2 144.5c-1.2.1-3.4.7-3.2 2.2.3 2.2 3.7 2.6 5.4 2.8 2 .2 4.9 0 2.9-2.5-1.1-1.7-3.1-2.3-5.1-2.5"/><path id="Fill-108" class="st1" d="M392.3 403.5c-.4.8-.8 1.7-1.3 2.5 1.3.2 2.7.3 4 .5.1-1.1-2-2.4-2.7-3"/></g><circle class="st2" cx="833.9" cy="524" r="79.7"/><circle cx="848.1" cy="524" r="79.7" fill="#dbaf77"/><circle class="st2" cx="848.1" cy="524" r="60"/><path d="M867.5 546.3c-3 3.2-7.5 5.3-13.2 6.1v8.8h-9.2v-8.5c-3.7-.2-7.4-.9-10.9-2-3-.9-5.9-2.2-8.5-4l5-11.6c2.6 1.7 5.4 3.1 8.4 4 3 1 6.2 1.5 9.4 1.5 5.8 0 8.7-1.5 8.7-4.5 0-1.6-.8-2.8-2.5-3.5-1.7-.8-4.3-1.6-8-2.4-3.4-.7-6.8-1.7-10.1-2.9-2.7-1-5.1-2.7-7-5s-2.9-5.3-2.9-9.2c-.1-4.4 1.7-8.6 4.8-11.7 3.2-3.3 7.7-5.2 13.7-6v-8.7h9.2v8.6c2.8.3 5.7.8 8.4 1.6 2.5.7 4.9 1.8 7.2 3.1l-4.7 11.7c-5.1-2.9-10.1-4.3-14.9-4.3-3 0-5.2.5-6.6 1.4s-2.1 2.1-2.1 3.6.8 2.6 2.5 3.3c1.6.7 4.3 1.5 7.9 2.3 3.5.7 6.9 1.7 10.2 2.9 2.7 1 5.1 2.7 7 4.9 2 2.2 3 5.3 3 9.2-.1 4.2-1.8 8.3-4.8 11.3z" fill="#fff"/></g></svg>