<svg version="1.1" id="Layer_1" xmlns="http://www.w3.org/2000/svg" x="0" y="0" viewBox="0 0 529 768" xml:space="preserve"><style>.st1{fill-rule:evenodd;clip-rule:evenodd;fill:#1c2540}</style><path id="Accent" d="M284.2 382h.2c2.2.4 5.9 6.8 7.5 8.6 4.9 5.9 9.8 11.7 14.7 17.6 2 2.3 4.8 4.8 6.2 7.5 1.1 2.1 1.4 5 2.1 7.2 8 27.8 15.7 55.8 21.5 84.1 1.2 6.1 2.4 12.2 3.1 18.4.3 3.1 1.2 7.6-.1 10.5-1.5 3.3-6.3 4.7-9.5 5.8-6.1 2-12.5 3.2-18.8 4.3-15.3 2.6-30.7 4.1-46.1 5.3-4.7.4-9.6.4-14.2 1-2.2.3-1.6-.3-2.3 1.2-1 2.1-.3 6.4-.4 8.7-.3 5.4-.5 10.7-.8 16.1l-2.2 43.8c-.8 14.8-1.5 29.6-2.3 44.4l-.9 16.8c-.2 3 .3 6.9-.5 9.8-.6 2.2.4 1.5-2.3 1.7-6.2.3-12.7-.5-18.9-.7-7.1-.3-14.2-.5-21.2-.8-2-.1-4.3.5-5.1-.9-1-1.8-.2-6.6-.3-8.6l-.6-16.5c-.5-15.1-1.1-30.1-1.6-45.2-.7-20.6-1.5-41.1-2.2-61.7-7.9 1.6-15.7 3.2-23.6 4.8-11.6 2.3-23.3 4.7-34.9 7-5.3 1.1-11.7 3.5-17.2 2.7s-7.7-3.1-8-8.3c-.3-5.6-.2-11.2-.1-16.7.1-9.1.4-18.2.7-27.3 15.5-1.4 31.1-2.8 46.6-4.2 8.3-.7 16.5-1.5 24.8-2.2 1.9-.2 6.5.2 7.3-1.2 1.3-2.2-.1-9.4-.2-11.9l-.4-23.5-1.4-86.5c3.7.1 7.4.2 11.2.3 16.2.5 32.4 1.1 48.6.6 8.1-.2 15.8-2.4 23.5-5 4.1-1.4 8.1-2.9 12.1-4.4 1.3-.5 5-2.8 6.3-2.6h-.3zm-21.8 80.5l-8.3 40.4 28.3-1.9-20-38.5z" fill-rule="evenodd" clip-rule="evenodd" fill="#893168"/><g id="Ink" transform="translate(257 20)"><path id="ink-shape" class="st1" d="M241.7 114.6c-.6 4.5-.2 9.4-5.2 10.6-4.7 1.1-9.9.8-14.6 1.2-5.4.4-10.8 1-16.1 1.6-6.8.7-5.8-1.9-7.3-7.7-1.4-5.3-3.5-10.6-5.3-15.7-.8-2.4-1.8-4.6-3-6.9-1-2-.5-4.8-1.7-6.5-3.8-5.9-22.3 10.2-24 7 3.1-2.4 8.5-5.2 9.5-9.3 1.1-4.9-2-6.4-5.9-4.6-9.6 4.4-20.7 7.9-31.2 9.5 3.4-2.3 34.1-20.2 23.8-25.5-2.3-1.2-5.4 1.1-7.5 1.9-3.3 1.4-6.8 2.3-10.3 3.1-3.7.9-7.3 1.8-11 2.7-2.6.6-7.2 2.7-9.7 2.2-2.6-.5 2-2.1 2.7-2.5 3.2-1.6 6.4-3.4 9.6-5.1 5.6-3.1 10.8-6.8 15-11.6 3.2-3.7 8.5-11.7 6.3-16.7-1.3-2.9-4.1-5.6-5.8-8.4-1.9-3.2-3.5-6.7-5.2-10.1 2.8 1.2 6 1.6 8.9 2.7s5.8 2 8.8 2.9c6 1.7 12 2 18 3.3 6.8 1.5 13.8 3.2 20.7 4.1 6 .8 11.4 2.4 16.5 5.7 10.5 6.7 17.7 16.2 21.4 28 2.1 6.9 2.7 14.2 2.9 21.4.1 7.4.7 15.2-.3 22.7m-58.7.6c-7.3 5.3-15.8 9.5-23.7 14-4.5 2.6-9.1 5-13.6 7.4-3.2 1.7-7.2 4.9-10.8 5.8-2.3.6-2.1.6-3.5-1.5-1.4-2-2.6-4.1-3.8-6.1-2.4-3.7-4.7-7.5-7.1-11.2-5.3-8.3-10.7-16.7-16.3-24.9s-11-16.5-16.5-24.9c-2.5-3.9-5.1-7.7-7.7-11.5-2.1-2.9-7.3-7.2-4.8-10.6 2.3-3.1 7.6-5.7 10.7-8.1 3.8-2.9 7.7-5.8 11.5-8.7 8.2-6.3 16.2-12.8 24.4-19.1 7 12.2 15.1 23.6 23.4 35-7.5 4.8-15 9.3-22.9 13.4-5.8 3-14.7 7.1-18.4 12.8-3.6 5.6-.1 12.1 6.4 12.2 3.9.1 7.7-1 11.5-1.5 2.7-.4 7.7-2.4 10.2-1-4.4 2.8-20.4 11-11.8 18.2 6.2 5.1 16.6-2.4 23.3-.8-2 3.9-4.1 10.1 1.5 12.2 4.7 1.8 10.8-1.5 15.1-3.3 3.1-1.3 6.1-2.6 9.1-3.9 2.4-1.1 5.2-3.3 7.8-3.8 2.8-.5 8.9 7.8 6 9.9M47.2 402.7c4.2-.8 6.3-2.5 7.6 2.6 1.2 4.5 2.3 8.9 3.9 13.4-6.5.6-12.3 3.7-17 8.1-3.4 3.1-10.1 10.6-8.5 15.8 4.1 12.7 24.6-15.8 27-18.9 3 4.4 4.1 10.1 5.6 15.1 1.1 3.5 5 10.3-.2 11.2-7.3 1.2-20.9 3.9-20 14.2 1 12.1 16.5 12.1 25.1 12.6 4.9.3 4.9 4.2 5.6 8.6.3 2 1.3 4.6-.4 6-1.5 1.3-6 1.3-7.9 1.7l-16.8 3.6c-6.4 1.4-9.7-.5-15.7-2.3-2.2-.6-4.4-.4-4.6-2.8-.1-1.5 1.4-3.9 1.9-5.4 1.9-5.9 3.6-12 4.1-18.2.8-9-.2-22.6-11.3-24.4-5.3-.8-6.3-1.1-8.7-6.1-2.6-5.4-6.7-10.3-5.7-16.5.7-4.5-.5-13 2.4-16.7 1.3-1.7 3.9-2.7 5.7-4 2.2-1.6 4.4-3.3 6.5-5.1 1.8-1.5 3.9-4.5 5.9-5.6 2.4-1.3 2.5-.4 4.3 1.7 2.4 3.1 6.5 12.2 11.2 11.4M59 422.8c-1.4 2.9-4.8 5.6-6.9 8.1-2.1 2.5-4.2 5-6.6 7.3-2.6 2.4-12 8.4-9.9.4 1.6-6.2 7.6-11.2 12.9-14.3 1-.7 13-6.5 10.5-1.5m10.3 29.4c.9 4.1 1.4 8.4 2.2 12.6.4 2.1 2.6 7.3 1.7 9.3-1.5 3.5-15.5-.6-18.4-1.8-6.9-2.8-10-10.2-3.7-15.4 2.4-1.9 17.2-8.8 18.2-4.7m9.1 49.8c.8 4 3 7.6-.7 10.6-3.1 2.5-8.2 4.2-12.1 5.1-5.2 1.2-6.9-1.7-9.7-5.5-3-4.1-6.2-8-9.4-11.8 10.3-2.3 20.7-4.6 31-6.9 0 2.8.4 5.7.9 8.5m-24.8 18.4c-5.4-.3-11.2 1.3-16.7 1.8-6.8.5-13.6 1.3-20.5 1.8 1.8-5.6 4.9-10.6 7.4-15.9 2.5-5.3 4.2-5.9 9.9-6.3 5.3-.4 9-2.2 12.9 2.3 4 4.6 7.7 9.7 11.4 14.6-1.3.8-2.8 1.7-4.4 1.7m-38.5 1.1c-1.3 1-5.4-1.8-6.8-2.3-2.7-1-3.3-1.4-4.7-4-1.2-2.3-3.1-4.8-3.5-7.4-.5-3.4 1-7.9 1.6-11.2 1.5 3.5 6.2 3.9 9.5 4.5 2.4.4 9.7-.3 11.5 1.5 2 1.9-1.7 7.3-2.7 9.3-1.2 2.3-2.7 8-4.9 9.6m-2.6 2.8c-1.6.3-6.2 1.9-6.1-1.1.1-3.3 6.4.3 6.1 1.1m-8.2-.2c-.3 2.8-6.3 2.6-6.5.1-.2-4.2 7-4.6 6.5-.1m-6.9-75.9c-1.5 4.4-11 6-14.6 7.3-3.3 1.2-13.2 7-16.6 4.9 11.5-7.9 23.4-15.7 33.1-25.8.4 2.5-.2 4.6-.9 7-.6 2.1-.3 4.7-1 6.6m-2.8 16.1c-1.7 10.8-3.3 21.7-5.5 32.4-4.3-1.3-7.8-4-12.3-4.9-4.1-.8-8.3-.9-12.5-.2-8.8 1.3-16.7 5.7-24.4 9.9-.7-7.4-2.2-15.3-2-22.8.1-6.2 10.7-8 15.5-10.6 2.9-1.5 5.5-3.7 8.8-4.3 3.4-.6 6.7-.5 10-1.6 7.9-2.4 15.4-6.3 23.2-9.2.6 3.9-.3 7.7-.8 11.3m-7.5 45.7c-.4 2.5.1 6.8-1.8 8.7-1.8 1.8-5.5 1.8-7.8 2.3-7.1 1.5-14.1 2.9-21.2 4.4-3.2.7-6.3 1.3-9.5 1.9-1.5.3-5.3 1.7-6.6.5-1.2-1.1-.3-4.8-.2-6.3.1-3.1.3-6.1.1-9.2-.4-5.9 0-8.1 5.4-11.2 5.8-3.2 11.8-5.4 18.4-6.6s12.9-.5 19.2 2c1.8.7 4.4 1.6 5.2 3.5 1.1 2.6-.8 7.4-1.2 10m-7.9 94.8c-2.6 1.6-8.2 1.3-11.2 1.7-4.8.5-9.7.2-14.4-.5-3.6-.6-9-1.3-11.7-3.9-3.9-3.6.6-3.8 3.6-3.5 8.7.7 17.5.2 26.3-.4 1.7-.1 6.3-1.6 7.9-.9 1.9.8 1.3 6.3-.5 7.5m-5 58c-16.2-1.6-25.7-15-31.5-28.8-3.2-7.4-2-15.1-2.3-22.9-.1-1.4-1-5 .5-6 1.4-1 6.9 2.1 8.5 2.5 7.7 1.9 16.3 2.1 24 .2 3.4-.8 5.2-2.3 6.3 1 .9 2.7-.6 7.6-.7 10.4-.3 4.8.4 44.1-4.8 43.6m-32.4 0c-.1-2.4-1.3-26.2-.1-26.2 3.4 7.4 6.9 14 13.2 19.4 3.2 2.8 6.8 5.3 10.8 6.8 1.5.6 10 1 10.4 2.8.7 3.3-5.1 1.9-6.8 1.7-1.4-.2-2.6-.8-4-1-2.6-.5-5 .2-7.6.2-3.9.1-7.8-.3-11.7 0-3.7.3-4.1-.2-4.2-3.7m2.4-106.8c13.9-4.5 25.5 4 32.9 15.2 4.2 6.4 5.1 10.8 4.4 18.3-.3 2.7.2 4.5-2.3 5.6s-8 .3-10.7.4c-7.6.4-15.2.8-22.8.4-5-.3-5.7-1.1-5.6-5.9.1-5.8-.4-11.5-.7-17.3-.4-6.4-2.5-14.3 4.8-16.7m-4.6-8.3c0-4.3-.2-8.6 0-12.9.3-4.2 2.1-4 6-4.7 8.6-1.6 17.2-3.3 25.7-5.4 3.4-.8 7.2-2.4 10.7-2.4 3.7 0 3.5 1.9 3.2 5.1-.5 7.2-1.9 14.3-2.3 21.5-.4 7.7-.7 15.6-.6 23.3 0 2.6.6 4.5-1.6 2.1s-3.3-6.3-5.3-9.1c-4.1-5.6-10.1-10.2-16.9-12.1-3.7-1.1-7.6-1.2-11.4-.5-1.2.2-6.9 3-7.6 2.4-.5-.4.1-7.2.1-7.3M-9.5 695c5.5 4 11.6 7.2 17.8 10 3.5 1.6 17.2 4.8 17.7 8.3.2 1.9-2 4-3.5 4.2-1.9.3-5-1-7-1.2-7-.9-14-.9-20.9-2.8-13.7-3.9-27.9-5-41.7-8.4-3.3-.8-6.6-1.6-9.9-2.3-3.1-.7-4.5-.6-4.7-3.9-.2-7.4 1.9-14.9 1.9-22.4 11.2 1.3 22.4 1.3 33.6 2.3 4.8.4 4.7 1.4 6.8 5.6 2.3 4.3 6 7.8 9.9 10.6M-64 455.8c-.1-2.7-.3-5.5-.5-8.2-.2-1.8-1.8-6.9-.9-8.4 1.1-1.7 2.2-.7 4.2-.7 2.6-.1 4.8-1.1 7-2.5 4.1-2.6 7.2-6.1 9.9-10.1 2.4-3.6 1.9-8.4 1.9-12.7-.1-11 .7-21.7.1-32.8-.3-5.1 4-2 7.5-1.3 5.7 1.1 11.9.3 17.7.3-.2 1.4-12.1 4.7-14 6-4.9 3.3-7.8 8.5-7.3 14.5.9 12 14.1 14 23.8 14-8 7.1-15.9 13.8-22.2 22.6-4.6 6.4-12.8 19.1-5.2 26.3-6.7 3.8-13.4 8-20.9 9.9-.5-5.6-.8-11.3-1.1-16.9m-3.1-219c2.7 1.8 3.9-.7 6-2 2.9-1.8 3.9-1.6 4.3-5.7.7-7.5-2.5-14.3-6.4-20.4-1.8-2.8-3.6-6.1-6.1-8.3-2.3-2-4.7-1.3-6.8-3.4-.8-.8-.7-1.9-2.1-1.9-.9 0-3.1 2.9-3.9 3.5-2.4 2-5.3 3.5-8.5 1.9-4.6-2.4-3.1-11 .4-13.8 2.7-2.2 6-1.8 9.1-2.2 2.3-.3 2.8-.2 1.9-2.8-.7-1.9-2.2-3.3-3-5.2-1.5-3.5-1.2-7.8-1.8-11.5-.6-3.3-1.9-6.9-1.9-10.3.1-4.3 1.5-5.4 5.2-6.6 3.6-1.2 6.6-3.7 9.7-5.9 3.5-2.4 7.3-4.1 10.9-6.3 2.4-1.5 4-4.6 6.7-3.2 3.2 1.7 6.5 6.6 9.2 9.2-3.9 2.5-4.9 3.6-4.3 8.5.5 4.5 1.4 8.5 4.9 11.6 1.3 1.2 3.8 2.2 4.8 3.6 1.2 1.6.4.2.3 2-.1 1-.9 1.6-.7 2.8.8 5.1 6.6 2.1 9 .3 8.5-6.3-7.4-11.3-11.2-13.5-2.6-1.6-3.9-6.6.2-5.3 2.8.9 9 8.4 9.6 1.6 6.8 4 11.1 12.4 16.8 17.8 4.1 3.9 9.7 8.1 6.4 14.3-4.2 7.8-12.5 11.4-20.1 14.8-7.3 3.3-5.8 12.6-1.9 18.2 2.3 3.3 5.2 5.2 8.8 6.8 3.7 1.6 4.4 3.5 5.2 7.3.9 4.2-.1 5.9-3.7 8.1-3.5 2.1-7.3 4.2-11 5.8-8.2 3.6-16.7 3.8-25.4 5-3.1.4-6 1.3-7.6-1.7-2-3.4-2.1-9.3-3-13.1m-1.3-16.3c-2.1-1.1-7 2.5-9.6 2.7-4.2.3-6.9.2-10.7 2.4-7 4.2-12.9 9.6-18.5 15.5-6.4 6.6-12.7 13.3-19 19.9-2.9 3-5.8 6-8.7 8.9-2.3 2.3-4.5 5.6-7.4 7.3.1-2 1.4-3.4 1.8-5.2.3-1.1-.2-2 0-3 .1-.3.9-1.5 1.1-1.9l1.2-3c.4-1 .3-2 .8-3 .4-1 1.6-1.7 2-2.8 1.2-3-.8-4.4-3.9-4.3 1.2-6 1.7-9 8-11.1 6-2 11.9-4.3 17.4-7.5 4.9-2.8 9-6.9 13.7-10 4.2-2.8 9.5-5.8 9.5-11.5 2.4 1.6 4.6 3 7.4 1.4 2.3-1.4 2.6-2.5 5.3-2.7 2.2-.2 3.5-.3 5.5.7 2.3 1.1 2.6 1.9 3.9-1.4 1.5 1.3 5.4 6.6 5.2 8.7-.1 1.2-.2 1.7-1.7 2-1.9.2-1.8-1.3-3.3-2.1M-78 535.6c-1 1.5-5.2 1.2-6.8 1.2-5-.1-6.7-4.2-8.9-8.2-3.4-6.3-8.5-19.5-2.9-26.1 4.4-5.2 13.1 1.4 16.1 5.3 2.6 3.4 1.8 8.6 2.1 12.7.2 3.5 2.4 12.1.4 15.1m-13.5 2.3c-2 2-8.4 1.6-11 2-4.7.8-9.3 1.7-13.9 3.1-3.4 1-6.7 3.8-7.6-.9-.7-4-.4-8.7-.3-12.7.1-4.3.5-8.6.9-12.9.3-2.9-.4-8.2 2-10.5 2-1.9 7-2.1 9.7-2.7 4.4-1 8.9-2.4 13.4-1.9-2.6 7.2-2.9 14.7 0 21.8.8 2 8 13.5 6.8 14.7m-33.3-28.5c-1.1 10.8-2.2 21.6-1.2 32.5.1.6.8 3.6.5 4.1s-3.1.7-3.7.9c-2.5.6-5 1.2-7.4 1.7-4.9 1-5.5-2.1-6.4-6.6-2-9.6 1.9-20.1 4.3-29.4 1.2-4.5 2-5 6.5-5.4 3-.2 7.9-2.4 7.4 2.2m-18.7 40.2c-1.9 1.7-3.7-6.3-3.9-7.1-.6-3.2-.3-6.5-.3-9.8 0-5.1-.4-10.2-.4-15.3 0-2.8-2.1-8.4 1.2-9.8 1-.4 4.8-.2 5.6.3 1.8 1.2 1.1 1.9.6 4-1.2 4.6-2.2 9.1-3.2 13.8-1 4.5-2 8.9-1.5 13.5.1 1.5 3.1 9.3 1.9 10.4m59.2-50.2c4.5-1.3 4.8 2.2 4.8 5.5-.8-.6-7.2-4.9-4.8-5.5m-60.6-243.5c-1.1 1.8-8.1 2.3-10.1 2.8-3.9.9-7.9 1.9-11.8 2.9-7.4 1.8-14.6 3.9-22.1 4.9 4.2-6.6 5.4-12.4 4.7-20.7-1-10.5-2.2-20.8-4.6-31.1-2.4-10.1-5.1-20.2-7.8-30.2-1.3-4.9-2.7-9.8-4.4-14.6-1.4-3.8-3.6-8.7-1.2-12.6 6 4.4 10.8 9.1 14.2 15.7 3.7 7.1 6.8 14.4 11.1 21.2 1.9 3.1 4.2 5.9 6.3 9 1.2 1.8 2.1 4.4 3.7 5.9 1.8 1.7 3.7 2.6 4.8-.4 1.1-3.2-2.4-9.4-3.5-12.3-2.5-7.1-5-14.3-7-21.6-1.6-5.9-4.2-13.1-3.3-19.3s5.1-1.8 7.2 1.1c4.4 5.9 7 12.8 9.9 19.6 2.6 6.2 5.7 12.1 8.7 18.1 1 2.1 2.4 7.5 5 8.1 3.9.9 3.5-4.6 3.2-6.8-2.5-14.7-8.9-28.7-10.2-43.7-.1-.7-1-6.3-.2-6.7 1.4-.9 3.4 4.7 4 6.1 3.2 7.2 5.5 14.7 7.6 22.3 1.8 6.4 3.4 12.9 5.3 19.3 1.1 3.5 2.3 7 3.6 10.4 1.1 3.1 2.2 8.5 5.1 10.6 4.1 2.9 18.8-4 20.3 2.2 1.1 4.4-12.6 8-15.5 9.3-3.8 1.8-7.6 3.7-11.4 5.5-2.9 1.3-7.1 1.9-9.2 4.4-2.2 2.7-2.6 6.4-2.6 9.7-.2 2.5 1.6 8.7.2 10.9m-9.3 48.3c-.2 1.4-1.3 3.2-1.8 4.6-1 2.7-1.9 5.9-3.3 8.4-1.2 2.2-3 4.1-4.2 6.3-1.1 2.1-1.3 4.5-2.6 6.6-1.5 2.4-3.9 4.1-5.4 6.5-.7 1.2-1.5 2.5-2.5 3.8-3.6 4.4-7.2 8.6-10.2 13.3-.7 1.2-4.4 6.5-5.9 6.8-3 .6.5-3.7 1.1-4.6 4.3-6.5 8.1-13.3 12.3-19.8 4-6.4 8.1-12.7 12-19.1 3.2-5.3 5.3-12.8 10.5-16.5.2 1.2.2 2.5 0 3.7m140.5-59.4c2.5 10.3 5.5 20.3 8.3 30.5 2.6 9.5 6.1 19.6 7.2 29.3 1.1 9.7 3.5 19.4 6.9 28.6 1.5 4.2 3.1 8.5 4.8 12.7.9 2.3 1.9 4.6 3 6.8.8 1.7 2.9 4.6 3 6.4.1 1.5.6.9-.9 2-1.5 1.2-4.1.7-5.9.9-4.6.5-9.1 2.3-13.6 3.4-8.7 2.2-19 3.9-27.8 2.4-3.7-.6-7.6-1.2-11.3-2-4.5-1-5.5-2.9-6.4-7.4-2-9.8-3.8-19.5-5.5-29.3-2-11.7-4.2-23.4-5.7-35.1-1.6-11.9-2.7-23.8-5.1-35.6 9.9 1.6 19.1 3.5 29 .8 8.7-2.3 15-7 20-14.4m38.6 127.4c2.2 4.5-3.1 8.6-5.7 12.1-3.4 4.6-6.6 9.4-10.5 13.6-1.2-4.7-2.2-10.1-5.4-14-4-5-8.7-2.9-13.7-5.3 5.2-2.5 11.8-1.6 17.3-3.8 5.4-2.2 10.9-4 16-6.8.7 1.4 1.3 2.8 2 4.2m-19.2 106c-3.3.2-1.1-6.8-.9-8.5.6-4.8 1.2-9.5 1.7-14.3 2.7 7.2 5.5 14.4 8.2 21.6-3 .3-6 1-9 1.2M.3 512.7c.5 1 2.6 4.4.9 5-2.3.8-2.6-4.7-.9-5m-4-77.7c-10.6 8.4-21 16.9-32.5 24.1-2.5 1.6-5 2.3-6.7-.9-1.3-2.5.1-5.3.9-7.7 2.1-6.2 5.8-11.6 10-16.6 8.2-10.1 18-18.7 30.5-22.6 2-.6 5.2-2.6 5.9.1.4 1.6-1.4 5.6-1.7 7.1-1.4 6.2-1.1 12.3-6.4 16.5m30.4 61.5c.2 7.2-19.3 1.4-21.8.1 2.6-.8 21.7-3.3 21.8-.1m7.3.1c1.2.3 5.6.7 4 2.2-1.5 1.4-8.2.8-10 1 1.1-4 2-4.3 6-3.2m-3.6-9.6c-.4 1.6-.6 4-2 5.1-1.8 1.4-5.6.5-7.6.5-3.4 0-6.8.2-10.2.5-1.3.1-6.6 1.7-7.8.6-.9-.8-.6-4.5.1-5.4 1.3-1.7 4.4-1.1 6.4-1.2 7-.1 14-.1 21.1-.1m-4.6-26.5c-1-1.5-1.2-1.5-1.6-3.7-.5-2.4-1.6-4.5-2.3-6.8-1.5-5.1 3.3-4.6 6.8-2.8 9.1 4.9 6.9 21.8 4.7 29.8-3.3-2.4-4.5-3.5-5.6-7.4-.4-1.5-.9-2.9-1.4-4.4-.3-1.1-.1-3.9-.6-4.7m.8-82.5c2.5-.3 4.9 7.6 4.1 9.3-1.5 3.5-7.2 6.6-10.1 8.8-1.9 1.5-3.8 3.2-5.9 4.5-1.9 1.2-3 .5-4.8 1.1-2.6.8-3.2 3.6-5.8 4.7C.4 408-4.1 408.5-8 410c-4.7 1.8-9 1.9-13.9 1-7.1-1.2-15.4-4.7-14.7-13.3 1.1-15.2 31.3-23 39.5-10.1C5 391 5 394.9 6.4 398.5c1.5 3.9 3 2.4 5.2-.5 3-3.8 5.7-7.7 8.6-11.6.9-1.3 4.6-8.2 6.4-8.4m-184.8 147.8c-.1 2.6 0 5.2-.9 7.7s-2.7 4.5-3.8 6.9c-2.1 4.9-2.1 10.8-2 16.1.2 12.2 3.1 24 4.6 36.1-5.1 0-10.3 0-15.3-1.4-4.4-1.3-5.1-4.5-6.4-8.6-3.5-11.4-7.3-22.7-8.4-34.7-.5-5.7-.8-11.4-1-17.1-.2-5 .9-7.2 5.4-9.7 9.8-5.4 20-9.9 29.7-15.5-.9 6.7-1.5 13.4-1.9 20.2m419-399.7c-2.4-.4-4.8-.7-7.2-1-1.3-.2-5.2.1-6.1-.8-1.1-1 .8-8.4.9-9.9.6-9.5-.1-19.3-1-28.8-1.6-17.2-7-33.1-19.4-45.5-6.2-6.2-13.2-11-21.6-13.4-4.9-1.4-10-2.1-15-3.4-4-1.1-7.7-2.3-11.9-2.7-8.3-.9-15.8-4-23.9-5.8-5.9-1.3-15.5-4.5-19.3 2.2-3-3.6-6.1-6.2-9.9-8.9-3.7-2.5-4.3-5.1-8.7-2.1-8.7 5.7-16.9 12.6-25 19.1-7.6 6.1-14.9 12.4-22.9 18-8.1 5.7-6.6 15.3-2.8 23.3 7.2 15 18.3 27.9 28 40.8 6.1 8.1 12.2 16.2 18.2 24.2 5.8 7.7 10.8 16.7 17.5 23.6 4.3 4.4 9.3-1.3 13.2-4 4.8-3.3 9.5-6.7 14.2-10 10-6.8 20.6-13.2 31.1-19.2.8 2.2 1.5 4.3 2.3 6.5-2.3.2-5.4-.3-6.6 2.1-1.7 3.5 2.4 4 3.2 6 .6 1.8-2 6.6-2.8 8.2-1.8 3.7-4.2 6.9-6.9 9.9-10.7 12-24.2 20.6-38 28.8-14.7 8.8-30.5 14.1-46.6 19.7-8.2 2.9-16.7 4.2-25.1 6-8.1 1.8-16.3 4.1-24.6 4.8-17 1.4-35.1 2.4-51.9-1.3-1.8-.4-3.8-1.3-5.7-1.4-1.5-.1-2.6.5-4 .6-3 .2-4.8-2.5-7.2 0-1.2 1.3-1.2 3.4-2.9 1-2.1-3 3.3-3.6 5.4-4.4 6.8-2.9 12.3-8.7 16.7-14.5 4.3-5.9 5-12.1 2.3-19-2.6-6.9-8.6-11.5-13.2-17.1-2.2-2.7-4.2-5.5-6.6-8.1-1.3-1.3-3.3-2.6-3.4-4-.1-1.6.8-2.4.3-4.3-.1-.5-.8-.8-.9-1.3-.2-.9.1-1.6 0-2.5-.3-1.9-1-3.2-2.1-4.8-.7-1-1.7-3-2.6-3.7-1.6-1.3-3.8-.8-5.5-2.1-2.6-2.1-3.5-6.5-5.8-9.1-3.3-3.6-3.9 0-7.4-1.1-2.9-1-2.9-5.4-5.3-6.9-3.4-2.1-6.2 1.8-9.2 2.6-3.9 1.1-2.4-3.3-5.9-3.7-3.2-.4-7.5 6-9.1 8.3-1.6-1.9-3.4-5.1-6.2-3.9-3 1.2-3.6 6.8-5.8 8.8-.8.7-.6 1.2-1.6 1.5-1.2.4-2.9-1.4-4.4-.8-3.2 1.1-2.8 5.4-2.8 8.1-3.8-.6-6.4-.8-7.7 3.2-1.2 4-1.7 2.2-5.7 3.5-3.4 1.1-3.9 4.4-4.5 7.6-.3 2 0 2.8.5 4.6.7 2.3.7 2.2-.4 4.4-1.9 3.8-2 8-2.3 12.1-.3 4.4-1.1 8.5.2 12.8.8 2.7.8 6.3 3.5 7.9 1 .6 2.8.3 3.7.9 1.7 1.1 1.2 2.8 2.3 4.5.8 1.2 2.2 1.4 3.2 2.4 1 1.1 1.1 2.4 1.7 3.7 1.7 3.9 3.4 5.8-2.3 6.1-3.5.1-7.2 1.2-10.7.9-4.1-.4-5.1-2.7-6.4-6.2-6.6-17.6-10.1-36.7-18.8-53.5-1.9-3.7-9.7-18.7-13-7.8-2.8 9.2.9 20.5 2.3 29.7-4.4-4-6-11.1-9.4-16-2.5-3.6-10.2-12.4-14.7-7.3-3.6 4-2.7 12.4-2 17.1 1 7.5 3.4 14.7 5.2 22.1-2.2-2.8-3.2-6.3-4.7-9.4-1.9-4-4.2-7.8-6.9-11.3-2.3-3.1-4.9-5.9-7.8-8.5-2.2-2-6-6.4-9.1-6.6-7.9-.6-5.4 13.9-4.2 18 2.5 8.6 5.2 16.9 7.1 25.7 3.8 17.1 8.4 33.8 11.2 51.2.6 3.8 1.4 6.9-.2 10.6-1.3 3.3-2.7 7.1-5.2 9.6-5.6 5.7-10.2 11.7-14.4 18.5-4.5 7.3-9.1 14.7-12.7 22.5-1.7 3.6-3.1 7.4-5 10.9-1.7 3.1-3.8 5.6-5.1 9-5.9 16.4-10.3 32.5-12.3 49.9-1.6 14.3-.1 33.2 17.1 36.6 7.9 1.5 15-2 22.1-4.9 7.4-3 12.7-7.9 18.7-13 7.5-6.4 15.2-12.5 22.8-18.8s14.5-13.3 22.1-19.7c7.4-6.3 14.1-13 20.6-20.4 6.4-7.3 11.5-15.3 17.7-22.7 0 9.5-1.4 19-1.8 28.5-.4 8.7-.4 17.5 0 26.2s-2 17-2 25.8c0 8.5-.4 17-.5 25.4-.1 3.8-.8 8.1.6 11.8 1.1 2.7 4.4 3.6 7.3 4.3 4.4 1.1 17.7-1.1 19.6 3.6 1.1 2.6 0 7.2.1 10.1.1 4.7.3 9.3.5 14 .2 4.8.3 9.7.5 14.5.2 4.3 1 9 .5 13.2-.4 3.6-2.5 3.1-5.9 3.3-5 .3-10.1.5-15.1.7-7.4.3-15.1.2-22.2 1-3 .4-6.2.2-9.4.8-3.9.7-7.6.9-11.6 1.1-3.2.2-7.4-.1-9.9 2.3-.9.8-1.1 1.8-1.7 2.7-1.2 1.7-.5 1.3-2.4 1.7-7.5 1.5-14.5 3.2-21.8 5.8-3.7 1.3-7 3-10.7 4.2-3.2 1-5.6 2.3-7.2 5.5-2.8 5.6-2.1 13.8-1.9 19.9.3 9.5 2.4 18.5 4.7 27.7 2.4 9.5 4.2 19.3 8.8 28.1 1.5 2.9 3.1 6.6 6.2 8.1 4 1.9 10.1.8 14.5.8 2.9 0 10.7 1 12.9-1.4 2.1-2.4 0-9.1-.3-12-1-10.3-2.9-20.7-2.9-31.1 2.4 3.5 6.5 9.6 10.6 4.2 1-1.3.6-1.9 2.4-2.7 1-.4 3.1-.7 4.2-.6 1.5.1 2 .7 3.4.4 1.2-.3 2.6-1.3 3.9-1.7 17.1-4.1 34.1-8.4 51.3-12.1 4.5-1 3.9 2.5 4.2 6.5.3 4.3-.3 8.7.3 13 .5 3.7.9 7.4.2 11.1-.9 4.4-.3 8.1.6 12.5 3.3 16.9 2.7 35.3 3.5 52.5.4 9-.4 18.1.4 27 .3 3.4 2.2 5.2 3 8.3.9 3.5-1.5 8-2.2 11.4-1.5 6.8-4 16.6.7 22.6 2.5 3.2 5.8 3.7 9.6 4.8 4.5 1.3 8.9 2.8 13.4 4 16.4 4.5 34.2 5.4 51.1 7.9 4.1.6 8 .5 12.1.3 2.6-.2 8.9.7 11-.9 1.1-.8.6-1.8 1.1-2.8.8-1.4 1.8-2 3.2-2.9 2.3-1.5 5-2.3 5.4-5.4 1-7.4-8.3-11.3-13.3-14.6-6.3-4.1-14-5.7-20.7-9-3.7-1.8-7.3-3.9-10.9-6-1.5-.9-4.7-1.9-5.8-3.4s0-3.5.4-5.6c1.9-8.6 1.2-17.4 2.2-26.1 1-8.7.7-17.5 1-26.3.3-9 1.1-18 1.6-27 .5-8.3 1.1-16.8 1.1-25.1.1-7.7 1.1-15.3 1.4-23.1.1-2.6-.4-7.4 1.4-9.7 1.5-2 6.6-1.7 9-2.1 6.4-.9 12.5-1.7 18.8-2.3 15.1-1.3 31.8-2.3 46-7.6 5.9-2.2 13.7-5.1 15.6-11.9 2.2-7.7-.7-17.3-.8-25.2-.1-8.5-2.6-16.7-4.4-24.9-2-8.8-3.2-17.8-5.4-26.6-2-8.1-5.1-15.2-8.2-22.9-1.2-3.1-8.2-13.8-6-16.4 1.2-1.4 5.3-1.8 7-2.4 3.7-1.4 7.3-3 10.7-5 4.5-2.7 14.4-7.1 14.8-13 .4-5.7-5.1-11.4-8-15.8-4.6-7.2-10.3-13.4-14.6-20.7-8.8-14.8-15.7-30.9-22.1-46.8-3.3-8.3-4.4-16.2-5-25 9.7 0 19.6 1.2 29.2-.1 10.5-1.5 21-4 31.4-6 18.9-3.7 37.1-8 54.7-16.4 16.4-7.9 33.1-16.5 46.7-29 7-6.5 14.2-13 20.3-20.4 6.2-7.6 10.9-16.2 15.8-24.7 5.3-9.4 9.5-19.3 12.9-29.6.7-2.1.7-4.7 1.5-6.7 1-2.2 2.7-2.3 4.6-3.4 2.6-1.4 4.3-6.9-.2-7.7"/><path class="st1" d="M34.9 20.8c2.2 1.9 11.8 8.6 14.9 7 3.8-2-2.2-8.1-3.8-9.6-2.1-1.9-9.5-7.7-12.3-7.1-5.7 1-.8 7.9 1.2 9.7m4.7 68.9c1.3-2.5 4.6-3.4 6.1-5.8 1.9-2.9 2.7-5.4 2-8.9-4.7 1.6-10.1 6.4-13.3 10.2-2.6 3.2-6.4 9.8.5 9.8-.1-.9-.1-1.9-.2-2.8 2.1.3 4-.7 4.9-2.5M17 48.6c3.1.9 5.6.8 8.7.8 2.3.1 5.4 1.3 7.2-.1-1.6-.9.4-1 0-1.9-.3-.8-1-.5-1.5-1.1-1.9-2.2-3.5-2.2-6.5-2.6-2.3-.4-5.7-1.2-7.9 0-2.2 1.1-3.1 4 0 4.9m43.6 68c2-1.7 4.1-6.5 4.5-8.9.2-1-.5-1.7-.5-2.4.2-1.4 3-4 0-5.1-2.6-1-5 6.6-5.6 8.3-.7 1.7-2.5 5-1.9 6.6.5 1.3 2.1 2.6 3.5 1.5M84.2 13.7c1.8-1.7 3-3.6 2.8-5.9-.1-1.8-1.5-8-3-7.8-5.1.6-2.8 16.5.2 13.7M-22.1 291.2c-.4-1.5-1.9-10.8-4.5-10.2-2 .5.1 8.6.2 9.7.2 2.2-4.1 2.2-6.1 1.9-3.2-.5-2.9-2.3-3.4-5.2-.2-1.1-.9-6-3.2-4.2-1.5 1.2-.4 7.3-.3 8.7.4 4.8 1 13 3.8 17.4 1.1 1.7 2.2 2.6 3.4.4 1.2-2.3-1.5-9.2-2-11.5 2.3.2 8.8-.5 10.2 1.8 1.2 2.1-.7 8.3 3.3 8.8 2.4.3 1.9-2.5 1.7-4.6-.7-4.4-2-8.7-3.1-13m6-2.1c-2.6 1.2.7 18.5 4.5 17.9 4.5-.7-2-19.1-4.5-17.9m-2.9-5.8c-.3 3.9 4.7 5.3 5 1.1.2-3.2-4.6-5.2-5-1.1M-46.8 180c2.3 8.6 23.4 12.3 20.5.7-1.4-5.8-7.3-.6-11.5-1.3-2.6-.5-10.6-5.5-9 .6m-5.3-15.4c1-4.6-9.1-9.7-12.8-8.4-5.4 1.9-5.3 13.7-1.2 16.9.5.4 2.2 1.4 3 .6 1.3-1.2-.1-.9-.4-2.2-.5-2-2-4.5-.5-6.8 2.9-4.2 10.5 6.5 11.9-.1M-82.8 187c-3.6-.2-6.6 5.4-1.3 5 1-.1 3.2-.3 3.8-1.4 1-1.8-.9-3.5-2.5-3.6M93.6 52.5c-1.2-1.8-3.9-4.7-6.1-2.9-2 1.6-1.6 5.6-.9 7.5 2.1 5.3 6.9 10 12.4 7-1.9-3.9-3-8.1-5.4-11.6"/></g></svg>