<svg version="1.1" id="Layer_1" xmlns="http://www.w3.org/2000/svg" x="0" y="0" viewBox="0 0 1024 1006.6" xml:space="preserve"><style>.st1{fill-rule:evenodd;clip-rule:evenodd}.st1,.st2{fill:#fff}</style><path id="Accent" d="M357.6 364.3c3.1 31.7 6.3 63.4 9.4 95.1 17.1-9.8 34.2-19.5 51.3-29.3v91.2c0 1.7-1 7.4 0 8.9.8 1.2 7.1 1.3 8.6 1.5 9.7 1.4 19.4 2.6 29.1 3.6 25.6 2.8 52.9 6.9 78.6 3.6 22.3-2.8 43.9-10.8 64.3-20 7.2-3.2 14.2-6.7 21.1-10.4 1.5-.8 6.8-2.6 7.6-4.2.7-1.3-.9-5.9-1.1-7.3-.9-5.8-1.7-11.6-2.6-17.4l-12-80.9 22.7 22.7c1.8 1.8 5.2 6.8 7.6 7.6 1.8.6 6.3-1.2 8.1-1.6 12.9-2.5 25.7-5 38.6-7.4 3-.6 9.8-.6 12.3-2.4 1.4-1 1.4-3 1.9-4.8 3.1-12.3 6.3-24.6 9.4-36.9.6-2.2 3.7-9.2 2.9-11.4-.3-.8-1.7-1.3-2.5-1.9-19.4-11.9-38.8-23.7-58.3-35.6-10.6-6.5-21.3-13-31.9-19.5-4.5-2.7-9.9-7.6-15-9.2-3.1-.9-7.7-.2-10.9-.3l-19.8-.6c-1 0-4.6-.8-5.5-.2-.7.5-.4 1.2-.7 2.4-.6 2.9-.6 6.1-.9 9.1-.2 2.4.2 6.8-.9 9-.7 1.4.2.8-.7 1.5-1.1.8-4.7.5-6 .7-6.5.8-12.9 1.5-19.4 2.3-7.7.9-15.4 2.6-23.2 1.8-11.7-1.2-24.3-1.1-35.8-3.6-3-.6-4.1-2.3-6.4-4.6-4.5-4.5-8.9-9-13.5-13.5-2.2-2.2-1.3-1.8-3.6-1-2.9 1-5.8 3.5-8.4 5.1-10 6.1-20 12.2-29.9 18.2L361.4 362c-1.3.7-2.6 1.5-3.8 2.3" fill-rule="evenodd" clip-rule="evenodd" fill="#893168"/><g id="Ink" transform="translate(81 52.973)"><path id="ink-shape" class="st1" d="M859.2 315.3c-12.6 47.7-37.8 99.7-88.7 114.8-12.4 3.7-24.4 6.5-37.3 5.1-1.2-.1-2.2 0-3.4.1-2.1 0-.3.8-2.6.1-1.8-.6-3.5-2-5.4-2.6-5-1.7-10.4-2-15.6-3.3-12.6-3.3-25.6-7.3-37.8-11.9-5.8-2.1-11-5.1-16.4-7.9-5.5-2.9-11.3-4.7-16.9-7.4-4.4-2.1-11.9-4.8-15-8.8-3.3-4.2 1.3-13.2 2.6-17.6 4.4-15.2 9.7-30.2 13-45.7 11.5 13.3 27.5 21.6 44 26.9 9 2.9 18.2 5 27.5 6.3 8.5 1.2 17.6 2.6 26.1.9 6.4-1.3 14.4-4.2 19-9.1 1.6-1.7 3.6-4.9 2.7-7.5-1.2-3.2-4.5-1.7-6.4-4.1-1.6-2.1-1.3-7-1.9-9.5-.9-4.5-2.1-8.9-3.6-13.2-2.9-8.4-6.6-16.9-7.4-25.8-.8-7.8 1-15.1 4.9-21.9 1.8-3.2 6.4-11.9 10.9-11.5 4.9.4-1.7 21.2-1.9 25.4-.9 16.8 1.4 34.8 10 49.5 3.3 5.6 8.1 12.2 15.1 12.9 7.5.7 13.5-5.1 17.1-11.1 8.7-14.5 4.3-34.4-.1-49.7-5.4-18.7-19.5-31.5-28.4-48.3 13.3 1.3 20.4 9.8 27.2 20.5 7.5 11.8 13.4 26 16.2 39.7 1.5 6.9.5 13.9.5 20.9 0 2.3 0 10.9 3.8 10.6 4.1-.4 5.4-10 6-13 1.4-6.8 2.8-13.5 4-20.4 2.1-12 3-24.4 5.5-36.3.4-2 1.3-7.6 4.3-6.1 2.3 1.2 2 9.8 2 11.9.2 5 .5 9.9.5 14.9.1 7.4-1.4 15-.7 22.3.5 4.8 3 10.1 6.2 3.6 3.2-6.4 3.8-14.4 5.6-21.3 1.9-7.2 3.8-14.6 7.7-21 1.1-1.8 2.3-4.6 4.7-3.8 1.8.6 3.1 4.8 3.6 6.2 2.5 6.6 2 14 1.9 21 0 8.5-1 16.9-3.1 25.2zm-244.9 12.3c-.7-.2-3.5-.5-4.2-.5-.8-.1.1-1.6-1.9-1.2.4 1 1.1 1.6 2.1 1.9-3 1-5.2-1.5-7.3-1.8-2-.3-2.1 0-4 2.1-2.1-2.6-1.7-1-3.4-1-.6 0-.7 1-1.7.8-.9-.1-1-1.5-1.5-1.6-2.9-.9-5.8 3.5-9.1-.3-.8 4-9.9-1-13.3-.3-3.7.7-2.1 2-5-.2-2.8-2.1-2-.7-5.3 1 .1 0-1.8 1.3-1.7 1.3-2.3-.3-2.1-2.6-5-2.5-3 .1-4.3 2.5-7.1-.4-.6 2.2-.7 1.2-2.2 1.8-.8.2-1.5 0-2.1-.6-.2.6-.6 1-1.2 1.1-1.6.1-4.5.4-5.9-.4-2.1-1.1-.4-1.6-1.9-2.8-.7 3.5-2.1 2.7-5.1 3.1-2.3.2-2.8-.5-5-.8s-5 .5-7.1.9c-.9.1-2.1.8-2.9.5-.8-.2-1.2-.8-1.6-1-.6-.2-.5-.7-1.5-1-.7-.2-1.9.5-2.6.6-5 .8-9.7.8-14.4-1.1 2.3 4.1-5.4 1.9-6.8.2-1.7 2.7-3.8.8-7.3 1-3.4.2-8.4 1.2-9.8-3-.3.9-2.2 3.3-2.9 3.7-2.2 1.1-2.5-.5-4.5-1.2-2.8-.9-2.2.8-3.9 1.1-2.9.6-4.5-1.5-7.1-2.6-.1 1.7-.2 2.7-1.6 3.8-1.3-4.7-5.9.4-5.1-5.9-1.8 1.1-4.3 2-4.8 4.4 3-.8.3 1.1.2 1.2-.4.2-1.7-1.6-2-1.9-.1.9-.2 1.7-.2 2.6-1.2-.6-2.3-1.6-3.2-2.2-.9-.5.4-1.5-1.1-1.5-.8 0-1.6 1.6-2.4 1.8-1.2.2-.6-1.5-1.2-1.5-.8.1-2.1 1.2-2.7 1.2-1.9-.1-.6-1-2.1-1.4-2.7-.7-2.5 1-4.4 1.6-4.4 1.4-3.9-5.2-8.4-.8-1.1 1.1-1.7 2.7-3.2 2.6-3-.2-2-3.8-1.3-5.5.6.3-11 6.3-10.9 6.1.1-1.4 1.9-2.5.3-3.8-1.3 2.9-2.7 2.9-5.8 3.5-1.5.3-1.8.6-3.4 0-1-.4-1.7-2-2.7-2.1.1 0-1.7 1.4-2 1.6-1.7.8-2.7-.1-4.4.2-1.4.3-1.9 1.5-3.3 1.1-1.9-.4-.8-2.6-3.3-2-.9.2-1.4 1.9-2.8 2.2-2.1.5-4.8-.5-7 .1-1.8.4-3.1.6-4.7.7-1.3.1-.7-.9-3.1.2l-1-2.5c-1.2 1.1-2.3 2.1-3.5 3.2-.2-.9-.4-1.9-.4-2.9-1.7 1.7-3.9 2-6.3 2.2-2.5.2-4.4.7-6.9 1.2-.8.1-2.8.4-3.4.1.1 0-1.2-.5-.8-.4-.2-.3-.3-.7-.5-1-.2-1-.9-1-2.1-.1-.6-.1-1.8-.9-2.4-.7-1.6.5-1.4 1.8-3 1.6-1-.1-1.6-1.6-2.6-1.7-1.6-.2-3.1 1.7-4.5 2.1 4.5-1.2-5.8-.3-2.6-.2-2.1-.1-4.3-.2-6.2.8-1.1-.7.2-2.2-.9-2.8-1-.6-1.1.9-1.2.9.6-.2.3 1.1-.3 1.3-1.9.7-3.5-1.1-3.6-2.8-1.6 2.5-2.1 1.5-4.5 1.6-2.4.2-4.4 1.4-6.8 1.4-4.7 0-7.9-1.7-9.5-5.9 5 .6 10.1-2.6 15-1.9 1.6.3 2.6 1.5 4 1.2 1.7-.3 3-2.2 5.2-2.4 4.9-.5 9.8 0 14.8-.8 5.9-.9 12.1-1.4 18.1-1 4.6.3 8.4-1.4 13.1-1.8 6.1-.4 12.2-.5 18.3-.8 6.2-.3 13-1.3 19.2-1 1.9.1 3.6.3 5.5.2.8 0 1.6-.6 2.4-.5 1.1.1 1.6 1.2 2.8 1.2 2-.1 4.1-1.7 6.4-1.7 3.8-.1 7.7-.1 11.5-.3 3.4-.2 7-1 10.4-.9 2.4 0 3 2.1 4.4 2.3 2.5.4 15.1-6.8 16.2-.4 6.6-4.5 15.4-.7 22.7-1.5 9.4-1.1 19-.1 28.4-.5 9.6-.4 19.5 0 29.1.9 4 .4 7.8.7 11.8.5 1.8-.1 3.8-.6 5.6-.1.4.1 3.7 2.4 3.3 2.5 1.8-1.6.6-1.9 3.7-1.9 2.4-.1 4.7.5 7.2.6 4.4.3 8.7-.3 13.1-.2 3.6.1 7.2.6 10.8.7 3.9 0 8.6.1 11.4 3.3l-.9-3c4.4.3 8.7 1.9 13.2 1.2-1.1 1.1-2.3 2-2.7 3.5 2.4-.3 4-2 6.5-2 2.1 0 2.6 1 4.8-.3.3 1.7.5 3.4.8 5 3.1-.7 1.1-3 1.3-5.1 2.5.8 4.6-.1 3.7 3.5-1.2 2.5-4.7 3.9-7.3 3zm-4.3 31.1c-1.1 3-10.4 1.3-12.6 1-2.9-.4-6.1-1.1-8.7-1.4-.3-.4-.7-.8-1.1-1.1-.3.5-.7.8-1.3 1-1.2.3-1.2 1.5-2.8 1.2-.1 1.8 1.2.8 2.2 1.5-2.5 1.7-1.3-.3-2.7-.2-.3-.5-.8-.7-1.4-.6-.8.2-1.5.5-2.2 1-.6.7-1.1.7-1.6.1-.4-.4-.9-.7-1.5-.8-2.4.4-3.1 1.5-5.9 1.3-3.9-.3-8.1.8-12 .2-2.4-.3-6.4-4.1-7.5-.4-1.7-2.7-4.3-4.6-5.9-7.3 7.4-.4 14.7-.9 22.1-1.2 6.5-.2 13.5.5 19.5.2 5.6-.3 11.6-.9 17.4-1.4 6.1-.6 8.2.7 6 6.9zm-192.1.4c2.7.7 5.2-.9 7.8-.4.9.2 2.6 1.7 3 1.8.7.1 2.8-1.5 3.7-1.7 5.7-1.3 12.6-1.2 18.3-.4 3 .4 3.5-1 6.1-1.6 2.7-.7 6.6-.2 9.5-.4 6.8-.5 13.6-.1 20.3-.6 6.9-.5 13.8-.8 20.7-1.1 4.7-.2 16-2.9 19.9.6 3.2 2.9-.9 7.9-4.1 9-2.4.9-3.6-.9-5.3-.8-2 .2-1.3 2.6-3.1.4-1.1 2.2-8.2 1.3-10.2 1.4-4.4.3-8.2 1.2-11.2-2.9l.6 3.6c-4-2.1-8.3-1.4-11.7-.7-1.7.4-7 2.9-8.8 1.8-1.3-.8 1-2-1.2-2.7-1.1-.3-3.1 1.5-4.5 1.4-3.8-.3-2.7-2.8-6.5.4-1.3-1.1-1.7-3-1.5-4.6-2.7 2.3-2.5 6.2-7.4 5.5-1.8-.3-2.2-2.1-3.1-2.5-2-.7-2.2.6-4 1.6-.7.4-1.5 1-2.2 1.1-1.6.2-1.8-.6-2.1-.5-1.1.1-2.4.7-3.7.3-1.1-.3-1.5-2.3-3.5-1.9-1.9.4-1.9 1.7-1.6 3.7-1.9-.2-3-1.2-4.4-2.4-1.4 3.3-4.4.6-6.1 3.4-2.2-2.6-3.5-1.9-6.2-4.4.1 1 .3 2.1.4 3.1-2.1-.4-3-1.9-4.8.1-1.7-3.2-7 1.4-9.7-1.7-1.2 3.9-9.1 3-12.5 3.1-3 .1-5.2-.2-8.1.5-2.6.6-6.1 1.2-8.5 1-1.6-.2-3.3-.5-5.3-.3-2.8.3-5.3 1.8-8.2 1.1-4.4-1-7.1-6.8-2.2-9.4 3.4-1.7 9.4-1.1 13.1-1.4 6.1-.5 13-1.7 19.2-1.1 4.8.4 9.2-.7 14-1.2 3.7-.4 9.7-1 12.1 2.6 1.2-1.1 1.1-3.3 3-2.8zm-67.1 50c-.7-3.3 27.4-5.1 30.2-5.3 5.8-.5 11.7-.8 17.6-.9 4.8-.1 9.3.8 14.1.1 4.5-.7 9.9-2.1 13.8 1.1.6-4.4 17.5-2.2 20.7-2.2 14 .1 27.4.1 40.9-.8 7.7-.5 15.9-1.2 23.7-.8 3.5.2 6.3 1.1 9.8.3 2.3-.5 4.7-1.6 6.9-.1 2.5 1.8 3.6 8 1.9 10.5-1.3 1.9-2.4 1.7-4.4 1.3-3.1-.5-5.4-1.2-8.6.1.5-.2-2.1.4-1.9.4-3.6.3-8.5 2.8-11.6-.1 1.2.2 3.1-2 1.5-2.2-1.2-.1-1.9 1.1-2.8 1.5-3.1 1.4-4.8 1-6.6-2-3.8 3.3-4.2 2.4-5.9-1.7-1.3 1-1.6 3.3-2.6 4.1-.1.1.5 1.5-.3 1.5-.7-.1-.9-1.2-1.4-1.2-.3-.1-.5-1-.8-1.1s-.7.6-1.1.5c-1 0-4 2.2-2.9-.9-1.6 2-2.3.7-2.8-1.1-1.8 1.4-3.6 2.8-5.5 4.1-.8-2.4-2.3-1.7-4.1-.9.6-1.6.2-3.2-1.2-2-.8.7-1.3 2.7-2.2 3.6-3.3-3.4-4.5-2.4-9.1-2-1.8.2-3.9.5-5.5-.6-1.4-.9-2.2-4.3-4.5-1.6.5-.6-.3 4.1-.4 4.8-1-.7-1.9-1.6-2.6-2.6-1.4 2.7-4.9.3-7.8.8-4.6.9-9.3 2.3-13.4-1.1-.3 1.1-3.6 2.5-3.6 2.5.2-2 1.4-1.3-1.1-1.6-.5-.1-1 .8-1.4.9-1.5.3-3.3 0-4.8 0-6.3-.2-12 1.2-18.2 1.7-2.1.2-4.6.5-6.5-.3-2-.8-2-1.7-4-1.2.6-.2-1.3 1.9-1.2 1.8-.3.2-1.4-.8-1.8-.7-.1.4-.2.9-.4 1.3-.5-.1-1-.1-1.5-.2-1.3.2-2.6-1.2-3.8-1.2.2 0-3.4 1.4-3.3 1.5-2.6-1.3-1.8-.9-5.1-.1-3.1.7-6.1.6-9.2 1-9.5 1.2-4.1-3.3-5.2-8.9zm-8.1 45.6c-1.7-2.4 2.9-3.3 4.3-3.5 2.4-.4 5.6.3 7.2 0 2.4-.6 4.8-2 7.5-2.3 3.5-.5 6.9-.5 10.4-.8 1.2-.1 2.6-.5 3.7-.4 1.7.1 2.4 1 3.7 1 2.3 0 5.2-1.4 7.5-1.7 3-.3 6.1-.5 9.1-.7 6.4-.3 12.7-.2 19.2-.2 2.9 0 10.7-3 12.2.4 2-2.6 7.2-2.2 10.1-2.3 5.1-.1 10.1-.6 15.2-.9 4.4-.2 9.2.7 13.5.1 2.4-.4 3.1-1.1 5.8-.8 2 .3 5-.8 6.7-.3-.1 0 2.1 1.4 1.4 1.4.8 0 .7.5 1.6.2 1.1-.3.6-1.7 2.9-2.2 3.6-.8 8.3.1 12-.1 3.6-.2 7.2-.3 10.8-.3 1.7 0 3.7-.4 5.3-.1.8.2 2.5 1.2 3.1 1.1 1.9-.3 2.9-1.6 5.4-1.5 2.9.1 5.5.1 8.4-.2 2.8-.2 3.3-.6 4.6 1.7 1.4 2.3 1.8 5.3-.8 6.9 1.6-.1 3.7 2.1 1.7 3.3-1.2.8-3.6-.9-5-.8-1.8.2-3.2 1.1-5.1 1.1-2 .1-4.1.6-6.1.6-2.1 0-3.6-.9-5.6-.5-1.7.3-1.9 1.8-4 .5-1-.6-1.2-2.9-2.6-2.9-1.9 0-1.1 2.4-2.2 3.6-.3-3.5-3 2.3-4.1-2-1 1.4-4.7 3.4-6.4 2.3-1.6-1-1.1-3.4-1.8-5.1-1.1 3-4.1 6.2-3.9.7-1.5 1.8-5.4 1.5-4.4 4.7-1.2 0-1.5-1.7-2.5-1.9-.9-.1-1.6.6-1.7.5.5 0-1.4.7-1.4.7 1.3-.3-3.7-.7-2.9-.7-1.2 0-2.6.9-3.9.9-1.2 0-2.5-.5-3.7-.6-3.2-.4-2.5.3-4.5 1.3-.7.4-.9 1-2 .9-.8-.1-1.1-1.1-1.1-1.1-1.1-.1-.3-.5-2-.3-.2.3-.4.7-.6 1-.6.8-1.4 1-2.4.6-2.5.5-10.7 2.8-9.9-1.4-1.3.6-2.5 1.2-3.8 1.8-.5-3.4-7.4 1.1-8.9 1.4-2 .3-2.1-.5-4-.9-.3-.1-1 1-1.8.9-2-.4-2.4-.6-2.7-2.8-1.5 2.7-2.7 1.5-5.3 1.9-.6.1-1 1.2-1.8 1-.6-.1-.6-1.2-1-1.4-.4-.1-.3-1-.9-1.1s-2.8 1.6-3.4 1.9c-1.4.6-3.7 1.6-5 1.3-1.7-.4-.9-1.6-3.3-1.5-3.8.2-5.3 3.4-7.6-1.6-1.1 2-.9 2.6-2.6 3.2-1.3.5-4.4 0-6.1-.1-7-.3-13.9 2.1-20.9 1.5-3.1-.3-5.6-.9-8.7-.4-3.2.5-6.4 1.3-9.7 1.6-1.7.2-5.2.6-6-1.5-.4-1.7 2.3-2.9.8-5.1zm13.8 77.4c-9.1 6.1-16.7 14.4-25 21.5-8.4 7.1-15.1 14.9-22.6 22.8-7 7.2-13.4 14.1-21.8 19.6-5.3 3.5-10.1 7.7-15.6 11-4.1 2.4-10.3 5.7-8.3-1.8 2.1-7.7 5.8-15.4 9.1-22.6 4.7-10.2 9.4-20.3 14.5-30.2 1.9-3.7 3-7.5 6-10.5 3.3-3.3 5.6-7.5 9.2-10.6 15-13 37.8-3 54.5.8zm28.6 4.3c-4.1 2.2-8.8 2.7-13.1 4.1-3.7 1.2-7.2 3.4-11.2 3.6 3.7-2.7 6.8-6.5 10.9-8.6 4.6-2.3 8.8-.6 13.4.9zm181.5 18.1c-15.2-5.1-29.4-12.7-44.2-18.8-2.6-1.1-22.6-7.6-22.2-10.8 14-2.6 28.5-7 42.5-2.2 12.8 4.4 23.2 14.9 33.1 23.6 2.6 2.3 18.5 12.7 17.1 16-1 2.3-8.7 1.7-10.5 1.2-2.3-.6-3.7-2-5.5-3.6-3-2.5-6.4-4.1-10.3-5.4zm-28-85.8c2.3-2.1 3.7-5.4 5.9-7.3 2.8-2.5 7.4-1.3 10.5 0 9.3 3.9 17.3 10.5 26.5 14.6 10.2 4.5 19.1 10.6 28.4 16.9 8.4 5.7 17.6 10.5 26.2 15.9 8.8 5.6 18.6 9.2 27.5 14.6 9.1 5.5 18.1 10.9 26.8 17 15.5 10.7 31.7 21.8 43.2 37 5.9 7.8 11.4 16.7 15.8 25.6 3.9 8 8.2 19.1 3.1 27.5-4.9 8-13.3 14.3-20.3 20.3-2.7 2.3-5.2 5-8.7 6-4.2 1.2-9.2.9-13.5 1.2-23.2 1.9-44.9.1-67.7-4-22.1-4-44.2-6.2-66.5-9-12.5-1.6-25.1-3.4-37.5-6-5.3-1.1-10.7-2.4-15.8-3.9-4.5-1.3-8.3-4.3-13-5.4-19.7-4.9-42.3-6.8-61.8-15.1 17.3-7.2 35.6-11.5 53.4-17.5 18.6-6.3 36.8-11.6 56.5-13.3 10.1-.9 19.2-3.5 28.9-6.2 9.3-2.6 18.9-3.4 28.5-4.5 4.2-.5 16.3.3 17.7-5.3 2.1-8.2-9.8-9.2-14.8-8.5-7.2 1-13.1 2.8-18.6-3.1-5.6-6-11.1-12.2-16.8-18.1-10.6-11-21.5-23.7-36.5-28.7-18.3-6-39.4-.3-57.7 3.1-19.2 3.6-38.5 7.1-57.4 12.3-7.8 2.2-17.9 7-26 6.2-8-.8-17.1-2.1-24.8-4.4-3.5-1-6.4-3-9.5-4.8-4.1-2.3-8.5-3.8-12.8-5.7-8.7-3.7-17.2-7.1-26.7-8.5-7.9-1.2-16.4-1.9-24.1.8-7.5 2.7-14.2 8.3-19.5 14.2-5.7 6.4-10.4 13.7-15.1 20.9-2.3 3.5-5 6.5-7.3 9.9-2 2.8-3.1 6-5.2 8.8-4.6 6.2-7.8 14.1-10.6 21.3-3.1 8-6.6 17.5-5.8 26.1.3 3.3.6 7.6 1.8 10.7 1.6 3.9 3.9 3.8 7.2 5.2 5.7 2.5 7.3 9.4 14.7 8.1 6.9-1.3 12.9-7 17.9-11.5 6.6-5.9 12.9-12.1 19.1-18.4 6.5-6.4 12.8-13.4 17.9-20.9 2-3 3.6-6.3 6-9 3-3.4 6.5-3.8 10.6-5.2 36.1-11.9 72.4-23.4 109.6-31.3 8.9-1.9 17.9-4.3 26.7-6.8 9.3-2.7 14.1.2 21.8 5.2 16 10.6 35 18.1 52.8 25 5.6 2.2 14.6 2.3 19 6.6-26 4-50.8 11.6-75.9 19.2-12.4 3.7-24.9 7-37.3 10.6s-24.4 8.2-36.6 12.3c-12.2 4-25.1 5.7-37.4 9.4-12.6 3.8-25.1 6.4-38 8.7-13 2.3-26 5-39.1 7.1-6 1-12 1.9-17.9 3.3-5.8 1.3-11.4 4.4-17.2 5.1-26 3.2-51.5 10.3-77.4 14.3-19.3 3-53 7.2-65.5-12.2-12.6-19.5 2.9-42.3 16.7-56.2 8.6-8.7 18.2-16.3 28.3-23.1 10.8-7.3 21.2-15.1 32.1-22.4 24.5-16.4 51.1-29.8 77.4-43 12.6-6.3 24.8-13.1 37.1-20.1 6.1-3.4 9.5 2.1 14.3 5.9 3.8 3 10.8 10.3 16.1 6.9.2 1.2.4 2.4.6 3.7 1.6-.7 3.1-1.4 4.7-2.1 1 2.7.9 4.4 3.8 5.9 1.8.9 5.6 1.9 7.3.4.3 1.1.7 2.2 1 3.2 1.5-.1 1.8-4.4 2.1-5.4 2.6 3.7 6.1 6.9 10.6 7.9 0-.2-.7-3.3-.7-3.3 1.4-.9 3.2 2.9 4 3.7 2.5 2.6 4 2.2 6.8.1.2.2 1.1 2.7 1.3 2.6.6-.2 1.7-2.4 1.9-2.5-.2 2.8 5.3 3.4 7.3 2.8-.4-.8-.9-1.7-1.3-2.5 6.8-.9 9.4 6.3 15.9 5.9 4.8-.3.9-1.3 3.7-3.4 2.4-1.8 2.8 2.1 3 2 .5-.5.8-1 1.1-1.6.9 3.4 7.9 6.4 7.1.8 2.7 1.1 4.7 2.9 7.7 3.3 3.7.5 7.6-.3 11.3-.6 7.9-.7 15.4-2.3 22.6-5.9 4.2-2.2 8.8-4.1 12.8-6.7 3.3-2.2 9.7-8.8 14.1-5.9-1.1-3.4 4.2-.2 4.4-4.6.9.6 1.7 1.3 2.6 1.9.5-1.1.4-2.9 1.1-3.9.9-1.4 1.4-.6 2.2-1.3.9-.9 1.7-3.1 2.8-3.8 1.1-.7 2.4.1 3.6-.5 1.8-.9 9.7-9.6 8.4-2.1 3.4-1.2.8-2.2 1.2-4.5.9-4.5 2.9-1.3 5-.9 3.4.6 3.3-2.1 5.2-4.2 1.7-1.9 5-2.7 3.8-5.9.8.4 1.1 1.7 1.3 3zM334.9 372c-2.7 3-4.7 1.7-7.6 1.3-.3-1.1-.9-1.2-1.6-.4-.9.5-1.8.8-2.8 1-2.4.6-4.9.3-7.3 1.2.1-.8.9-2.2.4-3-2.5 1.7-4 2.8-7.1 2.9-2.5 0-6.8-1.9-8.9.4-.1-.9-.1-1.8-.2-2.6-1 .5-1.9 1.2-2.6 2-.1-1.3-.2-2.3-1.1-3.4-1.6 3.4-3.4 3.5-6.6 2.2.4.2-3.2-2-3.1-1.4-1.1-4.8 17-4.4 18.9-4.6 4.8-.5 9.5-.8 14.3-1.2 4.5-.4 7.9-1.1 11 2.7-1.5-5.6 11.7-5.3 4.3 2.9zm-208.1-84.5c.5 8.2 2.3 17-.9 24.9-2.6 6.4-7.7 13.6-13.2 17.7-11.3 8.5-20.9-1.9-22.5-13.4-1.6-11.9 1.6-26.5 11.9-33.9 6.1-4.4 12.1-4.1 19.2-2.6 1.7.3 4.4.2 5.3 1.9.2.4 0 5.4.2 5.4zm150.5 109.8c-2 1-4 1.6-5.7 2.9-.6.5-.8 1.5-1.4 1.9-1.2.7-2.8.2-4 .8-2 1-3.4 2.4-5.8 3.3-3.5 1.3-6.6 3.2-9.9 4.9-5.5 2.9-11.5 5.4-17.3 7.7-2.9 1.2-11 3.5-10.7 7.8-.7.2-1.3-1.3-2.7-1.1-1.9.2-4.4 2.3-6.3 2.9-3.6 1-6.5 1.1-6.5 5.7-1.2-.8-1.5-2.7-3-3-1.7-.3-2.5 1.6-3.9 2.2-1.6.7-3.7 0-5.3.8-.7.7-1.5 1.4-2.4 2-.9.1-1.8.1-2.6-.1-3.4.7-6.6 2-10.1 2.7-3.4.7-5.7.9-4.3 4.9-3.6.7-4.5-3.1-8.5-1.7-5 1.7-9.6 2.9-14.8 4-2.6.5-5.4 1.7-8.1 2-1.9.2-3.7-.5-5.6-.3-2.3.3-4.1 1.3-6.4 1.3-2.2 0-4.5-.4-6.7-.7.3.9.7 1.7 1.2 2.5-1.5-.3-2.2-2.1-3.5-2.4s-2.5 1.1-3.7.8c-.5-.1-.2-1.6-1-1.9s-1.1 0-1.9-.1c-.3 0-3.5-.2-4 .1-.9.5 0 1.4-.2 1.5-3 2.2-3.1 1-4.4-1.3-2-3.4-4.4-1.3-8-1.9-4-.7-7.2 1.1-11.1.8-4.3-.3-9.2-3.5-13-5.3-8.1-4-16-7.8-22.8-13.9-13.3-11.9-24.2-26.5-30.6-43.2-6.9-18-8.2-36.7-7.6-55.8.3-11.5 1.2-22.9 3.1-34.2 1.2-7.8 1.5-21.6 10.3-25.2 1.5 18.2-3.3 36.8-.3 55 .9 5.5 3.1 12.7 7.3 16.8 6.2 6 7.6-2.7 8.2-7.4 1-8.9 3-17.7 4.3-26.5 1.4-8.8 2.3-17.8 4.2-26.5.7-3.2 6.3-26.5 10.4-25.4-.8 17-3 33.7-3.1 50.7 0 6.8-.6 14 .3 20.8.5 3.5 3.7 13.7 9.2 12.9 5.1-.8-.5-8-1-10.8-1.3-7.4.3-16.5 1.5-23.9 2.2-13.8 7.1-28 15.2-39.6 7.2-10.4 18.3-20.2 31.7-18.4 5.7.8 10.2 2.2 13.1 7.4 2.3 4.1 11.1 8.8 6 13.9-4.7 4.7-12.3.9-17.5-.2-6.4-1.4-13.2.3-18.5 4-9.1 6.4-14.4 17.9-16.1 28.6-2.3 14.5 3.8 52.4 26.4 43.9 15-5.6 26.3-26 25-41.5-.5-6.2-2.9-18 5.7-19.7 11-2.2 12.6 10 11.5 17.9-1.6 11.5-7.7 22.2-14.7 31.3-6.1 7.9-13.1 12.9-20.4 19.4-2.2 1.9-7.7 6.3-6.7 9.9 1 3.9 9.7 5.1 13.1 5.7 17.1 3.2 36.5.3 53.6-2 35.2-4.6 69.9-16 98.7-36.8 1.2 12.9 2.6 25.8 3.2 38.7.3 6.3.3 12.7 1 18.9.6 3.9 2.2 9.2-2.1 11.5zm-97.6 44.9c-1.4.7.1-3.6-.3-2.2 2.1.8 2.2 1.5.3 2.2zM325.6 286c2.2-2.4 8.2-8.2 10.1-2.7.7-2.3.8-5.8 3.5-2.6 1.1-3.9 13.1-3.5 16-3.7 9.5-.5 19.1-.8 28.5-1.8 19.5-1.9 39.3-.9 58.8-1 4.2 0 8.5-.2 12.7.4 4.1.6 8.3 2.3 12.4 1.6 3.7-.5 6.1-1.6 9.9-1.1 4.5.5 8.9.9 13.5.9 20.2-.1 40.4.7 60.6.8 3.9 0 8.7-.8 12.3.9 1.4.6 2.9 2.7 3.9 2.9 1.2.3.5-1.6 2.1-.8 2.1 1.1.5 4.6-.9 5.2.8-.3-1.5-.7-1.3-.7-1.1.1-2.1.9-3.3.9-1.8-.1-3.4-1.2-4.9-2.2 0 .4.8 3.1-.1 3.2-.8.1-1.6-2.5-1.6-3.2-4.5 4-9.3 1.8-14.9 2.3-4 .4-12.3 3-15-1.1-.1.9-.5 1.7-1.1 2.3-.8 1.2-1.5 1.1-2.1-.3-.2 0-2.1.4-2.2.4-1.4-.1-3.1-.6-4.5-.7-2.1-.2-1.7 1.4-3.5 1.4-.9 0-3.3-1.3-4.9-1.4-2.8-.1-5.7 1-8.5.7-1.9-.2-3.6-1.8-5.5-1.9-2.3-.1-3.1 1.7-4.9-.8-.4-.1-.6 1.4-.8 1.4 0 0-1.8.3-2 .3-.4.1-1.8.8-2.2.8-.9 0-1.5-.7-2.5-.7-1.7 0-6.9 1.4-6.8-1.6-5.9 2.2-11 1.3-17 1.9-2.8.2-4.5-.1-7.2-.6-3.3-.6-5.5.2-8.8.3-3.2.2-4.2-1.2-6.9-2.4-1.1-.5-1.8-1.1-3.1-.8-.7.2-.2 1.4-.4 1.5-1.1.4-1.9 0-3.5.1-2.9.2-4 2.6-7 .3 1-.1 2-.2 3-.4-2.8-1.2-6.6-1.8-5.9 2.6-2.4-.3-.3-2-1.5-2.6s-2.5.4-4 .9c-4 1.3-7.3.6-11.4.4-4.7-.3-15.7 3.6-19-1.4-.1 1-1.2 4-2.7 3.8-.5 0 .9-3.1 1-3.5-.8 1.6-4.3 2-6 2.8.2-.9.4-1.8.6-2.6-1.6 1.7-2.4.7-4.3 1.2-.8.3-2 2-2.7 2.1-.8-1-1.9-1.4-3.1-1.2-.8-.2-1.7-.2-2.5-.1-3.3.2-6.3 2.1-9.6.8-2.9-1.1-4-3.9-5.7.6-.4-.8-.9-1.6-1.3-2.4-.6.9-1.1 1.7-1.7 2.6-2.2-1.4-2.3-2.2-4.8-1.7-.6.2-1.2.2-1.8-.1-.1.4-.3.9-.4 1.3-.1 1.1-.4 1.5-1 1.1-.5-.2-.9-.5-1.3-.8-1.6.1-3.7.6-5.5.3-.7-.1-4.9-2.4-5.3-2.1zm50.4-29.4l.6.9c-2.7 1.4-3.3.6-3.6-2.2 1.3-.1 1.6 2.2 3 1.3zm1.7-1.7c1.3.6 2.8 1.7 4 .2.8 2.4-5.3 5.6-4-.2zm8.3 1c2.7 1.8-3.8.4-3.8.4 1.2-1.1 2.4-1.2 3.8-.4zm23.2-10.1c.9 4.7 3.5 4.5 7.6 2.4 6-3.2 7-8.4 7.5-14.6.4-5.9 1.1-8.2 7.3-7 4.3.9 7.9.1 12.2 0 4.6-.1 6.2.6 6.6 5.3s1.2 8.3 4.7 12 8.2 5.9 12.7 7.9c2.3 1.1 4.5 2.2 7.1 2.4 1 .1 6.2-.6 6.3 1.1.1 1.2-7.1 4.7-7.9 5.2-3.4 1.8-6.7 3.5-10.4 4.6-8.4 2.5-17.3 2.7-26.1 2.5-14.1-.2-33.5-6.2-41.9-18.7 4.8-1.1 9.6-2.1 14.3-3.1zm-1.2-40.5c-2.2-1.9-3.7-4.7-5.5-6.9-.9-1.1-1.6-1.5-2.5-2-.9-.6-1.5.2-2.2-1.1-2-3.6 4.2-8.6-2.4-10-2.2-.5-7.6 1.3-8.2-1.9-.9-4.5 7.7-4.8 9.7-7.1 4-4.6 1.3-12.3 3.8-17.5 2.3-5 8.3-5.9 13.1-7.4 6.6-2.1 13.3-3.3 20-5 4.7-1.2 12.5-5.9 16.8-1.7-6.7 1.5-2.8 3.8 1.7 5.1 5.1 1.5 10.4 2.1 15.7 2.5 5.4.4 10.9.5 16.2-.6 4.9-1 10.4-5.3 15.6-4.2-2.9 5-11.4 7.7-16.6 9-2.6.7-4.3.5-4 3.8.3 3.2 3.1 6.4 3.8 9.7.8 4.4.1 8.5-1.5 12.6-1.5 4.1-1.9 4.6-.6 8.5 2.1 6.1-2.4 12.8-6.6 17.2-17 17.9-49.4 11.2-66.3-3zm42.9-106.6c.1.2 0 .1 0 0zm5.3 45c-.7.5-4.7 1.6-4.6 0 .2-2.1 3.9-1.3 4.6 0zm9.2-42.7c-.9-.7-3.6-.4-1.7-3.1.6 1.2 1.2 2.1 1.7 3.1zm-63.7-16.9c1.2-3.1 2.5-6.1 3.1-9.4.3-2.1-.3-4.4 2.5-4.7-3.7-1.6-3.7-7.9-3.9-11.2-.3-4.5-1.7-10.5.3-14.7 2-4.3 4.8-4.2 5.6.9.3 2-.9 2.7-1.1 4.1-.5 2.8.5 2.2 2.2.1.7 2.1 1 5.4 4 5.2-.2-.6-1.3-1.9-1-2.6.6-1.1 3.5.6 3.8.8 2.6 1.8 3.2 3.5 1.3 5.8 2.6.3.4 2.6 2.1 3.1 2.6.9.8-3.4.6-4.1 1.6.6 2.1 1.3 3.1 2.5.6.8 1.1 1.7 1.6 2.6.5 1.7 1.6 2.1 3.3 1.3 3.3 1 7.9.9 10.9 2.7 1.4.8 1.8 2.6 3 3.3 1.3.8 3 .4 4.4.9-.5 1.1-.1 1.8 1.2 1.8 1 .1 2 .3 3 .7.7-.5 1.5-1 2.3-1.3.6 1 1.4 1.2 2.4.7 3.1.6 4.5 1.7 6.5 3.5 1.7 1.6.3 1.7 2.2 1.5.8-.1 2.1-1.4 3.9-1.1 1 .2 2 .5 2.9.9 1 .9 2.1 1 3.2.3 1.8.9 2 2.5 4.3 2.7 2.5.2 1.7-2.9 3.4 1.5 2.3-4.6 3.2 2.8 5.5 3.4 2.5.6 2.7-1.4 4.8.8.6.7.6 1.7 1.3 2.4 1.2 1.1 2.7.9 3.8 2.5-.6-.9.1 3.1.1 2.9.2 1.7-1.4 3.7 1.8 3.5 0 .2-1.6 2.4-1.8 2.1-.1-.3-.1-.5-.2-.8-.3.1-.5 2.3-.4 2.6.3 0 .4-.2.3-.6-.5 1.6.3 2.7-.7 4.2-.6 1-2.4 1.7-3.3 2.3-2.2 1.5-4.4 2.9-6.6 4.5-5.1 3.6-10.8 8-17.2 8.8 3.2-3.2 21.8-15.1 12.5-18.6-1.7-.6-4.9-1.2-6.7-1.4-2.2-.2-4.6 1.1-7 .3-3-1-1.9-3.8-3.7-4.8-3.9-2.1-3 2.9-4.2 4.2-1.3-1.3-1-2-3-2.1-2.1-.1-2.5 1.8-4.9.6-3.3-1.6-1.6-4.9-6.2-4.9.1-.7.8-2.7-.1-3.3-1.2 1.6-.3 3.3-1.4 4.8-.6.8-1.8 1.4-2.7 1.6-2.1.6-2.4 1.7-2-1.5-1.5 2.8-6.3 1.6-9.1 1.4-4.6-.5-9.4-1.3-13.8-2.8-4-1.4-6.2-3.7-9.5-5.8-1.3-.8-1.9-.5-3.7-1-2.1 0-3.8-.9-3-3.1zm9.6-49.1c.7-.4 1.2 5.8.3 6.9-1.4-2.4-4.1-5.9-.3-6.9zm2.2-2.4c2.2-2 .7 3.2.3 4-.8-.5-1.6-1.1-2.5-1.6 1.1-.6 1.4-1.6 2.2-2.4zm83.6-8.4c20.5 4.3 40.7 12.3 57.1 25.5 14.9 12 25.5 29.1 31.4 47.2 6.1 18.8 4.1 39.7-10.5 54.2-7.7 7.6-17.8 12.2-27.5 16.6-4.6 2.1-9.4 3.9-14.1 6-3.3 1.5-7.4 3.9-11.2 3.5 1.9-2 4.8-2.1 7.1-3.3 2.8-1.5 5.2-4.4 7.6-6.5 2.4-2.1 7.8-8.6 11.6-7-.5-3.5 3.4-5.1 5.2-7.3 1.9-2.4 2-5.2 5.5-6-3.7-2.9-2.6-8.4-1.8-12.3 1-5.1 1.5-9.7 1.9-14.9.7-9.3 1.3-21.1-3.8-29.3-1.7-2.7-3.8-5.1-5.3-7.8-1.8-3.3-1.4-6.2-1.4-9.9-3.3 2.2-4-2.3-5.3-4.5-1-1.6-2.4-2.6-2.7-4.6-.2-1.5 1.4-1.8.5-3.3-1.1.8-1.5 2.1-2.1 3.3-1-.4.2-1.8-.4-2.3 0 0-2-.9-1.9-.7-1.3-1.6-1.7-4.2-2.3-6.1-2.3 1.2-1.9 1-4.4-.9-.5-.3-2.7-1.9-2.9-2.4-1-2.4.7-1 .3-2.5-1.4-4.3-9.2-3.5-9.9-9.9-3.8 2.4-5.3-1-7.5-3.5-2.3-2.5-6.2-3.5-6-7.4l-3.6 1.2c.6-3.7-4.8-3.4-6.8-5.3 1 0 2.1.1 3.2.2zm3.1 227.1c1.9-1.7 1.3.6 2.5.3 1-.2 1.2-1 2.2-1.3 4.1-1 10.3.3 14.6 0 5-.2 13.6.8 16 6.7 1.4 3.5-.8 2.3-3.2 2.1-1.9-.2-3.5.2-5.4.2-.9.1-1.8.1-2.7 0-.4-.3-.7-.7-.8-1.2-2.6-.4-5.3 1.1-8.2 1.2-3.8.1-7.2-.6-10.1-3.2-1.2 1.7-1.9 2.6-4 2.8-.1 0-2.1-.8-2.4-.9-.4-.1-1.5.8-2.3.5 1.5-2.3 1.7-5.3 3.8-7.2zm261 20.5c.7-2.3 1.2-4.7 1.9-7.1 9.4 10.7 17.7 25.1 21.4 38.9 2.4 9 6.2 25.2-5.3 29.8-9.4 3.8-14.6-9.7-17-16.4-5.2-14.7-5.2-30.3-1-45.2zM339.1 103.4c.1 0-6.1 3.6-4.1.7.8-1.2 4-2 5.3-2l-1.2 1.3zm-6 1.6c-.7.6-1.4 1.2-2.2 1.8l-2.1-3.3c1.4-.6 7.3-1.1 4.3 1.5zm-4.4 112.6c-1.3-.9-2.3-.4-2.7 1.1 0-1.5.8-4.9 1.9-5.3.8-.3-2.5-4.2-1.6-5.2 2.4 1.4.9 2.6 1.6 4.4.3.8 1.2 1.5 1.5 2.1.4 1.1 1.8 4.6-.7 2.9zm-6.4-8.8c-1.3.3 1 2.5 1 3.5 0 .7-.9 1.3-1.3 2.3-.8 2.2.6 3.7-1.7 5.3 0-4.8-3.2-17.5 3-19.8-3-2.4-.5-5.1 1.8-2.3 2.4 2.9.9 10.1-2.8 11zm-3.2-18.8c-1.2-4.3-4.9-5.8-9-5.5.2-2.2 1.8-5.4 3-1.4.5-1.2.8-2.7 2-3.5 1.9 6 11.4 9.3 5.5 15.7-.5-1.8-1-3.6-1.5-5.3zm-11-5.3c-22 1.6-52.8 6.2-70.4-10.7-11.5-11-10.8-28.1-1.6-40.3 5.3-7 12.5-11.9 19.7-16.5 2.8-1.8 5.2-3 8.2-4 .5-.1 1 .1 1.4.3.2-.7.6-1.3 1.3-1.6 1.2-.6 2.9-.9 3.6-2.2-.7 2.5-1.1 5-1.4 7.6l-1.8-2.1c-.5 4.7-5.4 1.8-8.3 2.4 1.9 2.6 3.3 3.6 3.4 7.1-1.4-2.6-4.4-4.4-7.2-5.2 1.5 4.4 2.6 7.1 1.1 12-1.8-1-1.9-3.5-4.2-4.1-.6 2.9-.7 6.1-1.4 8.9-5.7-2.6-5.1 4.4-2.8 7.8 1.2 1.8 1.8 4 2.9 5.7 2.7 4.3.6-2.1 3.6-1.8-.7 4.6-.9 5 2.4 8.3s4.9 7.8 8.4 10.8c1-1.3-.6-2.6-.7-3.9 3.2.5 4.8 3.8 7.9.9 1.4 2.6 2.8 5.6 6.1 6.1-2.1-4.1 4.1-1.3 5.7-.7 1.2.4 3.4.8 3.9 1 2.7 1 .8-.8 2.4 2.4 2.4-.7 3.3-2.7 6.1-1 2.3 1.3 2.3 3.7 2.8 6 .5-1.5 1.1-3.1 1.7-4.6.6.3 3.2 3.1 2.9 3.1 6.2-.2 6 3.5 4.3 8.3zm-30.8-77.1c1.2-.9 2.7.3 4.1 0 1.9-.4 3-2 5.1-2.2-.6 1.9-1.7 1.7-2.6 3.2-.3.5-.2 1.7-.4 2-2.4 2.4-3.2.4-5.6-1.4.2 2.2.6 2.9-1.4 3.5-1.9.5-5-1.4-6-3 .6-1.6 5.3-1.1 6.8-2.1zm15-3.4c2.1.2-.4 6.2-3.4.4 1.2-.3 2.3-.4 3.4-.4zm10.6-1.2c3.2-.7 14-3.7 15.2 1.3.2-.1 1-3 1.4-2.6 1.5 1.4 1.7 3.2 1.5 5.2-1.8-3.8-1.2-.5-2.4-.7-.3-.1-.8.5-1.6.3-1.1-.3-1.8-2.6-2.5-3.3-1.1 1.6-2.5 3.6-4.7 3.5-1.6-.1-4.1-4.2-2.1.3-1.2-.4-2.6-1.3-3.9-1.1-1.5.2-2.3 1.7-3.7 1.9-3.1.5-3.6-2.5-5.6-4.1 2.8-.3 5.6-.2 8.4-.7zm19.5-.1c.2-1 3.1-1.4 3.8-1.1 1.8.8 1.1 1.9.8 3.6-1.3-.6-2.6-1.2-3.9-1.9 1.9 3.2-1.6 3.7-.7-.6zm548 183.8c-.2-7.5-.4-15.2-2.4-22.5-1.3-5.1-4.6-14.3-10.8-15.2-9.3-1.3-14.5 17.1-17.1 23.5-.5-7.5-.1-15.4-2.9-22.5-2.3-5.7-8-11.1-12.9-4.7-4.4 5.7-5.2 14.1-6.4 20.9-1.5 8.8-2.4 17.8-3.5 26.7-4.3-8.3-5-17.7-8.4-26.3-3.2-8.1-8.2-15.8-13-23-3.9-5.9-8.7-11.4-14.9-15-5.4-3.1-14.8-6.5-19.9-1.3-4.3 4.3-3.6 10.1-3.4 15.6.1 2.4.5 4.1-1.7 5.3-1.1.6-2.7.3-3.9.6-1.9.5-3.3 1.4-4.9 2.6-11.1 8.2-16.2 23-17.7 36.2-2 16.7 4.5 31.1 10.1 46.4.9 2.4 3.7 7.6 3.3 10.3-.4 3-4.2 3.1-6.7 3.1-7.6.2-15.6-.4-23.2-1.1-18.1-1.7-36.1-10.4-52.3-18.2-3-1.4-7.1-2.2-9.5-4.5-2.3-2.1-2.9-5.5-4.8-7.9-4.8-5.9-7.9-10.9-14.9-14.5-7.2-3.6-14.5-7-21.6-11-8.7-4.9-16.7-11.2-25-16.7-15.5-10.2-30.8-21.5-47.2-30.2-7.6-4-16.1-4.7-24-8-7.7-3.2-17.2-3.2-25.2-1.2-3.9 1-6.6 3.3-10.2 4.9-4.2 1.8-7.7-.2-11.4-2.3-5.7-3.3-11.3-8.6-3.2-12.2 2.7-1.2 6.2-1.7 8.6-3.5 2.6-2 4.6-5.7 6.7-8.3 4.6-5.6 7.4-12.1 14.1-15.6 7.5-3.9 16.3-4.9 24.3-7.4 8.6-2.7 17.1-6 25.5-9.2 15.3-5.7 31.1-11.9 42.1-24.6 9.5-10.9 13.6-25 13.2-39.3-.8-29.2-16.4-58.9-38.9-77.2-27.5-22.1-62.6-29.6-97.4-29.2-16.3.2-35.8 2.3-49.5 12.2-11.8 8.6-13.7 23.6-12 37.1.7 5.5 3.1 12.7-.7 17.6-2.2 2.7-6.1 3.4-9 5.1-3.7 2.1-6.9 4.2-11.1 5.3-17.7 4.8-36.2 3.1-54.3 2.8-30.1-.4-60.9 7.7-83.3 28.9-18.1 17.1-23.5 49.4-1.5 66 17.8 13.5 45.8 12 66.9 9.6 6.5-.7 11-1.8 11 6.2 0 8.7-1.4 17.8.8 26.4 3.5 13.5 16.5 13.8 27.9 10.9 6-1.5 11.9-3.8 17.6-6.2 8.4-3.5 16.1-8.7 24.5-12.3 5.6-2.4 9.9 5.3 14.9 0 .9-1 1.1-2.5 2.5-3 2.2-.8 5.8 2 7.8 2.9 2.9 1.3 5.8 2.3 6.9 5.5 1.1 3 .6 7.7-.4 10.6-2.2 6.4-8.2 5.1-13.7 4.7-9.6-.7-19.1-2.3-28.6-3-8.6-.6-16.6 2-24 6.2-15.5 8.9-28.3 23-41.7 34.6-6.9 6-13.6 12.4-21.2 17.7-3.3 2.3-6.8 4.3-9.7 7.2-2.8 2.8-3.1 5.3-4.1 9-1.7 6.6-10.3 9.9-15.6 13.3-7.6 4.9-15.6 8.4-24.1 11.4-18 6.4-36.1 10.9-54.8 14.2-9.2 1.6-18.3 2.7-27.6 3.6-8 .8-16.5 3.2-24.5 1.2 2.3-3.7 6.4-6 9.6-8.9 4.1-3.7 7.6-8.1 10.7-12.7 6-8.9 10.3-18.4 11.2-29.2.9-9.7-.1-21.3-6-29.5-2-2.8-6-3.6-7.8-6.2-1.8-2.5-1.1-6.9-2.1-9.9-2.5-7.5-10-16.8-16.5-21.2-7.1-4.7-17.5-6.5-25.7-4-15.2 4.6-24.6 20.8-31.5 34-3.8-8 2.6-19.9-4.9-26.4-6.3-5.5-11.2 5.2-13.3 9.8C42.3 273.2 40 296 35.9 319c-1.7-1.7-.8-5.9-.7-7.9.3-3.7.3-7.3.3-11 0-9.3 1.8-18.7 1-28-.5-5.4-2.2-16.7-10-15-6.6 1.5-10.8 10.9-12.9 16.6-3 8.2-3.7 16.4-3.5 25.1.2 9.6-1.6 19.1-2.1 28.7-.9 18.6 0 37.1 5.3 55.1 8.8 29.5 28.9 53.9 55.8 68.7 14.8 8.1 31.2 13.3 48.1 14.4 9.2.6 18-.5 27.1-1.4 9-.9 18-1.4 26.9-2.5 19.9-2.4 39.3-8.7 57.4-17.2 9.5-4.5 18.5-9.9 27.8-14.7 3.8-1.9 6.3-4.3 9.5-7 3.2-2.6 4.1-2.8 7.7-2.8-1.1-2.8 2-3.7 3.4-5.5-.1.9-.2 1.7-.2 2.6 1.1-2.3 2-2.3 2.9.1.9-2.6 1.6-5.3 2.6-7.8 4.1 2.1 3.8 7.1 9.3 3.4 4.5-3 8.7-6.5 13.4-9.4 10.6-6.7 19.7-15.3 30.3-21.9 0 6.4.5 12.9-.4 19.3-.8 6.1-3.1 11.7-4.9 17.6-3.3 10.7-3.6 22.2-7.2 32.8-1.5 4.4-5.5 8.1-6.6 12.4-1.2 4.4 1.5 7.9-3 10.7-3.2 2-7.1 2.9-10.6 4.1-5.4 1.9-10.4 4.5-15.6 6.7-24.4 10.5-48.3 21.1-70.9 35.2-21.5 13.4-43.3 27.2-63 43-17.1 13.8-34.4 31.6-38.6 54-4 21.8 6.7 45.2 28.4 52.3 11.3 3.7 24 3.3 35.7 3.4 12.6.2 26-2.9 38.4-5.1 13.1-2.3 26-6 39.1-8 12.6-2 24.2-6.4 36.5-9.2 13.2-2.9 26.7-4.5 40-7.1 6-1.2 11.8-2.9 17.8-4 6.6-1.2 13.2-1.6 19.7-3.2 12.6-3.1 24.7-8 37.3-10.9 5.7-1.3 11.3-3 17-4.2 5.2-1.1 9.3-4.1 14.6-1.6 4.2 2 7.6 5.3 11.6 7.6 5.2 3 10.7 5.7 16.1 8.3 10.9 5.2 22.2 8.9 33.6 12.8 12 4.1 23.7 8.8 36.2 11.6 12.7 2.8 25.7 3.6 38.5 5.8 26.2 4.5 52.3 6.6 78.9 6.7 13.5.1 26.9-1.5 40.4-1.3 11.9.2 22.2 2.8 33.1-3.5 17.4-10.1 37.5-25.3 37.1-47.4-.4-20-12.4-39.1-23.7-54.9-13.7-19.2-33.2-32.7-52.3-45.9-20.4-14.1-43.2-23.8-64.7-36.1-10.9-6.3-21-13.1-32.9-17.5-5.7-2.1-11.2-4.6-16.8-6.9-4.5-1.8-11-2.9-14.9-5.9-2.4-1.9-2.6-4.8-3.3-7.7-1.4-6.3-3.6-12.3-5.8-18.3-4.1-11.7-6.9-23.7-8.7-36-1.7-11.7-5.5-23.9-3.5-35.8 12.8 12.4 26 24.4 39.2 36.4 4.9 4.5 9.8 9.2 14.7 13.7 3.7 3.4 8.4 8.4 13.5 9.4 6.6 1.3 4.2-6 8.7-7.2 2.8-.7 11.1 6.4 13.3 7.8 13.9 8.8 29.3 14.4 44.6 20.4 16 6.3 32.5 11.9 49.8 13.5 15.9 1.5 32.2-.4 47.6-4.8 30.6-8.7 53.2-29.2 69.7-55.8 18.8-30.4 32.5-65.9 31.4-102.1z"/><path class="st1" d="M402.1 220.6l-.1.1c.1 0 .1 0 .1-.1"/><path class="st1" d="M403.6 221c-.1-1-.4-1.9-.7-2.8-1 1.6-1.9 2.3-.6 4 .4-.4.8-.8 1.3-1.2m70.6 229.9c1.1-1.2-.8-1.7-1.6-1.7.1 1.3-.6 4.4 1.2 5-.4-1.2-.3-2.3.4-3.3m-29.9-252.7c-1.9 3.8 2.4 4.9 4.9 3.1 1.9-1.4 3-4.9 3.3-7.1 1-7.2-4.1-14.1-6.6-20.6-.7-1.7-1.5-7.4-3.6-7.5-2.4-.2-2.6 5.1-2.6 6.4-.1 4.1 1 8.2 2.3 12.1 1.2 4.3 4.6 9.2 2.3 13.6m9.3-15.1c7.5 6.7 13.5-4.4 13-11-.1-1.6-1.2-7.6-4.3-5.4-1.6 1.1-.2 4.7-1 6.2-3.6 7.6-7-4.2-9.5-5.1-2.9-1.1-3.2 2.7-3.2 4.8 0 4.1 1.9 7.8 5 10.5m-27.3 1.1c1.8-2.8 3.9-6.5 4.2-9.8.4-5.2-2.6-4.7-5.1-1.1-1.8 2.6-3.1 6.9-6.9 5.8-4.8-1.3-3.3-7.8-6-10.8-6.8 9 6 28.2 13.8 15.9m10.2 27.7c2.8.6 10.1.4 7.6-3.9-3.3-5.3-13.8 2.6-7.6 3.9m97.9-160.7c.5-1.5-.2-1.8-1.4-3-1.2 1.1.3 2.2 1.4 3m52.1 275.9c1.8.3 2.4-.7 1.8-2.9-2.9-.2-3.5.8-1.8 2.9M485.8 91.7c2 .9 1.3 2.8 1.2 4.5 1-1.1 3.2-3.2 2.3-4.9-1.3-2.5-4.7-.1-3.5.4M416.6 60l-.9-1.8c-1.3 1-3.2 3.7-1.2 5 .7-1 1.5-2.1 2.1-3.2M441 77.8c2.5 2 1.3-4.1 1.2-4.6-.4.7-2.5 3.6-1.2 4.6m-1.4-3.1l-.6-1.5c-1 .9-2.3 2.9-.6 4 .4-.8.8-1.6 1.2-2.5m16 20.9l.6.6c.8-1.7-.1-2.9-1.7-3 .2.9.5 1.7 1.1 2.4M387.8 285c1-.7 1.9-1.5 2.7-2.3-3-1.8-1.2 2.1-4.8-.3-.7 1.1.6 3.4 2.1 2.6m124.9 165.2c1.1-1.7 1.3-1.7-.2-3-1.3 2.1-1.2 1.6.2 3M276.6 174.3c.6.6 1.2 1.3 1.8 1.9.3-.8 1.9-3.2.8-4-.9.7-1.8 1.4-2.6 2.1m21.8 6.3c-1-.2-3.3-.9-3.9 0 1.5 1.2 4.7.2 3.9 0"/></g><g id="Character_x2F_zombieing_1_"><g id="Ink_3_" transform="translate(161 54)"><path id="Fill-5_1_" class="st1" d="M-37.6 44c6.9 4.9 15 8.3 22.2 12.7 1.8 1.1 7.5 3.4 7.5 5.5-.1 1.2-1.7 2.7-2.5 3.6-1.3 1.5-2.5 2.9-3.6 4.4-5.5 6.9-10.5 14-16.4 20.6-.9 1-3.5 5.7-4.4 3.4-.4-1.1-.1-2.3-1.1-3.3-.5-.5-2.5-.8-2-1.9.4.2.8.4 1.1.5-.3-.9-.3-1.8-.8-2.7-.3-.5-.8-.8-1-1.3-.3-.8.2-1.7.1-2.5s-.5-1.6-.8-2.4c-1.5-4.6-2-9.2-2.8-14-.8-4.7-2-9.3-2.4-14-.5-5-1.1-10.1-1.9-15 1.5.2 2.5 1.8 3.6 2.7 1.8 1.2 3.5 2.4 5.2 3.7M-43 92.7c-.3-.3-.6-.6-.8-1 3.4-1.7 1.3 1.2.8 1m-2.1-3.6c-1.5.4-2.5.5-3.7-.1-.1-.1 0-.5-.2-.6s-.4 0-.6-.1c-.5-.3-1.4.3-1.5-.7 1.9-.6 3.8-1.7 5.7-1.8 2.9-.3 2.8 2.6.3 3.3m-6.5-5.6c-2 .4-3.7 1.6-5.9 1.3-2-.3-3.8-1.3-5.4-2.5 4-1.1 8.2-1.3 12.2-2.4 1.3-.4 3-1.3 4.4-.9 1.5.4 1.7 1.8 2.1 3.2-2.5.3-4.9.7-7.4 1.3m-12.7-5.7c-2 .4-4 1.5-5.5-.3-.3-.3-.5 0-.4-.9s.9-1.5 1.6-1.8c1.7-.8 4.1-.3 5.9-.4 2.9-.2 5.8-.8 8.6-1.2 2-.3 4-1 6-.9 1.5.1 3.4 1.4 1.1 2.4-2 .9-5.2.8-7.3 1.1-3.5.6-6.8 1.3-10 2m-1.9-9.1l.4.4s.8-.6 1-.6c1-.1 2 0 3-.1 2.3-.1 4.6-.5 6.8-1 1.8-.4 3.7-1 5.5-.8 1.7.1 1.8.4 1.9 2-4.1 0-8.4-.1-12.5.8-2.7.6-5.6 2.3-6.9-.8.2 0 .5 0 .8.1m2.6-6.7c1 .8 3.8-.5 5-.6 1.3-.1 2.6-.3 3.9-.6 1.1-.3 5-1.8 5.9-.4 1.3 2.2-4.1 2.5-5 2.7-3.6.4-7.4.8-11 1.8.4-1 .8-1.9 1.2-2.9m5-7.3c.3 1 8.5-2.7 8.7 0 .1 2-8.2 3.1-9.6 2.9.2-1 1.2-1.8.9-2.9m2.8-6.3c.2-2 .4-2 2-2.2 1.2-.1 2.9-.9 2.6 1.3-.2 1.9-4.8 2.9-4.6.9m2.9-7c.4-1.1 1.3.4 1.3 1 .1 1.5-1.1 1.1-2.1 1.1.2-.7.5-1.4.8-2.1m13.5-8.1c-.2-.3-1.5-.4-1.8-.5-.8-.3-.8-1-1.8-.3-.1-.1.1-.6 0-.6 0 0-.8-.3-1-.4-.6-.4-1.1-.8-1.7-1.3-.6-.5-1.2-1.3-1.8-1.7-.3-.2-.5-.4-.8-.4-.9-.1-.6.5-1.4.6-.5.1-.8-.5-1.5-.3-.5.2-.8 1-1.1 1.4-.9 1.7-1.5 3.4-2.4 5-4.4 8.5-9.4 16.6-13.6 25.2-2 4.1-4.2 8.3-5.6 12.7-1 3.2-3.4 7.8-1.3 11 1.5 2.3 4.4 3.3 6.8 4.4 3.5 1.7 6.8 3.8 10.3 5.5 4.3 1.9 8.4 4 12.5 6.1 1.8.9 3.4 2.2 5.1 3.1 1.1.5 2.7-.4 3.1.8 1.3-1.7 3.5-.6 5.1-1.7.9-.7 1.6-2 2.4-2.9 1.1-1.3 2.4-2.4 3.6-3.6 4.7-4.9 8.9-9.9 13.2-15.2 4-5 8.8-9.8 12.2-15.2 1.3-2.2 1.6-4.5.7-6.9-.6-1.7-2.2-4.4-4.5-3.3.8-1.4-2.4-2.9-3.4-3.2 0 0-.2 1.1-.5 1.1.1 0-.8-2.4-1.3-2.7-1.2-.9-2.7-2-4-2.7-1.2-.7-2.5-1-3.7-1.8-1.4-1-2.7-2-4.2-3-1.4-.9-2.9-2-4.5-2.6-1.3-.5-2.5-.6-3.7-1.5-1.5-1.1-2.8-1.8-4.5-2.6-1.8-.7-3.8-1.3-4.9-2.5"/><path id="Fill-9_1_" class="st1" d="M-103.5 92.2c-.3.8-3.3.5-3.3-.4-.1-1.4 3.9-.9 3.3.4m3.2-.5c1.7.1 4.4 1.3 6.1.6 2.5-1-.1-2.7-1.5-3.1-1.3-.5-3.3-.3-4-1.7-.5-1.1.8-4-.8-3.5-1.7.5-1.2 4.7-3.8 3.3-1.3-.7-.8-4.8-2.8-2.7-.6.6-.6 1.7-1.4 2-.8.4-1.7 0-2.5 0-2.2.1-2.9 2.1-.6 2.9.8.3 3.9.6 2 2-1.1.8-3.8-.9-4.8.5-1.4 2 2.3 2 3.3 2.6 1.7 1 .3 3.4.4 5 .2 2.5 1.7 2 2.2-.1.4-1.8-.1-4.5 2.7-3.8 4.5 1.2-2.5 6.9.8 8.4 2.1 1 2.4-4.1 2.6-5 .6-3.3 2.4-2.5 5.2-2.4 3.2.1 4-2.2.6-2.9-1.1-.2-2.5.1-3.5-.6-.7-.2-1.5-1.6-.2-1.5"/><path id="Fill-16" class="st1" d="M12.2 6.4C10.9 5.9 9.3 5 7.8 5.3c-1.5.4-2.1 2-3.3 2.9-3 2.6-4.9-1.3-6.5-3.3s-3.6-2.4-5.8-1.2c-.9.5-4.7 2.7-4 4.1.4 1 2.4.1 3-.1 1.4-.5 2.7-.9 4.1-.2 2.7 1.3 3.4 5 6.6 5.5 3.3.6 3.4-2.6 5.8-3.8 1.6-.8 2.7.6 4.3.3 1.3-.3 1.9-2.4.2-3.1"/><path id="Fill-19" class="st1" d="M-14.7 19.2c1.1.3 2-2 2.7-2.6 1.2-1 3.3-1.1 4.6-.2 2.4 1.9 1.6 6 5 7 3.1 1 4.5-3.1 7.1-4.1 1.5-.6 3.2-1 2.6-3.1-.4-1.5-1.6-1.8-2.9-1.3-2.2 1-3 4.9-5.7 5-2.7.1-3.1-3.9-4.3-5.6-1.8-2.6-5.5-3.3-7.6-.8-.4.8-3.7 5.2-1.5 5.7"/></g></g><g id="Illustrations_x2F_sitting-reading"><g id="Ink_1_" transform="translate(67.995 33.043)"><path id="ink-layer_1_" class="st1" d="M368 858.2c10.7 4.1 21.9 5.7 32.7 9.5 9.6 3.4 18.5 8 28 11.4.5-4.4.9-11.8-.8-16-2.3-5.8-8.3-6-14.3-8.1-14.5-5.1-29.7-6.1-44-12.1 2.4 4.8 1.4 11.1-1.6 15.3m184-15.3c-23 .7-45 6-67.7 9.4-11 1.6-22.1 3-33.1 4.5-4.2.6-12-.1-15.1 3.6-2.6 3 .2 13.5-.9 17.9 4.6.3 12.9-4 17.9-4.7 7.9-1.1 15.6-2.7 23.6-3.2 12.6-.8 24.9-1.4 37.5-2.8 12.8-1.4 25.1-4.1 38-5 6.3-.5 8.8.7 9.2-5.9.1-2.6.5-6.9-.2-9.5 1.2-3.1.1-4.6-3.1-4.6-2.1-.3-4.1-.2-6.1.3m-44.5-21.1c6.2-.6 12.5-1.4 18.7-1.8 1.3 0 7.7.3 8.7-.9 1.5-1.6-.2-7.8-.4-9.6-.9-6.4-1.9-10.1-8.9-10.1-5.9 0-12 1.3-17.9 1.8-26.7 2.6-53.2 3.7-79.5 8.7 1.6 6.8 3.4 13.9 1.5 20.9 12.6.7 26.5-1.8 38.9-4.3 12.5-2.6 25.9-3.8 38.9-4.7m-42.2-64.4c-9.5 0-19.6 4.2-29 3.3-.1 1.7 2.8.3 3.7 1.9 1.8 0 2.4.6 1.8 1.7 0 .8-.4 1.3-1.2 1.4-.4 0-.8 0-1.3.1-1.8 0-2.1 1.3-.9 3.7-.5 3 .2 6.8.4 9.7 16.9-2.3 33.3-4.7 50.3-5.7 8-.5 16.1-.5 24.1-1.2 8.8-.7 18.5.8 27.1-.8 4.6-.9 4.1-.8 3.8-6.8-.2-3.7-.1-8-3.1-10.6-5-4.4-16.3-1.9-22.1-1.7-17.9.6-36 2.2-53.6 5m9.7 85.7c25.5-2.3 50.8-7.4 76.5-7.4-1.8-1.8-5.8-2.3-8-3.3-2.6-1.1-5-3.5-7.5-4.5-5.1-2-10.2.8-15.4 2-12.5 2.8-25.3 2.9-37.9 5.8-13 2.9-26.1 5.6-39.3 7-6.3.7-13 2.1-19.2.5-.5-.3-1-.7-1.5-1.1-.5-2.3-2-2.9-4.5-1.8-3.1-.6-7.1.2-10.3.2-.1 1.3 11.5 5.2 13.7 6.2 5.4 2.4 9 4.1 14.7 3.1 12.9-2.3 25.6-5 38.7-6.7m-89.8-74.6c1 3.9 5.2 2.1 8.8 2.6 4.8.6 9.6 2.2 14.3 3.5 8.5 2.3 17 4.5 25.5 6.9-.3-3.4.4-11.2-1.4-14.2-1.9-3.2-10.9-4.6-15.1-5.5-10.6-2.5-21.9-1.1-32.6-.5.3 2.3.4 4.7.5 7.2m101.5 24.3c10-.9 20.1-1.5 30.1-1.9 11.5-.4 3.1-2.2 2.9-9.3-15.1 2.4-30.3 2.9-45.4 4.9-12.5 1.7-27.4 6.2-40 3.8-6-1.1-12.1-1.5-18.5-2.2-6-.6-11.7-3.4-17.7-4.1-6.7-.8-13.5 3-20.2 4-2.8.4-3.5 2.3-4.8-1.1-1.4-3.5 2.6-6.4 4.1-8.5 1.8-2.5 1.1 1.5 2.1-2.3.3-1.1-.5-3.8-.6-4.9-.3-2.9-1.3-6.1-1.4-9-.1-2.7-.1-6.8 2.7-8.3 1.8-1 3 .4 4.6.1 12.1-2.1 26.3-2.3 38.6-.2 13.3 2.2 24.7-3.6 37.9-6 15.4-2.7 30.9-3.2 46.4-4.3 13.3-1 37.5-6.2 42.5 10.8 1.4 4.8 3.5 18-.3 22.1-5.1 5.4-16.7 3.7-23.3 5.1 1 2.8 3.9 4.7 2.9 8 9.2.4 10.8 9.1 12.2 17.1 1.5 8.3-1.4 11.7 6.6 16 11.1 6.1 22.9 12.2 22.7 26.6-.1 7.2-.9 18.2-8.4 21.9-7.3 3.7-19.1 3-27.2 4.4-15.5 2.6-31.2 5.6-46.8 7.2-16.6 1.6-33.6 3-50.3 3.8-9.1.4-16.9 1.8-25.7-1.3-8.6-3-17.1-5.2-26-7.4-8.8-2.2-35.7-5.2-27.9-20.2 1.3-2.4 5.5-4.3 6.2-6.6 1.1-3.7-2.7-6.5-2.5-9.8.3-6.1 7.1-6.8 11.9-6.8-8.1-5.1 2.7-11 2.7-15.4-.1-7.6-9.6-12.5-10.1-18.9-1.3-15.5 47.8.6 55.3 4-5.8 8.6-32.8 1.2-40.8-.1 1.1 2.9 2.1 5.5 2.5 8.4.2 2.4-.7 5.2.2 7.6 1.3 3.8 1.3 3.1 6 4.1 3.5.8 6.9 1.6 10.4 2.5 5.3 1.3 13.7 4.6 19 4.4 4.6-.1 3.7 1.3 4.5-3.9.4-2.7-.3-5.7-.8-8.4-1-5.6-2.4-11 2.6-15.1 4.7-3.9 14.7-5.7 20.5-7.1 12.6-3.1 27.4-3.8 40.6-3.7"/><path id="ink-layer_3_" class="st1" d="M895.5 762.9c-6 6.7-11.7 13-18.2 18.9 4.7-.2 20-10.6 18.2-18.9m-2.4-10.9c-3.3-4-6.6-3.6-10.7-4.8-3.8-1.1-7.4-3-11.1-4.3-2.9-1-5.8-2.4-8.8-3.3-4.1-1.4-4.5.1-8.3 3.2-13.5 10.9-28.6 18.3-42.8 27.2 4.2 5.2 13.6 5.4 18.8 7 3.8 1.2 7.4 2.8 11.1 4.8 3.4 1.8 8.9 5.9 12.4 6 3 .1 5.5-4.1 8.1-6.4 3.4-3 6.8-5.9 10.3-8.8 7.3-6.1 14.1-13.6 21-20.6m-61 44c-1.5-2.1-6.3-2-8.2-2.7-3.9-1.3-7.7-2.6-11.5-3.5-6.3-1.5-16.4-2.2-17-13.8-.6-9.6 7.7-11.9 12.5-15.2 7.2-4.9 14.7-9.5 22.1-13.7 7-4.1 14-7.5 21.2-11 1.4-.7 2.5-.6 3.6-2.2.9-1.3.6-3.6 1.6-4.9 2.2-2.9 5.2-1.4 7.8-.6 6.1 1.7 12.4 4 18.3 7.2 6.1 3.3 11.5 4 12.9 13.7 3.1-2 5.4-2.4 5.1 3.7-.1 1.8-1 3.7-1.3 5.5-.3 2.7.2 5.5-.1 8.2-1.2 9.8-10.5 17.1-16.4 20.9-7.1 4.7-16.4 11.8-24.4 12.7-8.5.8-17.7-3.8-26.2-4.3"/><path id="ink-layer_2_" class="st1" d="M549.5 695.4c-13.9-2.3-28.1-2.9-42.2-2.2.8 3.5 1.5 7 2.3 10.5 13.2-3.5 26.6-5.5 39.9-8.3zm-113.3 27c-5.6-.4-1.7 2.1-.3 5.7 1.7 4.5 1.4 10.2 1.7 14.9 16.4-6.2 35.4-9.9 52.8-12 8.2-1 16.6-1.3 24.9-1.7 2.5-.1 11.3.9 13.1-.8 1.4-1.2.4-8-.9-9.5-6.9-8.1-33.9-1.1-43.6-.4-16 1.4-31.7 4.2-47.7 3.8zm23.2-21.7c14.5 1.4 28.5 1.3 42.9 3.4-1.1-9.2.2-11.6-10.2-12.1-9.3-.4-18.6-.8-27.8-.8-20.8 0-41.6-.4-62.5-.4v9.4c19.3-1.9 38.3 1.6 57.6.5zm-69.6 34.4c9.1 0 17.8 3.4 26.9 4.3 5.5.5 3.8 1.2 7.5 4 5.9 4.3 7.6 2 6.8-3.8-2.5-19.7-27.4-15.2-41.8-16.4 1 4.7-1.2 8.7-4.4 11.9h5zm98.8-25.3c-13.1.2-26.3 1-39.4.7-5.8-.1-13.4-1.3-19.2-.3-4.2.7-7.7 2.8-12.3 3.7 6.8 3.6 10.2 1.2 17.3.3 7.1-.8 14.3-.8 21.4-1.3 11.7-.7 24.2-3.5 35.7-2.7.3-1.6-.9-1.7-3.5-.4zm-104.3 42.6c-6 0 2.3-6.8 3.4-7.6-6.7 0-8.3-4-6.4-10.4 1.8-6.1 3.2-4.2-1.4-9.3-3.5-3.8-4-6.6.1-10.9s12.5-3.1 16.2-6.7c6.3-6.1-1.8-18.2 6.8-22.8 5.8-3.1 15.3-2.7 21.8-3.4 6.2-.6 12.7-.8 19-.9 13.7-.2 27.9 2.1 41.6 3.4 5 .5 10.6 2.5 15.5 2.5 5 0 10.2-1.1 15.4-1 6 .1 11.8-.3 17.9.7 4.7.8 15.8 1.2 19.4 4.7 12.1 11.7-16.5 17.1-21.5 18.4 5 5.5 4.8 12.7 4.1 19.7 2.4 0 6.5-1.1 7.7 1.6 1.5 3.3-4.1 4.2-5.5 4.6-7.7 2.2-16.7 1.6-24.7 2.4-15.9 1.6-31.6 2.6-47.4 5.5-7.7 1.4-15.3 3.3-23 4.7-1.3.2-2.7.4-4 .6-2.1-.2-2.7 1.1-2 3.9-2.1 1.1-10.1-1.5-12.5-1.9-14-2.1-26.6-1.2-40.5 2.2z"/><path id="ink-layer_18_" class="st1" d="M305.4 787.8c1.2 0 2.3-.1 3.4-.1-1.1 0-2.2.1-3.4.1"/><path id="ink-layer_24_" class="st1" d="M279.1 790.1h3.4c-1.1-.1-2.2-.1-3.4 0"/><path id="ink-layer_30_" class="st1" d="M264.3 920.6c1.2 0 2.3 0 3.4.1-1 0-2.2 0-3.4-.1"/><path id="ink-layer_31_" class="st1" d="M314.6 830.1h2.3c-.8-.1-1.6-.1-2.3 0"/><path id="ink-layer_32_" class="st1" d="M286 833.5h2.3-2.3"/><path id="ink-layer_34_" class="st1" d="M308.8 840c-1 1-2.3.4-3.4.5 1.2-.1 2.3-.3 3.4-.5"/><path id="ink-layer_36_" class="st1" d="M272.3 842.6h-4.6 4.6"/><path id="ink-layer_40_" class="st1" d="M279.1 793.3c-1.5.1-3 .2-4.6.4 1.6-.1 3.1-.3 4.6-.4"/><path id="ink-layer_47_" class="st1" d="M230 935.2h2.3c-.8-.1-1.6 0-2.3 0"/><path id="ink-layer_106_" class="st1" d="M337.4 911.4c2.7-.1 5.4-.3 8-.4-2.7.1-5.3.3-8 .4"/><path id="ink-layer_107_" class="st1" d="M337.4 891.7c-1.5 0-3 0-4.6.1 1.5 0 3.1-.1 4.6-.1"/><path id="ink-layer_108_" class="st1" d="M314.6 869.1c1.9-.1 3.8-.3 5.7-.4-1.8 1-3.9.2-5.7.4"/><path id="ink-layer_109_" class="st1" d="M292.8 871.4c1.9-.1 3.8-.3 5.7-.4-1.9.1-3.8.3-5.7.4"/><path id="ink-layer_110_" class="st1" d="M260.8 891.9c1.5-.1 3-.2 4.6-.3-1.5.1-3 .2-4.6.3"/><path id="ink-layer_111_" class="st1" d="M268.8 891.9c1.5-.1 3-.2 4.6-.4-1.5.2-3 .3-4.6.4"/><path id="ink-layer_112_" class="st1" d="M274.5 890.8c1.5-.1 3-.3 4.6-.4-1.5.1-3 .3-4.6.4"/><path id="ink-layer_113_" class="st1" d="M282.5 851.7h-3.4 3.4"/><path id="ink-layer_114_" class="st1" d="M311.1 914.7c1.5-.1 3-.2 4.6-.4-1.4 1-3.1.4-4.6.4"/><path id="ink-layer_115_" class="st1" d="M267.7 823.4c1.5-.1 3-.3 4.6-.4-1.6.1-3.1.3-4.6.4"/><path id="ink-layer_116_" class="st1" d="M262 804.9h-3.4 3.4"/><path id="ink-layer_117_" class="st1" d="M250.6 807.2h-2.3 2.3"/><path id="ink-layer_120_" class="st1" d="M325.9 820.7h3.4c-1 .8-2.2.6-3.4 0"/><path id="ink-layer_121_" class="st1" d="M282.5 803.7h-2.3c.8.1 1.6 0 2.3 0"/><path id="ink-layer_122_" class="st1" d="M252.8 876c1.5-.1 3-.3 4.6-.4-1.5.1-3 .2-4.6.4"/><path id="ink-layer_123_" class="st1" d="M234.5 878.2l4.6-.4-4.6.4z"/><path id="ink-layer_124_" class="st1" d="M323.7 912.5c1.5-.1 3-.3 4.6-.4-1.6.1-3.1.3-4.6.4"/><path id="ink-layer_125_" class="st1" d="M268.8 919.4c1.5-.6 3-.8 4.6 0h-4.6"/><path id="ink-layer_126_" class="st1" d="M266.4 761.9l-2.2-.7c2.7 0 5.4 0 8-.1.1 0-5.5.8-5.8.8"/><path id="ink-layer_127_" class="st1" d="M246 742.1h-5.7 5.7"/><path id="ink-layer_129_" class="st1" d="M289.4 767.2H286h3.4"/><path id="ink-layer_130_" class="st1" d="M265.4 752.2c1.9.1 3.8.2 5.7.4-1.9-.2-3.8-.3-5.7-.4"/><path id="ink-layer_131_" class="st1" d="M241.4 764c1.9-.1 3.8-.3 5.7-.4-1.9.1-3.8.3-5.7.4"/><path id="ink-layer_132_" class="st1" d="M256.2 761.7c1.5-.1 3-.2 4.6-.4-1.5.1-3 .2-4.6.4"/><path id="ink-layer_133_" class="st1" d="M243.7 751c1.5.1 3 .2 4.6.4-1.6-.1-3.1-.2-4.6-.4"/><path id="ink-layer_135_" class="st1" d="M246 761.5c-.8 0-1.5-.1-2.3-.1.8.1 1.5.1 2.3.1"/><path id="ink-layer_136_" class="st1" d="M231.1 761.5h-2.3 2.3"/><path id="ink-layer_137_" class="st1" d="M272.3 760.5c0 .3 3.4-1.2 3.4.2l-3.4-.2z"/><path id="ink-layer_138_" class="st1" d="M259.7 742.1h-2.3 2.3"/><path id="ink-layer_150_" class="st1" d="M294.3 877.5c-5.3-.3-12.6-1.7-4.7-5.5 5.1-2.4 12.6-2.5 17.9-1.5 3.7.7 9.2 3.7 3.6 7.7-3.3 2.2-12.8-.6-16.8-.7"/><path id="ink-layer_151_" class="st1" d="M379.7 941.5c-1.5-.2-3-.3-4.6-.5 1.2-2.3 4.8-2.7 4.6.5"/><path id="ink-layer_152_" class="st1" d="M295.2 877.2c1.5 0 3 0 4.6.1-1.5 0-3 0-4.6-.1"/></g></g><g id="Character_x2F_zombieing"><g id="Ink_2_" transform="translate(161 54)"><path id="Fill-7_1_" class="st1" d="M743.7 82c.3-.5.6-1.1 1-1.6.4.9.5 1.3-1 1.6m.5 2.5c-.7.1-.4-1.5-.4-1.8 1.2.5.2 1.1.4 1.8m-1.1-4.6c.6-.3 1.2-.5 1.8-.8-.8 1.1-.5.4-.2 1.2-.6.1-1.2 0-1.6-.4m-3.6 8.7c-2.3 5.9-9.4 10.5-16.9 12.9-4.3 1.4-8.6 1.7-13.3 1.6-1.8-.1-3.9-.5-5.7-.4-1.3.1-1.3.1-2.4.9-.5-.6-.1-1.1-1.1-1.5-1.2-.5-1.7.1-2.3.7-.8-.6-1.1-.9-2.2-1.3h-.9c-.2 0-1.3-.6-1.6-.6-1.4-.4-3.1-.5-4.4-1.1-1.2-.5-2.1-1.8-3.4-.8 0-1.7-3.3-2.5-4.8-3.4-2.4-1.4-4.3-3.5-5.5-5.5-1.3-2.2-1.7-4.2-2.3-6.5-.4-1.6-3.1-3.8-1.5-5.4.4.7.2 1.3.9 1.9.6-.8.9-1.7 1.2-2.6.1-.4.9-1.7.8-2.1-.2-.8-1.5-.8-.8-1.7 1.5 1.2 2.8-.9 1.6-1.7-.6.5-.8 1-1 1.5-1.5-2.2 2.6-1.5 1.7-3.4 1.5-.2 2.4-.5 3-1.6.6-1.2.2-1.5 1.6-2.2.5-.3 1.9-.7 2.2-1.1.5-.9-.8-1.1.3-1.9.4.5 1.8 1.4 2.6.5.2-.2-.5-.3 0-.7.7-.6 1.5-1.2 2.8-1.1-1-1.7 5.3-1.9 6.8-2.3 1.6-.4 3-.7 4.6-.8 1.7-.1 1.8-.5 3.2-1.2.1 1 .5.8 1.5 1 .2-.3.5-.3.8-.1s.6.3 1 .3h1.8c1.4 0 2.8-.1 4.2 0 .4 0 .7-.1 1-.3.1.2.3.3.4.5.7.1.8.7 1.7 0 .3.9 1 .4 1.8.7.7.2.8.6 1.5.8.4.3.9.3 1.4.1.5.3 1 .5 1.5.8.9.4 2 .6 3 .9.6.2 1.3.4 1.9.6 0 .6.4.7 1 .6.6.4.8.3 1.4 1 1.3 1.4 2.5 2.5 4.2 3.7 7.2 5.4 9.5 13.1 6.7 20.3m2.3-23.1c-3.3-3.2-8-6.8-12.1-8.8-2.1-1-5.1-2.8-7.7-3.4-.6-.1-1.3-.1-1.9-.3-.5-.1-.7-.4-1.3-.5-.4 0-.4.6-.8.5-.8-.1-1.4-.7-1.9-1.1-1.3 1.6-1.9-1.1-3.8.7-2.2-2.5-7.3-1.9-10.9-1.8-1 0-1.5.3-2.4.5s-.9.1-1.9.1c-2.3 0-4.4.2-6.6.9-3.6 1.2-6.9 3.2-10.4 4.6-3.8 1.7-7.3 3.8-10.3 6.2-10.6 8.8-13.5 21.6-5 31.8 13.5 16.2 48.2 17.9 67.9 6.9 15.3-8.3 21.1-24.8 9.1-36.3"/><path id="Fill-11_1_" class="st1" d="M770.5 110c-3.1-.8-8.3-.6-9.1 2.3-.3 1.2.3 2.5 1.5 3.4 1.3 1 3.5 1.1 3.4-.7-.1-1.2-1.7-2.3 1.2-2.5 1.8-.2 4.4.8 4.5 2.2.2 3.2-7.5 3.4-10.3 2.9-5.6-1.1-4.1-5.3-.2-7.2 1-.5 3.8-1.3 4-2.3.2-1.4-2.2-1.1-3.3-.9-8.5 1.3-10.3 11.5-1.5 13.4 4 .9 9.7 0 12.1-2.6 2.1-2.6 2.1-6.9-2.3-8"/><path id="Fill-13_1_" class="st1" d="M658 37.9c-2.7.9-5.3 1.8-8 2.7-.9-1.3-2.4-5-4.6-5.5-3.6-.8-1.3 3.2-.7 4.2.5.8 1.7 1.9 1.4 2.8-.4 1.2-2.8 1.6-4 2.3-3.1 1.5-3.1 4.8 1.4 3.4 2.5-.8 5.6-2.9 7.6-.5.9 1.1 3 7.4 5.2 3.3 1.4-2.6-5.2-5.2-2-7.4 1-.7 2.3-.8 3.3-1.2 2.6-.9 1.2-2.7.4-4.1"/></g></g><path class="st2" d="M171 804.8l-43.6 15.8.3-.2-.1.1-.1.1-.1.2c-.1.1-.3.3-.3.4-.2.3-.4.5-.6.8-.4.6-.7 1.2-1.1 1.8-.6 1.3-1.1 2.6-1.4 3.9-.6 2.8-.5 5.6-.1 8.5.3 1.4.6 2.7 1.2 4s1.3 2.5 2.2 3.5c.9 1.1 1.8 2.1 3 3 .5.4 1.2.8 1.7 1.2.3.2.6.3 1 .5.1.1.3.1.4.3l.3.1.2.1-.7-.1L178 843c.4-.1.9.3 1 .7s-.3.8-.7 1l-44.6 6.9c-.3.1-.4 0-.6-.1-.1-.1-.2-.1-.3-.1l-.3-.1c-.2-.1-.3-.2-.5-.3-.3-.2-.7-.4-1-.6-.7-.4-1.3-.9-2-1.4-1.2-1-2.4-2.2-3.4-3.4-1-1.3-1.8-2.7-2.4-4.1-.6-1.5-1.1-3.1-1.3-4.6-.5-3.1-.5-6.3.1-9.4.3-1.6.9-3.1 1.6-4.5.3-.7.8-1.4 1.2-2 .3-.3.5-.6.7-1 .1-.1.3-.3.4-.5l.3-.3.1-.1.1-.1.1-.1c.1-.1.3-.1.3-.2l43.8-15.2c.4-.1.8.1 1 .4.1.3-.1.8-.6.9z"/><path class="st2" d="M161.7 847.2c-.5.1-.9-.1-1.2-.3-.3-.3-.6-.4-1-.7l-1.8-1.5c-1.2-1-2.2-2.2-3.2-3.4-2-2.4-3.6-5.2-4.6-8.2-.5-1.5-.8-3.1-1-4.6l-.1-1.2c-.1-.4 0-.8-.1-1.2v-.6l.1-.6c.1-.4.1-.8.1-1.2.1-.8.1-1.6.3-2.3.1-.4.1-.8.3-1.2l.3-1.2.1-.5c.1-.2.1-.3.2-.5l.4-1.1c.1-.2.1-.3.3-.5l.3-.5c.1-.3.3-.7.5-1 .1-.2.3-.3.5-.1.1.1.3.3.2.4-.1.3-.2.7-.3 1.1l-.1.5c-.1.2-.1.3-.1.5l-.3 1.1-.1.5-.1.5-.3 1.1c-.1.3-.1.7-.2 1.1-.1.7-.1 1.5-.3 2.2 0 .3 0 .7-.1 1.1v.5l.1.5c0 .3.1.7.1 1.1l.1 1.1c.3 1.4.6 2.9 1.1 4.2 1 2.7 2.5 5.2 4.4 7.4 1 1.2 2 2.2 3.1 3.1.5.5 1.2 1 1.6 1.4.3.3.6.4.9.6.3.2.6.4.7 1l.1.1c-.1.8-.4 1.3-.9 1.3zm-25.1-26.9c-.1.7-.3 1.4-.4 2-.1.7-.3 1.3-.3 2-.2 1.3-.4 2.7-.4 4-.1 1.3.1 2.7.3 4s.5 2.6 1 3.9c.5 1.2 1.1 2.4 1.8 3.5s1.6 2.1 2.5 3.1c1 1 2 1.7 3.1 2.5l.8.5c.3.2.6.3.9.5l.4.3.4.3 1 .4h.1c.5.3.8 1 .5 1.5s-.9.7-1.4.5c-1.3-.6-2.7-1.2-3.9-2s-2.4-1.7-3.5-2.7c-2.1-2-3.8-4.6-4.8-7.4-.5-1.4-.8-2.9-1-4.3-.2-1.5-.2-2.9-.1-4.4.1-.7.1-1.5.3-2.2.1-.7.3-1.4.4-2.2.4-1.4 1-2.7 1.7-4 .1-.2.4-.3.6-.1-.1-.1.1.1 0 .3zm34.8-14.9c-.1 0-.1 0 0 0h-.1c-.1 0-.1.1-.1.1l-.1.1-.1.1c-.1.1-.1.1-.2.1-.3.3-.5.5-.8.9-.5.7-1 1.5-1.3 2.2-.7 1.6-1.2 3.4-1.6 5.2-.3 1.8-.5 3.6-.4 5.4 0 .9.1 1.8.2 2.7.1.9.3 1.8.5 2.7.8 3.5 2.1 7.1 3.9 10.2.9 1.6 1.9 3.1 3.1 4.4.6.6 1.2 1.3 1.8 1.7.3.3.6.4 1 .6.3.1.6.3.9.3h.3c.1 0 .1-.1.1-.1l.1-.1c.2-.1.4-.4.7-.7.4-.6.8-1.4 1.2-2.2.6-1.6 1-3.4 1.3-5.2.1-.9.3-1.8.3-2.7.1-1 .1-1.8.1-2.7 0-1.8-.1-3.7-.5-5.4-.6-3.5-1.8-7.1-3.5-10.3-.9-1.6-1.8-3.1-3-4.5-.6-.7-1.2-1.3-1.8-1.8-.3-.3-.7-.5-1-.7-.5-.2-.9-.3-1-.3zm-.1-2.2c.4 0 .8.1 1.1.1.1.1.3.1.4.1.1.1.3.1.4.2.5.3 1 .6 1.4.9.8.6 1.5 1.4 2.2 2.2 1.3 1.5 2.4 3.1 3.3 4.8 1.8 3.4 3.3 7.1 4 10.9.3 1.9.5 3.9.6 5.8.1 2-.1 3.9-.3 5.8-.1 1-.3 2-.5 2.9-.3 1-.5 1.9-.9 2.9s-.8 1.9-1.5 2.9c-.3.4-.8 1-1.4 1.3-.1.1-.3.2-.5.3s-.3.1-.5.2c-.1 0-.2.1-.3.1s-.2.1-.3.1c-.2 0-.4.1-.5 0-.7-.1-1.3-.3-1.8-.5-.5-.3-1-.5-1.4-.9-.9-.6-1.6-1.4-2.2-2.1-1.3-1.5-2.4-3.2-3.4-4.9-1.8-3.4-3.2-7.1-3.9-10.9-.2-1-.3-2-.4-2.9-.1-1-.1-2-.1-2.9 0-2 .2-3.9.6-5.8.4-1.9 1-3.8 1.8-5.6.4-1 .9-1.8 1.5-2.7.3-.4.7-.8 1.1-1.2l.3-.3.2-.1c.1-.1.1-.1.2-.1.1-.1.1-.1.3-.1.1-.1.2-.1.3-.1l.1-.1c.1 0 .1 0 .1-.1-.3-.1-.2-.1 0-.2zM68.7 775.9l44.1-9.4-.6.3.1-.1.1-.2c.1-.1.2-.3.3-.4.2-.3.3-.5.5-.8.3-.5.6-1.1 1-1.6.5-1.2 1-2.3 1.3-3.5s.5-2.5.6-3.7c.1-1.3.1-2.5-.1-3.8-.3-2.5-1-5-2.4-7.1-.6-1.1-1.4-2-2.4-3-.4-.4-1-.9-1.4-1.3-.3-.2-.5-.4-.7-.6-.1-.1-.3-.2-.4-.3l-.2-.1-.1-.1.4.1c-3.5-.1-6.9-.2-10.3-.3l-5.2-.2-5.2-.2-5.2-.2-5.2-.3c-1.7-.1-3.5-.2-5.2-.3-.9-.1-1.7-.1-2.6-.1-.9-.1-1.7-.1-2.6-.2-.3-.1-.6-.3-.6-.7.1-.3.3-.6.6-.6h5.2c1.7 0 3.5.1 5.2.1l5.2.1 5.2.1 5.2.1 5.2.2c3.5.1 6.9.3 10.3.4.1 0 .3.1.4.1.1.1.2.1.3.1l.3.1c.1.1.3.2.5.3l.9.6c.6.4 1.2.9 1.6 1.4 1.1 1 2 2 2.9 3.3.2.3.4.6.6 1 .2.3.3.6.5 1 .3.6.6 1.3.9 2 .5 1.4.8 2.8 1 4.3.1 1.4.2 2.9.1 4.3s-.3 2.9-.7 4.3c-.4 1.4-1 2.7-1.6 4-.3.6-.7 1.3-1.2 1.8l-.6.9c-.1.1-.3.3-.3.4l-.2.2-.1.1-.1.1c-.1.2-.4.3-.6.3l-43.8 9.9c-.7.1-1.4-.3-1.6-1-.5-.9 0-1.7.7-1.8z"/><path class="st2" d="M87.2 772.8c-.1-.5 0-.8.2-1.1.1-.3.3-.6.5-.9.3-.6.6-1.2.8-1.8.5-1.3.9-2.5 1.2-3.9.6-2.7.8-5.4.7-8.1-.1-2.7-.6-5.4-1.6-8-.5-1.3-1.1-2.5-1.8-3.7-.7-1.2-1.5-2.3-2.4-3.4-.1-.1-.1-.4.1-.5.1-.1.3-.1.4 0 1.2.9 2.2 2 3 3.2s1.5 2.5 2.1 3.9c1.2 2.7 1.8 5.6 2 8.4.1 1.5.1 2.9.1 4.3-.1 1.5-.3 2.9-.6 4.3s-.7 2.9-1.3 4.2c-.3.7-.6 1.4-.9 2-.1.3-.3.6-.5 1-.1.1-.2.3-.3.4-.1.1-.3.3-.6.3-.5.2-1-.2-1.1-.6zm10.5-33.7c.6.3 1.3.7 1.8 1.2.1.1.3.2.4.3l.4.3.8.8c1.1 1 2 2.2 2.7 3.5 1.5 2.5 2.5 5.4 2.9 8.4s.3 6-.4 9c-.7 2.9-2 5.7-3.6 8.2-.3.5-1 .6-1.5.3s-.6-1-.3-1.5c.7-1.2 1.4-2.4 2-3.6.1-.3.3-.6.4-1l.3-1 .3-1c.1-.3.2-.7.3-1 .6-2.7.8-5.4.5-8.2-.3-2.7-1.1-5.4-2.4-7.9-1.3-2.4-3-4.7-5.3-6.3-.1-.1-.2-.3-.1-.5h.8zm-29.1 36.5s.1-.1.2-.1c.3-.1.5-.4.7-.7.5-.6.9-1.3 1.3-2 .7-1.5 1.3-3.1 1.8-4.8.4-1.6.8-3.4 1-5.1.1-.9.1-1.7.1-2.6 0-.9 0-1.7-.1-2.6-.1-1.8-.3-3.5-.6-5.2-.3-1.7-.7-3.4-1.2-5.2-.5-1.6-1.1-3.3-1.8-4.8-.4-.7-.8-1.5-1.3-2.1-.3-.3-.5-.6-.8-.8s-.5-.3-.7-.4h-.3c-.1 0-.2.1-.3.1-.3.1-.5.4-.7.7-.4.6-.8 1.4-1.2 2.2-.6 1.6-1.1 3.3-1.4 5-.3 1.7-.6 3.5-.7 5.2-.1 1.8-.2 3.5-.1 5.2.1 3.5.8 6.9 1.8 10.2.5 1.6 1.2 3.3 2 4.8.4.7.8 1.4 1.3 2l.7.7c.1.1.2.1.3.3 0 0 .1 0 0 0zm-.1 2.9c-.5-.1-.9-.1-1.2-.3-.3-.1-.6-.3-.8-.5-.5-.4-.8-.8-1.2-1.2-.6-.8-1.2-1.6-1.6-2.5-.9-1.7-1.5-3.5-2-5.3s-.9-3.6-1.2-5.4c-.3-1.8-.4-3.7-.4-5.5 0-3.7.3-7.3 1.2-10.9.4-1.8.9-3.5 1.6-5.3.4-.9.8-1.8 1.4-2.6.3-.4.7-.8 1.2-1.2.3-.2.6-.3 1-.4.1 0 .2-.1.3-.1h.3c.2 0 .3 0 .5.1.7.1 1.2.4 1.6.8.4.4.8.7 1.2 1.1.6.8 1.2 1.6 1.6 2.4.9 1.6 1.5 3.4 2.1 5.2 1.1 3.5 1.8 7.1 2.1 10.8.1 1 .1 1.8.1 2.8s0 1.8-.1 2.8c-.1 1.8-.4 3.7-.8 5.5s-1 3.6-1.8 5.3c-.4.9-.9 1.7-1.5 2.5-.3.4-.7.8-1.2 1.2-.3.2-.5.4-.9.5-.5.1-1 .2-1.5.2z"/><path d="M117.4 752.3c19.5-.3 41.9 5 41.2 12.7-1.2 13.6-48.4 7.8-52.3 19.4-1 2.9 1.6 5.8 4.2 7.4 2.7 1.6 5.6 2.7 8.8 3.3 1.3.3 2.7.3 4-.2s2.2-1.8 2-3.2c-.3-1.5-1.8-2.2-3.3-2.7-3.1-.9-6.5-1-9.3.6s-4.6 5.2-3.2 8.2c.7 1.6 2.1 2.7 3.5 3.6 4.8 2.9 10.7 3.4 15.9 1.4 1-.4 2.2-1.1 2.2-2.2.1-.5-.2-1-.4-1.4-1.4-2.4-4-3.9-6.5-5.3-3.4-1.8-6.9-3.5-10.7-4.5-2.8-.7-5.8-1.1-8.4.1-2.7 1.2-4.7 4-4 6.8.4 1.7 1.7 3.1 3.1 4.2 3.7 3.1 8.8 5.3 13.3 3.7.9-.3 1.7-.8 2.3-1.5 1.7-2 .6-5.2 1.2-7.7.4-2.5 2.4-4.6 4.7-5.6 2.3-1.1 5-1.2 7.4-.9 3.3.4 6.9 2 8 5.2.7 2.2-.1 4.8-1.5 6.7-1.5 1.8-3.5 3.1-5.6 4.1-6.7 3.3-19.2 4.8-29.3 5.7-15.6 1.5-28.5 7.2-27.5 14 1.5 10.2 28.1 15 46.1 12.5" fill="none" stroke="#fff" stroke-width="3" stroke-linecap="round" stroke-linejoin="round" stroke-miterlimit="10"/><path class="st2" d="M56.6 759.4c-1 .3-2 .5-2.9.6-1 .1-2 .1-2.9.1s-2 0-2.9-.1-2-.1-3-.3c-.3-.1-.4-.3-.4-.5.1-.2.1-.3.3-.3 1-.3 2-.4 2.9-.5 1-.1 2-.2 2.9-.3s2-.1 2.9-.1c1 .1 2 .1 3 .3.3.1.4.3.3.5 0 .5-.1.6-.2.6zm-.2-11.1c-.8-.1-1.5-.3-2.2-.5-.7-.3-1.4-.5-2-.8-.7-.3-1.3-.6-2-1-.6-.4-1.2-.8-1.8-1.3-.3-.2-.3-.6-.1-.8.1-.1.3-.2.5-.2.8.1 1.5.3 2.2.6s1.4.5 2 .9c.7.3 1.3.7 2 1.1.6.4 1.2.8 1.8 1.4.2.2.2.4 0 .6-.2 0-.3.1-.4 0zm1 21.8c-.5.5-1.1.9-1.6 1.3s-1.2.8-1.7 1.2c-.6.3-1.2.7-1.8 1s-1.3.6-1.9.8c-.3.1-.5-.1-.5-.3-.1-.1 0-.3.1-.4.5-.5 1-1 1.6-1.4.5-.4 1.2-.8 1.7-1.2.6-.3 1.2-.7 1.8-1s1.2-.6 1.9-.8c.3-.1.6.1.7.3-.1.2-.2.4-.3.5zm129.9 50.4c1.1-.5 2.2-1 3.3-1.2 1.2-.3 2.2-.5 3.4-.7s2.3-.4 3.5-.5c.6-.1 1.2-.1 1.8-.1.6-.1 1.2-.1 1.8-.1.3 0 .4.2.4.4s-.1.3-.3.4c-.5.3-1.2.4-1.6.6-.5.2-1.2.3-1.6.5-1.2.3-2.2.6-3.4.9-1.2.3-2.3.5-3.4.6-1.2.1-2.4.3-3.5.1-.3 0-.4-.3-.4-.5-.2-.2-.1-.4 0-.4zm-3.7-11.3c.3-.8.7-1.4 1.2-2.1.4-.6 1-1.3 1.5-1.8.5-.6 1-1.2 1.6-1.8.5-.6 1.2-1.2 1.8-1.6.2-.1.4-.1.6.1.1.1.1.3.1.5-.3.7-.8 1.4-1.2 2.1-.4.7-.9 1.3-1.4 2s-1 1.3-1.5 1.8c-.5.6-1.2 1.2-1.8 1.6-.3.2-.6.1-.8-.1-.1-.4-.1-.6-.1-.7zm4.4 23.6c.8 0 1.6.1 2.4.2.8.1 1.5.3 2.2.5s1.5.4 2.2.7 1.5.5 2.2 1c.3.1.4.5.3.7-.1.2-.3.3-.5.3-.8-.1-1.6-.1-2.4-.3s-1.5-.3-2.2-.5-1.5-.4-2.2-.7-1.5-.6-2.2-1c-.2-.1-.3-.4-.1-.6-.1-.2.1-.3.3-.3z"/></svg>