<svg version="1.1" id="Layer_1" xmlns="http://www.w3.org/2000/svg" x="0" y="0" viewBox="0 0 1024 614" xml:space="preserve"><style>.st1{fill-rule:evenodd;clip-rule:evenodd;fill:#1c2540}</style><path id="Accent" d="M738.3 488c-4.5 5.2-11.2 9.1-16.3 13.9-5.4 5-11.2 9.4-16.6 14.4-23.6-28.9-56-46.6-84-70.5-13.3-11.4-23.1-26.8-30.2-42.6-3.7-8.1-6.4-16.4-8.5-25.1-1-3.9-1.9-7.8-2.5-11.7-.8-4.8-1-5.2-4.2-8.9-1.4-1.6-4.1-6.3-6.8-5.8-2.3.4-6.5 7.4-7.9 9.1-6.9 8.3-13.7 16.8-21 24.7-11.2 12.2-21.4 24.1-31.8 37-21.2 26.4-44.2 51.2-67.3 76-1.7 1.8-5.7 7.2-8.2 8-3 .9-7.9-2.8-10.9-4.8-7.3-5-13-11.1-19.2-17.2-12.1-12-20.4-28.8-25.9-44.8-3.3-9.6-5.5-19.5-8.9-29.1-1.4-4-4.7-8.9-3-12.3.5-1 3.6-3.8 4.7-4 1.3-.2 3.5 1.5 3.9 1.4 4.3-1.2 1.9-5.7 4.5-8.1 1.4-1.4 8.8-1.2 11-1.9 8.1-2.8 15.3-8 22.9-11.2 31.9-13.2 64.1-26 91.6-47.5 7.1-5.6 11.9-9.8 20.4-13.4 8.6-3.6 17.2-6.9 26-10.1 7.7-2.8 15.5-5.4 23.5-7.4 8.6-2.2 20.9-4.9 29.6-2.1 17 5.5 22.5 19.5 29.2 34.2 9.1 20 20.2 38.8 32.2 57.2 23.2 35.3 51.2 67 73.7 102.6" fill-rule="evenodd" clip-rule="evenodd" fill="#893168"/><g id="ink" transform="translate(35 89)"><path id="ink-layer" class="st1" d="M192.2 86.5c-.9-.5-8.2 2.5-9.4 2.9-4.9 1.8-9.5 4.8-14.1 7.3 3.5 4.3 7.1 8.6 10.6 12.9 3.4-8.4 7.8-15.4 12.9-23.1zm2.4 52.8c-1.2.1 8.9 24.5 10.1 27.2 4.3 10 8.8 19.8 13.2 29.7 4.2 9.6 9.6 18.5 15 27.5 4.6 7.7 9.4 19.6 16.4 25.3-4.4-19.5-3.8-42-16.5-58.4-13.1-17-26-33.6-38.2-51.3zm508.7 260.6c-19.6-31-44.1-58.4-64.5-88.8-11.4-17-22.5-34.3-32.2-52.4-7-13.2-11.3-32-22.1-42.1-4.8-4.4-9.8-8.8-16.2-10.8-8.7-2.7-20.8 0-29.6 2.1-16.4 4-32.4 10.2-47.9 16.8-15.7 6.6-29.1 18.6-43.3 28.1-15.2 10.3-31.7 17.8-48.8 24.3-14.9 5.7-28.1 13.9-42.9 19.6-2.9 1.1-9 1-11.4 2.5-2.7 1.6-1.6 6.4-4.8 8.1-1.5.8-1.9-2.1-3.1-2-1.4.1-2.6 1.7-3.9 2.7-5.4 4.1-2.1 6.9 0 12.6 6.9 18.6 10.7 37.5 20.4 55.1 8 14.4 19.5 27.4 33 36.9 2.1 1.5 8.7 7.1 11.2 6.7 2.2-.3 6.6-6.1 8.1-7.7 6.8-7.1 13-14.8 19.8-21.9 10.5-11 20.6-22.3 30.8-33.4 11.8-12.9 22.3-27.6 32.9-41.4 4.9-6.4 11.2-11.5 16.6-17.4 7.3-7.9 14-16.5 21-24.7 2.1-2.5 5.6-8.9 8.9-8.8 2.3.1 6.3 5.4 7.5 7.1 4.4 6.3 4.4 17.6 6.6 25.4 5.4 19.1 15.1 37.8 28.5 52.5 13.3 14.7 30.3 25.1 46 36.9 17 12.8 33.1 25.8 46.6 42.3 5.4-5 11.2-9.3 16.6-14.4 5-4.8 11.7-8.7 16.2-13.9zm-251.8 87.7c3.8 0 10.2 2.4 13.6 1-10.1-11.2-19.4-20.8-32.1-28.9-13.3-8.5-26.5-16.9-39.3-26-25.9-18.3-45-39.9-55.9-70.3-2.8-7.8-4.7-16-6.7-24.1-1.1-4.3-3.3-24.6-7-26.4-2.2-1-18.8 10.6-21.4 12.1-6.1 3.4-12.3 6-18.7 8.7-13.6 5.7-27.7 10.1-42.2 13.7-17.4 4.4-29.2-2.9-39.9-16.5-12.2-15.5-22.3-32.9-33.5-49.2-5.1-7.4-9.3-14.8-13-22.9-2.5-5.3-12.2-19.7-8.8-25.4 9.6 7.3 13 21.8 19.6 31.6 8.1 12.2 17.3 23.7 25.5 35.8 6.9 10.2 13.9 22.6 24.1 30 8.9 6.5 17.4 4.5 27 1.6 11.7-3.5 23.7-5.3 35.2-9.6 12.4-4.7 24.1-11.4 36.1-16.9 5.6-2.5 12.4-4 17.7-7.2 4.6-2.7 3.9-4.2 4.2-10 .4-6.8.8-13.6 1.1-20.4.2-4.6-2.3-10.8-.6-14.2-13.7 2.4-27.1 5.6-40.7 8.4-7.4 1.5-14.6 3.4-22.1 4.7-2.9.5-6.8.4-9.4 1.7-2-.6-3.1-.2-3.1 1.1-.1.7-.3 1.4-.5 2.1-4.2 1.9-6.6-2.2-10.3-6.1-4.5-4.9-7.9-10.3-11.2-16-7.4-12.7-15.9-24.7-22.7-37.8-7-13.4-12.6-27.7-18.5-41.5-5.4-12.7-8.9-26.5-14.8-38.9-2.7-5.5-6-10.1-10-14.8-3.3-3.9-8.3-12.2-13.1-14-1.3-.5-4.7.3-6.1.2-2.9-.2-5.5-1.3-8.5-1-6.5.5-13.5 4.6-18.6 8.2 3.3 3 11.7 6.6 5.7 11.9-5.8 5.2-9-4.1-11.2-8.2-10.4 8.6-8.9 20.4-10.1 32.5-.6 6.3-2.3 12.6-3.4 18.8-.8 4.5-.2 9.1-.4 13.7-.6 11.6-1.7 22.8-1.7 34.2.1 12.3.9 24.1 1.9 36.3 1.7 20.5 5.4 41 8.7 61.3 1.8 11.4 4.3 22.5 6.7 33.8 2.8 12.8 7.8 24.8 10.7 37.6 2.9-3.7 5.1-3.7 9.8-3.2 3.6.4 6.1-.5 5.8 4.5-.1 3.3-3 5.7-6.2 6.3-4.1.7-5.6-1.3-7.7-4.5-.5 5.9 3.5 12.2 5.1 18 1.5 5.5 2.5 10.9 5 16.2 2.5 5.1 4.6 10.2 7 15.3 1.1 2.3 2.2 4.7 3.4 7.1.6 1.2 1.3 2.8 2.1 3.8 2 2.3 1.7 1.2 4.1 2.5 5.2 2.9 3.3 2.2 3.4 8.2.1 5.9 3.1 10.2 8 13.6 10.3 7 20.5 9 32.2 12.6 10.9 3.3 22.4 6.2 34 6.1 14.2-.1 28.1-1.9 42.3-2.1 15.6-.2 31.4-.1 47 .4 6.4.2 12.4.5 18.6 2.1 7.2 1.9 14.2 1.2 21.6.9 15.8-.6 32.2-1.8 47.8-2 11.2-.4 23.1-1.2 34.4-.5zm410.5 6.1c2.8 1.5 9.1.9 12 .5 5-.7 5.5-2.7 8.7-7.1 5.4-7.7 9.9-15 13.1-23.9 6.1-17 8.6-34.3 11.3-52.1 3-19.7-2.5-40.2-4.4-59.8-.4-4.5-1.1-8.9-1.8-13.4-.4-2.7-.5-11.7-2.3-14-3.4-4.4-19.1-.9-25.2-.5-17.2 1.1-34.5 1.4-51.7 1.6-9.2.1-18.4.5-27.5.6-4.2 0-8.2-.2-12.4-.6-1.4-.1-2.8-.5-4.2-.5-4.8-.3-4.5-1-5.7 3.3-2.2 7.5-.5 17-1.1 24.8-.8 10.4-1.2 20.9-1 31.3.2 9.6-.2 19.2.2 28.9.2 4 .6 7.2 1.6 11.1 1.2 4.3 2.5 14.4 5.5 17.4.3.3 2.9-.5 3.5.4 1 1.3.8 4.1 1.6 4.9 2.3 2.7 7 2.9 10.5 4.2 9.4 3.4 18.1 7 27 11.5 7.9 4 20.7 7.5 25.5 15.5 2.2 3.7 2.5 8.5 4.5 12.3 2.3 4.3-2.3 2.1 3.3 3.8 2.4.6 6.4-.2 9-.2zM25.3 445c-.7 9.9-6.3 19.4-8.3 29.2-.9 4.6-2.5 9.1-3.5 13.6-1 4.4-4.7 9.5-4.4 13.8 13.7-4.9 27.6-6.1 41.9-7.4 13.6-1.2 27.9-1.7 41.4-1.8 13.7 0 28.4-1.3 42.5-1.6 14.8-.2 29.8-.6 44.3-2.1-7.6-5.6-17.1-10.9-22.8-18.8-6.1-8.5-9.3-19.2-14.7-28.2-10.8-18.1-17.7-40.5-23.3-60.8-11.4-41-24.2-81.2-27.3-123.7-5.9 3-10.5 14.6-13.4 20.4C74 285 72 293 69.6 300.9c-5 16.2-8.5 33-14.6 49-11.6 30.8-19.1 63.9-29.7 95.1zm744.1-238.7c2.5 18.3 7.9 36.9 8.1 55.4 0 4.1-.6 8.6.2 12.6.9 4.3 3.9 8.1 5.6 12.2 2.7 6.5 9.6 19.8 2.9 25.2-.1-5.2-4.9-11.8-7.3-16.4-3.6-6.9-8.4-13.1-12.3-19.8-8.2-14-17.4-27.7-28-40.1-10.3-12-22.2-22.7-33.1-34.2-3.3-3.4-29.6-36.6-30.7-36.1 8.2 31.5 22.1 58.9 41.1 85.3 9.3 12.9 20.5 21.4 31.9 32.4 9.4 9.1 27.3 18.9 24 33.8 14.8-1.4 29.4-3.7 44.3-3.7-2.5-18.9-4.3-37.4-8.7-56-5-21.1-8.3-42.8-12.5-64-4.3-21.7-11.6-42.7-16.1-64.4-4.3-20.7-8.1-41.4-11.2-62.4-2.6 11.6-1.7 24.4-2.6 36.2-1 12.1-.9 24-.5 36.2.4 22.8 2.8 45.2 4.9 67.8zm64-107.9c.1-9.7 2-19.2 2.5-28.9.2-3 3.1-23.2.4-24.2-2.3 4.9-2.8 11.3-4.9 16.4-2.1 5.2-4.8 10.1-6.8 15.3-4.3 11.3-5.7 24.1-6.2 36.1-1 27.2-1.6 54.2.2 81.4.8 11.6 1.4 23.3 1.2 35-.2 12.8-2.2 24 .2 36.7 2.4 12.6 3.8 25.2 4.6 37.9.6 9 .8 8.3 9.3 7.7 6.2-.5 12.4 0 18.6-.3-2.9-35-3.4-70-8-104.9-2.4-17.8-2.4-35.8-5.4-53.5-1.5-8.8-3.9-17.4-5.3-26.2-1.3-9.5-.5-19-.4-28.5zm-626.1-22c16.5 1.4 34 6.4 50.9 3.1-2.8-1.1-10.1-2.7-6.8-7.1 3.3-4.5 9 1.2 12.3.6 2.1-.4 6.6-8.9 7.8-10.7 2.9-4 3.2-4.7 8.4-5.8 5-1 6.1.1 6.8-4.9.7-5.7-1.2-12.1-1.1-18 .4-12.6 4.5-23.6 8.3-35.4-16 3.5-31.7 7.6-48.1 9.9-7 1-17.9 3.2-24.3-1.6-1.7-1.2-1.4-2.9-2.7-4.4-2.3-2.4-6.5-4.9-9.7-5.6-19.8-4.2-21.8 24.1-11.8 34.7 2.5 2.7 6 4 8.5 6.4 3.4 3.2 3.7 6.7 4.2 11.6.9 9.3-.3 18.6-4.3 27.1l1.6.1zm240.8 133.5c5.9 1.1 12 .9 17.8 1.8 2.1.3 8.3 1.5 10.2.3 2.8-1.9 3.8-8.7 5.1-11.9 2.3-5.6 5.6-10.5 7.8-16.2 9.1-23.3 17.5-46.6 28.5-69.1-4.2-1.1-7.4-1.1-11.7-1.7-4.4-.6-8.4-3.2-12.6-4.3-4-1.1-8.2-.8-12.2-2-2.2-.7-4.1-2.2-6.2-2.7-3.4-.8-7.4-1.3-9.5.9-2.1 2.3-2.8 8.7-4 11.6-3 8-6.6 15.6-9.1 23.8-2.3 7.3-4.5 14.6-6.5 22-2.1 7.8-6.3 14.3-8.9 21.8-1.9 5.7-3.8 11.5-4.1 17.6-.3 5.9-1.1 6.3 4.8 7.2 3.2.5 7.8 2.3 10.6.9zm385.5 277.2c1.5.7 3 .6 4.3-.3-13.2-5.6-26.1-13.3-39.9-17.2-12.9-3.6-25.5-7.9-38-12.3-10.1-3.6-19.2-6.4-28.4-12.7-5.6-3.8-10.5-8.2-14.3-13.8-4.3-6.3-5.2-15.2-9.8-20.8-6.2 6.8-13.5 12-20.9 17.4-2.5 1.9-8.7 6-9.5 8.9-1.1 3.7 1.8 7.2 3.3 10.9 3.7 9.5 5.6 19 7.6 28.9.8 4 2.6 9.9 5.8 11.6 3 1.5 11.5.4 15.2.1 19.2-1.5 38.1-2.9 57.5-1.6 21.9 1.4 45.3 2.5 67.1.9zM872 310.9c3.5 0 6.9-.4 10.4-.4-2-9.4 2.7-21.5 4.4-30.9 1.9-10.5 3.3-21.3 4.5-31.9 2.6-22.2 3.8-44.2 3.8-66.6 0-21.7 4-41.5 9.5-62.4 5.9-22.4 15.7-42.5 23.7-64.1-8.8 4.7-13.7 15.6-18.3 23.9-5.9 10.5-9.8 22.2-12.2 34.1-4.6 22.8-9.7 45.7-15 68.5-5.5 23.7-8.8 47.7-15.2 71.2-3.1 11.5-7.3 25.6-7.5 37.4-.1 4.9-1.6 15.2.6 19.4 2.2 4.1 6.8 2.2 11.3 1.8zm-527.5-29.4c-.2 2.4-.4 4.8-.8 7.2 4.8 0 11-5.1 15.1-7.3 5.1-2.7 10.1-5.8 15.1-8.5 9.6-5.3 20.4-8.8 30.6-13.2 11.7-5 22.5-11.1 33.7-17.2 3.9-2.1 32-14.3 31.6-17.6-6.2-.2-12.3-.4-18.5-.6-5.3-.2-13.5 1-18.6-.6-2.8-.9-5.9-4.2-6.9-6.8-1-2.6 1.3-14.3-.1-15.1-6.9 7.1-11.3 16.4-17.4 24-6.8 8.4-15.6 13.3-25.4 17.8-10.7 4.9-21.9 8.8-32.8 13-4.6 1.8-4.5 2.8-4.9 7.9-.6 5.6-.5 11.3-.7 17zm557.9 213.3c11.6 1.2 23.6.5 35.3 1.5 4.3.4 10.2.9 5.9 6.6-2.7 3.6-11.4 2.5-15.3 2.7-10.5.7-21.7.3-32.3.2-2.2 0-4.7-.7-6.9-.5-2.6.2-5.7 2-8.1 2-1.5 0-2-1.5-3.2-1.7-2.7-.3-5.5-.5-8.2-.5-41.8 0-83-.8-124.7-.9-19.9 0-40.2-.4-60.1-1.3-4.2-.2-28 .7-27.4-6.9.3-3.9 8.1-4.4 11-4.8 2.1-.3 4.3-.3 6.4-.4 5.6-.3 8 1 6.9-5.1-4.5-23.2-12.5-42.4-29.7-59.1-14-13.7-30.9-26-46.8-37.5-19.3-13.9-34.9-28.4-46.4-49.6-6.7-12.4-12.3-25-15.7-38.7-1.2-4.9-1.3-10.5-2.8-15.3-1.2-3.7-3.8-6.2-5.4-10-19.2 32-44.6 58.9-67.9 87.8-11.1 13.8-23.9 26.9-37.2 38.9-4 3.6-7.6 7.3-11.3 11.1-3.1 3.2-8 6.1-10.6 9.6-2.5 3.4-1.9 3.3 1.9 6 5 3.6 10.6 6.6 15.7 10.1 8.2 5.6 17.1 10.3 24.4 17 7.9 7.3 14.8 15.7 21.7 23.9 4.6 5.5 10.6 12.5 11.8 19.4.4 2.3 1.8 7.9-.1 9.6-1.6 1.4-1.5.9-3.5 0-2.7-1.1-3.5-3.8-6.7-5-8.3-3.2-18.4-2.1-27.1-2.1-8.7 0-17.4.9-26.1.9-19.8-.1-39.2 1.5-59 2.4-21 .9-42.3-1.3-63.3-1-15.5.2-31.5-.9-47.4-.1-8.2.4-16.3-.6-24.3-.7-10.5-.2-21.2 1.3-31.8 1.5-17.4.3-34.5.3-52 .8-37.6.9-74.9 1.8-112.5 2.4-5 .1-10.5-.1-15.5.5-5.3.6-2.5 1.7-6.2 3.6-10.1 5.3-7.8-14.3-7.5-18.2 1.3-20.7 6.6-41 12.9-60.6 6-18.6 10.9-38.1 15.9-57.2 5.6-20.8 12.8-40.8 19.4-61.5 6.7-21.1 12.2-43.1 24.4-61.8 2.8-4.3 5.7-8.9 10.1-11.6 5-3 5.2-1.3 5.2-6.8 0-5.2.3-12.1-.9-17.1-1.1-4.5-.9-1.8-3.4-5-2-2.6-4.2-4.4-5.6-7.6-9 9.1-29.5 4.3-38.1-2.2-10.6-8-18.7-21.5-21.6-34.4-2.4-10.3.5-30 12-35 5.6-2.4 26-4.3 26.9-12.1.4-4.1-6.8-9.8-8.4-13.3-3.1-6.5-6-15.1-6.9-22.2-1.8-13.9 4.5-29.5 14.5-38.8 18.4-17.2 50.8-26 74.5-15.1-5-19.1-8-35.6-5.5-55.5C128-41 138.1-50.6 152-59.2c23.7-14.6 56-20.3 83.2-16.1 6.2 1 12.1 3 17.8 4.7 8.3 2.4 18.2 1.6 26.1 5.5 5.7 2.8 10 8.4 15 12.2 5.8 4.4 10.7 10.9 14.7 16.9 8.7 12.9 5.3 36.8-2 49.7-1.6 2.8-3.5 5.1-6 7-2.7 2-6.8 2.6-8.1 5.1-3.5 6.5-.1 20.7.3 27.8.5 8.2-3.6 14.4-12.9 15-5.4.4-5.6-2.7-8.1 3.7-1.7 4.2-3.2 8.7-5.6 12.5-5 7.9-14.1 7.1-22.4 6.9-9.6-.2-19.1-1.8-28.7-2.7 2.5 8.1 9.5 14.4 13.8 21.7 5.9 9.8 9.4 17.9 10.4 29.3.7 8.8-.8 15.7-6.9 22.2-2.5 2.7-4.7 2.8-4.1 6 .4 1.9 3.7 5 4.8 6.6 3.1 4 6.7 7.7 9.4 12 10.4 16.5 13.5 41.7 13.5 60.9 0 .9.5 2.8.1 3.7-.3.7-2.5 2.8-2.5 3-.4 2.5 2 6.7 5.8 7.1 4 .4 11.2-2.9 14.9-4 5.9-1.7 11.9-3 17.8-4.8 9.5-2.9 19-5.2 28.7-7.5 4.4-1 8.8-1.9 13.2-2.8 5-1.1 7.3-3.2 9.9 1.9 2.2 4.4.8 5.2 6.2 3 5.3-2.2 10.5-4.9 15.7-7.4 9.2-4.3 20.1-8.2 28-14.6 13.2-10.7 18.1-27.8 30.7-39.1 3.5-3.2 5.6-3.2 7.8-7.6 2.4-4.7 3.6-10.7 4.9-15.8 2.2-8.8 3.8-17.7 5.7-26.5 2.5-11 7.8-21 11.7-31.4 1.5-4.1 2.3-9.3 4.8-13 .7-1 1.9-1.5 2.4-2.3 1.7-2.8 1.7-3.5 2.2-6.9 2.1-15.6 11.4-7.4 21.5-3.8 4.3 1.5 24.6 11.2 16.8 17.7 9.2 2.7 24 1.2 23.9 14.5-.1 6.8-4.1 14-6.3 20.4-1.9 5.6-3.8 11.3-5.8 16.9-4.3 12.3-9.5 24.3-13.7 36.7-1.9 5.6-3.5 11.4-6.2 16.7-2.4 4.7-8 9.9-9 15 24.6-10.5 47.4-25.7 75-24.7 12.1.4 23 5.5 29.7 16.1 8.4 13.3 13.9 28.2 22 41.6 29.7 48.8 65.1 93.2 97.8 140 2.5 3.6 5.7 7 6.6 11.4.6 2.9-.5 5.8.1 8.6 1.4 5.8 8.5 13 13.4 16.3 9.3 6.4 24.3 15.4 35.9 14.6-7.3-17.4-7.2-36.5-6.8-55.2.3-17.7 2.2-35.2 4.5-52.7.5-4 1-7.6 2.1-11.5 1.3-4.4 3.1-4-.8-7.9-6-6.1-13.2-11.1-19.2-17.3-13.1-13.3-26.6-23.8-36.9-39.7-9.8-15.1-20.2-30.7-27.4-47.3-7.5-17.1-10.5-35.3-14.2-53.4-1.5-7.3-7-15.5-5.9-23.2 1.4-9.7 5.9-2.6 7.7 2.6 5.6 15.9 18.6 30.1 29.5 42.9 11.7 13.8 26 25.4 38.2 38.8 13.3 14.6 22.4 31.4 34.2 47 0-19.4-6.6-39.1-9.3-58.2-2.4-16.9-3.1-33.8-4.6-50.7-3.4-38.5-.5-78 4.3-116.2 2.3-18.1 1-35.8 1.1-54 0-5.8-2.4-19.1.7-24.3 5.9-9.8 9.3 11.7 9.6 14.9 1.8 19.1-1.4 38 .2 57.1 1.7 19.9 5.4 39.2 8.5 58.8 3.4 21.3 8.9 42.1 14.2 62.9 5.5 21.9 10.2 44.3 16.4 66 1.7-6.8-.7-15.2-1.1-22.2-.7-10-1.9-19.9-2.1-29.9-.2-15.9-.3-32.1.6-47.9.9-15.6.6-32 5.4-47 2.3-7.1 5.6-14.1 8.9-20.8 4-8.3 5.4-16.3 7.7-25.1 1.9-7.6 4.7-14.9 6-22.6.8-4.8 3-18.9 8.5-8.2 3.2 6.2 1.8 15.4 1.9 22.1.1 8.6-1.2 16.9-1.4 25.4-.4 16.7-.7 33.4-1.9 50.1-1.3 17.5-.2 33.2 3.2 50.5 3.6 18.9 4.7 37.8 6.6 57 1 9.9 2.6 19.7 3.4 29.6.4 5.2-1.7 20.3 2 24 .4-9.1 3-18.2 4.9-27 2.3-10.5 3.3-21.5 5-32.1 2.8-17.2 8.2-33.7 11.8-50.7 7.4-35.1 13.5-80.2 44.4-103.1 4-3 8.5-5.2 12.9-7.7 2.5-1.4 6.2-5 9-5.7 3.1-.7 4.4-.2 5.6 3.4 1.7 5-1.4 7.3-4.4 11-10.3 12.6-14.7 28.7-21.1 43.4-14.6 33.7-21.1 69.3-21.1 105.8 0 19.1-1.4 37.5-3.4 56.5-2.2 20.4-5.1 42-11.3 61.7 6.2 1.4 13-.7 14.7 6.5.4 1.8-.3 3.9.1 6.2.4 2.2 1.5 4.5 2.2 6.7 1.3 4.6 2 9.1 2.6 13.8 2.5 18.1 6.7 35.4 7.2 53.8.4 17-2.9 34.2-6 50.9-3.1 16.8-12 31.1-18.9 46.3h8.5z"/><path class="st1" d="M507.4 456.2c-3.3.9-19.3 2.7-19.3 7.7 0 3 16 2.9 18.8 3.3.2-3.6.4-7.3.5-11m35.3 34.6c9.2 1.8 21.7-.7 27.6-8.8 2.8-3.8 4.1-9.6 5-14.1.9-4.3 3.5-15.1 1.7-19.1-2.2-5-23.4.2-29.5.8-10.7 1-21.9 1.1-32.6.4 0 11.1-.6 21.9 6 31.5 4.6 6.9 13.4 8.5 21.8 9.3m-1.8 13.7c-10-3.7-20.5-1.3-27-12-1.7-2.7-3-5.7-4-8.7-.5-1.3-.9-2.7-1.1-4.1.5-3-.6-3.8-3.3-2.5-5.3-1-11.1 2.6-16.7 1.5-13.5-2.6-11.1-22-2-28.7 1.8-1.3 3.6-1.7 5.6-2.4 4.5-1.4 7 .2 11.1-.2 3.4-.3 4.3-3.8 7.9-5.4 2.4-1 5.6-.9 8.1-1 13-.5 26-.5 39-1.4 6.1-.4 12.7.6 18.6-.5 2.8-.5 2.4-2.3 5-.7 2.7 1.7 1.6 7.9 1.4 10.4-.8 14.4-1.7 29.8-9.4 42.4-7 11.6-20.9 12.8-33.2 13.3m-528.4 4c3.2 0 6.4-.1 9.6-.1-3.2 0-6.4.1-9.6.1m893.8-306.9v-9.3 9.3M87.5 214.3v9c-.1-3 0-6 0-9M355 505.1h7.7-7.7m-155.5-.6h7.7-7.7m560-125.1c-.1 2-.2 4.1-.3 6.1 0-2.1.1-4.1.3-6.1m142.9 115.4c-2 0-4 0-5.9-.1 2-.7 4-.7 5.9.1m-175.7 9.1c1.4 0 2.8 0 4.2-.1-1.3 0-2.8 0-4.2.1m178.8-277.2c0-1.5.1-3.1.1-4.6 0 1.6 0 3.1-.1 4.6M772.7 32.3c-.1-1.6-.2-3.2-.4-4.8.2 1.7.3 3.2.4 4.8m133.5 175.4c0-1.6 0-3.2.1-4.8 0 1.6-.1 3.2-.1 4.8M459.5 501.9c1.3 0 2.5 0 3.8.1-1.2-.1-2.5-.1-3.8-.1m325.3 2.6c1.2 0 2.5 0 3.7.1-1.2-.1-2.4-.1-3.7-.1m133.4-111.7l-.3-4.2.3 4.2m-22.2 113h3-3m-136.9-1.3c1 0 2 0 3-.1-1 .1-2 .1-3 .1m-223.7-.7h3.3-3.3m-252.6 0h3.1-3.1m-61.4.1c1.1-.1 2.1-.1 3.2-.2-1.1.1-2.2.2-3.2.2M515.6 99.3c-1.6-.1-3.2-.3-4.7-.4 1.5.1 3.2-.8 4.7.4m402.7 396.1c-1.6-.2-3.1-.3-4.7-.5 1.6.2 3.2.4 4.7.5M809.7 108.9c-.1 1.4-.2 2.7-.3 4.1.1-1.4.2-2.7.3-4.1m96.9 56.9l.3-3.9-.3 3.9m-97.5-35.7c-.1 1.4-.2 2.7-.3 4.1 0-1.4.1-2.8.3-4.1m96.9 88v-3.9c.8 1.2.7 2.5 0 3.9M759.5 407.2v4c-.9-1.4-.8-2.7 0-4m99.3-152.7c-.2-1.3-.3-2.7-.5-4 .2 1.3.3 2.6.5 4M36.5 131.8c-1 1.4-2.4.4-3.7.6 1.3-.2 2.5-.4 3.7-.6m510.8 308.8h-3.9 3.9m208.5-303.1c.1 1.1.2 2.2.4 3.3-.2-1.1-.3-2.2-.4-3.3M110.9 27.2c-1.3 0-2.6.1-3.9.1 1.2-.8 2.5-1 3.9-.1M809 149.3c-.1 1.2-.2 2.3-.3 3.5.2-1.2.2-2.4.3-3.5M773 6.4c.1-1.1.2-2.1.3-3.2-.1 1.1-.2 2.1-.3 3.2m-10.3-3.3c-.1 1.2-.2 2.3-.3 3.4.1-1.1.2-2.3.3-3.4M192.8-73.8c-1.3.2-2.7.3-4 .5 1.4-.2 2.7-.3 4-.5M96.4 28.1c-1.4.1-2.7.3-4.1.4 1.4-.1 2.7-.2 4.1-.4m750.8 3.4c.1-1.1.2-2.1.2-3.2-.1 1.1-.2 2.1-.2 3.2M51.5 208.3h2.4-2.4m711.3 132.1c-.1 1.2-.2 2.4-.2 3.6 0-1.2.1-2.4.2-3.6m80.5-230.8c0-1.1-.1-2.3-.1-3.4 0 1.2 0 2.3.1 3.4M226.4-76.5h-3.6c1.2-.8 2.4-.8 3.6 0m325 269c-1.3 0-2.7.1-4 .1 1.3-.9 2.6-.9 4-.1m116.4 309.3c.8 0 1.6 0 2.4.1-.8 0-1.6 0-2.4-.1m29.8 1.4c.8 0 1.6-.1 2.4-.1-.8.1-1.6.1-2.4.1m-465.7.6c.8 0 1.6 0 2.5.1-.9-.1-1.7-.1-2.5-.1m685.6-124.3c-.1-1.1-.2-2.3-.4-3.4.2 1.2.3 2.3.4 3.4M810 189c.1 1.1.2 2.2.3 3.2-.1-1-.2-2.1-.3-3.2m41.4-18.5c-.1-1.1-.3-2.3-.4-3.4.1 1.2.3 2.3.4 3.4m-612.8 334h2.5c-.9-.1-1.7-.1-2.5 0"/><path class="st1" d="M540.9 504.5c.8 0 1.6-.1 2.4-.1-.8.1-1.6.1-2.4.1M844.6 87.2c0-1.2-.1-2.3-.1-3.5.1 1.1.1 2.3.1 3.5m-684.7 418h2.4-2.4m684.4 0h2.5-2.5m18-.1c.8.1 1.6.1 2.4.2-.8-.1-1.6-.1-2.4-.2m7.2 0c.8 0 1.6 0 2.4.1-.7-.1-1.5-.1-2.4-.1m37.3-330c-.1-1.1-.1-2.3-.2-3.4.1 1.2.2 2.3.2 3.4M357.5 490.2c2.5-.1 5-.3 7.5-.4-2.5.1-5 .2-7.5.4M207.3 76.4c2.2.2 4.3.4 6.5.6-2.2-.3-4.3-.4-6.5-.6m610.1 93.9c.1 2.1.1 4.1.2 6.2 0-2.1-.1-4.1-.2-6.2M862 493.7c2.3.1 4.5.3 6.8.4-2.3.1-4.6.8-6.8-.4m-13.3-243.9v-5.9 5.9m-5.8 61.8c2 0 4 .1 5.9.1-1.9-.1-3.9-.1-5.9-.1M344.6 277c0 1.5-.1 3-.1 4.5 0-1.5.1-3 .1-4.5m531.3-63.5c-.1 1.5-.2 3-.2 4.5 0-1.5.1-3 .2-4.5m-42.3 273.6c1.4-.1 2.9-.2 4.3-.3-1 .8-2.1.9-4.3.3m-9.6-195l.3 4.8-.3-4.8M285.6 38.3v-4.7 4.7m540.1 273.6l5.4-.1c-1.8.9-3.6.9-5.4.1m49.6 11.5h-3.8 3.8M411.8 487.7c1.8 0 3.5 0 5.3.1-1.8.8-3.6 1-5.3-.1m-330.1 5.1c1.8-.2 3.6-.3 5.3-.5-1.7.2-3.5.4-5.3.5m736.4-309.2l.3 4.8c-.2-1.6-.3-3.2-.3-4.8M250.5 80.2c1.5-.7 3-.9 4.5-.1-1.5 0-3 0-4.5.1m518.5 122c.1 1.4.2 2.7.4 4.1-.1-1.4-.2-2.7-.4-4.1m126.7-31.8c-.8-1.3-.7-2.7 0-4v4M872 310.9c1.5-.5 3.1-1.1 4.6 0-1.5.1-3 0-4.6 0M373.4 489.6c1.6-.1 3.1-.3 4.7-.4-1.6.1-3.1.2-4.7.4m-212.8 0c1.4-.6 2.8-1 4.2 0h-4.2m290.9-2c1.5-.7 3-1 4.5 0h-4.5M113 290.8c.1 1.4.2 2.7.3 4.1-.1-1.3-.2-2.7-.3-4.1m353-79.1c1.5-.5 3-.8 4.5.1-1.5 0-3 0-4.5-.1m352 40.9c.1 1.3.2 2.7.2 4 0-1.3-.1-2.6-.2-4M112 131.5c-.1 1.1-.2 2.2-.4 3.2.1-1 .3-2.1.4-3.2M25.3 445c-.1 1.1-.2 2.1-.2 3.2 0-1.1.1-2.1.2-3.2m824.1-185.3l-.3-3.3.3 3.3m-109 225.8h4-4M344.1 286.3c.2.8.5 1.6.7 2.4-1.6.3-1.8-.4-.7-2.4m100-76.3h4.1c-1.4.6-2.8 1-4.1 0m-330.4 87.3c0 1.2.1 2.4.1 3.6 0-1.2 0-2.4-.1-3.6M128 490.9h3.9-3.9M772.3 310c0 1.1.1 2.2.1 3.3 0-1.1 0-2.2-.1-3.3m-672 182.2c1.3-.9 2.6-.8 3.9 0h-3.9m33.8-376.1c.1 1.1.1 2.3.2 3.4 0-1.2-.1-2.3-.2-3.4M93.6 492.3h4c-1.3 1-2.7 1-4 0M833.4 98.4V95v3.4M220.1 78.3c1.3.2 2.6.3 3.8.5-1.3-.1-2.6-.3-3.8-.5m-112.8 98.9c0 1.1 0 2.1.1 3.2-.1-1-.1-2.1-.1-3.2m734.7-.1c-.1-1.1-.1-2.2-.2-3.3.1 1.1.1 2.2.2 3.3m-298.1 314c1.6.1 3.2.3 4.7.4-1.5-.2-3.1-.3-4.7-.4m-5.2-40.9h-2.5c.8.1 1.6.1 2.5 0m0 40.2c1.3.1 2.6.3 4 .4-1.3-.1-2.6-.2-4-.4m-238-89c1.7 9.7-13.4 19.2-14.6 5.4-.4-5.1 2.9-8.6 6.7-11.7 5.4-4.4 8.4-.2 7.9 6.3M134.1 282.7c3.6 1.5 30.8 10.3 16.6 14.8-3.7 1.2-9.4 1.4-12.6-.7-3.9-2.5-7.8-9.9-4-14.1m6.7-131.7c9.2-1.1 17.7 14.1 6.4 13.6-8.3-.3-19.4-13.6-6.4-13.6m33.1 37.2c7.7 6.7-6.6 21.8-12.3 16-2.9-3-.2-9.4 2.2-11.9 2.4-2.6 6.8-3 10.1-4.1m22.9 174.4c-4.6.7-24.6 7.3-20.4-4.6 1.6-4.5 6-3.2 10.1-3 6.6.3 10.3 0 10.3 7.6m-13.2 30.6c6.8 3.6-3.1 24-8.8 19.7-7.8-6 2.9-17.9 8.8-19.7m29.7-16.4c3.3-1.4 18.9 13.7 13 17.8-3 2.1-8.8-1.5-10.7-3.7-3.4-4.2-3.7-9.3-2.3-14.1M123.2 254c3.4.6 9.2.7 9.5 5.5.2 4.2-5.1 5.5-8.7 5.9-3.8.3-8.9-.7-9-5.6-.1-5.2 8.1-4.9 8.2-5.8m83.5 207.1c3.6 2.2 20.4 10.1 13.2 15.8-2.7 2.1-10.9-2.3-12.7-4.5-2.2-2.8-4.3-9-.5-11.3m46.8-57.2c-.5-8.7 14.2-12.2 11.1.2-.9 3.5-1.7 8.8-6 9-5.1.2-5.3-5.9-5.1-9.2m-45.3-151.3c.1 6.6-12.5 12.4-12.6 2-.2-9.4 13-12.2 12.6-2m-8.4-34.4c3.1 1 7.3 1.5 7.5 5.5.3 4.2-3.6 6.1-7.1 5.8-2.9-.2-7.1-2.3-7.6-5.4-.8-4.6 3.7-4.9 7.2-5.9M141.9 339c-.1-5.4 10.9-12 12.9-5.7.6 2-4.5 11.1-6.2 11.8-4.6 1.8-5.2-2.4-6.7-6.1m89.4 90.7c-3.7 3.3-14.8 12.6-13.9.1.5-8 14.9-7.5 13.9-.1m180.2 35.6c1.2-5.2 18.5 3.8 12.7 10.5-1.9 2.2-7 .2-9-1.1-3.7-2.7-3.8-5.1-3.7-9.4m-96.4-112.1c.7-2.3 1.4-6.5 3.7-7.9 4-2.7 7.5 1.4 7.5 5.7 0 7.9-9.1 10.4-11.2 2.2m-42.9 93.4c4.5 1 14.5 12 8.7 16.4-5.6 4.3-13-13.1-8.7-16.4m4.3-82.7c5.8.5 13.7 9.8 4.7 11.3-7 1.2-15.2-9-4.7-11.3m52.3 43.1c1.4-4.9 15.8.3 15 5.7-.4 2.9-6.3 3.5-9.4 2.8-4.5-1.1-5.7-4.1-5.6-8.5M159.9 134.4c.1-6.3 12.2-8.9 13.1-2.5.8 5.7-13.3 11.8-13.1 2.5M324.8 472c.9-3.2 1.3-7 5.2-7.4 4.5-.5 4.4 3 3.9 6.6-1.5 9.8-7 10.3-9.1.8M133.3 209.5c-6.3 1.4-17.9-10.7-10.8-13.4 5-1.8 10.8 9.7 10.8 13.4m80.6 94.5c-3.2 1.5-4 2.4-6.4-.1-2.2-2.2-2.1-8.2-.2-10.4 7.1-8.6 6.9 7 6.6 10.5m26.3-17.5c3.4.4 13.3 9.9 8.1 13.6-6.3 4.7-9.9-9.7-8.1-13.6m72.6 2.5c-2.4 9.4-8.5 3.1-8.2-4 .5-11.4 6.9-1.5 8.2 4m37 150.9c4.1 1.7 9.7 17.5 3.8 18.3-6.6.9-4.4-15.1-3.8-18.3m-51.5-8.9c4.7-1.6 6.5 8.4 3.7 10.2-6.1 4.1-4.8-7.8-3.7-10.2"/><path class="st1" d="M253.5 403.9c-.1 1.3-.1 2.6-.2 4 .1-1.4.1-2.7.2-4m158 61.4c0 1.4-.1 2.7-.1 4.1 0-1.4.1-2.8.1-4.1M328.8 407c0 1.1-.1 2.3-.1 3.4 0-1.1.1-2.3.1-3.4M851 387.2c9.8-.3 20.7-4 30.3-2.8 2.6.3 8.7 1 4.5 4.9-2 1.9-11.7.9-14.7 1.5-18 3.8-38.4 6.3-56.8 5.9-8.6-.1-17.3-.8-25.9-1.3-8.6-.5-9.5-4 .2-5.1 10.1-1.2 20.4-.7 30.5-.7 10.7.1 21.3-1.7 31.9-2.4m21.5-23.6c-.9 2.7-1.8 8.8-5.4 9.2-5.1.6-5.9-8.1-5.7-11.3.2-3.8 1.6-10.2 6.4-8.9 4 1.2 4.4 8 4.7 11m-30.6-1.9c.7-2.9 1.1-9.3 5.2-9.6 4.5-.2 5.8 6.5 5.8 9.7 0 3.1-1.2 8.9-4.8 9.6-4.9 1-5.4-6.5-6.2-9.7m-51 5.1c-1.5 3.5-2.4 8.2-7 5.9-3.5-1.8-4-9.2-3.3-12.5.7-3.5 2.1-7.5 6.1-5.9 4.6 1.7 4.1 8.7 4.2 12.5m38.6-3.2c-4.3 13.2-12.3 4.3-9.2-5.6 3.1-10.2 8.8-.2 9.2 5.6m-21.1.7c-1.2 2.3-2.5 7.3-5.7 6.8-4-.6-4.1-8.3-3.7-11.2.4-2.5 1.5-6.7 4.8-6.6 4.8.1 4.5 8 4.6 11m86.5 2.5c-3.2 7.2-7.7 1-6.3-4.1 2.2-7.7 6.1-.9 6.3 4.1"/><path class="st1" d="M815.8 389.7h-10.6c3.6-.7 7.1-1 10.6 0m70.1-5.3c-3.1 0-6.1 0-9.2.1 3.1-1 6.1-1 9.2-.1m-34.9 2.8c-2.4.2-4.9.3-7.3.5 2.4-.2 4.8-.3 7.3-.5m-60.1-20.4c0-1.8 0-3.5-.1-5.3.9 1.8.9 3.6.1 5.3m19.2 29.9h4.2c-1.4.1-2.8.1-4.2 0m-23.9-1.2h4.3-4.3m11.8-5.7c-2 .2-4 .3-6 .5 2-.1 4-.3 6-.5m27.1-.1h-5.9c1.9-.9 3.9-.9 5.9 0m-16.7-25.4c0-1.8-.1-3.7-.1-5.5 0 1.8 0 3.7.1 5.5m-27.8-4.2v5.4c-.1-1.8-.1-3.6 0-5.4m81.6 26.4c-1.7.2-3.5.3-5.2.5 1.7-.1 3.5-.3 5.2-.5m32.7-19.7c-.1-1.6-.1-3.1-.2-4.7.1 1.6.2 3.1.2 4.7m-74.3 30c1.2 0 2.4 0 3.6-.1-1.1 0-2.4.1-3.6.1m8.9-33.2c-.1-1.2-.2-2.3-.2-3.5 0 1.2.1 2.4.2 3.5M202.9 25.1c-4.8-1.3-5.7-8-4.9-12.1.9-2 1.7-4 2.6-6-.3-.7-.7-1.5-1-2.2.4-4.1-.7-5.9 4-4.2 8.7 3.1 10.1 24.2-.7 24.5m70.7-13c3.9-.3 11.1 4.3 7.2 8.7-2.4 2.7-10.4 1.4-13.7 2-4.3.8-8.8 1.8-6.5-4.7 1.8-5 8.4-6.1 13-6m-4.1 30.5c-4-3.2-2.2-17.8 3.9-15.2 6.2 2.7-.6 13.1-3.9 15.2"/><path class="st1" d="M198 13v4.6c-.9-1.5-.9-3.1 0-4.6m4.9 12.1c.8 0 1.6 0 2.4-.1-.8.1-1.6.1-2.4.1m493.7 420.7c-.4 6.6-7.5 1.7-7-2.7 1-8.1 5.5-.1 7 2.7"/></g></svg>