<svg xmlns="http://www.w3.org/2000/svg" width="328" height="134"><path d="M319.772 54.293c.437 3.097 2.096 6.158 4.458 8.187.902.775 4.441-.7 3.615-1.41-2.268-1.948-3.791-4.842-4.21-7.812-.145-1.034-4.034-.181-3.863 1.035zm-68.145 19.301c-3.908.652-7.978 1.766-11.462 3.685-1.319.727-8.872 5.937-5.024 7.846 3.828 1.9 9.722-.412 13.405-1.572 7.259-2.285 14.296-5.536 20.781-9.51a1617.53 1617.53 0 00-3.009-.655c-1.019 1.367-8.907 11.358-4.299 11.504 2.89.092 5.748-2.712 7.906-4.234 3.062-2.161 6.463-3.435 9.59-5.411 4.263-2.693 28.168-22.045 19.438-27.751-4.228-2.763-10.029.086-13.555 2.695-7.176 5.31-13.267 15.623-13.923 24.543-.458 6.235 4.643 9.617 10.385 9.308 7.308-.395 13.767-4.518 18.063-10.291l-3.605-.111c-1.548 2.726-7.586 11.696-.56 10.184 2.116-.456 17.886-6.007 16.624-9.03-.204-.488-.716-.564-1.188-.604-4.281-.36-14.407 7.229-10.07 11.677 3.463 3.549 15.567-4.984 13.496-7.282-.47-.521-1.473-.392-2.06-.232-5.12 1.383-7.865 9.534-2.974 12.544 1.105.68 4.667-.915 3.066-1.9-2.005-1.233-2.194-2.86-1.575-4.944.279-.939.885-1.798 1.431-2.6.229-.335 1.758-1.423.586-1.106l-2.059-.232c.075.084-2.934 2.66-3.21 2.86-2.816 2.036-4.913.351-2.903-2.619 1.18-1.743 3.338-3.098 5.219-3.968l-1.602-.734a8.542 8.542 0 01-1.217.848c-.919.582-1.91 1.074-2.88 1.562-1.605.808-3.257 1.523-4.911 2.222-.896.378-1.804.72-2.715 1.057-2.396.887-.626.299-.632.333.436-2.726 2.386-5.538 3.737-7.921.972-1.711-2.916-1.038-3.605-.111-3.496 4.696-9.23 8.935-15.42 8.062-6.01-.848-5.986-7.334-4.763-11.886 1.883-7.011 6.574-14.651 12.46-19.007 2.203-1.63 8.912-3.922 8.226 1.277-.581 4.401-5.382 8.914-8.224 11.927-3.467 3.676-7.289 7.218-11.493 10.036-3.981 2.671-8.421 4.604-12.421 7.408-.509.355-1.026.697-1.554 1.024.897.607 1.357.488 1.379-.357.394-1.374 1.402-2.722 2.153-3.92 1.012-1.614 2.124-3.175 3.262-4.703 1.129-1.515-2.46-.991-3.009-.655-7.721 4.731-16.714 8.961-25.716 10.461-6.116 1.019-.594-3.854 1.91-5.073 2.472-1.203 5.293-1.986 8.006-2.439 1.862-.319 3.178-2.65.515-2.205zM140.341 58.979c-1.294-.16-2.571-.406-3.844-.683-2.826-.613-3.734-1.517-.563-2.633 2.066-.727 3.888-1.763 6.25-2.476 7.967-2.404 16.064-4.411 24.135-6.433 14.99-3.756 30.052-6.99 45.179-10.12 16.802-3.477 33.555-7.444 49.965-12.47 7.268-2.226 14.563-4.665 21.404-8.007 3.5-1.71 8.164-4.007 9.578-7.937 1.513-4.203-4.34-6.396-7.334-6.813-7.164-.998-14.667.793-21.412 3.097-7.878 2.69-15.376 6.789-21.467 12.502-6.567 6.16-9.386 15.064-11.38 23.611-2.329 9.983-1.302 20.033 2.19 29.604 4.795 13.143 14.518 23.398 20.447 35.905 3.675 7.752 3.877 15.259-4.32 19.672-4.13 2.223-8.802 3.802-13.346 4.857-5.883 1.366-15.208 1.813-20.082-2.557-2.864-2.568 1.101-5.434 3.108-6.718 2.209-1.414-1.094-2.255-2.461-1.381-2.175 1.393-5.975 3.866-5.517 6.999.493 3.37 4.128 4.764 6.979 5.683 9.719 3.131 20.519.234 29.596-3.493 5.435-2.231 11.127-5.57 12.421-11.74 1.906-9.088-6.243-19.691-10.965-26.55-7.401-10.751-13.918-22.372-15.291-35.562-1.058-10.164 1.804-21.87 6.544-30.849 4.33-8.202 13.365-13.402 21.628-16.823 6.873-2.845 15.878-5.499 23.315-3.485 6.121 1.657 2.747 6.21-.666 8.382-6.183 3.934-13.619 6.212-20.534 8.446-16.578 5.354-33.635 9.325-50.667 12.934-14.713 3.117-29.401 6.14-44.012 9.74-8.533 2.102-17.059 4.262-25.508 6.679-2.253.644-4.5 1.317-6.701 2.122-2.222.812-6.553 1.658-7.829 3.802-2.29 3.847 7.816 4.884 9.716 5.119 1.647.205 4.05-2.102 1.444-2.424zM120.189 99.71c-.154 4.388 6.969.442 8.678-.438 6.584-3.389 13.054-7.011 19.47-10.707 7.058-4.067 14.089-8.255 20.716-13 3.688-2.639 9.632-6.907 9.268-12.085-.421-5.985-15.773 2.372-17.087 3.118-8.4 4.771-17.648 11.567-22.686 20.018-1.951 3.271-.235 6.615 3.646 6.239 7.23-.701 13.552-8.26 18.189-13.007l-3.525.188c-1.582 1.736-11.289 12.582-6.001 13.95 2.75.711 6.228-1.315 8.479-2.577 5.324-2.986 10.084-7.183 14.298-11.561 1.066-1.107-2.793-.323-3.262-.035-4.556 2.801-5.313 10.482 1.096 10.737 7.133.284 15.021-4.407 19.916-9.202l-3.525.188c-3.071 4.033-4.727 10.546 2.348 8.074 5.478-1.914 10.399-6.724 14.678-10.512l-3.676.407c-1.827 3.17-4.98 10.85 1.729 9.384 5.411-1.183 9.682-6.397 12.946-10.541l-3.676.407c-.613 1.727-3.709 9.006-.32 9.298 3.789.326 7.583-4.329 10.032-6.541 2.088-1.885 4.149-3.813 6.387-5.521 1.064-.813-2.543.174-3.171.813-1.463 1.49-1.21 4.009.165 5.468.609.646 1.59.979 2.3 1.513 1.533 1.15-.059 3.774-.643 4.971-.369.757 3.315.419 3.826-.627.896-1.835 2.049-3.98.442-5.715-.595-.642-1.603-.979-2.301-1.513a2.425 2.425 0 01-.798-1.422c-.247-.773-1.589-2.057-.598-2.106 2.871-.146 5.165-4.165 1.291-3.337-4.321.923-8.027 5.497-11.146 8.312-1.194 1.079-2.395 2.151-3.638 3.175-2.418 1.992.276.746.223-.275-.122-2.29 1.014-4.982 1.773-7.118.383-1.077-3.235-.152-3.676.407-2.187 2.775-4.618 5.432-7.38 7.642-4.321 3.458-.775-5.856.056-7.299.539-.935-3.217.001-3.676.407a113.509 113.509 0 01-7.554 6.111c-1.042.773-4.612 3.114-4.621 3.109-2.071-1.186 1.388-6.092 2.2-7.158.919-1.206-2.931-.396-3.525.188-3.66 3.586-9.42 7.472-14.77 7.259-4.472-.178-2.132-7.24.281-8.724l-3.262-.035a76.072 76.072 0 01-8.895 7.889c-1.377 1.043-8.822 6.661-7.865 2.276.836-3.826 4.456-7.52 7.035-10.353.925-1.015-2.86-.493-3.525.188-1.812 1.854-11.384 13.051-14.384 10.675-3.485-2.76 2.669-8.576 4.389-10.42 6.309-6.763 14.689-12.854 23.274-16.31 7.968-3.208 2.306 6.043-.213 8.309-8.03 7.223-18.361 12.481-27.688 17.777a517.006 517.006 0 01-13.25 7.267c-1.412.748-2.83 1.484-4.258 2.201-1.773.889-.727.592-.676-.86.031-.757-3.816-.205-3.86 1.034zm9.735-10.815c-18.766 7.289-36.905 16.664-54.053 27.161-1.696 1.038 2.218.753 3.001.273 16.626-10.178 34.252-19.272 52.447-26.339 2.552-.992.155-1.697-1.395-1.095zm-16.045-19.55c16.17-2.275 32.48-6.916 47.234-13.894 11.991-5.67 23.51-14.318 24.117-28.706.568-13.467-10.792-21.725-22.654-24.75-20.15-5.14-43.143.504-62.233 7.275-21.732 7.708-42.336 18.725-60.984 32.272-14 10.169-28.943 22.646-36.599 38.556-5.095 10.589-3.354 25.438 7.046 32.285 5.351 3.522 12.356 3.756 18.525 3.442 10.058-.512 20.053-3.35 29.646-6.212 7.634-2.279 15.169-4.888 22.679-7.544 2.539-.898.235-2.393-1.57-1.754-12.343 4.366-24.804 8.588-37.612 11.38-8.088 1.763-17.474 3.291-25.468.313C2.412 106.944 1.711 89.004 7.51 78.029c9.016-17.061 26.389-30.083 42.03-40.607 19.825-13.341 41.883-23.996 64.966-30.286 16.503-4.498 36.551-7.718 52.761-.531 9.812 4.351 15.606 13.826 13.642 24.523-2.565 13.964-16.175 20.616-28.044 25.522-12.177 5.034-25.439 8.552-38.502 10.39-1.924.271-3.147 2.679-.484 2.305z"/></svg>