<svg xmlns="http://www.w3.org/2000/svg" viewBox="0 0 54 64"><defs><style>.cls-1{fill:#ff7f66}.cls-4{fill:#2a344f}</style></defs><g id="Layer_2" data-name="Layer 2"><g id="Layer_1-2" data-name="Layer 1"><g id="Group_16" data-name="Group 16"><g id="Group_15" data-name="Group 15"><g id="Group_12" data-name="Group 12"><path id="Path_35" data-name="Path 35" class="cls-1" d="M53.52 1.87l-22 5.39a1.61 1.61 0 01-1.23-.21L19.89.25a1.57 1.57 0 00-1.3-.19l-18 5.3a.77.77 0 00-.59.73v10.78l18.59-5.47a1.57 1.57 0 011.3.19l10.4 6.79a1.53 1.53 0 001.23.21L54 13.09V2.23a.39.39 0 00-.39-.38z"/><path id="Path_36" data-name="Path 36" class="cls-1" d="M40.25 27.84l-8.73 2.1a1.57 1.57 0 01-1.23-.21l-10.4-6.8a.37.37 0 00-.53.11.31.31 0 00-.07.2v10.23a.75.75 0 00.34.63l10.66 7a1.57 1.57 0 001.23.2l9.23-2.21A6.86 6.86 0 0046 32.45v-.21a4.62 4.62 0 00-4.68-4.55 4.93 4.93 0 00-1.07.15z"/><path id="Path_37" data-name="Path 37" class="cls-1" d="M40.25 50.52l-8.73 2.1a1.61 1.61 0 01-1.23-.21l-10.4-6.8a.38.38 0 00-.53.1.35.35 0 00-.07.21v10.23a.75.75 0 00.34.63l10.66 7a1.53 1.53 0 001.23.21l9.23-2.22A6.84 6.84 0 0046 55.13v-.21a4.62 4.62 0 00-4.68-4.55 4.39 4.39 0 00-1.07.15z"/></g><path id="Path_38" data-name="Path 38" d="M30.86 41.29V30a1.63 1.63 0 00.66 0l3.76-1 2.2 10.8-6 1.46a1.47 1.47 0 01-.62.03zm8.82 9.33l-8.16 2a1.63 1.63 0 01-.66 0V64a1.63 1.63 0 00.66 0l10.36-2.54zm-8.82-32a1.63 1.63 0 00.66 0l1.57-.38-2.23-10.96z" style="isolation:isolate" opacity=".32" fill="#2a344f"/><g id="Group_13" data-name="Group 13" opacity=".16"><path id="Path_39" data-name="Path 39" class="cls-4" d="M19.29 11.36a1.82 1.82 0 01.6.23l10.4 6.8a1.41 1.41 0 00.57.22V7.27a1.41 1.41 0 01-.57-.22L19.89.25a1.82 1.82 0 00-.6-.23z"/><path id="Path_40" data-name="Path 40" class="cls-4" d="M30.86 52.64a1.67 1.67 0 01-.57-.23l-10.4-6.8a.39.39 0 00-.54.11.36.36 0 00-.06.2v10.23a.75.75 0 00.34.63l10.66 7a1.73 1.73 0 00.57.22z"/><path id="Path_41" data-name="Path 41" class="cls-4" d="M19.89 22.93a.39.39 0 00-.54.11.36.36 0 00-.06.2v10.23a.75.75 0 00.34.63l10.66 7a1.58 1.58 0 00.57.22V30a1.43 1.43 0 01-.57-.23z"/></g></g></g></g></g></svg>