<svg xmlns="http://www.w3.org/2000/svg" viewBox="0 0 182 69"><path d="M8.3 65l-1.2-3.8c-.1-.2-.2-.7-.4-1.5-.2.7-.3 1.2-.4 1.6L5 65H3.9l-1.8-6.4h1c.4 1.6.7 2.8.9 3.7.2.8.3 1.4.4 1.7 0-.2.1-.5.2-.9s.2-.6.3-.8l1.2-3.7h1.1l1.1 3.7c.2.7.4 1.2.4 1.7 0-.1.1-.4.1-.7.1-.3.5-1.9 1.2-4.7h1L9.4 65H8.3zm6.8.1c-.9 0-1.7-.3-2.2-.9s-.8-1.4-.8-2.4.3-1.9.8-2.5 1.2-.9 2.1-.9c.8 0 1.4.3 1.9.8s.7 1.2.7 2.1v.7H13c0 .8.2 1.3.6 1.7.4.4.9.6 1.5.6.7 0 1.4-.1 2.1-.4v.9c-.3.1-.7.3-1 .3h-1.1zm-.3-5.8c-.5 0-.9.2-1.2.5s-.5.8-.5 1.4h3.4c0-.6-.1-1.1-.4-1.4-.4-.4-.8-.5-1.3-.5zm7.3-.8c.8 0 1.5.3 2 .9.5.6.7 1.4.7 2.4s-.2 1.9-.7 2.5-1.1.9-2 .9c-.4 0-.8-.1-1.1-.2-.3-.2-.6-.4-.9-.7H20l-.2.7h-.7v-9.1h1v3.5c.4-.6 1.1-.9 2-.9zm-.1.8c-.7 0-1.1.2-1.4.6-.3.4-.4 1-.4 1.9s.2 1.5.5 1.9c.3.4.8.6 1.4.6s1-.2 1.3-.7c.3-.4.4-1.1.4-1.9 0-.8-.1-1.5-.4-1.9-.4-.3-.8-.5-1.4-.5zM33.5 65l-.2-.9c-.3.4-.6.7-1 .8-.3.1-.7.2-1.2.2-.6 0-1.1-.2-1.5-.5s-.5-.8-.5-1.4c0-1.3 1-2 3.1-2h1.1v-.4c0-.5-.1-.9-.3-1.1-.2-.2-.6-.4-1-.4-.5 0-1.1.2-1.8.5l-.4-.8c.3-.2.7-.3 1-.4.4-.1.8-.1 1.1-.1.8 0 1.3.2 1.7.5.4.3.6.9.6 1.6V65h-.7zm-2.2-.7c.6 0 1.1-.2 1.4-.5.3-.3.5-.8.5-1.4v-.6h-1c-.8 0-1.3.1-1.7.4-.3.2-.5.5-.5 1 0 .4.1.6.3.8.4.2.7.3 1 .3zm7.5.8c-.9 0-1.7-.3-2.2-.9s-.8-1.4-.8-2.4c0-1.1.3-1.9.8-2.5s1.3-.9 2.2-.9c.3 0 .6 0 .9.1.3.1.6.1.7.2l-.3.8c-.2-.1-.4-.2-.7-.2-.3-.1-.5-.1-.7-.1-1.3 0-2 .8-2 2.5 0 .8.2 1.4.5 1.8.3.4.8.6 1.4.6.5 0 1.1-.1 1.6-.3v.9c-.2.3-.7.4-1.4.4zm5.8 0c-.9 0-1.7-.3-2.2-.9s-.8-1.4-.8-2.4c0-1.1.3-1.9.8-2.5s1.3-.9 2.2-.9c.3 0 .6 0 .9.1.3.1.6.1.7.2l-.2.9c-.2-.1-.4-.2-.7-.2-.3-.1-.5-.1-.7-.1-1.3 0-2 .8-2 2.5 0 .8.2 1.4.5 1.8.3.4.8.6 1.4.6.5 0 1.1-.1 1.6-.3v.9c-.4.2-.9.3-1.5.3zm5.8 0c-.9 0-1.7-.3-2.2-.9s-.8-1.4-.8-2.4.3-1.9.8-2.5 1.2-.9 2.1-.9c.8 0 1.4.3 1.9.8s.7 1.2.7 2.1v.7h-4.4c0 .8.2 1.3.6 1.7.4.4.9.6 1.5.6.7 0 1.4-.1 2.1-.4v.9c-.3.1-.7.3-1 .3h-1.3zm-.2-5.8c-.5 0-.9.2-1.2.5s-.5.8-.5 1.4h3.4c0-.6-.1-1.1-.4-1.4-.4-.4-.8-.5-1.3-.5zm8.4 3.9c0 .6-.2 1.1-.7 1.4-.4.3-1.1.5-1.9.5-.9 0-1.5-.1-2-.4v-.9c.3.2.6.3 1 .4s.7.1 1 .1c.5 0 .9-.1 1.2-.2.3-.2.4-.4.4-.7 0-.2-.1-.5-.3-.6-.2-.2-.6-.4-1.3-.6-.6-.2-1-.4-1.3-.6l-.6-.6c-.1-.2-.2-.5-.2-.8 0-.5.2-.9.6-1.2.4-.3 1-.5 1.8-.5.7 0 1.4.1 2 .4l-.3.8c-.6-.3-1.2-.4-1.8-.4-.5 0-.8.1-1 .2-.2.1-.4.3-.4.6 0 .2 0 .3.1.4.1.1.2.2.4.3s.6.3 1.1.5c.8.3 1.3.6 1.5.8.5.4.7.7.7 1.1zm5.7 0c0 .6-.2 1.1-.7 1.4-.4.3-1.1.5-1.9.5-.9 0-1.5-.1-2-.4v-.9c.3.2.6.3 1 .4s.7.1 1 .1c.5 0 .9-.1 1.2-.2.3-.2.4-.4.4-.7 0-.2-.1-.5-.3-.6-.2-.2-.6-.4-1.3-.6-.6-.2-1-.4-1.3-.6l-.6-.6c-.1-.2-.2-.5-.2-.8 0-.5.2-.9.6-1.2.4-.3 1-.5 1.8-.5.7 0 1.4.1 2 .4l-.3.8c-.6-.3-1.2-.4-1.8-.4-.5 0-.8.1-1 .2-.2.1-.4.3-.4.6 0 .2 0 .3.1.4.1.1.2.2.4.3s.6.3 1.1.5c.8.3 1.3.6 1.5.8.6.4.7.7.7 1.1zm2.6 1.8h-1v-6.4h1V65zm-1.1-8.2c0-.2.1-.4.2-.5s.2-.2.4-.2.3.1.4.2c.1.1.2.3.2.5s-.1.4-.2.5-.2.2-.4.2-.3-.1-.4-.2c-.1-.1-.2-.2-.2-.5zm6.1 1.7c.8 0 1.5.3 2 .9.5.6.7 1.4.7 2.4s-.2 1.9-.7 2.5-1.1.9-2 .9c-.4 0-.8-.1-1.1-.2-.3-.2-.6-.4-.9-.7h-.1l-.2.7h-.7v-9.1h1v3.5c.5-.6 1.1-.9 2-.9zm-.1.8c-.7 0-1.1.2-1.4.6-.3.4-.4 1-.4 1.9s.2 1.5.5 1.9c.3.4.8.6 1.4.6s1-.2 1.3-.7c.3-.4.4-1.1.4-1.9 0-.8-.1-1.5-.4-1.9-.3-.3-.8-.5-1.4-.5zm5.5 5.7h-1v-6.4h1V65zm-1.1-8.2c0-.2.1-.4.2-.5s.2-.2.4-.2.3.1.4.2c.1.1.2.3.2.5s-.1.4-.2.5-.2.2-.4.2-.3-.1-.4-.2c-.1-.1-.2-.2-.2-.5zm4.1 8.2h-1v-9.1h1V65zm3 0h-1v-6.4h1V65zm-1-8.2c0-.2.1-.4.2-.5s.2-.2.4-.2.3.1.4.2c.1.1.2.3.2.5s-.1.4-.2.5-.2.2-.4.2-.3-.1-.4-.2c-.2-.1-.2-.2-.2-.5zm5.2 7.5h.5c.2 0 .3-.1.4-.1v.7c-.1.1-.3.1-.5.1s-.4.1-.6.1c-1.2 0-1.9-.7-1.9-2v-3.8h-.9v-.5l.9-.4.4-1.4h.6v1.5h1.9v.8h-1.9v3.8c0 .4.1.7.3.9.2.2.5.3.8.3zm1.1-5.7h1l1.4 3.7c.3.8.5 1.4.6 1.8.1-.2.2-.5.3-1 .2-.5.7-2 1.6-4.5h1l-2.8 7.3c-.3.7-.6 1.2-1 1.5s-.8.5-1.3.5c-.3 0-.6 0-.9-.1V67c.2 0 .5.1.7.1.7 0 1.1-.4 1.4-1.1l.4-.9-2.4-6.5zm12.9 6.5c-.9 0-1.7-.3-2.2-.9s-.8-1.4-.8-2.4.3-1.9.8-2.5 1.2-.9 2.1-.9c.8 0 1.4.3 1.9.8s.7 1.2.7 2.1v.7h-4.4c0 .8.2 1.3.6 1.7.4.4.9.6 1.5.6.7 0 1.4-.1 2.1-.4v.9c-.3.1-.7.3-1 .3h-1.3zm-.2-5.8c-.5 0-.9.2-1.2.5-.3.3-.5.8-.5 1.4h3.4c0-.6-.1-1.1-.4-1.4-.4-.4-.8-.5-1.3-.5zM107 65l-2.4-6.4h1l1.4 3.8c.3.9.5 1.5.6 1.7 0-.2.2-.6.4-1.3.2-.7.7-2.1 1.5-4.3h1l-2.4 6.4-1.1.1zm8.5 0l-.2-.9c-.3.4-.6.7-1 .8-.3.1-.7.2-1.2.2-.6 0-1.1-.2-1.5-.5s-.5-.8-.5-1.4c0-1.3 1-2 3.1-2h1.1v-.4c0-.5-.1-.9-.3-1.1-.2-.2-.6-.4-1-.4-.5 0-1.1.2-1.8.5l-.3-.7c.3-.2.7-.3 1-.4.4-.1.8-.1 1.1-.1.8 0 1.3.2 1.7.5.4.3.6.9.6 1.6V65h-.8zm-2.2-.7c.6 0 1.1-.2 1.4-.5.3-.3.5-.8.5-1.4v-.6h-1c-.8 0-1.3.1-1.7.4-.3.2-.5.5-.5 1 0 .4.1.6.3.8.3.2.6.3 1 .3zm5.9.7h-1v-9.1h1V65zm3-6.4v4.2c0 .5.1.9.4 1.2.2.3.6.4 1.1.4.7 0 1.2-.2 1.5-.6s.5-1 .5-1.8v-3.4h1V65h-.8l-.1-.9h-.1c-.2.3-.5.6-.8.7-.4.2-.8.3-1.2.3-.8 0-1.4-.2-1.8-.6s-.6-1-.6-1.8v-4.2l.9.1zm10.4 6.4l-.2-.9c-.3.4-.6.7-1 .8-.3.1-.7.2-1.2.2-.6 0-1.1-.2-1.5-.5s-.5-.8-.5-1.4c0-1.3 1-2 3.1-2h1.1v-.4c0-.5-.1-.9-.3-1.1-.2-.2-.6-.4-1-.4-.5 0-1.1.2-1.8.5l-.3-.7c.3-.2.7-.3 1-.4.4-.1.8-.1 1.1-.1.8 0 1.3.2 1.7.5s.6.9.6 1.6V65h-.8zm-2.2-.7c.6 0 1.1-.2 1.4-.5.3-.3.5-.8.5-1.4v-.6h-1c-.8 0-1.3.1-1.7.4-.3.2-.5.5-.5 1 0 .4.1.6.3.8.3.2.6.3 1 .3zm7 0h.5c.2 0 .3-.1.4-.1v.7c-.1.1-.3.1-.5.1s-.4.1-.6.1c-1.2 0-1.9-.7-1.9-2v-3.8h-.9v-.5l.9-.4.4-1.4h.6v1.5h1.9v.8h-1.9v3.8c0 .4.1.7.3.9.2.2.5.3.8.3zm3.1.7h-1v-6.4h1V65zm-1-8.2c0-.2.1-.4.2-.5.1-.1.2-.2.4-.2s.3.1.4.2c.1.1.2.3.2.5s-.1.4-.2.5c-.1.1-.2.2-.4.2s-.3-.1-.4-.2c-.2-.1-.2-.2-.2-.5zm8.6 5c0 1-.3 1.9-.8 2.5-.5.6-1.3.9-2.2.9-.6 0-1.1-.1-1.5-.4s-.8-.7-1-1.2c-.2-.5-.4-1.1-.4-1.8 0-1 .3-1.9.8-2.4.5-.6 1.2-.9 2.2-.9.9 0 1.6.3 2.1.9.6.6.8 1.4.8 2.4zm-4.8 0c0 .8.2 1.4.5 1.9s.8.6 1.4.6c.6 0 1.1-.2 1.4-.6.3-.4.5-1.1.5-1.9 0-.8-.2-1.4-.5-1.9-.3-.4-.8-.6-1.5-.6-.6 0-1.1.2-1.4.6-.3.4-.4 1.1-.4 1.9zm10.9 3.2v-4.2c0-.5-.1-.9-.4-1.2-.2-.3-.6-.4-1.1-.4-.7 0-1.2.2-1.5.5-.3.4-.5 1-.5 1.8V65h-1v-6.4h.8l.2.9c.2-.3.5-.6.8-.7.4-.2.8-.3 1.2-.3.8 0 1.4.2 1.7.6.4.4.6 1 .6 1.8V65h-.8zm8.2-.7h.5c.2 0 .3-.1.4-.1v.7c-.1.1-.3.1-.5.1s-.4.1-.6.1c-1.2 0-1.9-.7-1.9-2v-3.8h-.9v-.5l.9-.4.4-1.4h.6v1.5h1.9v.8h-1.9v3.8c0 .4.1.7.3.9.2.2.5.3.8.3zm7.7-2.5c0 1-.3 1.9-.8 2.5-.5.6-1.3.9-2.2.9-.6 0-1.1-.1-1.5-.4s-.8-.7-1-1.2c-.2-.5-.4-1.1-.4-1.8 0-1 .3-1.9.8-2.4.5-.6 1.2-.9 2.2-.9.9 0 1.6.3 2.1.9.6.6.8 1.4.8 2.4zm-4.9 0c0 .8.2 1.4.5 1.9.3.4.8.6 1.4.6.6 0 1.1-.2 1.4-.6.3-.4.5-1.1.5-1.9 0-.8-.2-1.4-.5-1.9-.3-.4-.8-.6-1.5-.6-.6 0-1.1.2-1.4.6-.2.4-.4 1.1-.4 1.9zm12.2 0c0 1-.3 1.9-.8 2.5-.5.6-1.3.9-2.2.9-.6 0-1.1-.1-1.5-.4s-.8-.7-1-1.2c-.2-.5-.4-1.1-.4-1.8 0-1 .3-1.9.8-2.4.5-.6 1.2-.9 2.2-.9.9 0 1.6.3 2.1.9.5.6.8 1.4.8 2.4zm-4.9 0c0 .8.2 1.4.5 1.9.3.4.8.6 1.4.6.6 0 1.1-.2 1.4-.6.3-.4.5-1.1.5-1.9 0-.8-.2-1.4-.5-1.9-.3-.4-.8-.6-1.5-.6-.6 0-1.1.2-1.4.6-.2.4-.4 1.1-.4 1.9zm7.6 3.2h-1v-9.1h1V65zM79.8 43h-1.6l-6.3-22c-.5-1.8-.9-3.3-1.2-4.5-.2 1.1-.5 2.4-.9 3.9s-2.5 9-6.3 22.6h-1.7L54 14.4h2.1l5 18.4c.2.7.4 1.4.5 2.1.2.6.3 1.2.4 1.8.1.5.3 1.1.4 1.6l.3 1.5c.3-1.8 1-4.5 2-8.1l4.9-17.3h2.2l5.7 19.9c.7 2.3 1.1 4.1 1.4 5.5.2-.9.4-1.9.6-3 .3-1.1 2.3-8.5 6-22.4h2L79.8 43zm26.7-10.1H94.9l-4 10.1h-2.2l11.5-28.7h1.3L112.7 43h-2.2l-4-10.1zm-10.9-1.8h10.2l-3.9-10.3c-.3-.8-.7-1.9-1.2-3.4-.4 1.2-.7 2.4-1.2 3.4l-3.9 10.3zm38-16.7h2.2L125.1 43h-1.8l-10.6-28.6h2.1l7.2 19.4c1.1 2.9 1.8 5.1 2.2 6.6.3-1 .8-2.5 1.5-4.6l7.9-21.4zM155.5 43h-15.6V14.4h15.6v1.8h-13.6V27h12.9v1.8h-12.9V41h13.6v2z" fill="#fff"/><circle cx="22" cy="27" r="22" fill="#4876b4"/><path d="M0 17c6.1 0 4.9 20 11 20s4.9-20 11-20 4.9 20 11 20 4.9-20 11-20" fill="none" stroke="#fff" stroke-width="4"/></svg>